<?xml version="1.0" encoding="us-ascii" standalone="no"?><svg xmlns="http://www.w3.org/2000/svg" xmlns:xlink="http://www.w3.org/1999/xlink" contentStyleType="text/css" height="631px" preserveAspectRatio="none" style="width:1630px;height:631px;" version="1.1" viewBox="0 0 1630 631" width="1630px" zoomAndPan="magnify"><defs/><g><!--cluster GE--><g id="cluster_GE"><path d="M8.5,278.2168 L233.5,278.2168 A3.75,3.75 0 0 1 236,280.7168 L243,307.498 L293.5,307.498 A2.5,2.5 0 0 1 296,309.998 L296,464.7168 A2.5,2.5 0 0 1 293.5,467.2168 L8.5,467.2168 A2.5,2.5 0 0 1 6,464.7168 L6,280.7168 A2.5,2.5 0 0 1 8.5,278.2168 " fill="#999999" fill-opacity="0.40000" style="stroke:#99999966;stroke-width:1.5;"/><line style="stroke:#99999966;stroke-width:1.5;" x1="6" x2="243" y1="307.498" y2="307.498"/><text fill="#FFFFFF" font-family="sans-serif" font-size="20" font-weight="bold" lengthAdjust="spacing" textLength="224" x="10" y="298.7812">Global Environment</text></g><!--cluster PDIR--><g id="cluster_PDIR"><path d="M347.5,7.2168 L544.5,7.2168 A3.75,3.75 0 0 1 547,9.7168 L554,36.498 L638.5,36.498 A2.5,2.5 0 0 1 641,38.998 L641,479.7168 A2.5,2.5 0 0 1 638.5,482.2168 L347.5,482.2168 A2.5,2.5 0 0 1 345,479.7168 L345,9.7168 A2.5,2.5 0 0 1 347.5,7.2168 " fill="#D9C499" fill-opacity="0.40000" style="stroke:#99999966;stroke-width:1.5;"/><line style="stroke:#99999966;stroke-width:1.5;" x1="345" x2="554" y1="36.498" y2="36.498"/><text fill="#FFFFFF" font-family="sans-serif" font-size="20" font-weight="bold" lengthAdjust="spacing" textLength="196" x="349" y="27.7813">Project Directory</text></g><!--cluster VENV--><g id="cluster_VENV"><path d="M1089.5,264.2168 L1406.5,264.2168 A3.75,3.75 0 0 1 1409,266.7168 L1416,293.498 L1620.5,293.498 A2.5,2.5 0 0 1 1623,295.998 L1623,450.7168 A2.5,2.5 0 0 1 1620.5,453.2168 L1089.5,453.2168 A2.5,2.5 0 0 1 1087,450.7168 L1087,266.7168 A2.5,2.5 0 0 1 1089.5,264.2168 " fill="#999999" fill-opacity="0.40000" style="stroke:#99999966;stroke-width:1.5;"/><line style="stroke:#99999966;stroke-width:1.5;" x1="1087" x2="1416" y1="293.498" y2="293.498"/><text fill="#FFFFFF" font-family="sans-serif" font-size="20" font-weight="bold" lengthAdjust="spacing" textLength="316" x="1091" y="284.7812">Virtual Environment (.venv)</text></g><!--class PY--><g id="elem_PY"><rect codeLine="19" fill="#999999" fill-opacity="0.60000" height="95.8438" id="PY" rx="2.5" ry="2.5" style="stroke:#000000;stroke-width:0.5;" width="242" x="30" y="347.2168"/><ellipse cx="111" cy="375.498" fill="#B4A7E5" rx="12" ry="12" style="stroke:#181818;stroke-width:1.0;"/><path d="M106.1875,370.9512 L106.1875,368.4199 L114.8594,368.4199 L114.8594,370.9512 L111.9688,370.9512 L111.9688,380.4512 L114.8594,380.4512 L114.8594,382.998 L106.1875,382.998 L106.1875,380.4512 L109.0781,380.4512 L109.0781,370.9512 L106.1875,370.9512 Z " fill="#000000"/><text fill="#000000" font-family="sans-serif" font-size="20" font-style="italic" lengthAdjust="spacing" textLength="55" x="141" y="370.7812">&#171;CLI&#187;</text><text fill="#000000" font-family="sans-serif" font-size="20" font-style="italic" lengthAdjust="spacing" textLength="71" x="133" y="394.0625">python</text><line style="stroke:#000000;stroke-width:0.5;" x1="31" x2="271" y1="403.7793" y2="403.7793"/><ellipse cx="41" cy="420.9199" fill="none" rx="3" ry="3" style="stroke:#038048;stroke-width:1.0;"/><text fill="#000000" font-family="sans-serif" font-size="20" lengthAdjust="spacing" textLength="215" x="51" y="426.3437">python -m venv .venv</text><line style="stroke:#000000;stroke-width:0.5;" x1="31" x2="271" y1="435.0605" y2="435.0605"/></g><!--class REQ_PROJ--><g id="elem_REQ_PROJ"><rect codeLine="25" fill="#999999" fill-opacity="0.60000" height="95.8438" id="REQ_PROJ" rx="2.5" ry="2.5" style="stroke:#000000;stroke-width:0.5;" width="248" x="369" y="207.2168"/><ellipse cx="385" cy="235.498" fill="#ADD1B2" rx="12" ry="12" style="stroke:#181818;stroke-width:1.0;"/><path d="M388.0625,242.5762 Q387.375,242.9355 386.625,243.1074 Q385.875,243.2793 385.0469,243.2793 Q382.0938,243.2793 380.5313,241.3418 Q378.9844,239.3887 378.9844,235.7168 Q378.9844,232.0449 380.5313,230.1074 Q382.0938,228.1543 385.0469,228.1543 Q385.875,228.1543 386.625,228.3262 Q387.3906,228.498 388.0625,228.8574 L388.0625,232.0605 Q387.3125,231.373 386.6094,231.0605 Q385.9219,230.748 385.1719,230.748 Q383.5938,230.748 382.7813,231.998 Q381.9844,233.248 381.9844,235.7168 Q381.9844,238.1855 382.7813,239.4355 Q383.5938,240.6855 385.1719,240.6855 Q385.9219,240.6855 386.6094,240.373 Q387.3125,240.0605 388.0625,239.373 L388.0625,242.5762 Z " fill="#000000"/><text fill="#000000" font-family="sans-serif" font-size="20" font-style="italic" lengthAdjust="spacing" textLength="60" x="477" y="230.7812">&#171;File&#187;</text><text fill="#000000" font-family="sans-serif" font-size="20" lengthAdjust="spacing" textLength="214" x="400" y="254.0625">proj-requirements.txt</text><line style="stroke:#000000;stroke-width:0.5;" x1="370" x2="616" y1="263.7793" y2="263.7793"/><ellipse cx="380" cy="280.9199" fill="none" rx="3" ry="3" style="stroke:#038048;stroke-width:1.0;"/><text fill="#000000" font-family="sans-serif" font-size="20" lengthAdjust="spacing" textLength="142" x="390" y="286.3437">Dependencies</text><line style="stroke:#000000;stroke-width:0.5;" x1="370" x2="616" y1="295.0605" y2="295.0605"/></g><!--class REQ--><g id="elem_REQ"><rect codeLine="28" fill="#999999" fill-opacity="0.60000" height="119.125" id="REQ" rx="2.5" ry="2.5" style="stroke:#000000;stroke-width:0.5;" width="202" x="392" y="338.7168"/><ellipse cx="408" cy="366.998" fill="#ADD1B2" rx="12" ry="12" style="stroke:#181818;stroke-width:1.0;"/><path d="M411.0625,374.0762 Q410.375,374.4355 409.625,374.6074 Q408.875,374.7793 408.0469,374.7793 Q405.0938,374.7793 403.5313,372.8418 Q401.9844,370.8887 401.9844,367.2168 Q401.9844,363.5449 403.5313,361.6074 Q405.0938,359.6543 408.0469,359.6543 Q408.875,359.6543 409.625,359.8262 Q410.3906,359.998 411.0625,360.3574 L411.0625,363.5605 Q410.3125,362.873 409.6094,362.5605 Q408.9219,362.248 408.1719,362.248 Q406.5938,362.248 405.7813,363.498 Q404.9844,364.748 404.9844,367.2168 Q404.9844,369.6855 405.7813,370.9355 Q406.5938,372.1855 408.1719,372.1855 Q408.9219,372.1855 409.6094,371.873 Q410.3125,371.5605 411.0625,370.873 L411.0625,374.0762 Z " fill="#000000"/><text fill="#000000" font-family="sans-serif" font-size="20" font-style="italic" lengthAdjust="spacing" textLength="60" x="477" y="362.2812">&#171;File&#187;</text><text fill="#000000" font-family="sans-serif" font-size="20" lengthAdjust="spacing" textLength="168" x="423" y="385.5625">requirements.txt</text><line style="stroke:#000000;stroke-width:0.5;" x1="393" x2="593" y1="395.2793" y2="395.2793"/><ellipse cx="403" cy="412.4199" fill="none" rx="3" ry="3" style="stroke:#038048;stroke-width:1.0;"/><text fill="#000000" font-family="sans-serif" font-size="20" lengthAdjust="spacing" textLength="142" x="413" y="417.8437">Dependencies</text><ellipse cx="403" cy="435.7012" fill="none" rx="3" ry="3" style="stroke:#038048;stroke-width:1.0;"/><text fill="#000000" font-family="sans-serif" font-size="20" lengthAdjust="spacing" textLength="85" x="413" y="441.125">Versions</text><line style="stroke:#000000;stroke-width:0.5;" x1="393" x2="593" y1="449.8418" y2="449.8418"/></g><!--class APP--><g id="elem_APP"><rect codeLine="32" fill="#999999" fill-opacity="0.60000" height="95.8438" id="APP" rx="2.5" ry="2.5" style="stroke:#000000;stroke-width:0.5;" width="183" x="401.5" y="76.2168"/><ellipse cx="417.5" cy="116.1387" fill="#ADD1B2" rx="12" ry="12" style="stroke:#181818;stroke-width:1.0;"/><path d="M420.5625,123.2168 Q419.875,123.5762 419.125,123.748 Q418.375,123.9199 417.5469,123.9199 Q414.5938,123.9199 413.0313,121.9824 Q411.4844,120.0293 411.4844,116.3574 Q411.4844,112.6855 413.0313,110.748 Q414.5938,108.7949 417.5469,108.7949 Q418.375,108.7949 419.125,108.9668 Q419.8906,109.1387 420.5625,109.498 L420.5625,112.7012 Q419.8125,112.0137 419.1094,111.7012 Q418.4219,111.3887 417.6719,111.3887 Q416.0938,111.3887 415.2813,112.6387 Q414.4844,113.8887 414.4844,116.3574 Q414.4844,118.8262 415.2813,120.0762 Q416.0938,121.3262 417.6719,121.3262 Q418.4219,121.3262 419.1094,121.0137 Q419.8125,120.7012 420.5625,120.0137 L420.5625,123.2168 Z " fill="#000000"/><text fill="#000000" font-family="sans-serif" font-size="20" font-style="italic" lengthAdjust="spacing" textLength="60" x="477" y="99.7812">&#171;File&#187;</text><text fill="#000000" font-family="sans-serif" font-size="20" lengthAdjust="spacing" textLength="81" x="466.5" y="123.0625">main.py</text><text fill="#000000" font-family="sans-serif" font-size="20" lengthAdjust="spacing" textLength="149" x="432.5" y="146.3437">(or other code)</text><line style="stroke:#000000;stroke-width:0.5;" x1="402.5" x2="583.5" y1="156.0605" y2="156.0605"/><line style="stroke:#000000;stroke-width:0.5;" x1="402.5" x2="583.5" y1="164.0605" y2="164.0605"/></g><!--class PIP--><g id="elem_PIP"><rect codeLine="38" fill="#999999" fill-opacity="0.60000" height="95.8438" id="PIP" rx="2.5" ry="2.5" style="stroke:#000000;stroke-width:0.5;" width="104" x="1111" y="333.2168"/><ellipse cx="1135.55" cy="361.498" fill="#B4A7E5" rx="12" ry="12" style="stroke:#181818;stroke-width:1.0;"/><path d="M1130.7375,356.9512 L1130.7375,354.4199 L1139.4094,354.4199 L1139.4094,356.9512 L1136.5188,356.9512 L1136.5188,366.4512 L1139.4094,366.4512 L1139.4094,368.998 L1130.7375,368.998 L1130.7375,366.4512 L1133.6281,366.4512 L1133.6281,356.9512 L1130.7375,356.9512 Z " fill="#000000"/><text fill="#000000" font-family="sans-serif" font-size="20" font-style="italic" lengthAdjust="spacing" textLength="55" x="1150.45" y="356.7812">&#171;CLI&#187;</text><text fill="#000000" font-family="sans-serif" font-size="20" font-style="italic" lengthAdjust="spacing" textLength="32" x="1161.95" y="380.0625">pip</text><line style="stroke:#000000;stroke-width:0.5;" x1="1112" x2="1214" y1="389.7793" y2="389.7793"/><line style="stroke:#000000;stroke-width:0.5;" x1="1112" x2="1214" y1="397.7793" y2="397.7793"/><ellipse cx="1122" cy="414.9199" fill="#84BE84" rx="3" ry="3" style="stroke:#038048;stroke-width:1.0;"/><text fill="#000000" font-family="sans-serif" font-size="20" lengthAdjust="spacing" textLength="77" x="1132" y="420.3437">install()</text></g><!--class PKG--><g id="elem_PKG"><rect codeLine="41" fill="#999999" fill-opacity="0.60000" height="72.5625" id="PKG" rx="2.5" ry="2.5" style="stroke:#000000;stroke-width:0.5;" width="251" x="1348" y="336.7168"/><ellipse cx="1364" cy="364.998" fill="#ADD1B2" rx="12" ry="12" style="stroke:#181818;stroke-width:1.0;"/><path d="M1367.0625,372.0762 Q1366.375,372.4355 1365.625,372.6074 Q1364.875,372.7793 1364.0469,372.7793 Q1361.0938,372.7793 1359.5313,370.8418 Q1357.9844,368.8887 1357.9844,365.2168 Q1357.9844,361.5449 1359.5313,359.6074 Q1361.0938,357.6543 1364.0469,357.6543 Q1364.875,357.6543 1365.625,357.8262 Q1366.3906,357.998 1367.0625,358.3574 L1367.0625,361.5605 Q1366.3125,360.873 1365.6094,360.5605 Q1364.9219,360.248 1364.1719,360.248 Q1362.5938,360.248 1361.7813,361.498 Q1360.9844,362.748 1360.9844,365.2168 Q1360.9844,367.6855 1361.7813,368.9355 Q1362.5938,370.1855 1364.1719,370.1855 Q1364.9219,370.1855 1365.6094,369.873 Q1366.3125,369.5605 1367.0625,368.873 L1367.0625,372.0762 Z " fill="#000000"/><text fill="#000000" font-family="sans-serif" font-size="20" font-style="italic" lengthAdjust="spacing" textLength="61" x="1457" y="360.2812">&#171;Pkg&#187;</text><text fill="#000000" font-family="sans-serif" font-size="20" lengthAdjust="spacing" textLength="217" x="1379" y="383.5625">Python Dependencies</text><line style="stroke:#000000;stroke-width:0.5;" x1="1349" x2="1598" y1="393.2793" y2="393.2793"/><line style="stroke:#000000;stroke-width:0.5;" x1="1349" x2="1598" y1="401.2793" y2="401.2793"/></g><!--class USER--><g id="elem_USER"><rect codeLine="71" fill="#999999" fill-opacity="0.60000" height="142.4063" id="USER" rx="2.5" ry="2.5" style="stroke:#000000;stroke-width:0.5;" width="107" x="773" y="187.2168"/><ellipse cx="789" cy="215.498" fill="#A9DCDF" rx="12" ry="12" style="stroke:#181818;stroke-width:1.0;"/><path d="M789.0156,210.3105 L787.6563,216.2637 L790.3906,216.2637 L789.0156,210.3105 Z M787.2656,207.6699 L790.7813,207.6699 L794.7188,222.248 L791.8438,222.248 L790.9375,218.6387 L787.0781,218.6387 L786.2031,222.248 L783.3281,222.248 L787.2656,207.6699 Z " fill="#000000"/><text fill="#000000" font-family="sans-serif" font-size="20" font-style="italic" lengthAdjust="spacing" textLength="77" x="802" y="210.7812">&#171;Actor&#187;</text><text fill="#000000" font-family="sans-serif" font-size="20" font-style="italic" lengthAdjust="spacing" textLength="45" x="818" y="234.0625">User</text><line style="stroke:#000000;stroke-width:0.5;" x1="774" x2="879" y1="243.7793" y2="243.7793"/><line style="stroke:#000000;stroke-width:0.5;" x1="774" x2="879" y1="251.7793" y2="251.7793"/><ellipse cx="784" cy="268.9199" fill="#84BE84" rx="3" ry="3" style="stroke:#038048;stroke-width:1.0;"/><text fill="#000000" font-family="sans-serif" font-size="20" lengthAdjust="spacing" textLength="48" x="794" y="274.3437">eat()</text><ellipse cx="784" cy="292.2012" fill="#84BE84" rx="3" ry="3" style="stroke:#038048;stroke-width:1.0;"/><text fill="#000000" font-family="sans-serif" font-size="20" lengthAdjust="spacing" textLength="69" x="794" y="297.625">sleep()</text><ellipse cx="784" cy="315.4824" fill="#84BE84" rx="3" ry="3" style="stroke:#038048;stroke-width:1.0;"/><text fill="#000000" font-family="sans-serif" font-size="20" lengthAdjust="spacing" textLength="64" x="794" y="320.9062">code()</text></g><!--link GE to PDIR--><!--link PDIR to VENV--><!--link PY to VENV--><g id="link_PY_VENV"><path codeLine="58" d="M240.48,443.4168 C268.03,456.0068 299.05,467.8368 329,474.2168 C471.58,504.5868 513.14,497.7568 657,474.2168 C760.19,457.3268 782.32,436.5368 880,399.2168 C966.3,366.2368 982.9,345.0168 1071,317.2168 C1075.7713,315.7105 1080.7214,314.2904 1085.7372,312.9576 C1086.0507,312.8743 1080.5619,314.3182 1080.8759,314.2356 " fill="none" id="PY-to-VENV" style="stroke:#00A2FF;stroke-width:2.5;"/><polygon fill="#00A2FF" points="1086.6784,312.7087,1076.9567,311.1307,1081.843,313.9811,1078.9926,318.8673,1086.6784,312.7087" style="stroke:#00A2FF;stroke-width:2.5;"/><text fill="#00A2FF" font-family="sans-serif" font-size="20" font-style="italic" lengthAdjust="spacing" textLength="73" x="667.5" y="449.7812">creates</text></g><!--link PIP to PKG--><g id="link_PIP_PKG"><path codeLine="59" d="M1215.29,379.8868 C1251.44,378.9468 1295.482,377.8021 1341.822,376.6021 " fill="none" id="PIP-to-PKG" style="stroke:#00A2FF;stroke-width:2.5;"/><polygon fill="#00A2FF" points="1347.82,376.4468,1338.7195,372.6811,1342.8217,376.5762,1338.9266,380.6784,1347.82,376.4468" style="stroke:#00A2FF;stroke-width:2.5;"/><text fill="#00A2FF" font-family="sans-serif" font-size="20" font-style="italic" lengthAdjust="spacing" textLength="71" x="1246" y="372.7812">installs</text></g><!--reverse link REQ to PIP--><g id="link_REQ_PIP"><path codeLine="62" d="M600.0081,395.514 C744.4981,391.834 1000.41,385.3268 1110.78,382.5168 " fill="none" id="REQ-backto-PIP" style="stroke:#00A2FF;stroke-width:2.5;"/><polygon fill="#00A2FF" points="594.01,395.6668,603.1089,399.4364,599.0084,395.5395,602.9052,391.4389,594.01,395.6668" style="stroke:#00A2FF;stroke-width:2.5;"/><text fill="#00A2FF" font-family="sans-serif" font-size="20" font-style="italic" lengthAdjust="spacing" textLength="90" x="781.5" y="383.7812">compiles</text></g><!--reverse link REQ to PIP--><g id="link_REQ_PIP"><path codeLine="87" d="M538.5757,462.7635 C569.2257,501.9635 611.33,545.1668 665,567.2168 C697.07,580.3868 708.35,568.1368 743,567.2168 C885.37,563.4368 941.36,624.2868 1063,550.2168 C1107,523.4168 1133.59,469.1468 1147.97,429.3068 " fill="none" id="REQ-backto-PIP-1" style="stroke:#EE220C;stroke-width:2.5;stroke-dasharray:10.0,5.0;"/><polygon fill="#EE220C" points="534.88,458.0368,537.2725,467.5906,537.9598,461.9757,543.5747,462.663,534.88,458.0368" style="stroke:#EE220C;stroke-width:2.5;"/><text fill="#EE220C" font-family="sans-serif" font-size="20" font-style="italic" lengthAdjust="spacing" textLength="82" x="785.5" y="561.7813">requires</text></g><!--link USER to VENV--><g id="link_USER_VENV"><path codeLine="76" d="M880.13,264.5068 C926.495,270.0518 995.5025,278.3043 1053.6313,285.2555 C1060.8973,286.1245 1067.9935,286.973 1074.8541,287.7934 C1078.2844,288.2036 1081.6559,288.6068 1084.9603,289.002 C1085.3734,289.0514 1079.8278,288.3882 1080.2388,288.4373 " fill="none" id="USER-to-VENV" style="stroke:#61D836;stroke-width:2.5;"/><polygon fill="#61D836" points="1086.1963,289.1498,1077.7349,284.1094,1081.2317,288.5561,1076.7851,292.0528,1086.1963,289.1498" style="stroke:#61D836;stroke-width:2.5;"/><text fill="#61D836" font-family="sans-serif" font-size="20" font-style="italic" lengthAdjust="spacing" textLength="79" x="944" y="217.7812">creates,</text><text fill="#61D836" font-family="sans-serif" font-size="20" font-style="italic" lengthAdjust="spacing" textLength="139" x="917" y="241.0625">(de-)activates</text><text fill="#61D836" font-family="sans-serif" font-size="20" font-style="italic" lengthAdjust="spacing" textLength="114" x="929.5" y="264.3437">&amp; manages</text></g><!--reverse link REQ_PROJ to USER--><g id="link_REQ_PROJ_USER"><path codeLine="77" d="M623.4397,256.3817 C677.0097,256.8717 730.89,257.3568 772.61,257.7368 " fill="none" id="REQ_PROJ-backto-USER" style="stroke:#61D836;stroke-width:2.5;"/><polygon fill="#61D836" points="617.44,256.3268,626.403,260.4089,622.4398,256.3725,626.4762,252.4093,617.44,256.3268" style="stroke:#61D836;stroke-width:2.5;"/><text fill="#61D836" font-family="sans-serif" font-size="20" font-style="italic" lengthAdjust="spacing" textLength="76" x="666" y="251.7812">collects</text></g><!--link APP to PKG--><g id="link_APP_PKG"><path codeLine="86" d="M584.72,126.5468 C698.32,131.3268 898.05,145.8868 1063,190.2168 C1134.13,209.3268 1147.69,226.3168 1215,256.2168 C1274.79,282.7768 1336.6543,310.8898 1387.4543,334.1398 " fill="none" id="APP-to-PKG" style="stroke:#EE220C;stroke-width:2.5;stroke-dasharray:10.0,5.0;"/><polygon fill="#EE220C" points="1392.91,336.6368,1386.391,329.2542,1388.3635,334.556,1383.0617,336.5285,1392.91,336.6368" style="stroke:#EE220C;stroke-width:2.5;"/><text fill="#EE220C" font-family="sans-serif" font-size="20" font-style="italic" lengthAdjust="spacing" textLength="82" x="945.5" y="153.7812">requires</text></g><!--SRC=[ZLHjRn914Fv-ls924uNKGqHBn009jb2hZPvWCSOQizmDi7BidhiBbPf-zGVu4_qbpkuUz4HycG_acBUTPvwPIN5Ym4XGV3epa725iU5I1C5TQBVRC3Jh5A4ynym0Jr0O7hEqOas1ddEHCSKMaE24BLFJby8C-JL2lLOmFcNnVAhaKYJ7CfKAZ692aubo5Rmoyc9JXAy1aEp673ITD1hUAbM2obkixBE-vOcPEMlTQMrjjn4KCt4It1HgY5EczTyhQ3RtLr1pGjdojaKUZeQoa5VWl361qnxy-FOTefEpWViOzLwEV2yty4kdgHop57fYnPKK2sfI2PYsaRukBWog2Ol9DLkRcHJE7Bq3QBMEpyywdTpFog7tW701AnGhgDfVPxsnbMxVZ9JyHAp3YIDVghNFQQiyI9hn8zlQFArlKIcZY53XvoL5s1frrNoXGi763NglFqQ3Ly-fe3vFiTCf57I26GgQefYZpWifPDsNq8jF-ryPdNQ4IjCGxtbZmRYePkjBKIRgf9cXWbWcM76Gkr6qVSDsgD2Z4LTc-IinK7ODzQ6MIjZ34SzkKRYkdaNxcE926vQcvShl5KUUn29Gpy-BKyeKpQU-LZztptX2Fi2KabVQhdKgupdCfEBNj01Klnj5Dt8qKW3X-vcB-11s7E61OxsejS0ssKTSyp6TWt6wnCqRPSqM21eNpDu6xSUvfUtPw0JE9yTvpWNckrIhTUlz_bRxPiRZkK02MwyUxMnhqTVT5tUFE47XCS5ktSzV2kmAX7czy0HYXSpGIDX-MxNj5gdpFckYrWrK63f6R81SP4IytXw-26DE3HlIlNAdiUlnjeloBw2D1oUF7pPs8UNQGlLihEaPMi7IXKRbwBqOzWR4RzSkv7PM3WbKFYE7EaNCDd_i3DFtJU32zZJY7bmAA2SOLkWPlh8gqjm1eitTgU1sRQadBeljIPhIHQ2U_0cdf-D1BJpQXTxhrUkrurtekRO0tUvSWQ3y1kXTUhRwdm00]--></g></svg>