<?xml version="1.0" encoding="us-ascii" standalone="no"?><svg xmlns="http://www.w3.org/2000/svg" xmlns:xlink="http://www.w3.org/1999/xlink" contentStyleType="text/css" height="573px" preserveAspectRatio="none" style="width:1339px;height:573px;" version="1.1" viewBox="0 0 1339 573" width="1339px" zoomAndPan="magnify"><defs/><g><!--cluster GE--><g id="cluster_GE"><path d="M8.5,116 L233.5,116 A3.75,3.75 0 0 1 236,118.5 L243,145.2813 L293.5,145.2813 A2.5,2.5 0 0 1 296,147.7813 L296,302.5 A2.5,2.5 0 0 1 293.5,305 L8.5,305 A2.5,2.5 0 0 1 6,302.5 L6,118.5 A2.5,2.5 0 0 1 8.5,116 " fill="#999999" fill-opacity="0.40000" style="stroke:#99999966;stroke-width:1.5;"/><line style="stroke:#99999966;stroke-width:1.5;" x1="6" x2="243" y1="145.2813" y2="145.2813"/><text fill="#FFFFFF" font-family="sans-serif" font-size="20" font-weight="bold" lengthAdjust="spacing" textLength="224" x="10" y="136.5645">Global Environment</text></g><!--cluster PDIR--><g id="cluster_PDIR"><path d="M347.5,268 L544.5,268 A3.75,3.75 0 0 1 547,270.5 L554,297.2813 L592.5,297.2813 A2.5,2.5 0 0 1 595,299.7813 L595,563.5 A2.5,2.5 0 0 1 592.5,566 L347.5,566 A2.5,2.5 0 0 1 345,563.5 L345,270.5 A2.5,2.5 0 0 1 347.5,268 " fill="#D9C499" fill-opacity="0.40000" style="stroke:#99999966;stroke-width:1.5;"/><line style="stroke:#99999966;stroke-width:1.5;" x1="345" x2="554" y1="297.2813" y2="297.2813"/><text fill="#FFFFFF" font-family="sans-serif" font-size="20" font-weight="bold" lengthAdjust="spacing" textLength="196" x="349" y="288.5645">Project Directory</text></g><!--cluster VENV--><g id="cluster_VENV"><path d="M798.5,210 L1115.5,210 A3.75,3.75 0 0 1 1118,212.5 L1125,239.2813 L1329.5,239.2813 A2.5,2.5 0 0 1 1332,241.7813 L1332,396.5 A2.5,2.5 0 0 1 1329.5,399 L798.5,399 A2.5,2.5 0 0 1 796,396.5 L796,212.5 A2.5,2.5 0 0 1 798.5,210 " fill="#999999" fill-opacity="0.40000" style="stroke:#99999966;stroke-width:1.5;"/><line style="stroke:#99999966;stroke-width:1.5;" x1="796" x2="1125" y1="239.2813" y2="239.2813"/><text fill="#FFFFFF" font-family="sans-serif" font-size="20" font-weight="bold" lengthAdjust="spacing" textLength="316" x="800" y="230.5645">Virtual Environment (.venv)</text></g><!--class PY--><g id="elem_PY"><rect codeLine="19" fill="#999999" fill-opacity="0.60000" height="95.8438" id="PY" rx="2.5" ry="2.5" style="stroke:#000000;stroke-width:0.5;" width="242" x="30" y="166"/><ellipse cx="111" cy="194.2813" fill="#B4A7E5" rx="12" ry="12" style="stroke:#181818;stroke-width:1.0;"/><path d="M106.1875,189.7344 L106.1875,187.2031 L114.8594,187.2031 L114.8594,189.7344 L111.9688,189.7344 L111.9688,199.2344 L114.8594,199.2344 L114.8594,201.7813 L106.1875,201.7813 L106.1875,199.2344 L109.0781,199.2344 L109.0781,189.7344 L106.1875,189.7344 Z " fill="#000000"/><text fill="#000000" font-family="sans-serif" font-size="20" font-style="italic" lengthAdjust="spacing" textLength="55" x="141" y="189.5645">&#171;CLI&#187;</text><text fill="#000000" font-family="sans-serif" font-size="20" font-style="italic" lengthAdjust="spacing" textLength="71" x="133" y="212.8457">python</text><line style="stroke:#000000;stroke-width:0.5;" x1="31" x2="271" y1="222.5625" y2="222.5625"/><ellipse cx="41" cy="239.7031" fill="none" rx="3" ry="3" style="stroke:#038048;stroke-width:1.0;"/><text fill="#000000" font-family="sans-serif" font-size="20" lengthAdjust="spacing" textLength="215" x="51" y="245.127">python -m venv .venv</text><line style="stroke:#000000;stroke-width:0.5;" x1="31" x2="271" y1="253.8438" y2="253.8438"/></g><!--class REQ--><g id="elem_REQ"><rect codeLine="25" fill="#999999" fill-opacity="0.60000" height="72.5625" id="REQ" rx="2.5" ry="2.5" style="stroke:#000000;stroke-width:0.5;" width="202" x="369" y="337.5"/><ellipse cx="385" cy="365.7813" fill="#ADD1B2" rx="12" ry="12" style="stroke:#181818;stroke-width:1.0;"/><path d="M388.0625,372.8594 Q387.375,373.2188 386.625,373.3906 Q385.875,373.5625 385.0469,373.5625 Q382.0938,373.5625 380.5313,371.625 Q378.9844,369.6719 378.9844,366 Q378.9844,362.3281 380.5313,360.3906 Q382.0938,358.4375 385.0469,358.4375 Q385.875,358.4375 386.625,358.6094 Q387.3906,358.7813 388.0625,359.1406 L388.0625,362.3438 Q387.3125,361.6563 386.6094,361.3438 Q385.9219,361.0313 385.1719,361.0313 Q383.5938,361.0313 382.7813,362.2813 Q381.9844,363.5313 381.9844,366 Q381.9844,368.4688 382.7813,369.7188 Q383.5938,370.9688 385.1719,370.9688 Q385.9219,370.9688 386.6094,370.6563 Q387.3125,370.3438 388.0625,369.6563 L388.0625,372.8594 Z " fill="#000000"/><text fill="#000000" font-family="sans-serif" font-size="20" font-style="italic" lengthAdjust="spacing" textLength="60" x="454" y="361.0645">&#171;File&#187;</text><text fill="#000000" font-family="sans-serif" font-size="20" lengthAdjust="spacing" textLength="168" x="400" y="384.3457">requirements.txt</text><line style="stroke:#000000;stroke-width:0.5;" x1="370" x2="570" y1="394.0625" y2="394.0625"/><line style="stroke:#000000;stroke-width:0.5;" x1="370" x2="570" y1="402.0625" y2="402.0625"/></g><!--class APP--><g id="elem_APP"><rect codeLine="26" fill="#999999" fill-opacity="0.60000" height="95.8438" id="APP" rx="2.5" ry="2.5" style="stroke:#000000;stroke-width:0.5;" width="183" x="378.5" y="446"/><ellipse cx="394.5" cy="485.9219" fill="#ADD1B2" rx="12" ry="12" style="stroke:#181818;stroke-width:1.0;"/><path d="M397.5625,493 Q396.875,493.3594 396.125,493.5313 Q395.375,493.7031 394.5469,493.7031 Q391.5938,493.7031 390.0313,491.7656 Q388.4844,489.8125 388.4844,486.1406 Q388.4844,482.4688 390.0313,480.5313 Q391.5938,478.5781 394.5469,478.5781 Q395.375,478.5781 396.125,478.75 Q396.8906,478.9219 397.5625,479.2813 L397.5625,482.4844 Q396.8125,481.7969 396.1094,481.4844 Q395.4219,481.1719 394.6719,481.1719 Q393.0938,481.1719 392.2813,482.4219 Q391.4844,483.6719 391.4844,486.1406 Q391.4844,488.6094 392.2813,489.8594 Q393.0938,491.1094 394.6719,491.1094 Q395.4219,491.1094 396.1094,490.7969 Q396.8125,490.4844 397.5625,489.7969 L397.5625,493 Z " fill="#000000"/><text fill="#000000" font-family="sans-serif" font-size="20" font-style="italic" lengthAdjust="spacing" textLength="60" x="454" y="469.5645">&#171;File&#187;</text><text fill="#000000" font-family="sans-serif" font-size="20" lengthAdjust="spacing" textLength="81" x="443.5" y="492.8457">main.py</text><text fill="#000000" font-family="sans-serif" font-size="20" lengthAdjust="spacing" textLength="149" x="409.5" y="516.127">(or other code)</text><line style="stroke:#000000;stroke-width:0.5;" x1="379.5" x2="560.5" y1="525.8438" y2="525.8438"/><line style="stroke:#000000;stroke-width:0.5;" x1="379.5" x2="560.5" y1="533.8438" y2="533.8438"/></g><!--class PIP--><g id="elem_PIP"><rect codeLine="32" fill="#999999" fill-opacity="0.60000" height="95.8438" id="PIP" rx="2.5" ry="2.5" style="stroke:#000000;stroke-width:0.5;" width="104" x="820" y="279"/><ellipse cx="844.55" cy="307.2813" fill="#B4A7E5" rx="12" ry="12" style="stroke:#181818;stroke-width:1.0;"/><path d="M839.7375,302.7344 L839.7375,300.2031 L848.4094,300.2031 L848.4094,302.7344 L845.5188,302.7344 L845.5188,312.2344 L848.4094,312.2344 L848.4094,314.7813 L839.7375,314.7813 L839.7375,312.2344 L842.6281,312.2344 L842.6281,302.7344 L839.7375,302.7344 Z " fill="#000000"/><text fill="#000000" font-family="sans-serif" font-size="20" font-style="italic" lengthAdjust="spacing" textLength="55" x="859.45" y="302.5645">&#171;CLI&#187;</text><text fill="#000000" font-family="sans-serif" font-size="20" font-style="italic" lengthAdjust="spacing" textLength="32" x="870.95" y="325.8457">pip</text><line style="stroke:#000000;stroke-width:0.5;" x1="821" x2="923" y1="335.5625" y2="335.5625"/><line style="stroke:#000000;stroke-width:0.5;" x1="821" x2="923" y1="343.5625" y2="343.5625"/><ellipse cx="831" cy="360.7031" fill="#84BE84" rx="3" ry="3" style="stroke:#038048;stroke-width:1.0;"/><text fill="#000000" font-family="sans-serif" font-size="20" lengthAdjust="spacing" textLength="77" x="841" y="366.127">install()</text></g><!--class PKG--><g id="elem_PKG"><rect codeLine="35" fill="#999999" fill-opacity="0.60000" height="72.5625" id="PKG" rx="2.5" ry="2.5" style="stroke:#000000;stroke-width:0.5;" width="251" x="1057" y="296.5"/><ellipse cx="1073" cy="324.7813" fill="#ADD1B2" rx="12" ry="12" style="stroke:#181818;stroke-width:1.0;"/><path d="M1076.0625,331.8594 Q1075.375,332.2188 1074.625,332.3906 Q1073.875,332.5625 1073.0469,332.5625 Q1070.0938,332.5625 1068.5313,330.625 Q1066.9844,328.6719 1066.9844,325 Q1066.9844,321.3281 1068.5313,319.3906 Q1070.0938,317.4375 1073.0469,317.4375 Q1073.875,317.4375 1074.625,317.6094 Q1075.3906,317.7813 1076.0625,318.1406 L1076.0625,321.3438 Q1075.3125,320.6563 1074.6094,320.3438 Q1073.9219,320.0313 1073.1719,320.0313 Q1071.5938,320.0313 1070.7813,321.2813 Q1069.9844,322.5313 1069.9844,325 Q1069.9844,327.4688 1070.7813,328.7188 Q1071.5938,329.9688 1073.1719,329.9688 Q1073.9219,329.9688 1074.6094,329.6563 Q1075.3125,329.3438 1076.0625,328.6563 L1076.0625,331.8594 Z " fill="#000000"/><text fill="#000000" font-family="sans-serif" font-size="20" font-style="italic" lengthAdjust="spacing" textLength="61" x="1166" y="320.0645">&#171;Pkg&#187;</text><text fill="#000000" font-family="sans-serif" font-size="20" lengthAdjust="spacing" textLength="217" x="1088" y="343.3457">Python Dependencies</text><line style="stroke:#000000;stroke-width:0.5;" x1="1058" x2="1307" y1="353.0625" y2="353.0625"/><line style="stroke:#000000;stroke-width:0.5;" x1="1058" x2="1307" y1="361.0625" y2="361.0625"/></g><!--class USER--><g id="elem_USER"><rect codeLine="65" fill="#999999" fill-opacity="0.60000" height="142.4063" id="USER" rx="2.5" ry="2.5" style="stroke:#000000;stroke-width:0.5;" width="107" x="416.5" y="7"/><ellipse cx="432.5" cy="35.2813" fill="#A9DCDF" rx="12" ry="12" style="stroke:#181818;stroke-width:1.0;"/><path d="M432.5156,30.0938 L431.1563,36.0469 L433.8906,36.0469 L432.5156,30.0938 Z M430.7656,27.4531 L434.2813,27.4531 L438.2188,42.0313 L435.3438,42.0313 L434.4375,38.4219 L430.5781,38.4219 L429.7031,42.0313 L426.8281,42.0313 L430.7656,27.4531 Z " fill="#000000"/><text fill="#000000" font-family="sans-serif" font-size="20" font-style="italic" lengthAdjust="spacing" textLength="77" x="445.5" y="30.5645">&#171;Actor&#187;</text><text fill="#000000" font-family="sans-serif" font-size="20" font-style="italic" lengthAdjust="spacing" textLength="45" x="461.5" y="53.8457">User</text><line style="stroke:#000000;stroke-width:0.5;" x1="417.5" x2="522.5" y1="63.5625" y2="63.5625"/><ellipse cx="427.5" cy="80.7031" fill="none" rx="3" ry="3" style="stroke:#038048;stroke-width:1.0;"/><text fill="#000000" font-family="sans-serif" font-size="20" lengthAdjust="spacing" textLength="32" x="437.5" y="86.127">eat</text><ellipse cx="427.5" cy="103.9844" fill="none" rx="3" ry="3" style="stroke:#038048;stroke-width:1.0;"/><text fill="#000000" font-family="sans-serif" font-size="20" lengthAdjust="spacing" textLength="53" x="437.5" y="109.4082">sleep</text><ellipse cx="427.5" cy="127.2656" fill="none" rx="3" ry="3" style="stroke:#038048;stroke-width:1.0;"/><text fill="#000000" font-family="sans-serif" font-size="20" lengthAdjust="spacing" textLength="48" x="437.5" y="132.6895">code</text><line style="stroke:#000000;stroke-width:0.5;" x1="417.5" x2="522.5" y1="141.4063" y2="141.4063"/></g><!--link GE to PDIR--><!--link PDIR to VENV--><!--link PY to VENV--><g id="link_PY_VENV"><path codeLine="52" d="M272.34,219.02 C373.885,223.255 522.015,229.435 645.5175,234.5888 C676.3931,235.8772 705.7295,237.1015 732.414,238.2152 C745.7563,238.7721 758.4355,239.3013 770.3127,239.7971 C776.2513,240.045 781.9894,240.2845 787.5096,240.5149 C790.2697,240.6302 786.9805,240.4928 789.6295,240.6034 " fill="none" id="PY-to-VENV" style="stroke:#00A2FF;stroke-width:2.5;"/><polygon fill="#00A2FF" points="795.6243,240.8537,786.799,236.4818,790.6286,240.6451,786.4653,244.4748,795.6243,240.8537" style="stroke:#00A2FF;stroke-width:2.5;"/><text fill="#00A2FF" font-family="sans-serif" font-size="20" font-style="italic" lengthAdjust="spacing" textLength="73" x="433.5" y="216.5645">creates</text></g><!--link PIP to PKG--><g id="link_PIP_PKG"><path codeLine="53" d="M924.29,328 C960.44,328.7 1004.4812,329.5522 1050.8212,330.4622 " fill="none" id="PIP-to-PKG" style="stroke:#00A2FF;stroke-width:2.5;"/><polygon fill="#00A2FF" points="1056.82,330.58,1047.9003,326.4041,1051.821,330.4818,1047.7432,334.4025,1056.82,330.58" style="stroke:#00A2FF;stroke-width:2.5;"/><text fill="#00A2FF" font-family="sans-serif" font-size="20" font-style="italic" lengthAdjust="spacing" textLength="71" x="955" y="323.5645">installs</text></g><!--reverse link REQ to PIP--><g id="link_REQ_PIP"><path codeLine="56" d="M577.119,361.5298 C656.269,352.2298 757.5,340.34 819.96,333 " fill="none" id="REQ-backto-PIP" style="stroke:#00A2FF;stroke-width:2.5;"/><polygon fill="#00A2FF" points="571.16,362.23,580.5653,365.1524,576.1258,361.6465,579.6317,357.2071,571.16,362.23" style="stroke:#00A2FF;stroke-width:2.5;"/><text fill="#00A2FF" font-family="sans-serif" font-size="20" font-style="italic" lengthAdjust="spacing" textLength="90" x="650.5" y="334.5645">compiles</text></g><!--reverse link REQ to PIP--><g id="link_REQ_PIP"><path codeLine="81" d="M577.1241,396.6269 C636.6041,405.5169 706.93,408.95 772,390 C788.63,385.16 805.13,376.59 819.75,367.3 " fill="none" id="REQ-backto-PIP-1" style="stroke:#EE220C;stroke-width:2.5;stroke-dasharray:10.0,5.0;"/><polygon fill="#EE220C" points="571.19,395.74,579.4998,401.0264,576.1351,396.4791,580.6824,393.1143,571.19,395.74" style="stroke:#EE220C;stroke-width:2.5;"/><text fill="#EE220C" font-family="sans-serif" font-size="20" font-style="italic" lengthAdjust="spacing" textLength="82" x="654.5" y="384.5645">requires</text></g><!--link USER to VENV--><g id="link_USER_VENV"><path codeLine="70" d="M523.76,92.61 C584.95,110.42 688.16,143.13 772,183 C783.3025,188.375 794.9375,194.7244 806.0809,201.2609 C808.8668,202.8951 811.6219,204.5409 814.3335,206.1862 C815.6892,207.0088 817.0341,207.8312 818.3665,208.652 C819.0327,209.0624 814.5974,206.3089 815.2571,206.7183 " fill="none" id="USER-to-VENV" style="stroke:#61D836;stroke-width:2.5;"/><polygon fill="#61D836" points="820.3554,209.8817,814.817,201.7377,816.1069,207.2455,810.599,208.5354,820.3554,209.8817" style="stroke:#61D836;stroke-width:2.5;"/><text fill="#61D836" font-family="sans-serif" font-size="20" font-style="italic" lengthAdjust="spacing" textLength="79" x="653" y="74.5645">creates,</text><text fill="#61D836" font-family="sans-serif" font-size="20" font-style="italic" lengthAdjust="spacing" textLength="139" x="626" y="97.8457">(de-)activates</text><text fill="#61D836" font-family="sans-serif" font-size="20" font-style="italic" lengthAdjust="spacing" textLength="114" x="638.5" y="121.127">&amp; manages</text></g><!--link APP to PKG--><g id="link_APP_PKG"><path codeLine="80" d="M561.62,482.59 C653.65,470.08 799.88,447.62 924,417 C976.5,404.05 1028.1247,387.7271 1075.3147,371.5371 " fill="none" id="APP-to-PKG" style="stroke:#EE220C;stroke-width:2.5;stroke-dasharray:10.0,5.0;"/><polygon fill="#EE220C" points="1080.99,369.59,1071.179,368.7271,1076.2606,371.2126,1073.7751,376.2941,1080.99,369.59" style="stroke:#EE220C;stroke-width:2.5;"/><text fill="#EE220C" font-family="sans-serif" font-size="20" font-style="italic" lengthAdjust="spacing" textLength="82" x="831" y="411.5645">requires</text></g><!--SRC=[XLJTRX915BxVfpYXYKBg8aLBn0095gYDZLcBnHZhnR1xO4UMcNLce5BJMn_0H_H9F3Epq9MWdelDvlpCVDztpfaCPmQC1CNdgO64AumDbo887aEtsuMnsMG8rGNc1dY2ml2OPJKR2lI2YvmfjeG4PsoLcP4KPipl49gDKl0LYnTp9LSYEPEPL60K4vf2T5OfAwSiDaVu7W3PVirHsrchvQDI9QXynDgXw0UUcDH5cyvhiJrKKCtCMN1VmX1dJEj_8sYt3oDeEAFJ2jaYJqT3LSXRSDcOmFaGVltu2T7WuihzJ8Pl9rxBBVtAUIQdB8EXM7CbnP94gW3JjjBZuiAWch6OKlEDIQLmuUWZGATpTddHwnLvrevz1eHBMADOGzr-NVJU8jtT6IdvXReE0zTygJR-J8loA6d7pwsqnR5Ueeh2hojAjl1qtNmZZ5kZmglXEm8puXdsUkMY9UEYdczkH9LKaoP51R5CiEPkwqVHGn61Ay6RS6LMVse2LSV5breLuO0yF7-0vGXTH8T4ua8RbcNLMg5C2N7azHjWZe9cF-QelJHlpkcaQ37tM7tBN_E4Se0f9M-rtQXCnWj8fU9tD7k4tqs1wpPr4o3ybBgAps7FQHqumSjUIsnx-eHhFgLDd6OhtDvHrMo9e779x5fgFqaTRJUs5xYSWkSb5rYCSQFHRuv6E-_xbCSBWKIsMJ_TMvHohbjjznHmei9ZejrvMjmKsEaB2xpm4cA5pA0EhDxMRTKYTw6pfjQw2Gb3rn5R89SvDLxltfm8Oqw2ZUcfSAzIt_Fjbkr_H5idWnVFMlkK2cy9FPjgkeQcltAjKRdsNe-7LzJVljs5tQmS4od_epF4tF_Q-QN3NC412Px0ZO1gWc6DBk1hwoBF8w26kSU1fFWR2o_sIICytISs73QRZRDzOeMtHCnkL4d-OcNrllWx_sy0]--></g></svg>