<?xml version="1.0" encoding="us-ascii" standalone="no"?><svg xmlns="http://www.w3.org/2000/svg" xmlns:xlink="http://www.w3.org/1999/xlink" contentStyleType="text/css" height="630px" preserveAspectRatio="none" style="width:1664px;height:630px;" version="1.1" viewBox="0 0 1664 630" width="1664px" zoomAndPan="magnify"><defs/><g><!--cluster GE--><g id="cluster_GE"><path d="M8.5,278.2168 L233.5,278.2168 A3.75,3.75 0 0 1 236,280.7168 L243,307.498 L293.5,307.498 A2.5,2.5 0 0 1 296,309.998 L296,464.7168 A2.5,2.5 0 0 1 293.5,467.2168 L8.5,467.2168 A2.5,2.5 0 0 1 6,464.7168 L6,280.7168 A2.5,2.5 0 0 1 8.5,278.2168 " fill="#999999" fill-opacity="0.40000" style="stroke:#99999966;stroke-width:1.5;"/><line style="stroke:#99999966;stroke-width:1.5;" x1="6" x2="243" y1="307.498" y2="307.498"/><text fill="#FFFFFF" font-family="sans-serif" font-size="20" font-weight="bold" lengthAdjust="spacing" textLength="224" x="10" y="298.7813">Global Environment</text></g><!--cluster PDIR--><g id="cluster_PDIR"><path d="M347.5,7.2168 L544.5,7.2168 A3.75,3.75 0 0 1 547,9.7168 L554,36.498 L638.5,36.498 A2.5,2.5 0 0 1 641,38.998 L641,479.7168 A2.5,2.5 0 0 1 638.5,482.2168 L347.5,482.2168 A2.5,2.5 0 0 1 345,479.7168 L345,9.7168 A2.5,2.5 0 0 1 347.5,7.2168 " fill="#D9C499" fill-opacity="0.40000" style="stroke:#99999966;stroke-width:1.5;"/><line style="stroke:#99999966;stroke-width:1.5;" x1="345" x2="554" y1="36.498" y2="36.498"/><text fill="#FFFFFF" font-family="sans-serif" font-size="20" font-weight="bold" lengthAdjust="spacing" textLength="196" x="349" y="27.7813">Project Directory</text></g><!--cluster VENV--><g id="cluster_VENV"><path d="M1123.5,269.2168 L1440.5,269.2168 A3.75,3.75 0 0 1 1443,271.7168 L1450,298.498 L1654.5,298.498 A2.5,2.5 0 0 1 1657,300.998 L1657,455.7168 A2.5,2.5 0 0 1 1654.5,458.2168 L1123.5,458.2168 A2.5,2.5 0 0 1 1121,455.7168 L1121,271.7168 A2.5,2.5 0 0 1 1123.5,269.2168 " fill="#999999" fill-opacity="0.40000" style="stroke:#99999966;stroke-width:1.5;"/><line style="stroke:#99999966;stroke-width:1.5;" x1="1121" x2="1450" y1="298.498" y2="298.498"/><text fill="#FFFFFF" font-family="sans-serif" font-size="20" font-weight="bold" lengthAdjust="spacing" textLength="316" x="1125" y="289.7813">Virtual Environment (.venv)</text></g><!--class PY--><g id="elem_PY"><rect codeLine="19" fill="#999999" fill-opacity="0.60000" height="95.8438" id="PY" rx="2.5" ry="2.5" style="stroke:#000000;stroke-width:0.5;" width="242" x="30" y="347.2168"/><ellipse cx="111" cy="375.498" fill="#B4A7E5" rx="12" ry="12" style="stroke:#181818;stroke-width:1.0;"/><path d="M106.1875,370.9512 L106.1875,368.4199 L114.8594,368.4199 L114.8594,370.9512 L111.9688,370.9512 L111.9688,380.4512 L114.8594,380.4512 L114.8594,382.998 L106.1875,382.998 L106.1875,380.4512 L109.0781,380.4512 L109.0781,370.9512 L106.1875,370.9512 Z " fill="#000000"/><text fill="#000000" font-family="sans-serif" font-size="20" font-style="italic" lengthAdjust="spacing" textLength="55" x="141" y="370.7813">&#171;CLI&#187;</text><text fill="#000000" font-family="sans-serif" font-size="20" font-style="italic" lengthAdjust="spacing" textLength="71" x="133" y="394.0625">python</text><line style="stroke:#000000;stroke-width:0.5;" x1="31" x2="271" y1="403.7793" y2="403.7793"/><ellipse cx="41" cy="420.9199" fill="none" rx="3" ry="3" style="stroke:#038048;stroke-width:1.0;"/><text fill="#000000" font-family="sans-serif" font-size="20" lengthAdjust="spacing" textLength="215" x="51" y="426.3438">python -m venv .venv</text><line style="stroke:#000000;stroke-width:0.5;" x1="31" x2="271" y1="435.0605" y2="435.0605"/></g><!--class REQ_PROJ--><g id="elem_REQ_PROJ"><rect codeLine="25" fill="#999999" fill-opacity="0.60000" height="95.8438" id="REQ_PROJ" rx="2.5" ry="2.5" style="stroke:#000000;stroke-width:0.5;" width="248" x="369" y="207.2168"/><ellipse cx="385" cy="235.498" fill="#ADD1B2" rx="12" ry="12" style="stroke:#181818;stroke-width:1.0;"/><path d="M388.0625,242.5762 Q387.375,242.9355 386.625,243.1074 Q385.875,243.2793 385.0469,243.2793 Q382.0938,243.2793 380.5313,241.3418 Q378.9844,239.3887 378.9844,235.7168 Q378.9844,232.0449 380.5313,230.1074 Q382.0938,228.1543 385.0469,228.1543 Q385.875,228.1543 386.625,228.3262 Q387.3906,228.498 388.0625,228.8574 L388.0625,232.0605 Q387.3125,231.373 386.6094,231.0605 Q385.9219,230.748 385.1719,230.748 Q383.5938,230.748 382.7813,231.998 Q381.9844,233.248 381.9844,235.7168 Q381.9844,238.1855 382.7813,239.4355 Q383.5938,240.6855 385.1719,240.6855 Q385.9219,240.6855 386.6094,240.373 Q387.3125,240.0605 388.0625,239.373 L388.0625,242.5762 Z " fill="#000000"/><text fill="#000000" font-family="sans-serif" font-size="20" font-style="italic" lengthAdjust="spacing" textLength="60" x="477" y="230.7813">&#171;File&#187;</text><text fill="#000000" font-family="sans-serif" font-size="20" lengthAdjust="spacing" textLength="214" x="400" y="254.0625">proj-requirements.txt</text><line style="stroke:#000000;stroke-width:0.5;" x1="370" x2="616" y1="263.7793" y2="263.7793"/><ellipse cx="380" cy="280.9199" fill="none" rx="3" ry="3" style="stroke:#038048;stroke-width:1.0;"/><text fill="#000000" font-family="sans-serif" font-size="20" lengthAdjust="spacing" textLength="142" x="390" y="286.3438">Dependencies</text><line style="stroke:#000000;stroke-width:0.5;" x1="370" x2="616" y1="295.0605" y2="295.0605"/></g><!--class REQ--><g id="elem_REQ"><rect codeLine="28" fill="#999999" fill-opacity="0.60000" height="119.125" id="REQ" rx="2.5" ry="2.5" style="stroke:#000000;stroke-width:0.5;" width="202" x="392" y="338.7168"/><ellipse cx="408" cy="366.998" fill="#ADD1B2" rx="12" ry="12" style="stroke:#181818;stroke-width:1.0;"/><path d="M411.0625,374.0762 Q410.375,374.4355 409.625,374.6074 Q408.875,374.7793 408.0469,374.7793 Q405.0938,374.7793 403.5313,372.8418 Q401.9844,370.8887 401.9844,367.2168 Q401.9844,363.5449 403.5313,361.6074 Q405.0938,359.6543 408.0469,359.6543 Q408.875,359.6543 409.625,359.8262 Q410.3906,359.998 411.0625,360.3574 L411.0625,363.5605 Q410.3125,362.873 409.6094,362.5605 Q408.9219,362.248 408.1719,362.248 Q406.5938,362.248 405.7813,363.498 Q404.9844,364.748 404.9844,367.2168 Q404.9844,369.6855 405.7813,370.9355 Q406.5938,372.1855 408.1719,372.1855 Q408.9219,372.1855 409.6094,371.873 Q410.3125,371.5605 411.0625,370.873 L411.0625,374.0762 Z " fill="#000000"/><text fill="#000000" font-family="sans-serif" font-size="20" font-style="italic" lengthAdjust="spacing" textLength="60" x="477" y="362.2813">&#171;File&#187;</text><text fill="#000000" font-family="sans-serif" font-size="20" lengthAdjust="spacing" textLength="168" x="423" y="385.5625">requirements.txt</text><line style="stroke:#000000;stroke-width:0.5;" x1="393" x2="593" y1="395.2793" y2="395.2793"/><ellipse cx="403" cy="412.4199" fill="none" rx="3" ry="3" style="stroke:#038048;stroke-width:1.0;"/><text fill="#000000" font-family="sans-serif" font-size="20" lengthAdjust="spacing" textLength="142" x="413" y="417.8438">Dependencies</text><ellipse cx="403" cy="435.7012" fill="none" rx="3" ry="3" style="stroke:#038048;stroke-width:1.0;"/><text fill="#000000" font-family="sans-serif" font-size="20" lengthAdjust="spacing" textLength="85" x="413" y="441.125">Versions</text><line style="stroke:#000000;stroke-width:0.5;" x1="393" x2="593" y1="449.8418" y2="449.8418"/></g><!--class APP--><g id="elem_APP"><rect codeLine="32" fill="#999999" fill-opacity="0.60000" height="95.8438" id="APP" rx="2.5" ry="2.5" style="stroke:#000000;stroke-width:0.5;" width="183" x="401.5" y="76.2168"/><ellipse cx="417.5" cy="116.1387" fill="#ADD1B2" rx="12" ry="12" style="stroke:#181818;stroke-width:1.0;"/><path d="M420.5625,123.2168 Q419.875,123.5762 419.125,123.748 Q418.375,123.9199 417.5469,123.9199 Q414.5938,123.9199 413.0313,121.9824 Q411.4844,120.0293 411.4844,116.3574 Q411.4844,112.6855 413.0313,110.748 Q414.5938,108.7949 417.5469,108.7949 Q418.375,108.7949 419.125,108.9668 Q419.8906,109.1387 420.5625,109.498 L420.5625,112.7012 Q419.8125,112.0137 419.1094,111.7012 Q418.4219,111.3887 417.6719,111.3887 Q416.0938,111.3887 415.2813,112.6387 Q414.4844,113.8887 414.4844,116.3574 Q414.4844,118.8262 415.2813,120.0762 Q416.0938,121.3262 417.6719,121.3262 Q418.4219,121.3262 419.1094,121.0137 Q419.8125,120.7012 420.5625,120.0137 L420.5625,123.2168 Z " fill="#000000"/><text fill="#000000" font-family="sans-serif" font-size="20" font-style="italic" lengthAdjust="spacing" textLength="60" x="477" y="99.7813">&#171;File&#187;</text><text fill="#000000" font-family="sans-serif" font-size="20" lengthAdjust="spacing" textLength="81" x="466.5" y="123.0625">main.py</text><text fill="#000000" font-family="sans-serif" font-size="20" lengthAdjust="spacing" textLength="149" x="432.5" y="146.3438">(or other code)</text><line style="stroke:#000000;stroke-width:0.5;" x1="402.5" x2="583.5" y1="156.0605" y2="156.0605"/><line style="stroke:#000000;stroke-width:0.5;" x1="402.5" x2="583.5" y1="164.0605" y2="164.0605"/></g><!--class PIP--><g id="elem_PIP"><rect codeLine="38" fill="#999999" fill-opacity="0.60000" height="95.8438" id="PIP" rx="2.5" ry="2.5" style="stroke:#000000;stroke-width:0.5;" width="104" x="1145" y="338.2168"/><ellipse cx="1169.55" cy="366.498" fill="#B4A7E5" rx="12" ry="12" style="stroke:#181818;stroke-width:1.0;"/><path d="M1164.7375,361.9512 L1164.7375,359.4199 L1173.4094,359.4199 L1173.4094,361.9512 L1170.5188,361.9512 L1170.5188,371.4512 L1173.4094,371.4512 L1173.4094,373.998 L1164.7375,373.998 L1164.7375,371.4512 L1167.6281,371.4512 L1167.6281,361.9512 L1164.7375,361.9512 Z " fill="#000000"/><text fill="#000000" font-family="sans-serif" font-size="20" font-style="italic" lengthAdjust="spacing" textLength="55" x="1184.45" y="361.7813">&#171;CLI&#187;</text><text fill="#000000" font-family="sans-serif" font-size="20" font-style="italic" lengthAdjust="spacing" textLength="32" x="1195.95" y="385.0625">pip</text><line style="stroke:#000000;stroke-width:0.5;" x1="1146" x2="1248" y1="394.7793" y2="394.7793"/><line style="stroke:#000000;stroke-width:0.5;" x1="1146" x2="1248" y1="402.7793" y2="402.7793"/><ellipse cx="1156" cy="419.9199" fill="#84BE84" rx="3" ry="3" style="stroke:#038048;stroke-width:1.0;"/><text fill="#000000" font-family="sans-serif" font-size="20" lengthAdjust="spacing" textLength="77" x="1166" y="425.3438">install()</text></g><!--class PKG--><g id="elem_PKG"><rect codeLine="41" fill="#999999" fill-opacity="0.60000" height="72.5625" id="PKG" rx="2.5" ry="2.5" style="stroke:#000000;stroke-width:0.5;" width="251" x="1382" y="341.7168"/><ellipse cx="1398" cy="369.998" fill="#ADD1B2" rx="12" ry="12" style="stroke:#181818;stroke-width:1.0;"/><path d="M1401.0625,377.0762 Q1400.375,377.4355 1399.625,377.6074 Q1398.875,377.7793 1398.0469,377.7793 Q1395.0938,377.7793 1393.5313,375.8418 Q1391.9844,373.8887 1391.9844,370.2168 Q1391.9844,366.5449 1393.5313,364.6074 Q1395.0938,362.6543 1398.0469,362.6543 Q1398.875,362.6543 1399.625,362.8262 Q1400.3906,362.998 1401.0625,363.3574 L1401.0625,366.5605 Q1400.3125,365.873 1399.6094,365.5605 Q1398.9219,365.248 1398.1719,365.248 Q1396.5938,365.248 1395.7813,366.498 Q1394.9844,367.748 1394.9844,370.2168 Q1394.9844,372.6855 1395.7813,373.9355 Q1396.5938,375.1855 1398.1719,375.1855 Q1398.9219,375.1855 1399.6094,374.873 Q1400.3125,374.5605 1401.0625,373.873 L1401.0625,377.0762 Z " fill="#000000"/><text fill="#000000" font-family="sans-serif" font-size="20" font-style="italic" lengthAdjust="spacing" textLength="61" x="1491" y="365.2813">&#171;Pkg&#187;</text><text fill="#000000" font-family="sans-serif" font-size="20" lengthAdjust="spacing" textLength="217" x="1413" y="388.5625">Python Dependencies</text><line style="stroke:#000000;stroke-width:0.5;" x1="1383" x2="1632" y1="398.2793" y2="398.2793"/><line style="stroke:#000000;stroke-width:0.5;" x1="1383" x2="1632" y1="406.2793" y2="406.2793"/></g><!--class USER--><g id="elem_USER"><rect codeLine="71" fill="#999999" fill-opacity="0.60000" height="142.4063" id="USER" rx="2.5" ry="2.5" style="stroke:#000000;stroke-width:0.5;" width="107" x="807" y="196.2168"/><ellipse cx="823" cy="224.498" fill="#A9DCDF" rx="12" ry="12" style="stroke:#181818;stroke-width:1.0;"/><path d="M823.0156,219.3105 L821.6563,225.2637 L824.3906,225.2637 L823.0156,219.3105 Z M821.2656,216.6699 L824.7813,216.6699 L828.7188,231.248 L825.8438,231.248 L824.9375,227.6387 L821.0781,227.6387 L820.2031,231.248 L817.3281,231.248 L821.2656,216.6699 Z " fill="#000000"/><text fill="#000000" font-family="sans-serif" font-size="20" font-style="italic" lengthAdjust="spacing" textLength="77" x="836" y="219.7813">&#171;Actor&#187;</text><text fill="#000000" font-family="sans-serif" font-size="20" font-style="italic" lengthAdjust="spacing" textLength="45" x="852" y="243.0625">User</text><line style="stroke:#000000;stroke-width:0.5;" x1="808" x2="913" y1="252.7793" y2="252.7793"/><line style="stroke:#000000;stroke-width:0.5;" x1="808" x2="913" y1="260.7793" y2="260.7793"/><ellipse cx="818" cy="277.9199" fill="#84BE84" rx="3" ry="3" style="stroke:#038048;stroke-width:1.0;"/><text fill="#000000" font-family="sans-serif" font-size="20" lengthAdjust="spacing" textLength="48" x="828" y="283.3438">eat()</text><ellipse cx="818" cy="301.2012" fill="#84BE84" rx="3" ry="3" style="stroke:#038048;stroke-width:1.0;"/><text fill="#000000" font-family="sans-serif" font-size="20" lengthAdjust="spacing" textLength="69" x="828" y="306.625">sleep()</text><ellipse cx="818" cy="324.4824" fill="#84BE84" rx="3" ry="3" style="stroke:#038048;stroke-width:1.0;"/><text fill="#000000" font-family="sans-serif" font-size="20" lengthAdjust="spacing" textLength="64" x="828" y="329.9063">code()</text></g><!--link GE to PDIR--><!--link PDIR to VENV--><!--link PY to VENV--><g id="link_PY_VENV"><path codeLine="58" d="M240.48,443.4168 C268.03,456.0168 299.05,467.8368 329,474.2168 C585.27,528.8168 666.5,487.2268 914,401.2168 C1000.77,371.0668 1017.21,349.2768 1105,322.2168 C1109.7813,320.743 1114.7389,319.3476 1119.7601,318.033 C1120.074,317.9509 1114.5802,319.3755 1114.8945,319.294 " fill="none" id="PY-to-VENV" style="stroke:#00A2FF;stroke-width:2.5;"/><polygon fill="#00A2FF" points="1120.7023,317.7875,1110.9863,316.1754,1115.8625,319.0429,1112.995,323.9191,1120.7023,317.7875" style="stroke:#00A2FF;stroke-width:2.5;"/><text fill="#00A2FF" font-family="sans-serif" font-size="20" font-style="italic" lengthAdjust="spacing" textLength="73" x="684.5" y="444.7813">creates</text></g><!--link PIP to PKG--><g id="link_PIP_PKG"><path codeLine="59" d="M1249.29,384.8868 C1285.44,383.9568 1329.482,382.8121 1375.822,381.6121 " fill="none" id="PIP-to-PKG" style="stroke:#00A2FF;stroke-width:2.5;"/><polygon fill="#00A2FF" points="1381.82,381.4568,1372.7195,377.6911,1376.8217,381.5862,1372.9266,385.6884,1381.82,381.4568" style="stroke:#00A2FF;stroke-width:2.5;"/><text fill="#00A2FF" font-family="sans-serif" font-size="20" font-style="italic" lengthAdjust="spacing" textLength="71" x="1280" y="377.7813">installs</text></g><!--reverse link REQ to PIP--><g id="link_REQ_PIP"><path codeLine="62" d="M600.2091,396.4041 C752.1191,393.8041 1029.22,389.0668 1144.83,387.0968 " fill="none" id="REQ-backto-PIP" style="stroke:#00A2FF;stroke-width:2.5;"/><polygon fill="#00A2FF" points="594.21,396.5068,603.2771,400.3522,599.2093,396.4212,603.1402,392.3534,594.21,396.5068" style="stroke:#00A2FF;stroke-width:2.5;"/><text fill="#00A2FF" font-family="sans-serif" font-size="20" font-style="italic" lengthAdjust="spacing" textLength="90" x="815.5" y="385.7813">compiles</text></g><!--reverse link REQ to PIP--><g id="link_REQ_PIP"><path codeLine="88" d="M538.5752,462.7639 C569.2252,501.9739 611.33,545.1768 665,567.2168 C711.04,586.1368 727.24,568.5368 777,567.2168 C919.37,563.4368 974.87,623.4868 1097,550.2168 C1139.64,524.6368 1166.24,473.0068 1180.99,434.4768 " fill="none" id="REQ-backto-PIP-1" style="stroke:#EE220C;stroke-width:2.5;stroke-dasharray:10.0,5.0;"/><polygon fill="#EE220C" points="534.88,458.0368,537.2713,467.5909,537.9593,461.9761,543.5742,462.6641,534.88,458.0368" style="stroke:#EE220C;stroke-width:2.5;"/><text fill="#EE220C" font-family="sans-serif" font-size="20" font-style="italic" lengthAdjust="spacing" textLength="82" x="819.5" y="561.7813">requires</text></g><!--link USER to VENV--><g id="link_USER_VENV"><path codeLine="76" d="M914.13,272.8868 C960.495,277.8768 1029.5025,285.3018 1087.6313,291.5568 C1094.8973,292.3387 1101.9935,293.1023 1108.8541,293.8405 C1112.2844,294.2097 1115.6559,294.5725 1118.9603,294.9281 C1119.3734,294.9725 1113.8198,294.3749 1114.2308,294.4191 " fill="none" id="USER-to-VENV" style="stroke:#61D836;stroke-width:2.5;"/><polygon fill="#61D836" points="1120.1963,295.0611,1111.676,290.1211,1115.225,294.5261,1110.82,298.0752,1120.1963,295.0611" style="stroke:#61D836;stroke-width:2.5;"/><text fill="#61D836" font-family="sans-serif" font-size="20" font-style="italic" lengthAdjust="spacing" textLength="79" x="978" y="225.7813">creates,</text><text fill="#61D836" font-family="sans-serif" font-size="20" font-style="italic" lengthAdjust="spacing" textLength="139" x="951" y="249.0625">(de-)activates</text><text fill="#61D836" font-family="sans-serif" font-size="20" font-style="italic" lengthAdjust="spacing" textLength="114" x="963.5" y="272.3438">&amp; manages</text></g><!--reverse link REQ_PROJ to USER--><g id="link_REQ_PROJ_USER"><path codeLine="77" d="M623.2268,259.4631 C687.6768,261.5731 757.22,263.8568 806.6,265.4868 " fill="none" id="REQ_PROJ-backto-USER" style="stroke:#61D836;stroke-width:2.5;"/><polygon fill="#61D836" points="617.23,259.2668,626.0943,263.5591,622.2273,259.4304,626.3561,255.5634,617.23,259.2668" style="stroke:#61D836;stroke-width:2.5;"/><text fill="#61D836" font-family="sans-serif" font-size="20" font-style="italic" lengthAdjust="spacing" textLength="76" x="683" y="255.7813">collects</text></g><!--reverse link REQ to USER--><g id="link_REQ_USER"><path codeLine="78" d="M599.7025,361.4229 C653.9325,342.4229 716.41,320.3068 777,298.2168 C786.63,294.7068 796.87,290.9168 806.74,287.2168 " fill="none" id="REQ-backto-USER" style="stroke:#61D836;stroke-width:2.5;"/><polygon fill="#61D836" points="594.04,363.4068,603.8564,364.2059,598.7588,361.7535,601.2112,356.6559,594.04,363.4068" style="stroke:#61D836;stroke-width:2.5;"/><text fill="#61D836" font-family="sans-serif" font-size="20" font-style="italic" lengthAdjust="spacing" textLength="110" x="666" y="292.7813">pip freezes</text></g><!--link APP to PKG--><g id="link_APP_PKG"><path codeLine="87" d="M584.57,127.7068 C703.81,134.0168 919.15,151.3768 1097,198.2168 C1167.72,216.8468 1181.92,232.0868 1249,261.2168 C1309.35,287.4268 1371.6308,315.7455 1422.4708,339.1755 " fill="none" id="APP-to-PKG" style="stroke:#EE220C;stroke-width:2.5;stroke-dasharray:10.0,5.0;"/><polygon fill="#EE220C" points="1427.92,341.6868,1421.4204,334.2871,1423.379,339.5941,1418.0721,341.5526,1427.92,341.6868" style="stroke:#EE220C;stroke-width:2.5;"/><text fill="#EE220C" font-family="sans-serif" font-size="20" font-style="italic" lengthAdjust="spacing" textLength="82" x="979.5" y="161.7813">requires</text></g><!--SRC=[ZLHjRn914Fv-ls924uNKGqHBn009jb2hZPvWCSOQizmDi7BidhiBbPf-zGVu4_qbpkuUz4HycG_acBUTUPwPIN5Ym4XGV3epa725iU5I1C5TQBVRC3Jh5A4ynym0Jr0O7hEqOas1ddEHCSKMaE24BLFJby8C-JL2lLOmFcNnVAhaKYJ7CfKAZ692aubo5Rmoyc9JXAy1aEp673ITD1hUAbM2obkixBE-vOcPEMlTQMrjjn4KCt4It1HgY5EczTyhQ3RtLr1pGjbos2BVZeQoa5VWl361qnxy-FOTefEpWViOzLwEF9QRzakdgHop57fYnPKK2mAf14pRI5yN5mRLXCNacgtDJ0fdZju1j5h7vsUTJkvdvT1xGBY05OeLLEslizxOIhTlHaf-8jRXn94lrThdj5KU9CtuaOKsJ-iXAcKK4IhylAG8MwEkcYzKADYuGU_rnsZmwZaLrESfTZg5WaumGq5J57FKUI65hFiIUl5f_okZquvGQHhYFMyi61VLR7qfoaITD3DK4Ci4AwxbRXHjtx085J0QSMMMln83PGUe3xLKmXwEU7RRXKFrBDh751VQi3GjLtwlEF8a5Xlr_BmufKpHVEfhzNFtZ2Va0qmfUQNjMgSodiDCAdvD2q3rkr5q8qSZ1H2-dxc83s774HuurejQszWc-uXhFgPpC4wNk7cZhDa2GUE2sTkW_JYtj3qRdS3vv7sUSu7vBjLgtNg_lzM-cV5uBf2QhLUFThQrwElkYxj7d5hXCRNTkf-_5DWL2FDwuGd42fcXaR1uMxL5YzGvpfgeTGCLXeuH6o0N6H6ljuSlmfWJO4EwL-uqTds_xQBygz76WvF73nkxBUNQGlLihEaPMi7IXKRbwBqOzWR4RzSkv7PM3gcfV4OETOgORVxO6QRlcy25xG7Y7bmAA2SOLkWPlh8gqjm1eitTgU1sRGaJbyLYagPq4VGMgrnFKmqJXNXjuVeJ19wf1xNmQ1ULNgzUhntlef9h2wZOTInmbvy7lSlSLlyJ]--></g></svg>