<svg xmlns="http://www.w3.org/2000/svg" xmlns:xlink="http://www.w3.org/1999/xlink" contentStyleType="text/css" data-diagram-type="CLASS" height="716px" preserveAspectRatio="none" style="width:1128px;height:716px;" version="1.1" viewBox="0 0 1128 716" width="1128px" zoomAndPan="magnify"><?plantuml 1.2026.3?><defs/><g><!--cluster GE--><g class="cluster" data-qualified-name="GE" data-source-line="53" id="ent0002"><path d="M458.24,8.36 L627.4948,8.36 A11.25,11.25 0 0 1 634.9948,15.86 L641.9948,41.6 L657.84,41.6 A7.5,7.5 0 0 1 665.34,49.1 L665.34,341.86 A7.5,7.5 0 0 1 657.84,349.36 L458.24,349.36 A7.5,7.5 0 0 1 450.74,341.86 L450.74,15.86 A7.5,7.5 0 0 1 458.24,8.36" fill="#AFB200" fill-opacity="0.09804" style="stroke:#AFB200;stroke-width:2;"/><line style="stroke:#AFB200;stroke-width:2;" x1="450.74" x2="641.9948" y1="41.6" y2="41.6"/><text fill="#AFB200" font-family="sans-serif" font-size="20" font-weight="700" lengthAdjust="spacing" textLength="178.2548" x="454.74" y="31.74">Operating System</text><text fill="#AFB200" font-family="sans-serif" font-size="20" font-style="italic" lengthAdjust="spacing" textLength="195.2198" x="464.4301" y="64.9799">&#171;Global Environment&#187;</text></g><!--cluster PDIR--><g class="cluster" data-qualified-name="PDIR" data-source-line="63" id="ent0004"><path d="M13.5,102.36 L172.0998,102.36 A11.25,11.25 0 0 1 179.5998,109.86 L186.5998,135.6 L234.24,135.6 A7.5,7.5 0 0 1 241.74,143.1 L241.74,693.86 A7.5,7.5 0 0 1 234.24,701.36 L13.5,701.36 A7.5,7.5 0 0 1 6,693.86 L6,109.86 A7.5,7.5 0 0 1 13.5,102.36" fill="#00A2FF" fill-opacity="0.09804" style="stroke:#00A2FF;stroke-width:2;"/><line style="stroke:#00A2FF;stroke-width:2;" x1="6" x2="186.5998" y1="135.6" y2="135.6"/><text fill="#00A2FF" font-family="sans-serif" font-size="20" font-weight="700" lengthAdjust="spacing" textLength="167.5998" x="10" y="125.74">Project Directory</text><text fill="#00A2FF" font-family="sans-serif" font-size="20" font-style="italic" lengthAdjust="spacing" textLength="99.7799" x="77.98" y="158.9799">&#171;Directory&#187;</text></g><!--cluster VENV--><g class="cluster" data-qualified-name="VENV" data-source-line="78" id="ent0008"><path d="M822.84,425.36 L866.2849,425.36 A11.25,11.25 0 0 1 873.7849,432.86 L880.7849,458.6 L1106.01,458.6 A7.5,7.5 0 0 1 1113.51,466.1 L1113.51,622.86 A7.5,7.5 0 0 1 1106.01,630.36 L822.84,630.36 A7.5,7.5 0 0 1 815.34,622.86 L815.34,432.86 A7.5,7.5 0 0 1 822.84,425.36" fill="#32BC00" fill-opacity="0.09804" style="stroke:#32BC00;stroke-width:2;"/><line style="stroke:#32BC00;stroke-width:2;" x1="815.34" x2="880.7849" y1="458.6" y2="458.6"/><text fill="#32BC00" font-family="sans-serif" font-size="20" font-weight="700" lengthAdjust="spacing" textLength="52.4449" x="819.34" y="448.74">.venv</text><text fill="#32BC00" font-family="sans-serif" font-size="20" font-style="italic" lengthAdjust="spacing" textLength="196.0398" x="870.4051" y="481.9799">&#171;Virtual Environment&#187;</text></g><!--class UVG--><g class="entity" data-qualified-name="GE.UVG" data-source-line="54" id="ent0003"><rect fill="#CCCCCC" fill-opacity="0.46667" height="216.6798" rx="2.5" ry="2.5" style="stroke:#000000;stroke-width:1;" width="166.5998" x="474.74" y="109.02"/><ellipse cx="532.1099" cy="141.26" fill="#B4A7E5" rx="12" ry="12" style="stroke:#181818;stroke-width:1;"/><path d="M529.2349,148.76 L529.2349,146.7443 L530.9224,146.7443 L530.9224,136.0725 L529.2349,136.0725 L529.2349,134.0568 L534.9849,134.0568 L534.9849,136.0725 L533.2974,136.0725 L533.2974,146.7443 L534.9849,146.7443 L534.9849,148.76 L529.2349,148.76 Z " fill="#000000"/><text fill="#000000" font-family="sans-serif" font-size="20" font-style="italic" lengthAdjust="spacing" textLength="46.86" x="552.1099" y="135.4">&#171;CLI&#187;</text><text fill="#000000" font-family="sans-serif" font-size="20" font-style="italic" font-weight="700" lengthAdjust="spacing" textLength="23.77" x="563.6549" y="162.6399">uv</text><line style="stroke:#000000;stroke-width:1;" x1="475.74" x2="640.3398" y1="173.4999" y2="173.4999"/><line style="stroke:#000000;stroke-width:1;" x1="475.74" x2="640.3398" y1="181.4999" y2="181.4999"/><g data-visibility-modifier="PUBLIC_METHOD"><ellipse cx="485.74" cy="200.6199" fill="#84BE84" rx="3" ry="3" style="stroke:#038048;stroke-width:1;"/></g><text fill="#000000" font-family="sans-serif" font-size="20" lengthAdjust="spacing" textLength="139.5998" x="495.74" y="206.8799">python install()</text><g data-visibility-modifier="PUBLIC_METHOD"><ellipse cx="485.74" cy="227.8599" fill="#84BE84" rx="3" ry="3" style="stroke:#038048;stroke-width:1;"/></g><text fill="#000000" font-family="sans-serif" font-size="20" lengthAdjust="spacing" textLength="55.9599" x="495.74" y="234.1199">venv()</text><g data-visibility-modifier="PUBLIC_METHOD"><ellipse cx="485.74" cy="255.0999" fill="#84BE84" rx="3" ry="3" style="stroke:#038048;stroke-width:1;"/></g><text fill="#000000" font-family="sans-serif" font-size="20" lengthAdjust="spacing" textLength="49.54" x="495.74" y="261.3599">lock()</text><g data-visibility-modifier="PUBLIC_METHOD"><ellipse cx="485.74" cy="282.3399" fill="#84BE84" rx="3" ry="3" style="stroke:#038048;stroke-width:1;"/></g><text fill="#000000" font-family="sans-serif" font-size="20" lengthAdjust="spacing" textLength="53.74" x="495.74" y="288.5998">sync()</text><g data-visibility-modifier="PUBLIC_METHOD"><ellipse cx="485.74" cy="309.5798" fill="#84BE84" rx="3" ry="3" style="stroke:#038048;stroke-width:1;"/></g><text fill="#000000" font-family="sans-serif" font-size="20" lengthAdjust="spacing" textLength="44.98" x="495.74" y="315.8398">run()</text></g><!--class PPRT--><g class="entity" data-qualified-name="PDIR.PPRT" data-source-line="64" id="ent0005"><rect fill="#CCCCCC" fill-opacity="0.46667" height="134.9599" rx="2.5" ry="2.5" width="187.7398" x="30" y="399.88"/><ellipse cx="49.6135" cy="432.12" fill="#ADD1B2" rx="12" ry="12" style="stroke:#181818;stroke-width:1;"/><path d="M49.551,439.7762 Q48.9572,439.7762 48.3479,439.6668 Q47.7541,439.5731 47.2229,439.3075 Q46.6916,439.0418 46.2541,438.62 Q45.8322,438.1825 45.551,437.6512 Q45.2697,437.1043 45.1604,436.5106 Q45.0666,435.9168 45.0666,435.3231 L45.0666,429.2137 Q45.0666,428.62 45.1604,428.0262 Q45.2697,427.4325 45.551,426.9012 Q45.8322,426.3543 46.2541,425.9325 Q46.6916,425.495 47.2229,425.2293 Q47.7541,424.9637 48.3479,424.87 Q48.9572,424.7606 49.551,424.7606 Q50.1135,424.7606 50.6604,424.8387 Q51.2072,424.9168 51.7229,425.1356 Q52.2541,425.3387 52.6916,425.6981 Q53.1291,426.0418 53.426,426.5106 Q53.7385,426.9793 53.8791,427.5262 Q54.0354,428.0575 54.0354,428.62 L54.0354,428.6981 L51.6604,428.6981 L51.6604,428.6668 Q51.6604,428.2606 51.5041,427.8856 Q51.3479,427.495 51.0354,427.245 Q50.7385,426.9793 50.3479,426.8856 Q49.9572,426.7762 49.551,426.7762 Q49.0979,426.7762 48.6447,426.9637 Q48.2072,427.1356 47.926,427.495 Q47.6604,427.8543 47.551,428.3075 Q47.4572,428.7606 47.4572,429.2137 L47.4572,435.3231 Q47.4572,435.7762 47.551,436.2293 Q47.6604,436.6825 47.926,437.0418 Q48.2072,437.4012 48.6447,437.5887 Q49.0979,437.7606 49.551,437.7606 Q49.9572,437.7606 50.3479,437.6668 Q50.7385,437.5575 51.0354,437.3075 Q51.3479,437.0418 51.5041,436.6668 Q51.6604,436.2762 51.6604,435.8856 L51.6604,435.8387 L54.0354,435.8387 L54.0354,435.9168 Q54.0354,436.4793 53.8791,437.0262 Q53.7385,437.5575 53.426,438.0262 Q53.1291,438.495 52.6916,438.8543 Q52.2541,439.1981 51.7229,439.4168 Q51.2072,439.62 50.6604,439.6981 Q50.1135,439.7762 49.551,439.7762 Z " fill="#000000"/><text fill="#000000" font-family="sans-serif" font-size="20" font-style="italic" lengthAdjust="spacing" textLength="76.7599" x="99.8914" y="426.26">&#171;Config&#187;</text><text fill="#000000" font-family="sans-serif" font-size="20" font-weight="700" lengthAdjust="spacing" textLength="145.7099" x="65.4165" y="453.4999">pyproject.toml</text><line x1="31" x2="216.7398" y1="464.3599" y2="464.3599"/><g data-visibility-modifier="PUBLIC_FIELD"><ellipse cx="41" cy="483.4799" fill="none" rx="3" ry="3" style="stroke:#038048;stroke-width:1;"/></g><text fill="#000000" font-family="sans-serif" font-size="20" lengthAdjust="spacing" textLength="133.3798" x="51" y="489.7399">Dependencies</text><g data-visibility-modifier="PUBLIC_FIELD"><ellipse cx="41" cy="510.7199" fill="none" rx="3" ry="3" style="stroke:#038048;stroke-width:1;"/></g><text fill="#000000" font-family="sans-serif" font-size="20" lengthAdjust="spacing" textLength="160.7398" x="51" y="516.9799">Project Metadata</text><line x1="31" x2="216.7398" y1="526.8399" y2="526.8399"/></g><!--class LOCK--><g class="entity" data-qualified-name="PDIR.LOCK" data-source-line="68" id="ent0006"><rect fill="#CCCCCC" fill-opacity="0.46667" height="162.1999" rx="2.5" ry="2.5" width="160.3798" x="43.68" y="202.26"/><ellipse cx="75.619" cy="234.5" fill="#ADD1B2" rx="12" ry="12" style="stroke:#181818;stroke-width:1;"/><path d="M75.5565,242.1562 Q74.9627,242.1562 74.3533,242.0468 Q73.7596,241.9531 73.2283,241.6875 Q72.6971,241.4218 72.2596,241 Q71.8377,240.5625 71.5565,240.0312 Q71.2752,239.4843 71.1658,238.8906 Q71.0721,238.2968 71.0721,237.7031 L71.0721,231.5937 Q71.0721,231 71.1658,230.4062 Q71.2752,229.8125 71.5565,229.2812 Q71.8377,228.7343 72.2596,228.3125 Q72.6971,227.875 73.2283,227.6093 Q73.7596,227.3437 74.3533,227.25 Q74.9627,227.1406 75.5565,227.1406 Q76.119,227.1406 76.6658,227.2187 Q77.2127,227.2968 77.7283,227.5156 Q78.2596,227.7187 78.6971,228.0781 Q79.1346,228.4218 79.4315,228.8906 Q79.744,229.3593 79.8846,229.9062 Q80.0408,230.4375 80.0408,231 L80.0408,231.0781 L77.6658,231.0781 L77.6658,231.0468 Q77.6658,230.6406 77.5096,230.2656 Q77.3533,229.875 77.0408,229.625 Q76.744,229.3593 76.3533,229.2656 Q75.9627,229.1562 75.5565,229.1562 Q75.1033,229.1562 74.6502,229.3437 Q74.2127,229.5156 73.9315,229.875 Q73.6658,230.2343 73.5565,230.6875 Q73.4627,231.1406 73.4627,231.5937 L73.4627,237.7031 Q73.4627,238.1562 73.5565,238.6093 Q73.6658,239.0625 73.9315,239.4218 Q74.2127,239.7812 74.6502,239.9687 Q75.1033,240.1406 75.5565,240.1406 Q75.9627,240.1406 76.3533,240.0468 Q76.744,239.9375 77.0408,239.6875 Q77.3533,239.4218 77.5096,239.0468 Q77.6658,238.6562 77.6658,238.2656 L77.6658,238.2187 L80.0408,238.2187 L80.0408,238.2968 Q80.0408,238.8593 79.8846,239.4062 Q79.744,239.9375 79.4315,240.4062 Q79.1346,240.875 78.6971,241.2343 Q78.2596,241.5781 77.7283,241.7968 Q77.2127,242 76.6658,242.0781 Q76.119,242.1562 75.5565,242.1562 Z " fill="#000000"/><text fill="#000000" font-family="sans-serif" font-size="20" font-style="italic" lengthAdjust="spacing" textLength="94.9599" x="92.1609" y="228.64">&#171;Lock-File&#187;</text><text fill="#000000" font-family="sans-serif" font-size="20" font-weight="700" lengthAdjust="spacing" textLength="69.7949" x="104.7434" y="255.8799">uv.lock</text><line x1="44.68" x2="203.0598" y1="266.7399" y2="266.7399"/><g data-visibility-modifier="PUBLIC_FIELD"><ellipse cx="54.68" cy="285.8599" fill="none" rx="3" ry="3" style="stroke:#038048;stroke-width:1;"/></g><text fill="#000000" font-family="sans-serif" font-size="20" lengthAdjust="spacing" textLength="133.3798" x="64.68" y="292.1199">Dependencies</text><g data-visibility-modifier="PUBLIC_FIELD"><ellipse cx="54.68" cy="313.0999" fill="none" rx="3" ry="3" style="stroke:#038048;stroke-width:1;"/></g><text fill="#000000" font-family="sans-serif" font-size="20" lengthAdjust="spacing" textLength="80.3199" x="64.68" y="319.3599">Versions</text><g data-visibility-modifier="PUBLIC_FIELD"><ellipse cx="54.68" cy="340.3399" fill="none" rx="3" ry="3" style="stroke:#038048;stroke-width:1;"/></g><text fill="#000000" font-family="sans-serif" font-size="20" lengthAdjust="spacing" textLength="74.1599" x="64.68" y="346.5999">Sources</text><line x1="44.68" x2="203.0598" y1="356.4599" y2="356.4599"/></g><!--class APP--><g class="entity" data-qualified-name="PDIR.APP" data-source-line="73" id="ent0007"><rect fill="#CCCCCC" fill-opacity="0.46667" height="107.7199" rx="2.5" ry="2.5" width="181.3849" x="33.18" y="569.5"/><ellipse cx="49.18" cy="615.36" fill="#ADD1B2" rx="12" ry="12" style="stroke:#181818;stroke-width:1;"/><path d="M49.1175,623.0162 Q48.5238,623.0162 47.9144,622.9068 Q47.3206,622.8131 46.7894,622.5475 Q46.2581,622.2818 45.8206,621.86 Q45.3988,621.4225 45.1175,620.8912 Q44.8363,620.3443 44.7269,619.7506 Q44.6331,619.1568 44.6331,618.5631 L44.6331,612.4537 Q44.6331,611.86 44.7269,611.2662 Q44.8363,610.6725 45.1175,610.1412 Q45.3988,609.5943 45.8206,609.1725 Q46.2581,608.735 46.7894,608.4693 Q47.3206,608.2037 47.9144,608.11 Q48.5238,608.0006 49.1175,608.0006 Q49.68,608.0006 50.2269,608.0787 Q50.7738,608.1568 51.2894,608.3756 Q51.8206,608.5787 52.2581,608.9381 Q52.6956,609.2818 52.9925,609.7506 Q53.305,610.2193 53.4456,610.7662 Q53.6019,611.2975 53.6019,611.86 L53.6019,611.9381 L51.2269,611.9381 L51.2269,611.9068 Q51.2269,611.5006 51.0706,611.1256 Q50.9144,610.735 50.6019,610.485 Q50.305,610.2193 49.9144,610.1256 Q49.5238,610.0162 49.1175,610.0162 Q48.6644,610.0162 48.2113,610.2037 Q47.7738,610.3756 47.4925,610.735 Q47.2269,611.0943 47.1175,611.5475 Q47.0238,612.0006 47.0238,612.4537 L47.0238,618.5631 Q47.0238,619.0162 47.1175,619.4693 Q47.2269,619.9225 47.4925,620.2818 Q47.7738,620.6412 48.2113,620.8287 Q48.6644,621.0006 49.1175,621.0006 Q49.5238,621.0006 49.9144,620.9068 Q50.305,620.7975 50.6019,620.5475 Q50.9144,620.2818 51.0706,619.9068 Q51.2269,619.5162 51.2269,619.1256 L51.2269,619.0787 L53.6019,619.0787 L53.6019,619.1568 Q53.6019,619.7193 53.4456,620.2662 Q53.305,620.7975 52.9925,621.2662 Q52.6956,621.735 52.2581,622.0943 Q51.8206,622.4381 51.2894,622.6568 Q50.7738,622.86 50.2269,622.9381 Q49.68,623.0162 49.1175,623.0162 Z " fill="#000000"/><text fill="#000000" font-family="sans-serif" font-size="20" font-style="italic" lengthAdjust="spacing" textLength="48.92" x="113.4125" y="595.88">&#171;File&#187;</text><text fill="#000000" font-family="sans-serif" font-size="20" font-weight="700" lengthAdjust="spacing" textLength="79.6749" x="98.035" y="623.1199">main.py</text><text fill="#000000" font-family="sans-serif" font-size="20" font-weight="700" lengthAdjust="spacing" textLength="147.3849" x="64.18" y="650.3599">(or other code)</text><line x1="34.18" x2="213.5649" y1="661.2199" y2="661.2199"/><line x1="34.18" x2="213.5649" y1="669.2199" y2="669.2199"/></g><!--class PKG--><g class="entity" data-qualified-name="VENV.PKG" data-source-line="79" id="ent0009"><rect fill="#CCCCCC" fill-opacity="0.46667" height="80.4799" rx="2.5" ry="2.5" width="250.1698" x="839.34" y="526.12"/><ellipse cx="855.34" cy="558.36" fill="#ADD1B2" rx="12" ry="12" style="stroke:#181818;stroke-width:1;"/><path d="M855.2775,566.0162 Q854.6838,566.0162 854.0744,565.9068 Q853.4806,565.8131 852.9494,565.5475 Q852.4181,565.2818 851.9806,564.86 Q851.5588,564.4225 851.2775,563.8912 Q850.9963,563.3443 850.8869,562.7506 Q850.7931,562.1568 850.7931,561.5631 L850.7931,555.4537 Q850.7931,554.86 850.8869,554.2662 Q850.9963,553.6725 851.2775,553.1412 Q851.5588,552.5943 851.9806,552.1725 Q852.4181,551.735 852.9494,551.4693 Q853.4806,551.2037 854.0744,551.11 Q854.6838,551.0006 855.2775,551.0006 Q855.84,551.0006 856.3869,551.0787 Q856.9338,551.1568 857.4494,551.3756 Q857.9806,551.5787 858.4181,551.9381 Q858.8556,552.2818 859.1525,552.7506 Q859.465,553.2193 859.6056,553.7662 Q859.7619,554.2975 859.7619,554.86 L859.7619,554.9381 L857.3869,554.9381 L857.3869,554.9068 Q857.3869,554.5006 857.2306,554.1256 Q857.0744,553.735 856.7619,553.485 Q856.465,553.2193 856.0744,553.1256 Q855.6838,553.0162 855.2775,553.0162 Q854.8244,553.0162 854.3713,553.2037 Q853.9338,553.3756 853.6525,553.735 Q853.3869,554.0943 853.2775,554.5475 Q853.1838,555.0006 853.1838,555.4537 L853.1838,561.5631 Q853.1838,562.0162 853.2775,562.4693 Q853.3869,562.9225 853.6525,563.2818 Q853.9338,563.6412 854.3713,563.8287 Q854.8244,564.0006 855.2775,564.0006 Q855.6838,564.0006 856.0744,563.9068 Q856.465,563.7975 856.7619,563.5475 Q857.0744,563.2818 857.2306,562.9068 Q857.3869,562.5162 857.3869,562.1256 L857.3869,562.0787 L859.7619,562.0787 L859.7619,562.1568 Q859.7619,562.7193 859.6056,563.2662 Q859.465,563.7975 859.1525,564.2662 Q858.8556,564.735 858.4181,565.0943 Q857.9806,565.4381 857.4494,565.6568 Q856.9338,565.86 856.3869,565.9381 Q855.84,566.0162 855.2775,566.0162 Z " fill="#000000"/><text fill="#000000" font-family="sans-serif" font-size="20" font-style="italic" lengthAdjust="spacing" textLength="51.9" x="952.4749" y="552.5">&#171;Pkg&#187;</text><text fill="#000000" font-family="sans-serif" font-size="20" font-weight="700" lengthAdjust="spacing" textLength="216.1698" x="870.34" y="579.7399">Python Dependencies</text><line x1="840.34" x2="1088.5098" y1="590.5999" y2="590.5999"/><line x1="840.34" x2="1088.5098" y1="598.5999" y2="598.5999"/></g><!--class USER--><g class="entity" data-qualified-name="USER" data-source-line="97" id="ent0012"><rect fill="#CCCCCC" fill-opacity="0.46667" height="162.1999" rx="2.5" ry="2.5" style="stroke:#444444;stroke-width:1;" width="95.24" x="510.42" y="444.26"/><ellipse cx="526.42" cy="476.5" fill="#A9DCDF" rx="12" ry="12" style="stroke:#181818;stroke-width:1;"/><path d="M521.42,483.25 L525.0606,468.5468 L527.7794,468.5468 L531.42,483.25 L528.9669,483.25 L528.2638,480.0625 L524.5763,480.0625 L523.8731,483.25 L521.42,483.25 Z M527.8263,478.0468 L526.8263,473.4531 Q526.7169,472.9843 526.6075,472.5468 Q526.5138,472.0937 526.42,471.6562 Q526.3263,472.0937 526.2169,472.5468 Q526.1231,472.9843 526.0138,473.4531 L525.0138,478.0468 L527.8263,478.0468 Z " fill="#000000"/><text fill="#000000" font-family="sans-serif" font-size="20" font-style="italic" lengthAdjust="spacing" textLength="65.24" x="539.42" y="470.64">&#171;Actor&#187;</text><text fill="#000000" font-family="sans-serif" font-size="20" font-style="italic" font-weight="700" lengthAdjust="spacing" textLength="46.2399" x="548.92" y="497.8799">User</text><line style="stroke:#444444;stroke-width:1;" x1="511.42" x2="604.66" y1="508.7399" y2="508.7399"/><line style="stroke:#444444;stroke-width:1;" x1="511.42" x2="604.66" y1="516.7399" y2="516.7399"/><g data-visibility-modifier="PUBLIC_METHOD"><ellipse cx="521.42" cy="535.8599" fill="#84BE84" rx="3" ry="3" style="stroke:#038048;stroke-width:1;"/></g><text fill="#000000" font-family="sans-serif" font-size="20" lengthAdjust="spacing" textLength="41.72" x="531.42" y="542.1199">eat()</text><g data-visibility-modifier="PUBLIC_METHOD"><ellipse cx="521.42" cy="563.0999" fill="#84BE84" rx="3" ry="3" style="stroke:#038048;stroke-width:1;"/></g><text fill="#000000" font-family="sans-serif" font-size="20" lengthAdjust="spacing" textLength="61.5999" x="531.42" y="569.3599">sleep()</text><g data-visibility-modifier="PUBLIC_METHOD"><ellipse cx="521.42" cy="590.3399" fill="#84BE84" rx="3" ry="3" style="stroke:#038048;stroke-width:1;"/></g><text fill="#000000" font-family="sans-serif" font-size="20" lengthAdjust="spacing" textLength="57.28" x="531.42" y="596.5999">code()</text></g><!--link GE to PDIR--><!--link PDIR to VENV--><!--reverse link PPRT to USER--><g class="link" data-entity-1="ent0005" data-entity-2="ent0012" data-link-type="dependency" data-source-line="97" id="lnk13"><path codeLine="97" d="M223.5364,510.1839 C239.2464,515.5639 249.92,518.32 265.74,521.36 C350.67,537.68 452.11,533.99 510.11,529.73" fill="none" id="PPRT-backto-USER" style="stroke:#00A2FF;stroke-width:2.5;"/><polygon fill="#00A2FF" points="217.86,508.24,225.0786,514.9401,222.5903,509.8599,227.6705,507.3716,217.86,508.24" style="stroke:#00A2FF;stroke-width:2.5;"/><text fill="#00A2FF" font-family="sans-serif" font-size="20" font-style="italic" lengthAdjust="spacing" textLength="42" x="325.74" y="514.74">edits</text></g><!--reverse link LOCK to UVG--><g class="link" data-entity-1="ent0006" data-entity-2="ent0003" data-link-type="dependency" data-source-line="98" id="lnk14"><path codeLine="98" d="M209.6941,228.9634 C229.0341,218.9134 244.86,212.63 265.74,207.36 C334.55,189.98 415.4,194.65 474.44,202.42" fill="none" id="LOCK-backto-UVG" style="stroke:#00A2FF;stroke-width:2.5;"/><polygon fill="#00A2FF" points="204.37,231.73,214.2005,231.1294,208.8067,229.4245,210.5117,224.0307,204.37,231.73" style="stroke:#00A2FF;stroke-width:2.5;"/><text fill="#00A2FF" font-family="sans-serif" font-size="20" font-style="italic" lengthAdjust="spacing" textLength="70.96" x="311.24" y="188.84">resolves</text></g><!--reverse link LOCK to UVG--><g class="link" data-entity-1="ent0006" data-entity-2="ent0003" data-link-type="dependency" data-source-line="131" id="lnk21"><path codeLine="131" d="M210.2009,274.0862 C271.2209,267.0862 351.57,256.99 426.74,244.36 C442.23,241.76 458.69,238.63 474.5,235.45" fill="none" id="LOCK-backto-UVG-1" style="stroke:#EE220C;stroke-width:2.5;stroke-dasharray:10,5;"/><polygon fill="#EE220C" points="204.24,274.77,213.6372,277.7182,209.2074,274.2001,212.7255,269.7703,204.24,274.77" style="stroke:#EE220C;stroke-width:2.5;"/><text fill="#EE220C" font-family="sans-serif" font-size="20" font-style="italic" lengthAdjust="spacing" textLength="49.52" x="321.74" y="237.74">reads</text></g><!--reverse link LOCK to USER--><g class="link" data-entity-1="ent0006" data-entity-2="ent0012" data-link-type="dependency" data-source-line="100" id="lnk15"><path codeLine="100" d="M209.1307,330.0714 C229.7207,345.0614 244.85,360.24 257.74,382.36 C272.17,407.13 246.84,424.81 265.74,446.36 C314.5,501.96 355.39,468.93 426.74,488.36 C454.42,495.9 485.31,504.66 510.06,511.76" fill="none" id="LOCK-backto-USER" style="stroke:#00A2FF;stroke-width:2.5;"/><polygon fill="#00A2FF" points="204.28,326.54,209.2018,335.0709,208.3222,329.4828,213.9103,328.6033,204.28,326.54" style="stroke:#00A2FF;stroke-width:2.5;"/><text fill="#00A2FF" font-family="sans-serif" font-size="20" font-style="italic" lengthAdjust="spacing" textLength="65.52" x="313.74" y="439.74">reviews</text></g><!--link UVG to PKG--><g class="link" data-entity-1="ent0003" data-entity-2="ent0009" data-link-type="dependency" data-source-line="118" id="lnk16"><path codeLine="118" d="M635.38,325.98 C653.6,357.06 670.8,391.89 681.34,426.36 C685.41,439.67 679.45,541.56 689.34,551.36 C727.76,589.43 780.0047,597.1096 832.9247,593.3996" fill="none" id="UVG-to-PKG" style="stroke:#32BC00;stroke-width:2.5;"/><polygon fill="#32BC00" points="838.91,592.98,829.6523,589.6192,833.9222,593.3297,830.2118,597.5996,838.91,592.98" style="stroke:#32BC00;stroke-width:2.5;"/><text fill="#32BC00" font-family="sans-serif" font-size="20" font-style="italic" lengthAdjust="spacing" textLength="47.26" x="716.84" y="544.74">syncs</text></g><!--link UVG to VENV--><g class="link" data-entity-1="ent0003" data-entity-2="ent0008" data-link-type="dependency" data-source-line="119" id="lnk17"><path codeLine="119" d="M641.81,268.38 C686.52,296.37 742.42,332.06 791.34,365.36 C810.57,378.4525 830.7569,392.6712 850.2652,406.6691 C855.1422,410.1685 859.9769,413.6542 864.7436,417.1049 C867.1269,418.8303 869.4933,420.547 871.8394,422.2523 C873.0125,423.105 869.3304,429.2267 870.493,430.0734" fill="none" id="UVG-to-VENV" style="stroke:#32BC00;stroke-width:4;"/><polygon fill="#32BC00" points="875.3432,433.6055,870.4227,425.0739,871.3014,430.6621,865.7132,431.5407,875.3432,433.6055" style="stroke:#32BC00;stroke-width:4;"/><text fill="#32BC00" font-family="sans-serif" font-size="20" font-style="italic" font-weight="700" lengthAdjust="spacing" textLength="72.8149" x="704.34" y="292.39">creates</text></g><!--link USER to VENV--><g class="link" data-entity-1="ent0012" data-entity-2="ent0008" data-link-type="dependency" data-source-line="120" id="lnk18"><path codeLine="120" d="M605.82,521.31 C632.225,519.025 667.5331,515.9694 705.703,512.6659 C724.7879,511.0142 744.5882,509.3005 764.3488,507.5903 C774.2292,506.7351 784.0995,505.8808 793.8655,505.0356 C798.7486,504.6129 803.6055,504.1926 808.4245,503.7755 C809.6293,503.6712 810.8317,503.5671 812.0315,503.4633 C812.6315,503.4113 807.2531,503.8769 807.8517,503.825" fill="none" id="USER-to-VENV" style="stroke:#32BC00;stroke-width:2.5;"/><polygon fill="#32BC00" points="813.8294,503.3077,804.518,500.0986,808.848,503.7388,805.2078,508.0688,813.8294,503.3077" style="stroke:#32BC00;stroke-width:2.5;"/><text fill="#32BC00" font-family="sans-serif" font-size="20" font-style="italic" lengthAdjust="spacing" textLength="70.9999" x="702.57" y="445.14">runs uv,</text><text fill="#32BC00" font-family="sans-serif" font-size="20" font-style="italic" lengthAdjust="spacing" textLength="78.1799" x="701.58" y="472.3799">activates</text><text fill="#32BC00" font-family="sans-serif" font-size="20" font-style="italic" lengthAdjust="spacing" textLength="100.6599" x="690.34" y="499.6199">&amp; manages</text></g><!--link APP to PKG--><g class="link" data-entity-1="ent0007" data-entity-2="ent0009" data-link-type="dependency" data-source-line="129" id="lnk19"><path codeLine="129" d="M215.04,639.39 C325.55,656.47 518.22,677.94 681.34,653.36 C741.14,644.35 800.0692,627.12 852.3492,609.05" fill="none" id="APP-to-PKG" style="stroke:#EE220C;stroke-width:2.5;stroke-dasharray:10,5;"/><polygon fill="#EE220C" points="858.02,607.09,848.2071,606.2495,853.2943,608.7234,850.8205,613.8106,858.02,607.09" style="stroke:#EE220C;stroke-width:2.5;"/><text fill="#EE220C" font-family="sans-serif" font-size="20" font-style="italic" lengthAdjust="spacing" textLength="72.8399" x="522.04" y="646.74">requires</text></g><!--reverse link PPRT to UVG--><g class="link" data-entity-1="ent0005" data-entity-2="ent0003" data-link-type="dependency" data-source-line="130" id="lnk20"><path codeLine="130" d="M223.7318,426.1428 C298.2118,394.4828 390.34,353.7 426.74,330.36 C442.87,320.01 459.08,307.78 474.32,295.25" fill="none" id="PPRT-backto-UVG" style="stroke:#EE220C;stroke-width:2.5;stroke-dasharray:10,5;"/><polygon fill="#EE220C" points="218.21,428.49,228.0576,428.6504,222.8115,426.534,224.9279,421.2879,218.21,428.49" style="stroke:#EE220C;stroke-width:2.5;"/><text fill="#EE220C" font-family="sans-serif" font-size="20" font-style="italic" lengthAdjust="spacing" textLength="49.52" x="321.65" y="296.74">reads</text><text fill="#EE220C" font-family="sans-serif" font-size="20" font-style="italic" lengthAdjust="spacing" textLength="159.3399" x="266.74" y="323.9799">dependency specs</text></g><?plantuml-src dLPVRzis47_NfpYuG9i_isTx3OeMYe4qSR8YsMh4ZL-QFT3IsUOiaof9AN27lEu3x2Fka-n8KRPaoqWnlbYyu_7kVlUxenES6J0I59yl3CHSOMIu5C4R4gPMCPN6o5L5GwhpytEuIUIK9P18kOJNC4DCh7Yx0hta8cMAaItEM9QOQodCc7z7w7VfZgtw8ukMSoKp4L_AH2furNMhrmqEdp6A2Kqg5CO7z0EhSbzAzx4vmby1qBelBbO25VJEdEYZL36gBmiUBGLg3NqdVTCKx4N_-hhtljGxkvhEQspwXHmsckVzaCBG8piKELTIh2Z5mI0CHskpa096nQd1m8U-5m-RJVi4tljA5ZNDREOqjMWsciPu9boPR3UW0zv_wK-ZPk-5fidxHjFe_SeHJwhruPHh9JXKW6Ru_mzteeGH8Gx44hdrxjrUB7QzUkjM8y5wcoZ7PfqWzLqIDv7pUJUICBoy-xG5PzTbqKoDPbBC-DnnQ-b-xcIqR5_p1BNTsO-Qz4KVJMbPpp-ESXLmFsSyuJKS2Va4xdQCuMO8__xz3uokFjsxZydmzycnFH-KdTtwdA9YXeivZDVQuAe5J5kxvWRpgN5XKCrOHFPPxYmU9ZS0TOpjEasBVkH26vOaHyTRJOuYh-uJ0h2wrsiHLVSg4txxRC7Q931Iya-YFcmwmCNZKcvgYuAMhNIT5dOT6jj9YnJMQ7J_1ROLhwHnXIcA64N4KM-bfUlVqB2O6UQZgxZ9yexDgrMQM2ztdozleKQO5nrDK6bwL2gIiSnKv8_KFAuO5vrq_IYEY7RIBAWT8XdZiKFbOZI2ahAESLiOExOUxf0b2HoOPtKG_R2jnbo0Vti3lbqsmmD-vJ6T0QQKVDBsoRJ0m48g_fswcHmvqZfo4lq0skwj_RfmPd-q1wwaWQlhdig6NFgPSCsdTZ8a6PRUZZHR8MXSCM5uf8iM2BMT88F0dV69tN61-qFHIYjlNETiPrJk3j1YD75AYaS4GFYpznG41SFQRNWO3-_X0s3CZGuAHbYfxQ8Fe53B9AVgLZJ5UOKvnoTTvZeUOSG9kZ4zzEwVoKMHRtr4l93eWIUd-k1KCWZOL9CtOdthGQCgcjy65uONjjCs73b5Pdp3dke4CIqtbexqJSImwRPjPMzTshRZjHD2-wifyJv_MrQOZfoSH8hkHNro4ZYlpjuhQK9eoFAVu95eHl_2SdkGDg-1wkw6Ot0GYw9alMxxR1UUuR3VxrxkWkEb5MXiRrMIKVWje-6ZAoKlYyjY_KZzufjc3Jh5g8a4T2xu3m00?></g></svg>