<?xml version="1.0" encoding="UTF-8" standalone="no"?>
<!DOCTYPE svg PUBLIC "-//W3C//DTD SVG 1.1//EN"
 "http://www.w3.org/Graphics/SVG/1.1/DTD/svg11.dtd">
<!-- Generated by graphviz version 14.1.5 (20260411.2331)
 -->
<!-- Title: diagram_simple_graphviz Pages: 1 -->
<svg width="1338pt" height="577pt"
 viewBox="3.00 3.00 1335.00 574.00" xmlns="http://www.w3.org/2000/svg" xmlns:xlink="http://www.w3.org/1999/xlink">
<g id="graph0" class="graph" transform="scale(1 1) rotate(0) translate(5.76 571.6)">
<title>diagram_simple_graphviz</title>
<g id="clust1" class="cluster">
<title>cluster_GE</title>
<path fill="#afb200" fill-opacity="0.098039" stroke="#afb200" stroke-width="2" d="M12,-138.84C12,-138.84 234.25,-138.84 234.25,-138.84 240.25,-138.84 246.25,-144.84 246.25,-150.84 246.25,-150.84 246.25,-400.84 246.25,-400.84 246.25,-406.84 240.25,-412.84 234.25,-412.84 234.25,-412.84 12,-412.84 12,-412.84 6,-412.84 0,-406.84 0,-400.84 0,-400.84 0,-150.84 0,-150.84 0,-144.84 6,-138.84 12,-138.84"/>
<text xml:space="preserve" text-anchor="middle" x="123.12" y="-389.84" font-family="sans-serif" font-size="20.00" fill="#afb200">Operating System</text>
<text xml:space="preserve" text-anchor="middle" x="123.12" y="-362.09" font-family="sans-serif" font-size="20.00" fill="#afb200">&lt;&lt;Global Environment&gt;&gt;</text>
</g>
<g id="clust2" class="cluster">
<title>cluster_PDIR</title>
<path fill="#00a2ff" fill-opacity="0.098039" stroke="#00a2ff" stroke-width="2" d="M369.5,-47.84C369.5,-47.84 573.25,-47.84 573.25,-47.84 579.25,-47.84 585.25,-53.84 585.25,-59.84 585.25,-59.84 585.25,-545.84 585.25,-545.84 585.25,-551.84 579.25,-557.84 573.25,-557.84 573.25,-557.84 369.5,-557.84 369.5,-557.84 363.5,-557.84 357.5,-551.84 357.5,-545.84 357.5,-545.84 357.5,-59.84 357.5,-59.84 357.5,-53.84 363.5,-47.84 369.5,-47.84"/>
<text xml:space="preserve" text-anchor="middle" x="471.38" y="-534.84" font-family="sans-serif" font-size="20.00" fill="#00a2ff">Project Directory</text>
<text xml:space="preserve" text-anchor="middle" x="471.38" y="-507.09" font-family="sans-serif" font-size="20.00" fill="#00a2ff">&lt;&lt;Directory&gt;&gt;</text>
</g>
<g id="clust3" class="cluster">
<title>cluster_VENV</title>
<path fill="#32bc00" fill-opacity="0.098039" stroke="#32bc00" stroke-width="2" d="M1043.5,-198.84C1043.5,-198.84 1306,-198.84 1306,-198.84 1312,-198.84 1318,-204.84 1318,-210.84 1318,-210.84 1318,-340.84 1318,-340.84 1318,-346.84 1312,-352.84 1306,-352.84 1306,-352.84 1043.5,-352.84 1043.5,-352.84 1037.5,-352.84 1031.5,-346.84 1031.5,-340.84 1031.5,-340.84 1031.5,-210.84 1031.5,-210.84 1031.5,-204.84 1037.5,-198.84 1043.5,-198.84"/>
<text xml:space="preserve" text-anchor="middle" x="1174.75" y="-329.84" font-family="sans-serif" font-size="20.00" fill="#32bc00">.venv</text>
<text xml:space="preserve" text-anchor="middle" x="1174.75" y="-302.09" font-family="sans-serif" font-size="20.00" fill="#32bc00">&lt;&lt;Virtual Environment&gt;&gt;</text>
</g>
<!-- USER&#45;&gt;PPRT -->
<g id="edge4" class="edge">
<title>USER&#45;&gt;PPRT</title>
<path fill="none" stroke="#00a2ff" stroke-width="2.5" d="M807.93,-310.67C796.02,-353.59 773.4,-406.13 731.25,-432.84 683.95,-462.81 648.24,-468.72 605.25,-432.84 567.1,-401 612.06,-364.67 585.25,-322.84 581.58,-317.11 577.33,-311.68 572.68,-306.55"/>
<polygon fill="#00a2ff" stroke="#00a2ff" stroke-width="2.5" points="575.12,-304.55 566.56,-300.35 570.64,-308.97 575.12,-304.55"/>
<text xml:space="preserve" text-anchor="start" x="647.25" y="-467.33" font-family="sans-serif" font-style="italic" font-size="20.00" fill="#00a2ff">edits</text>
</g>
<!-- USER&#45;&gt;LOCK -->
<g id="edge6" class="edge">
<title>USER&#45;&gt;LOCK</title>
<path fill="none" stroke="#00a2ff" stroke-width="2.5" d="M775.41,-310.64C762.67,-325.41 747.73,-339.66 731.25,-349.84 703.51,-366.96 627.71,-384.04 565.25,-395.93"/>
<polygon fill="#00a2ff" stroke="#00a2ff" stroke-width="2.5" points="564.94,-392.78 556.68,-397.54 566.1,-398.97 564.94,-392.78"/>
<text xml:space="preserve" text-anchor="start" x="636" y="-396.38" font-family="sans-serif" font-style="italic" font-size="20.00" fill="#00a2ff">reviews</text>
</g>
<!-- USER&#45;&gt;PKG -->
<!-- USER&#45;&gt;PKG -->
<g id="edge8" class="edge">
<title>USER&#45;&gt;PKG</title>
<path fill="none" stroke="#32bc00" stroke-width="2.5" d="M873.59,-193.12C885.26,-184.39 898.23,-176.61 911.75,-171.84 983.18,-146.62 1068.08,-181.36 1121.45,-210.77"/>
<polygon fill="#32bc00" stroke="#32bc00" stroke-width="2.5" points="1119.67,-213.38 1129.06,-215.08 1122.78,-207.9 1119.67,-213.38"/>
<text xml:space="preserve" text-anchor="start" x="926.75" y="-213.84" font-family="sans-serif" font-style="italic" font-size="20.00" fill="#32bc00">runs uv,</text>
<text xml:space="preserve" text-anchor="start" x="922.62" y="-193.84" font-family="sans-serif" font-style="italic" font-size="20.00" fill="#32bc00">activates</text>
<text xml:space="preserve" text-anchor="start" x="911.75" y="-173.84" font-family="sans-serif" font-style="italic" font-size="20.00" fill="#32bc00">&amp; manages</text>
</g>
<!-- UV&#45;&gt;PPRT -->
<!-- UV&#45;&gt;PPRT -->
<g id="edge10" class="edge">
<title>UV&#45;&gt;PPRT</title>
<path fill="none" stroke="#ee220c" stroke-width="2.5" stroke-dasharray="5,2" d="M209.75,-214.7C248.65,-204.93 295.27,-197.91 337.5,-204.09 346,-205.33 354.71,-207 363.42,-208.95"/>
<polygon fill="#ee220c" stroke="#ee220c" stroke-width="2.5" points="362.52,-211.98 372,-211.01 363.98,-205.85 362.52,-211.98"/>
<text xml:space="preserve" text-anchor="start" x="266.25" y="-213.84" font-family="sans-serif" font-style="italic" font-size="20.00" fill="#ee220c">requires</text>
</g>
<!-- UV&#45;&gt;LOCK -->
<g id="edge5" class="edge">
<title>UV&#45;&gt;LOCK</title>
<path fill="none" stroke="#00a2ff" stroke-width="2.5" d="M209.78,-172.72C252.11,-146.63 301.6,-130.38 337.5,-162.09 364.48,-185.92 339.82,-291.48 357.5,-322.84 363.61,-333.68 371.63,-343.67 380.57,-352.74"/>
<polygon fill="#00a2ff" stroke="#00a2ff" stroke-width="2.5" points="378.35,-354.98 387.05,-358.89 382.69,-350.41 378.35,-354.98"/>
<text xml:space="preserve" text-anchor="start" x="266.62" y="-171.84" font-family="sans-serif" font-style="italic" font-size="20.00" fill="#00a2ff">resolves</text>
</g>
<!-- UV&#45;&gt;LOCK -->
<g id="edge11" class="edge">
<title>UV&#45;&gt;LOCK</title>
<path fill="none" stroke="#ee220c" stroke-width="2.5" stroke-dasharray="5,2" d="M188.81,-156.87C233.33,-107.77 292.22,-63.77 337.5,-105.09 373.4,-137.84 334.32,-280.13 357.5,-322.84 363.59,-334.06 371.75,-344.34 380.92,-353.63"/>
<polygon fill="#ee220c" stroke="#ee220c" stroke-width="2.5" points="378.53,-355.71 387.23,-359.61 382.87,-351.13 378.53,-355.71"/>
<text xml:space="preserve" text-anchor="start" x="277.5" y="-114.84" font-family="sans-serif" font-style="italic" font-size="20.00" fill="#ee220c">reads</text>
</g>
<!-- UV&#45;&gt;PKG -->
<g id="edge7" class="edge">
<title>UV&#45;&gt;PKG</title>
<path fill="none" stroke="#32bc00" stroke-width="4" d="M185.38,-157.13C208.44,-128.97 236.35,-99.24 266.25,-76.84 301.83,-50.17 314.03,-45.15 357.5,-35.84 643.53,25.47 745.74,12.4 1011.5,-109.84 1061.46,-132.82 1108.76,-175.1 1139.26,-206.04"/>
<polygon fill="#32bc00" stroke="#32bc00" stroke-width="4" points="1136.98,-208.22 1145.5,-212.51 1141.52,-203.85 1136.98,-208.22"/>
<text xml:space="preserve" text-anchor="start" x="605.25" y="-31.08" font-family="sans-serif" font-weight="bold" font-style="italic" font-size="20.00" fill="#32bc00">creates .venv</text>
<text xml:space="preserve" text-anchor="start" x="632.62" y="-11.08" font-family="sans-serif" font-weight="bold" font-style="italic" font-size="20.00" fill="#32bc00">&amp; syncs</text>
</g>
<!-- APP&#45;&gt;PKG -->
<g id="edge9" class="edge">
<title>APP&#45;&gt;PKG</title>
<path fill="none" stroke="#ee220c" stroke-width="2.5" stroke-dasharray="5,2" d="M562.74,-111.68C576.96,-112.87 591.5,-113.98 605.25,-114.84 786.16,-126.11 841.61,-87.64 1011.5,-150.84 1051.65,-165.77 1093.51,-190.02 1124.66,-210.01"/>
<polygon fill="#ee220c" stroke="#ee220c" stroke-width="2.5" points="1122.78,-212.54 1132.04,-214.81 1126.22,-207.26 1122.78,-212.54"/>
<text xml:space="preserve" text-anchor="start" x="785.88" y="-125.67" font-family="sans-serif" font-style="italic" font-size="20.00" fill="#ee220c">requires</text>
</g>
<!-- PPRT&#45;&gt;USER -->
<!-- USER -->
<g id="node1" class="node">
<title>USER</title>
<path fill="#cccccc" fill-opacity="0.466667" stroke="none" d="M781.25,-176.84C781.25,-176.84 861.75,-176.84 861.75,-176.84 867.75,-176.84 873.75,-182.84 873.75,-188.84 873.75,-188.84 873.75,-298.84 873.75,-298.84 873.75,-304.84 867.75,-310.84 861.75,-310.84 861.75,-310.84 781.25,-310.84 781.25,-310.84 775.25,-310.84 769.25,-304.84 769.25,-298.84 769.25,-298.84 769.25,-188.84 769.25,-188.84 769.25,-182.84 775.25,-176.84 781.25,-176.84"/>
<polygon fill="none" stroke="#444444" points="770.25,-253.84 770.25,-309.84 872.75,-309.84 872.75,-253.84 770.25,-253.84"/>
<polygon fill="#a9dcdf" stroke="none" points="778.25,-261.84 778.25,-301.84 790.75,-301.84 790.75,-261.84 778.25,-261.84"/>
<polygon fill="none" stroke="#181818" points="778.25,-261.84 778.25,-301.84 790.75,-301.84 790.75,-261.84 778.25,-261.84"/>
<text xml:space="preserve" text-anchor="start" x="779.25" y="-275.84" font-family="sans-serif" font-size="16.00">A</text>
<text xml:space="preserve" text-anchor="start" x="798.75" y="-283.84" font-family="sans-serif" font-style="italic" font-size="20.00">«Actor»</text>
<text xml:space="preserve" text-anchor="start" x="810.38" y="-263.84" font-family="sans-serif" font-weight="bold" font-style="italic" font-size="20.00">User</text>
<polygon fill="none" stroke="#444444" points="770.25,-177.84 770.25,-253.84 872.75,-253.84 872.75,-177.84 770.25,-177.84"/>
<text xml:space="preserve" text-anchor="start" x="778.25" y="-227.84" font-family="sans-serif" font-size="20.00" fill="#038048">∘</text>
<text xml:space="preserve" text-anchor="start" x="790.25" y="-227.84" font-family="sans-serif" font-size="20.00"> eat()</text>
<text xml:space="preserve" text-anchor="start" x="778.25" y="-207.84" font-family="sans-serif" font-size="20.00" fill="#038048">∘</text>
<text xml:space="preserve" text-anchor="start" x="790.25" y="-207.84" font-family="sans-serif" font-size="20.00"> sleep()</text>
<text xml:space="preserve" text-anchor="start" x="778.25" y="-187.84" font-family="sans-serif" font-size="20.00" fill="#038048">∘</text>
<text xml:space="preserve" text-anchor="start" x="790.25" y="-187.84" font-family="sans-serif" font-size="20.00"> code()</text>
<path fill="none" stroke="#444444" d="M781.25,-176.84C781.25,-176.84 861.75,-176.84 861.75,-176.84 867.75,-176.84 873.75,-182.84 873.75,-188.84 873.75,-188.84 873.75,-298.84 873.75,-298.84 873.75,-304.84 867.75,-310.84 861.75,-310.84 861.75,-310.84 781.25,-310.84 781.25,-310.84 775.25,-310.84 769.25,-304.84 769.25,-298.84 769.25,-298.84 769.25,-188.84 769.25,-188.84 769.25,-182.84 775.25,-176.84 781.25,-176.84"/>
</g>
<!-- UV -->
<g id="node2" class="node">
<title>UV</title>
<path fill="#cccccc" fill-opacity="0.466667" stroke="none" d="M47.25,-156.84C47.25,-156.84 198,-156.84 198,-156.84 204,-156.84 210,-162.84 210,-168.84 210,-168.84 210,-318.84 210,-318.84 210,-324.84 204,-330.84 198,-330.84 198,-330.84 47.25,-330.84 47.25,-330.84 41.25,-330.84 35.25,-324.84 35.25,-318.84 35.25,-318.84 35.25,-168.84 35.25,-168.84 35.25,-162.84 41.25,-156.84 47.25,-156.84"/>
<polygon fill="none" stroke="#000000" points="36.25,-273.84 36.25,-329.84 209,-329.84 209,-273.84 36.25,-273.84"/>
<polygon fill="#b4a7e5" stroke="none" points="44.25,-281.84 44.25,-321.84 82.67,-321.84 82.67,-281.84 44.25,-281.84"/>
<polygon fill="none" stroke="#181818" points="44.25,-281.84 44.25,-321.84 82.67,-321.84 82.67,-281.84 44.25,-281.84"/>
<text xml:space="preserve" text-anchor="start" x="60.83" y="-295.84" font-family="sans-serif" font-size="16.00">I</text>
<text xml:space="preserve" text-anchor="start" x="137.42" y="-303.84" font-family="sans-serif" font-style="italic" font-size="20.00">«CLI»</text>
<text xml:space="preserve" text-anchor="start" x="150.17" y="-283.84" font-family="sans-serif" font-weight="bold" font-style="italic" font-size="20.00">uv</text>
<polygon fill="none" stroke="#000000" points="36.25,-157.84 36.25,-273.84 209,-273.84 209,-157.84 36.25,-157.84"/>
<text xml:space="preserve" text-anchor="start" x="44.25" y="-247.84" font-family="sans-serif" font-size="20.00" fill="#038048">∘</text>
<text xml:space="preserve" text-anchor="start" x="56.25" y="-247.84" font-family="sans-serif" font-size="20.00"> python install()</text>
<text xml:space="preserve" text-anchor="start" x="44.25" y="-227.84" font-family="sans-serif" font-size="20.00" fill="#038048">∘</text>
<text xml:space="preserve" text-anchor="start" x="56.25" y="-227.84" font-family="sans-serif" font-size="20.00"> venv()</text>
<text xml:space="preserve" text-anchor="start" x="44.25" y="-207.84" font-family="sans-serif" font-size="20.00" fill="#038048">∘</text>
<text xml:space="preserve" text-anchor="start" x="56.25" y="-207.84" font-family="sans-serif" font-size="20.00"> lock()</text>
<text xml:space="preserve" text-anchor="start" x="44.25" y="-187.84" font-family="sans-serif" font-size="20.00" fill="#038048">∘</text>
<text xml:space="preserve" text-anchor="start" x="56.25" y="-187.84" font-family="sans-serif" font-size="20.00"> sync()</text>
<text xml:space="preserve" text-anchor="start" x="44.25" y="-167.84" font-family="sans-serif" font-size="20.00" fill="#038048">∘</text>
<text xml:space="preserve" text-anchor="start" x="56.25" y="-167.84" font-family="sans-serif" font-size="20.00"> run()</text>
<path fill="none" stroke="#000000" d="M47.25,-156.84C47.25,-156.84 198,-156.84 198,-156.84 204,-156.84 210,-162.84 210,-168.84 210,-168.84 210,-318.84 210,-318.84 210,-324.84 204,-330.84 198,-330.84 198,-330.84 47.25,-330.84 47.25,-330.84 41.25,-330.84 35.25,-324.84 35.25,-318.84 35.25,-318.84 35.25,-168.84 35.25,-168.84 35.25,-162.84 41.25,-156.84 47.25,-156.84"/>
</g>
<!-- APP -->
<g id="node3" class="node">
<title>APP</title>
<path fill="#cccccc" fill-opacity="0.466667" stroke="none" d="M391.88,-65.84C391.88,-65.84 550.88,-65.84 550.88,-65.84 556.88,-65.84 562.88,-71.84 562.88,-77.84 562.88,-77.84 562.88,-127.84 562.88,-127.84 562.88,-133.84 556.88,-139.84 550.88,-139.84 550.88,-139.84 391.88,-139.84 391.88,-139.84 385.88,-139.84 379.88,-133.84 379.88,-127.84 379.88,-127.84 379.88,-77.84 379.88,-77.84 379.88,-71.84 385.88,-65.84 391.88,-65.84"/>
<polygon fill="#add1b2" stroke="none" points="386.88,-72.84 386.88,-132.84 398.62,-132.84 398.62,-72.84 386.88,-72.84"/>
<polygon fill="none" stroke="#181818" points="386.88,-72.84 386.88,-132.84 398.62,-132.84 398.62,-72.84 386.88,-72.84"/>
<text xml:space="preserve" text-anchor="start" x="387.88" y="-96.84" font-family="sans-serif" font-size="16.00">C</text>
<text xml:space="preserve" text-anchor="start" x="456.5" y="-114.84" font-family="sans-serif" font-style="italic" font-size="20.00">«File»</text>
<text xml:space="preserve" text-anchor="start" x="441.88" y="-94.84" font-family="sans-serif" font-weight="bold" font-size="20.00">main.py</text>
<text xml:space="preserve" text-anchor="start" x="406.62" y="-74.84" font-family="sans-serif" font-weight="bold" font-size="20.00">(or other code)</text>
</g>
<!-- PPRT -->
<g id="node4" class="node">
<title>PPRT</title>
<path fill="#cccccc" fill-opacity="0.466667" stroke="none" d="M387.5,-189.84C387.5,-189.84 555.25,-189.84 555.25,-189.84 561.25,-189.84 567.25,-195.84 567.25,-201.84 567.25,-201.84 567.25,-285.84 567.25,-285.84 567.25,-291.84 561.25,-297.84 555.25,-297.84 555.25,-297.84 387.5,-297.84 387.5,-297.84 381.5,-297.84 375.5,-291.84 375.5,-285.84 375.5,-285.84 375.5,-201.84 375.5,-201.84 375.5,-195.84 381.5,-189.84 387.5,-189.84"/>
<polygon fill="#add1b2" stroke="none" points="382.5,-250.84 382.5,-290.84 397.92,-290.84 397.92,-250.84 382.5,-250.84"/>
<polygon fill="none" stroke="#181818" points="382.5,-250.84 382.5,-290.84 397.92,-290.84 397.92,-250.84 382.5,-250.84"/>
<text xml:space="preserve" text-anchor="start" x="385.33" y="-264.84" font-family="sans-serif" font-size="16.00">C</text>
<text xml:space="preserve" text-anchor="start" x="446.67" y="-272.84" font-family="sans-serif" font-style="italic" font-size="20.00">«Config»</text>
<text xml:space="preserve" text-anchor="start" x="411.42" y="-252.84" font-family="sans-serif" font-weight="bold" font-size="20.00">pyproject.toml</text>
<text xml:space="preserve" text-anchor="start" x="382.5" y="-218.84" font-family="sans-serif" font-size="20.00" fill="#038048">∘</text>
<text xml:space="preserve" text-anchor="start" x="394.5" y="-218.84" font-family="sans-serif" font-size="20.00"> Dependencies</text>
<text xml:space="preserve" text-anchor="start" x="382.5" y="-198.84" font-family="sans-serif" font-size="20.00" fill="#038048">∘</text>
<text xml:space="preserve" text-anchor="start" x="394.5" y="-198.84" font-family="sans-serif" font-size="20.00"> Project Metadata</text>
</g>
<!-- LOCK -->
<g id="node5" class="node">
<title>LOCK</title>
<path fill="#cccccc" fill-opacity="0.466667" stroke="none" d="M401.75,-347.84C401.75,-347.84 541,-347.84 541,-347.84 547,-347.84 553,-353.84 553,-359.84 553,-359.84 553,-463.84 553,-463.84 553,-469.84 547,-475.84 541,-475.84 541,-475.84 401.75,-475.84 401.75,-475.84 395.75,-475.84 389.75,-469.84 389.75,-463.84 389.75,-463.84 389.75,-359.84 389.75,-359.84 389.75,-353.84 395.75,-347.84 401.75,-347.84"/>
<polygon fill="#add1b2" stroke="none" points="396.75,-428.84 396.75,-468.84 419.92,-468.84 419.92,-428.84 396.75,-428.84"/>
<polygon fill="none" stroke="#181818" points="396.75,-428.84 396.75,-468.84 419.92,-468.84 419.92,-428.84 396.75,-428.84"/>
<text xml:space="preserve" text-anchor="start" x="403.46" y="-442.84" font-family="sans-serif" font-size="16.00">C</text>
<text xml:space="preserve" text-anchor="start" x="445.04" y="-450.84" font-family="sans-serif" font-style="italic" font-size="20.00">«Lock&#45;File»</text>
<text xml:space="preserve" text-anchor="start" x="457.42" y="-430.84" font-family="sans-serif" font-weight="bold" font-size="20.00">uv.lock</text>
<text xml:space="preserve" text-anchor="start" x="396.75" y="-396.84" font-family="sans-serif" font-size="20.00" fill="#038048">∘</text>
<text xml:space="preserve" text-anchor="start" x="408.75" y="-396.84" font-family="sans-serif" font-size="20.00"> Dependencies</text>
<text xml:space="preserve" text-anchor="start" x="396.75" y="-376.84" font-family="sans-serif" font-size="20.00" fill="#038048">∘</text>
<text xml:space="preserve" text-anchor="start" x="408.75" y="-376.84" font-family="sans-serif" font-size="20.00"> Versions</text>
<text xml:space="preserve" text-anchor="start" x="396.75" y="-356.84" font-family="sans-serif" font-size="20.00" fill="#038048">∘</text>
<text xml:space="preserve" text-anchor="start" x="408.75" y="-356.84" font-family="sans-serif" font-size="20.00"> Sources</text>
</g>
<!-- PKG -->
<g id="node6" class="node">
<title>PKG</title>
<path fill="#cccccc" fill-opacity="0.466667" stroke="none" d="M1061.5,-216.84C1061.5,-216.84 1288,-216.84 1288,-216.84 1294,-216.84 1300,-222.84 1300,-228.84 1300,-228.84 1300,-258.84 1300,-258.84 1300,-264.84 1294,-270.84 1288,-270.84 1288,-270.84 1061.5,-270.84 1061.5,-270.84 1055.5,-270.84 1049.5,-264.84 1049.5,-258.84 1049.5,-258.84 1049.5,-228.84 1049.5,-228.84 1049.5,-222.84 1055.5,-216.84 1061.5,-216.84"/>
<polygon fill="#add1b2" stroke="none" points="1056.5,-223.84 1056.5,-263.84 1068.25,-263.84 1068.25,-223.84 1056.5,-223.84"/>
<polygon fill="none" stroke="#181818" points="1056.5,-223.84 1056.5,-263.84 1068.25,-263.84 1068.25,-223.84 1056.5,-223.84"/>
<text xml:space="preserve" text-anchor="start" x="1057.5" y="-237.84" font-family="sans-serif" font-size="16.00">C</text>
<text xml:space="preserve" text-anchor="start" x="1158.75" y="-245.84" font-family="sans-serif" font-style="italic" font-size="20.00">«Pkg»</text>
<text xml:space="preserve" text-anchor="start" x="1076.25" y="-225.84" font-family="sans-serif" font-weight="bold" font-size="20.00">Python Dependencies</text>
</g>
</g>
</svg>
