<?xml version="1.0" encoding="us-ascii" standalone="no"?><svg xmlns="http://www.w3.org/2000/svg" xmlns:xlink="http://www.w3.org/1999/xlink" contentStyleType="text/css" height="648px" preserveAspectRatio="none" style="width:1729px;height:648px;" version="1.1" viewBox="0 0 1729 648" width="1729px" zoomAndPan="magnify"><defs/><g><!--cluster GE--><g id="cluster_GE"><path d="M13.5,278.2168 L209.5,278.2168 A11.25,11.25 0 0 1 217,285.7168 L224,307.498 L288.5,307.498 A7.5,7.5 0 0 1 296,314.998 L296,482.7168 A7.5,7.5 0 0 1 288.5,490.2168 L13.5,490.2168 A7.5,7.5 0 0 1 6,482.7168 L6,285.7168 A7.5,7.5 0 0 1 13.5,278.2168 " fill="#AFB200" fill-opacity="0.09804" style="stroke:#AFB200;stroke-width:2.0;"/><line style="stroke:#AFB200;stroke-width:2.0;" x1="6" x2="224" y1="307.498" y2="307.498"/><text fill="#AFB200" font-family="sans-serif" font-size="20" font-weight="bold" lengthAdjust="spacing" textLength="205" x="10" y="298.7813">Operating System</text><text fill="#AFB200" font-family="sans-serif" font-size="20" font-style="italic" lengthAdjust="spacing" textLength="225" x="42.5" y="328.0625">&#171;Global Environment&#187;</text></g><!--cluster PDIR--><g id="cluster_PDIR"><path d="M352.5,7.2168 L539.5,7.2168 A11.25,11.25 0 0 1 547,14.7168 L554,36.498 L667.5,36.498 A7.5,7.5 0 0 1 675,43.998 L675,497.7168 A7.5,7.5 0 0 1 667.5,505.2168 L352.5,505.2168 A7.5,7.5 0 0 1 345,497.7168 L345,14.7168 A7.5,7.5 0 0 1 352.5,7.2168 " fill="#00A2FF" fill-opacity="0.09804" style="stroke:#00A2FF;stroke-width:2.0;"/><line style="stroke:#00A2FF;stroke-width:2.0;" x1="345" x2="554" y1="36.498" y2="36.498"/><text fill="#00A2FF" font-family="sans-serif" font-size="20" font-weight="bold" lengthAdjust="spacing" textLength="196" x="349" y="27.7813">Project Directory</text><text fill="#00A2FF" font-family="sans-serif" font-size="20" font-style="italic" lengthAdjust="spacing" textLength="116" x="456" y="57.0625">&#171;Directory&#187;</text></g><!--cluster VENV--><g id="cluster_VENV"><path d="M1162.5,269.2168 L1225.5,269.2168 A11.25,11.25 0 0 1 1233,276.7168 L1240,298.498 L1713.5,298.498 A7.5,7.5 0 0 1 1721,305.998 L1721,473.7168 A7.5,7.5 0 0 1 1713.5,481.2168 L1162.5,481.2168 A7.5,7.5 0 0 1 1155,473.7168 L1155,276.7168 A7.5,7.5 0 0 1 1162.5,269.2168 " fill="#32BC00" fill-opacity="0.09804" style="stroke:#32BC00;stroke-width:2.0;"/><line style="stroke:#32BC00;stroke-width:2.0;" x1="1155" x2="1240" y1="298.498" y2="298.498"/><text fill="#32BC00" font-family="sans-serif" font-size="20" font-weight="bold" lengthAdjust="spacing" textLength="72" x="1159" y="289.7813">.venv"</text><text fill="#32BC00" font-family="sans-serif" font-size="20" font-style="italic" lengthAdjust="spacing" textLength="227" x="1328.5" y="319.0625">&#171;Virtual Environment&#187;</text></g><!--class PY--><g id="elem_PY"><rect codeLine="54" fill="#CCCCCC" fill-opacity="0.46667" height="95.8438" id="PY" rx="2.5" ry="2.5" style="stroke:#000000;stroke-width:1.0;" width="242" x="30" y="370.2168"/><ellipse cx="107" cy="398.498" fill="#B4A7E5" rx="12" ry="12" style="stroke:#181818;stroke-width:1.0;"/><path d="M102.1875,393.9512 L102.1875,391.4199 L110.8594,391.4199 L110.8594,393.9512 L107.9688,393.9512 L107.9688,403.4512 L110.8594,403.4512 L110.8594,405.998 L102.1875,405.998 L102.1875,403.4512 L105.0781,403.4512 L105.0781,393.9512 L102.1875,393.9512 Z " fill="#000000"/><text fill="#000000" font-family="sans-serif" font-size="20" font-style="italic" lengthAdjust="spacing" textLength="55" x="141" y="393.7813">&#171;CLI&#187;</text><text fill="#000000" font-family="sans-serif" font-size="20" font-style="italic" font-weight="bold" lengthAdjust="spacing" textLength="79" x="129" y="417.0625">python</text><line style="stroke:#000000;stroke-width:1.0;" x1="31" x2="271" y1="426.7793" y2="426.7793"/><ellipse cx="41" cy="443.9199" fill="none" rx="3" ry="3" style="stroke:#038048;stroke-width:1.0;"/><text fill="#000000" font-family="sans-serif" font-size="20" lengthAdjust="spacing" textLength="215" x="51" y="449.3438">python -m venv .venv</text><line style="stroke:#000000;stroke-width:1.0;" x1="31" x2="271" y1="458.0605" y2="458.0605"/></g><!--class REQ_PROJ--><g id="elem_REQ_PROJ"><rect codeLine="60" fill="#CCCCCC" fill-opacity="0.46667" height="95.8438" id="REQ_PROJ" rx="2.5" ry="2.5" style="stroke:#000000;stroke-width:0.0;" width="282" x="369" y="230.2168"/><ellipse cx="385" cy="258.498" fill="#ADD1B2" rx="12" ry="12" style="stroke:#181818;stroke-width:1.0;"/><path d="M388.0625,265.5762 Q387.375,265.9355 386.625,266.1074 Q385.875,266.2793 385.0469,266.2793 Q382.0938,266.2793 380.5313,264.3418 Q378.9844,262.3887 378.9844,258.7168 Q378.9844,255.0449 380.5313,253.1074 Q382.0938,251.1543 385.0469,251.1543 Q385.875,251.1543 386.625,251.3262 Q387.3906,251.498 388.0625,251.8574 L388.0625,255.0605 Q387.3125,254.373 386.6094,254.0605 Q385.9219,253.748 385.1719,253.748 Q383.5938,253.748 382.7813,254.998 Q381.9844,256.248 381.9844,258.7168 Q381.9844,261.1855 382.7813,262.4355 Q383.5938,263.6855 385.1719,263.6855 Q385.9219,263.6855 386.6094,263.373 Q387.3125,263.0605 388.0625,262.373 L388.0625,265.5762 Z " fill="#000000"/><text fill="#000000" font-family="sans-serif" font-size="20" font-style="italic" lengthAdjust="spacing" textLength="60" x="494" y="253.7813">&#171;File&#187;</text><text fill="#000000" font-family="sans-serif" font-size="20" font-weight="bold" lengthAdjust="spacing" textLength="248" x="400" y="277.0625">proj-requirements.txt</text><line style="stroke:#000000;stroke-width:0.0;" x1="370" x2="650" y1="286.7793" y2="286.7793"/><ellipse cx="380" cy="303.9199" fill="none" rx="3" ry="3" style="stroke:#038048;stroke-width:1.0;"/><text fill="#000000" font-family="sans-serif" font-size="20" lengthAdjust="spacing" textLength="142" x="390" y="309.3438">Dependencies</text><line style="stroke:#000000;stroke-width:0.0;" x1="370" x2="650" y1="318.0605" y2="318.0605"/></g><!--class REQ--><g id="elem_REQ"><rect codeLine="63" fill="#CCCCCC" fill-opacity="0.46667" height="119.125" id="REQ" rx="2.5" ry="2.5" style="stroke:#000000;stroke-width:0.0;" width="229" x="395.5" y="361.7168"/><ellipse cx="411.5" cy="389.998" fill="#ADD1B2" rx="12" ry="12" style="stroke:#181818;stroke-width:1.0;"/><path d="M414.5625,397.0762 Q413.875,397.4355 413.125,397.6074 Q412.375,397.7793 411.5469,397.7793 Q408.5938,397.7793 407.0313,395.8418 Q405.4844,393.8887 405.4844,390.2168 Q405.4844,386.5449 407.0313,384.6074 Q408.5938,382.6543 411.5469,382.6543 Q412.375,382.6543 413.125,382.8262 Q413.8906,382.998 414.5625,383.3574 L414.5625,386.5605 Q413.8125,385.873 413.1094,385.5605 Q412.4219,385.248 411.6719,385.248 Q410.0938,385.248 409.2813,386.498 Q408.4844,387.748 408.4844,390.2168 Q408.4844,392.6855 409.2813,393.9355 Q410.0938,395.1855 411.6719,395.1855 Q412.4219,395.1855 413.1094,394.873 Q413.8125,394.5605 414.5625,393.873 L414.5625,397.0762 Z " fill="#000000"/><text fill="#000000" font-family="sans-serif" font-size="20" font-style="italic" lengthAdjust="spacing" textLength="113" x="467.5" y="385.2813">&#171;Lock-File&#187;</text><text fill="#000000" font-family="sans-serif" font-size="20" font-weight="bold" lengthAdjust="spacing" textLength="195" x="426.5" y="408.5625">requirements.txt</text><line style="stroke:#000000;stroke-width:0.0;" x1="396.5" x2="623.5" y1="418.2793" y2="418.2793"/><ellipse cx="406.5" cy="435.4199" fill="none" rx="3" ry="3" style="stroke:#038048;stroke-width:1.0;"/><text fill="#000000" font-family="sans-serif" font-size="20" lengthAdjust="spacing" textLength="142" x="416.5" y="440.8438">Dependencies</text><ellipse cx="406.5" cy="458.7012" fill="none" rx="3" ry="3" style="stroke:#038048;stroke-width:1.0;"/><text fill="#000000" font-family="sans-serif" font-size="20" lengthAdjust="spacing" textLength="85" x="416.5" y="464.125">Versions</text><line style="stroke:#000000;stroke-width:0.0;" x1="396.5" x2="623.5" y1="472.8418" y2="472.8418"/></g><!--class APP--><g id="elem_APP"><rect codeLine="67" fill="#CCCCCC" fill-opacity="0.46667" height="95.8438" id="APP" rx="2.5" ry="2.5" style="stroke:#000000;stroke-width:0.0;" width="206" x="407" y="99.2168"/><ellipse cx="423" cy="139.1387" fill="#ADD1B2" rx="12" ry="12" style="stroke:#181818;stroke-width:1.0;"/><path d="M426.0625,146.2168 Q425.375,146.5762 424.625,146.748 Q423.875,146.9199 423.0469,146.9199 Q420.0938,146.9199 418.5313,144.9824 Q416.9844,143.0293 416.9844,139.3574 Q416.9844,135.6855 418.5313,133.748 Q420.0938,131.7949 423.0469,131.7949 Q423.875,131.7949 424.625,131.9668 Q425.3906,132.1387 426.0625,132.498 L426.0625,135.7012 Q425.3125,135.0137 424.6094,134.7012 Q423.9219,134.3887 423.1719,134.3887 Q421.5938,134.3887 420.7813,135.6387 Q419.9844,136.8887 419.9844,139.3574 Q419.9844,141.8262 420.7813,143.0762 Q421.5938,144.3262 423.1719,144.3262 Q423.9219,144.3262 424.6094,144.0137 Q425.3125,143.7012 426.0625,143.0137 L426.0625,146.2168 Z " fill="#000000"/><text fill="#000000" font-family="sans-serif" font-size="20" font-style="italic" lengthAdjust="spacing" textLength="60" x="494" y="122.7813">&#171;File&#187;</text><text fill="#000000" font-family="sans-serif" font-size="20" font-weight="bold" lengthAdjust="spacing" textLength="91" x="478.5" y="146.0625">main.py</text><text fill="#000000" font-family="sans-serif" font-size="20" font-weight="bold" lengthAdjust="spacing" textLength="172" x="438" y="169.3438">(or other code)</text><line style="stroke:#000000;stroke-width:0.0;" x1="408" x2="612" y1="179.0605" y2="179.0605"/><line style="stroke:#000000;stroke-width:0.0;" x1="408" x2="612" y1="187.0605" y2="187.0605"/></g><!--class PIP--><g id="elem_PIP"><rect codeLine="73" fill="#CCCCCC" fill-opacity="0.46667" height="95.8438" id="PIP" rx="2.5" ry="2.5" style="stroke:#000000;stroke-width:1.0;" width="104" x="1179" y="361.2168"/><ellipse cx="1203.55" cy="389.498" fill="#B4A7E5" rx="12" ry="12" style="stroke:#181818;stroke-width:1.0;"/><path d="M1198.7375,384.9512 L1198.7375,382.4199 L1207.4094,382.4199 L1207.4094,384.9512 L1204.5188,384.9512 L1204.5188,394.4512 L1207.4094,394.4512 L1207.4094,396.998 L1198.7375,396.998 L1198.7375,394.4512 L1201.6281,394.4512 L1201.6281,384.9512 L1198.7375,384.9512 Z " fill="#000000"/><text fill="#000000" font-family="sans-serif" font-size="20" font-style="italic" lengthAdjust="spacing" textLength="55" x="1218.45" y="384.7813">&#171;CLI&#187;</text><text fill="#000000" font-family="sans-serif" font-size="20" font-style="italic" font-weight="bold" lengthAdjust="spacing" textLength="35" x="1228.45" y="408.0625">pip</text><line style="stroke:#000000;stroke-width:1.0;" x1="1180" x2="1282" y1="417.7793" y2="417.7793"/><line style="stroke:#000000;stroke-width:1.0;" x1="1180" x2="1282" y1="425.7793" y2="425.7793"/><ellipse cx="1190" cy="442.9199" fill="#84BE84" rx="3" ry="3" style="stroke:#038048;stroke-width:1.0;"/><text fill="#000000" font-family="sans-serif" font-size="20" lengthAdjust="spacing" textLength="77" x="1200" y="448.3438">install()</text></g><!--class PKG--><g id="elem_PKG"><rect codeLine="76" fill="#CCCCCC" fill-opacity="0.46667" height="72.5625" id="PKG" rx="2.5" ry="2.5" style="stroke:#000000;stroke-width:0.0;" width="281" x="1416" y="364.7168"/><ellipse cx="1432" cy="392.998" fill="#ADD1B2" rx="12" ry="12" style="stroke:#181818;stroke-width:1.0;"/><path d="M1435.0625,400.0762 Q1434.375,400.4355 1433.625,400.6074 Q1432.875,400.7793 1432.0469,400.7793 Q1429.0938,400.7793 1427.5313,398.8418 Q1425.9844,396.8887 1425.9844,393.2168 Q1425.9844,389.5449 1427.5313,387.6074 Q1429.0938,385.6543 1432.0469,385.6543 Q1432.875,385.6543 1433.625,385.8262 Q1434.3906,385.998 1435.0625,386.3574 L1435.0625,389.5605 Q1434.3125,388.873 1433.6094,388.5605 Q1432.9219,388.248 1432.1719,388.248 Q1430.5938,388.248 1429.7813,389.498 Q1428.9844,390.748 1428.9844,393.2168 Q1428.9844,395.6855 1429.7813,396.9355 Q1430.5938,398.1855 1432.1719,398.1855 Q1432.9219,398.1855 1433.6094,397.873 Q1434.3125,397.5605 1435.0625,396.873 L1435.0625,400.0762 Z " fill="#000000"/><text fill="#000000" font-family="sans-serif" font-size="20" font-style="italic" lengthAdjust="spacing" textLength="61" x="1540" y="388.2813">&#171;Pkg&#187;</text><text fill="#000000" font-family="sans-serif" font-size="20" font-weight="bold" lengthAdjust="spacing" textLength="247" x="1447" y="411.5625">Python Dependencies</text><line style="stroke:#000000;stroke-width:0.0;" x1="1417" x2="1696" y1="421.2793" y2="421.2793"/><line style="stroke:#000000;stroke-width:0.0;" x1="1417" x2="1696" y1="429.2793" y2="429.2793"/></g><!--class USER--><g id="elem_USER"><rect codeLine="109" fill="#CCCCCC" fill-opacity="0.46667" height="142.4063" id="USER" rx="2.5" ry="2.5" style="stroke:#444444;stroke-width:1.0;" width="107" x="841" y="219.2168"/><ellipse cx="857" cy="247.498" fill="#A9DCDF" rx="12" ry="12" style="stroke:#181818;stroke-width:1.0;"/><path d="M857.0156,242.3105 L855.6563,248.2637 L858.3906,248.2637 L857.0156,242.3105 Z M855.2656,239.6699 L858.7813,239.6699 L862.7188,254.248 L859.8438,254.248 L858.9375,250.6387 L855.0781,250.6387 L854.2031,254.248 L851.3281,254.248 L855.2656,239.6699 Z " fill="#000000"/><text fill="#000000" font-family="sans-serif" font-size="20" font-style="italic" lengthAdjust="spacing" textLength="77" x="870" y="242.7813">&#171;Actor&#187;</text><text fill="#000000" font-family="sans-serif" font-size="20" font-style="italic" font-weight="bold" lengthAdjust="spacing" textLength="52" x="882.5" y="266.0625">User</text><line style="stroke:#444444;stroke-width:1.0;" x1="842" x2="947" y1="275.7793" y2="275.7793"/><line style="stroke:#444444;stroke-width:1.0;" x1="842" x2="947" y1="283.7793" y2="283.7793"/><ellipse cx="852" cy="300.9199" fill="#84BE84" rx="3" ry="3" style="stroke:#038048;stroke-width:1.0;"/><text fill="#000000" font-family="sans-serif" font-size="20" lengthAdjust="spacing" textLength="48" x="862" y="306.3438">eat()</text><ellipse cx="852" cy="324.2012" fill="#84BE84" rx="3" ry="3" style="stroke:#038048;stroke-width:1.0;"/><text fill="#000000" font-family="sans-serif" font-size="20" lengthAdjust="spacing" textLength="69" x="862" y="329.625">sleep()</text><ellipse cx="852" cy="347.4824" fill="#84BE84" rx="3" ry="3" style="stroke:#038048;stroke-width:1.0;"/><text fill="#000000" font-family="sans-serif" font-size="20" lengthAdjust="spacing" textLength="64" x="862" y="352.9063">code()</text></g><!--link GE to PDIR--><!--link PDIR to VENV--><!--reverse link REQ_PROJ to USER--><g id="link_REQ_PROJ_USER"><path codeLine="94" d="M657.2571,282.8046 C723.3471,284.8746 792.22,287.0368 841,288.5668 " fill="none" id="REQ_PROJ-backto-USER" style="stroke:#00A2FF;stroke-width:2.5;"/><polygon fill="#00A2FF" points="651.26,282.6168,660.1304,286.8966,656.2575,282.7733,660.3808,278.9005,651.26,282.6168" style="stroke:#00A2FF;stroke-width:2.5;"/><text fill="#00A2FF" font-family="sans-serif" font-size="20" font-style="italic" lengthAdjust="spacing" textLength="76" x="717" y="278.7813">collects</text></g><!--reverse link REQ to USER--><g id="link_REQ_USER"><path codeLine="95" d="M630.3003,382.5941 C686.5503,364.1141 749.68,342.9468 811,321.2168 C820.66,317.7968 830.92,314.0368 840.8,310.3568 " fill="none" id="REQ-backto-USER" style="stroke:#00A2FF;stroke-width:2.5;"/><polygon fill="#00A2FF" points="624.6,384.4668,634.3989,385.4579,629.3502,382.9062,631.9019,377.8575,624.6,384.4668" style="stroke:#00A2FF;stroke-width:2.5;"/><text fill="#00A2FF" font-family="sans-serif" font-size="20" font-style="italic" lengthAdjust="spacing" textLength="110" x="700" y="315.7813">pip freezes</text></g><!--reverse link REQ to PIP--><g id="link_REQ_PIP"><path codeLine="97" d="M630.5292,419.2265 C789.0192,416.5765 1064.03,411.9868 1178.91,410.0668 " fill="none" id="REQ-backto-PIP" style="stroke:#00A2FF;stroke-width:2.5;"/><polygon fill="#00A2FF" points="624.53,419.3268,633.5956,423.1758,629.5293,419.2432,633.4619,415.1769,624.53,419.3268" style="stroke:#00A2FF;stroke-width:2.5;"/><text fill="#00A2FF" font-family="sans-serif" font-size="20" font-style="italic" lengthAdjust="spacing" textLength="90" x="849.5" y="408.7813">compiles</text></g><!--reverse link REQ to PIP--><g id="link_REQ_PIP"><path codeLine="127" d="M560.793,485.2692 C595.093,524.6092 641.83,568.2968 699,590.2168 C784.42,622.9668 1017,641.6068 1131,573.2168 C1173.64,547.6368 1200.24,496.0068 1214.99,457.4668 " fill="none" id="REQ-backto-PIP-1" style="stroke:#EE220C;stroke-width:2.5;stroke-dasharray:10.0,5.0;"/><polygon fill="#EE220C" points="556.85,480.7468,559.7496,490.1591,560.1359,484.5155,565.7795,484.9017,556.85,480.7468" style="stroke:#EE220C;stroke-width:2.5;"/><text fill="#EE220C" font-family="sans-serif" font-size="20" font-style="italic" lengthAdjust="spacing" textLength="82" x="853.5" y="611.7813">requires</text></g><!--link PIP to PKG--><g id="link_PIP_PKG"><path codeLine="115" d="M1283.26,407.9468 C1319.07,407.0668 1362.7218,405.9858 1409.8318,404.8158 " fill="none" id="PIP-to-PKG" style="stroke:#32BC00;stroke-width:2.5;"/><polygon fill="#32BC00" points="1415.83,404.6668,1406.7335,400.8915,1410.8315,404.7909,1406.9321,408.889,1415.83,404.6668" style="stroke:#32BC00;stroke-width:2.5;"/><text fill="#32BC00" font-family="sans-serif" font-size="20" font-style="italic" lengthAdjust="spacing" textLength="71" x="1314" y="400.7813">installs</text></g><!--link PY to VENV--><g id="link_PY_VENV"><path codeLine="116" d="M240.48,466.4168 C268.03,479.0068 299.05,490.8368 329,497.2168 C599.94,554.9368 686.33,515.1568 948,424.2168 C1034.77,394.0568 1051.21,372.2768 1139,345.2168 C1143.7813,343.743 1148.7389,342.3476 1153.7601,341.033 C1154.074,340.9509 1148.5802,342.3755 1148.8945,342.294 " fill="none" id="PY-to-VENV" style="stroke:#32BC00;stroke-width:4.0;"/><polygon fill="#32BC00" points="1154.7023,340.7875,1144.9863,339.1754,1149.8625,342.0429,1146.995,346.9191,1154.7023,340.7875" style="stroke:#32BC00;stroke-width:4.0;"/><text fill="#32BC00" font-family="sans-serif" font-size="20" font-style="italic" font-weight="bold" lengthAdjust="spacing" textLength="86" x="712" y="467.7813">creates</text></g><!--link USER to VENV--><g id="link_USER_VENV"><path codeLine="117" d="M948.13,295.8868 C994.495,300.8718 1063.5025,308.2968 1121.6313,314.553 C1128.8973,315.3351 1135.9935,316.0988 1142.8541,316.8373 C1146.2844,317.2065 1149.6559,317.5694 1152.9603,317.9251 C1153.3734,317.9696 1147.8199,317.3718 1148.2308,317.416 " fill="none" id="USER-to-VENV" style="stroke:#32BC00;stroke-width:2.5;"/><polygon fill="#32BC00" points="1154.1963,318.0582,1145.6761,313.1179,1149.2251,317.5231,1144.8199,321.072,1154.1963,318.0582" style="stroke:#32BC00;stroke-width:2.5;"/><text fill="#32BC00" font-family="sans-serif" font-size="20" font-style="italic" lengthAdjust="spacing" textLength="79" x="1012" y="248.7813">creates,</text><text fill="#32BC00" font-family="sans-serif" font-size="20" font-style="italic" lengthAdjust="spacing" textLength="139" x="985" y="272.0625">(de-)activates</text><text fill="#32BC00" font-family="sans-serif" font-size="20" font-style="italic" lengthAdjust="spacing" textLength="114" x="997.5" y="295.3438">&amp; manages</text></g><!--link APP to PKG--><g id="link_APP_PKG"><path codeLine="126" d="M613.25,148.2768 C764.52,152.9268 1054.65,173.7068 1283,261.2168 C1358.24,290.0568 1434.6504,330.8103 1488.7504,361.7203 " fill="none" id="APP-to-PKG" style="stroke:#EE220C;stroke-width:2.5;stroke-dasharray:10.0,5.0;"/><polygon fill="#EE220C" points="1493.96,364.6968,1488.1299,356.7589,1489.6186,362.2164,1484.1612,363.7051,1493.96,364.6968" style="stroke:#EE220C;stroke-width:2.5;"/><text fill="#EE220C" font-family="sans-serif" font-size="20" font-style="italic" lengthAdjust="spacing" textLength="82" x="1013.5" y="177.7813">requires</text></g><!--SRC=[dLRlRXit3Fz-Jq6uGEialSps6XGjBWRInCco1UlLRWqCxJ38TxIjMPPkafpE6V9r3x17t9ECqltnsJwtnVGXiKcH_97yaRB0gGMhGFFPt4BADIQMAnay8s7c51DbhLhMDAGwFp-76w4cJ81GQW5FOOeed7Xp0hFWCcEQaIrEsKhOQoNjY3yWz3haOwD-mvB5JAkLJ2-LK1gUTFpfTeB3Twncqf0AfIq0VSEf-Sl87viX_1K0dM7kM4lKq3tpeZTAfwZVptcoa6WCzBpqMHFOYzxrTVTLgVTsMxf2uzBFvL1f7lSXHL5HsO6yvrh99QNOxnT0zwApwQH7fNfLmxobcKwzPYjsfMcCFkRQhdR37uZ-VM-ID4VFDKtHAqrZz2jFCwNNXrFUAlYXSZSN-_ym9H6Csdy0I-BFovTxMDnvyiAVHZfrAvGZknP8KoRI9Ye-xYA9eikxsqrnTaFcezDefkIKp_hzA8eN_j-TIXRXDHTet3VtOKlwrHXDQRd8trxbUi6BhHBdH33GbkepUE-Omiq0_ltx7uYlReV-mtZmy_Z8tG_AEMwzpL0po-KCHcjZSTa2PfpT5yU9IujwoXAopzPshgItYdy1s2wpEoVv3GYNS8_o7axTNwzzT4bNG6AjVYSAGyNatAU3taJld5wjZAn2ZN-iw8A3Q4xjdxP5Uh8T3jxz5W_V_WXbbsgWhZ13cQ9CE9e2JCrhayFyv6vXgzzVSkkbOzI6Ne26G4l6vMcs_YJRH19bvqJUHALuv7E_YECAkkT7LInVGt_7THGEB9-6Pl5iauelxstSr38kZML2j8_s4STvD-k9vetwwGQA4QaM1lp0Kxe3J6lrsRX7KL3LOAuqVw099hoUg9wGH3c0yEFSM_mQzdtd0z_-kjJbMteVSyCdRWU85POnseOj4GmkcRGyCJdP8-DsHJ_mTueyxxZ4_VNdfBMtw_HiPodkhify2N5AXIUKTlHT4Ia8DkGBG_Wm6WpXDRLM2AAn2Jo5Dd9g2qmruWEHfjAvrdYRPUPsJPdqACQ4K-L6z9BxdnuNUUBRM-4h6HzuPUflJ2sLW4qCHQFPR7qmg7sxFV8ekd13MN7d19ajE7DY169MVd6Sfi_42vTLwBfBTA7i2gAPmEsEyACjIt_-ecmsNJe-JZHvHdDy7FYutaEXB5JFuPE4TehX4U7azqv4agT0FF1hCJXOaho5tKvujbkbmQ3NwrpkrgYGrYhavhIMKx4yp6udA_b_]--></g></svg>