<?xml version="1.0" encoding="us-ascii" standalone="no"?><svg xmlns="http://www.w3.org/2000/svg" xmlns:xlink="http://www.w3.org/1999/xlink" contentStyleType="text/css" height="720px" preserveAspectRatio="none" style="width:1210px;height:720px;" version="1.1" viewBox="0 0 1210 720" width="1210px" zoomAndPan="magnify"><defs/><g><!--cluster BB--><g id="cluster_BB"><path d="M13.5,7.2168 L100.5,7.2168 A11.25,11.25 0 0 1 108,14.7168 L115,36.498 L589.5,36.498 A7.5,7.5 0 0 1 597,43.998 L597,216.7168 A7.5,7.5 0 0 1 589.5,224.2168 L13.5,224.2168 A7.5,7.5 0 0 1 6,216.7168 L6,14.7168 A7.5,7.5 0 0 1 13.5,7.2168 " fill="#AFB200" fill-opacity="0.09804" style="stroke:#AFB200;stroke-width:2.0;"/><line style="stroke:#AFB200;stroke-width:2.0;" x1="6" x2="115" y1="36.498" y2="36.498"/><text fill="#AFB200" font-family="monospace" font-size="20" font-weight="bold" lengthAdjust="spacing" textLength="96" x="10" y="27.7813">buildben</text><text fill="#AFB200" font-family="sans-serif" font-size="20" font-style="italic" lengthAdjust="spacing" textLength="184" x="213.5" y="57.0625">&#171;Python Package&#187;</text></g><!--cluster P--><g id="cluster_P"><path d="M474.5,289.2168 L547.5,289.2168 A11.25,11.25 0 0 1 555,296.7168 L562,318.498 L1194.5,318.498 A7.5,7.5 0 0 1 1202,325.998 L1202,491.7168 A7.5,7.5 0 0 1 1194.5,499.2168 L474.5,499.2168 A7.5,7.5 0 0 1 467,491.7168 L467,296.7168 A7.5,7.5 0 0 1 474.5,289.2168 " fill="#00A2FF" fill-opacity="0.09804" style="stroke:#00A2FF;stroke-width:2.0;"/><line style="stroke:#00A2FF;stroke-width:2.0;" x1="467" x2="562" y1="318.498" y2="318.498"/><text fill="#00A2FF" font-family="sans-serif" font-size="20" font-weight="bold" lengthAdjust="spacing" textLength="82" x="471" y="309.7813">Project</text><text fill="#00A2FF" font-family="sans-serif" font-size="20" font-style="italic" lengthAdjust="spacing" textLength="274" x="701.5" y="339.0625">&#171;Directory &amp; Environment&#187;</text></g><!--entity TEMP--><g id="elem_TEMP"><rect fill="#999999" fill-opacity="0.46667" height="136.4063" rx="7.5" ry="7.5" style="stroke:none;stroke-width:0.5;" width="212" x="22" y="72.2168"/><text fill="#000000" font-family="sans-serif" font-size="20" font-weight="bold" lengthAdjust="spacing" textLength="128" x="32" y="100.7813">Templates:</text><text fill="#000000" font-family="monospace" font-size="20" lengthAdjust="spacing" textLength="192" x="32" y="124.0625">&#8226;&#160;pyproject.toml</text><text fill="#000000" font-family="monospace" font-size="20" lengthAdjust="spacing" textLength="96" x="32" y="147.3438">&#8226;&#160;.envrc</text><text fill="#000000" font-family="monospace" font-size="20" lengthAdjust="spacing" textLength="120" x="32" y="170.625">&#8226;&#160;justfile</text><text fill="#000000" font-family="sans-serif" font-size="20" lengthAdjust="spacing" textLength="36" x="32" y="193.9063">&#8226; ...</text></g><!--entity BBinitcli--><g id="elem_BBinitcli"><rect fill="#999999" fill-opacity="0.46667" height="43.2813" rx="7.5" ry="7.5" style="stroke:none;stroke-width:0.5;" width="212" x="369" y="118.7168"/><text fill="#000000" font-family="monospace" font-size="20" font-weight="bold" lengthAdjust="spacing" textLength="192" x="379" y="147.2813">$&#160;bube&#160;init-proj</text></g><!--entity PyTools--><g id="elem_PyTools"><rect fill="#999999" fill-opacity="0.46667" height="113.125" rx="7.5" ry="7.5" style="stroke:none;stroke-width:0.5;" width="306" x="872" y="362.2168"/><text fill="#000000" font-family="sans-serif" font-size="20" font-weight="bold" lengthAdjust="spacing" textLength="148" x="882" y="390.7813">Python Tools</text><text fill="#000000" font-family="sans-serif" font-size="20" lengthAdjust="spacing" textLength="7" x="1030" y="390.7813">:</text><text fill="#000000" font-family="sans-serif" font-size="20" lengthAdjust="spacing" textLength="12" x="882" y="414.0625">&#8226;</text><text fill="#000000" font-family="monospace" font-size="20" lengthAdjust="spacing" textLength="108" x="900" y="414.0625">pip-tools</text><text fill="#000000" font-family="sans-serif" font-size="20" lengthAdjust="spacing" textLength="148" x="1014" y="414.0625">(compile/sync)</text><text fill="#000000" font-family="sans-serif" font-size="20" lengthAdjust="spacing" textLength="220" x="882" y="437.3438">&#8226; Virtual-environment</text><text fill="#000000" font-family="sans-serif" font-size="20" lengthAdjust="spacing" textLength="36" x="882" y="460.625">&#8226; ...</text></g><!--entity Tools--><g id="elem_Tools"><rect fill="#999999" fill-opacity="0.46667" height="113.125" rx="7.5" ry="7.5" style="stroke:none;stroke-width:0.5;" width="208" x="510" y="362.2168"/><text fill="#000000" font-family="sans-serif" font-size="20" font-weight="bold" lengthAdjust="spacing" textLength="175" x="520" y="390.7813">Universal Tools</text><text fill="#000000" font-family="sans-serif" font-size="20" lengthAdjust="spacing" textLength="7" x="695" y="390.7813">:</text><text fill="#000000" font-family="sans-serif" font-size="20" lengthAdjust="spacing" textLength="12" x="520" y="414.0625">&#8226;</text><text fill="#000000" font-family="monospace" font-size="20" lengthAdjust="spacing" textLength="72" x="538" y="414.0625">direnv</text><text fill="#000000" font-family="sans-serif" font-size="20" lengthAdjust="spacing" textLength="12" x="520" y="437.3438">&#8226;</text><text fill="#000000" font-family="monospace" font-size="20" lengthAdjust="spacing" textLength="48" x="538" y="437.3438">just</text><text fill="#000000" font-family="sans-serif" font-size="20" lengthAdjust="spacing" textLength="36" x="520" y="460.625">&#8226; ...</text></g><!--entity Standards--><g id="elem_Standards"><rect fill="#F27F72" fill-opacity="0.86275" height="136.4063" rx="7.5" ry="7.5" style="stroke:none;stroke-width:0.5;" width="341" x="854.5" y="578.2168"/><text fill="#000000" font-family="sans-serif" font-size="20" font-weight="bold" lengthAdjust="spacing" textLength="203" x="864.5" y="606.7813">Python Standards</text><text fill="#000000" font-family="sans-serif" font-size="20" lengthAdjust="spacing" textLength="7" x="1067.5" y="606.7813">:</text><text fill="#000000" font-family="sans-serif" font-size="20" lengthAdjust="spacing" textLength="315" x="864.5" y="630.0625">&#8226; PEP 405: Virtual-environment</text><text fill="#000000" font-family="sans-serif" font-size="20" lengthAdjust="spacing" textLength="107" x="864.5" y="653.3438">&#8226; PEP 621:</text><text fill="#000000" font-family="monospace" font-size="20" lengthAdjust="spacing" textLength="168" x="977.5" y="653.3438">pyproject.toml</text><text fill="#000000" font-family="sans-serif" font-size="20" lengthAdjust="spacing" textLength="263" x="864.5" y="676.625">&#8226; PEP 660: Editable install</text><text fill="#000000" font-family="sans-serif" font-size="20" lengthAdjust="spacing" textLength="213" x="864.5" y="699.9063">&#8226;  PEP 751: Lock-files</text></g><!--link TEMP to BBinitcli--><g id="link_TEMP_BBinitcli"><path codeLine="66" d="M234.47,140.2168 C277.1,140.2168 320.12,140.2168 362.73,140.2168 " fill="none" id="TEMP-to-BBinitcli" style="stroke:#AFB200;stroke-width:3.0;"/><polygon fill="#AFB200" points="368.73,140.2168,359.73,136.2168,363.73,140.2168,359.73,144.2168,368.73,140.2168" style="stroke:#AFB200;stroke-width:3.0;"/><text fill="#AFB200" font-family="sans-serif" font-size="20" font-style="italic" lengthAdjust="spacing" textLength="98" x="252.5" y="131.7813">copied by</text></g><!--link BBinitcli to P--><g id="link_BBinitcli_P"><path codeLine="87" d="M475,161.9968 C475,177.8218 475,201.3449 475,227.8188 C475,241.0558 475,255.0304 475,269.1494 C475,272.6791 475,276.2178 475,279.7563 C475,281.5256 475,283.2948 475,285.0627 C475,285.9467 475,286.8304 475,287.7136 C475,288.1552 475,282.5967 475,283.0381 " fill="none" id="BBinitcli-to-P" style="stroke:#00A2FF;stroke-width:2.5;"/><polygon fill="#00A2FF" points="475,289.0381,479,280.0381,475,284.0381,471,280.0381,475,289.0381" style="stroke:#00A2FF;stroke-width:2.5;"/><text fill="#00A2FF" font-family="sans-serif" font-size="20" font-style="italic" font-weight="bold" lengthAdjust="spacing" textLength="272" x="476" y="259.7813">creates project scaffold</text><text fill="#00A2FF" font-family="sans-serif" font-size="20" font-style="italic" lengthAdjust="spacing" textLength="389" x="754" y="259.7813">(buildben is no dependency of project)</text></g><!--link Tools to PyTools--><g id="link_Tools_PyTools"><path codeLine="89" d="M718.24,418.7168 C764.86,418.7168 814.73,418.7168 865.95,418.7168 " fill="none" id="Tools-to-PyTools" style="stroke:#00A2FF;stroke-width:2.5;"/><polygon fill="#00A2FF" points="871.95,418.7168,862.95,414.7168,866.95,418.7168,862.95,422.7168,871.95,418.7168" style="stroke:#00A2FF;stroke-width:2.5;"/><text fill="#00A2FF" font-family="sans-serif" font-size="20" font-style="italic" font-weight="bold" lengthAdjust="spacing" textLength="111" x="736.5" y="387.2813">automate</text><text fill="#00A2FF" font-family="sans-serif" font-size="20" font-style="italic" lengthAdjust="spacing" textLength="6" x="847.5" y="387.2813">&#160;</text><text fill="#00A2FF" font-family="sans-serif" font-size="20" font-style="italic" font-weight="bold" lengthAdjust="spacing" textLength="114" x="738" y="410.5625">&amp; simplify</text></g><!--link PyTools to Standards--><g id="link_PyTools_Standards"><path codeLine="99" d="M1025,475.4568 C1025,506.4968 1025,539.3668 1025,572.0668 " fill="none" id="PyTools-to-Standards" style="stroke:#EE220C;stroke-width:2.5;stroke-dasharray:10.0,5.0;"/><polygon fill="#EE220C" points="1025,578.0668,1029,569.0668,1025,573.0668,1021,569.0668,1025,578.0668" style="stroke:#EE220C;stroke-width:2.5;"/><text fill="#EE220C" font-family="sans-serif" font-size="20" font-style="italic" font-weight="bold" lengthAdjust="spacing" textLength="137" x="1026" y="542.7813">comply with</text></g><!--SRC=[bLLHRzCm47xFhpW5n21IIXleAggk4eEE5oPLRF0q2JcnqvgwTcIx7M6Qn6_Xf_5BE2TfapGT33-rT-VllhllV3c1ixCp-21KJ0G8fLRm35B6X3FNn_EyayS5cXMN6T5a3PIbP2FiXPBsYlzW4FKHetQVasIrq6eZwJibb8Od_U8C-jx3CLOJQT35fFM84Ehswvf_vt815Rr7d0PwXkXamU3E0poVoZHQCWs3OM4wLveoVRtaoKeoOo0ghLtYRwEBYy6RnfsMfx2xDfHMsDllksGcawh3CxdbMiarbZgTJYRpt2wLX7aPDPrMf3jSI1f7sCGZN4fFcdRPx3ttZsyZJaJDNRF44haGPIklbeIgMwTAIeHXNfk7LB8m7H9_KvpHoEieSTzCbGY2GZnGV0EZdTIT9w-BSrJOmRufLpR7Cc8bwB6XG2hUnBYGgKUqLhSLauzSiXhj5SPDNbPXU7Ppvlj-lE62napYJo06pi_X0MbF6atrWy3tkUGsfCIIc1ZcErC9G6E4k5HqWyccnouIIaFsFMEQkrbgt4JZFwuokGsD99bPgjP5kNNMzkNMrMkspWInp8o3u0QB_Vtp5sHvfjKtZEfPjHQ-lxFt44udzVzl6sDJBfYp5FvUhyXxFRkS7-Rn_QSGRs86HNSSVeEcioM2UqwD8vhLQdDB14_sGlxFUwbbtkU3IIXOQiE2C8mXKHbd5EAyEGdpiXK5qpasyZrtTIcTur9jlVmxmDrsK7KrCDTA2HC4OoZxvFiPpqBhZ3XSpnErph2BBqqkanTLo1UkxOQ8aDKPsZsUvmKe76RyBFcMQODhgPEK8dEvtOdb-qw-ZdGbABwUOtLSeOKIJHkmyzaSNlU7usEC6o6dqM3iwkvCrZxWj3-66KM1OwUpDAYqADs5VpH4W8ygMOLkuan1Tay7bKwZKJgAQFANPz_TzErb4FM61nDq-5Le3U7naGfneSfm2cwUWY3HpBqjgAe6av0qnOqL1F1yjs206ror-0tEcAHC9ZceT7VXXUULYeIQBvRMuLQwEtIomIuYFgBTo21u1eRZO-Pf7WGFTw6iOT0FXuUDcSsYgF_ki0MLjLdkZiEkrbg7ecOSPv73BRTBn-CF]--></g></svg>