<svg xmlns="http://www.w3.org/2000/svg" xmlns:xlink="http://www.w3.org/1999/xlink" contentStyleType="text/css" data-diagram-type="CLASS" height="882px" preserveAspectRatio="none" style="width:1297px;height:882px;" version="1.1" viewBox="0 0 1297 882" width="1297px" zoomAndPan="magnify"><?plantuml 1.2026.3?><defs/><g><!--cluster BB--><g class="cluster" data-qualified-name="BB" data-source-line="50" id="ent0002"><path d="M145.69,8.2 L232.6899,8.2 A11.25,11.25 0 0 1 240.1899,15.7 L247.1899,39.2 L706.69,39.2 A7.5,7.5 0 0 1 714.19,46.7 L714.19,237.18 A7.5,7.5 0 0 1 706.69,244.68 L145.69,244.68 A7.5,7.5 0 0 1 138.19,237.18 L138.19,15.7 A7.5,7.5 0 0 1 145.69,8.2" fill="#AFB200" fill-opacity="0.09804" style="stroke:#AFB200;stroke-width:2;"/><line style="stroke:#AFB200;stroke-width:2;" x1="138.19" x2="247.1899" y1="39.2" y2="39.2"/><text fill="#AFB200" font-family="monospace" font-size="20" font-weight="700" lengthAdjust="spacing" textLength="95.9999" x="142.19" y="29.5">buildben</text><text fill="#AFB200" font-family="sans-serif" font-size="20" font-style="italic" lengthAdjust="spacing" textLength="160.5999" x="349.8901" y="62.58">&#171;Python Package&#187;</text></g><!--cluster P--><g class="cluster" data-qualified-name="P" data-source-line="69" id="ent0007"><path d="M286.69,313.68 L347.7849,313.68 A11.25,11.25 0 0 1 355.2849,321.18 L362.2849,346.92 L817.69,346.92 A7.5,7.5 0 0 1 825.19,354.42 L825.19,567.38 A7.5,7.5 0 0 1 817.69,574.88 L286.69,574.88 A7.5,7.5 0 0 1 279.19,567.38 L279.19,321.18 A7.5,7.5 0 0 1 286.69,313.68" fill="#00A2FF" fill-opacity="0.09804" style="stroke:#00A2FF;stroke-width:2;"/><line style="stroke:#00A2FF;stroke-width:2;" x1="279.19" x2="362.2849" y1="346.92" y2="346.92"/><text fill="#00A2FF" font-family="sans-serif" font-size="20" font-weight="700" lengthAdjust="spacing" textLength="70.0949" x="283.19" y="337.06">Project</text><text fill="#00A2FF" font-family="sans-serif" font-size="20" font-style="italic" lengthAdjust="spacing" textLength="236.4998" x="437.9401" y="370.3">&#171;Directory &amp; Environment&#187;</text></g><!--entity TEMP--><g class="entity" data-qualified-name="BB.TEMP" data-source-line="54" id="ent0003"><rect fill="#999999" fill-opacity="0.46667" height="149.4799" rx="7.5" ry="7.5" style="stroke:none;stroke-width:0.5;" width="211.9998" x="154.19" y="79.2"/><text fill="#000000" font-family="sans-serif" font-size="20" font-weight="700" lengthAdjust="spacing" textLength="109.4699" x="164.19" y="110.58">Templates:</text><text fill="#000000" font-family="monospace" font-size="20" lengthAdjust="spacing" textLength="191.9998" x="164.19" y="135.74">&#8226;&#160;pyproject.toml</text><text fill="#000000" font-family="monospace" font-size="20" lengthAdjust="spacing" textLength="95.9999" x="164.19" y="160.7399">&#8226;&#160;.envrc</text><text fill="#000000" font-family="monospace" font-size="20" lengthAdjust="spacing" textLength="119.9998" x="164.19" y="185.7399">&#8226;&#160;justfile</text><text fill="#000000" font-family="monospace" font-size="20" lengthAdjust="spacing" textLength="12" x="164.19" y="212.9799">&#8226;</text><text fill="#000000" font-family="sans-serif" font-size="20" lengthAdjust="spacing" textLength="16.08" x="181.39" y="212.8199">...</text></g><!--entity BBinitcli--><g class="entity" data-qualified-name="BB.BBinitcli" data-source-line="55" id="ent0004"><rect fill="#999999" fill-opacity="0.46667" height="45" rx="7.5" ry="7.5" style="stroke:none;stroke-width:0.5;" width="211.9998" x="486.19" y="131.44"/><text fill="#000000" font-family="monospace" font-size="20" font-weight="700" lengthAdjust="spacing" textLength="191.9998" x="496.19" y="160.74">$&#160;bube&#160;init-proj</text></g><!--entity PyTools--><g class="entity" data-qualified-name="P.PyTools" data-source-line="71" id="ent0008"><rect fill="#999999" fill-opacity="0.46667" height="156.1999" rx="7.5" ry="7.5" style="stroke:none;stroke-width:0.5;" width="159.0349" x="622.67" y="394.68"/><text fill="#000000" font-family="sans-serif" font-size="20" font-weight="700" lengthAdjust="spacing" textLength="128.4749" x="632.67" y="426.06">Python Tools</text><text fill="#000000" font-family="sans-serif" font-size="20" lengthAdjust="spacing" textLength="5.36" x="761.1449" y="426.06">:</text><text fill="#000000" font-family="sans-serif" font-size="20" lengthAdjust="spacing" textLength="7.52" x="632.67" y="453.3">&#8226;</text><text fill="#000000" font-family="monospace" font-size="20" lengthAdjust="spacing" textLength="83.9999" x="645.39" y="453.4599">uv&#160;sync</text><text fill="#000000" font-family="sans-serif" font-size="20" lengthAdjust="spacing" textLength="5.2" x="729.3899" y="453.3">&#160;</text><text fill="#000000" font-family="sans-serif" font-size="20" lengthAdjust="spacing" textLength="7.52" x="632.67" y="480.5399">&#8226;</text><text fill="#000000" font-family="monospace" font-size="20" lengthAdjust="spacing" textLength="83.9999" x="645.39" y="480.6999">uv.lock</text><text fill="#000000" font-family="sans-serif" font-size="20" lengthAdjust="spacing" textLength="7.52" x="632.67" y="507.7799">&#8226;</text><text fill="#000000" font-family="monospace" font-size="20" lengthAdjust="spacing" textLength="59.9999" x="645.39" y="507.9399">.venv</text><text fill="#000000" font-family="sans-serif" font-size="20" lengthAdjust="spacing" textLength="28.8" x="632.67" y="535.0199">&#8226; ...</text></g><!--entity Tools--><g class="entity" data-qualified-name="P.Tools" data-source-line="72" id="ent0009"><rect fill="#999999" fill-opacity="0.46667" height="128.9599" rx="7.5" ry="7.5" style="stroke:none;stroke-width:0.5;" width="182.3698" x="303" y="408.3"/><text fill="#000000" font-family="sans-serif" font-size="20" font-weight="700" lengthAdjust="spacing" textLength="151.8098" x="313" y="439.68">Universal Tools</text><text fill="#000000" font-family="sans-serif" font-size="20" lengthAdjust="spacing" textLength="5.36" x="464.8098" y="439.68">:</text><text fill="#000000" font-family="sans-serif" font-size="20" lengthAdjust="spacing" textLength="7.52" x="313" y="466.92">&#8226;</text><text fill="#000000" font-family="monospace" font-size="20" lengthAdjust="spacing" textLength="71.9999" x="325.72" y="467.0799">direnv</text><text fill="#000000" font-family="sans-serif" font-size="20" lengthAdjust="spacing" textLength="7.52" x="313" y="494.1599">&#8226;</text><text fill="#000000" font-family="monospace" font-size="20" lengthAdjust="spacing" textLength="47.9999" x="325.72" y="494.3199">just</text><text fill="#000000" font-family="sans-serif" font-size="20" lengthAdjust="spacing" textLength="28.8" x="313" y="521.3999">&#8226; ...</text></g><!--entity Standards--><g class="entity" data-qualified-name="Standards" data-source-line="75" id="ent0010"><rect fill="#F27F72" fill-opacity="0.86275" height="210.6798" rx="7.5" ry="7.5" style="stroke:none;stroke-width:0.5;" width="312.3796" x="7" y="657.88"/><text fill="#000000" font-family="sans-serif" font-size="20" font-weight="700" lengthAdjust="spacing" textLength="176.3548" x="17" y="689.26">Python Standards</text><text fill="#000000" font-family="sans-serif" font-size="20" lengthAdjust="spacing" textLength="5.36" x="193.3548" y="689.26">:</text><text fill="#000000" font-family="sans-serif" font-size="20" lengthAdjust="spacing" textLength="287.1796" x="17" y="716.5">&#8226; PEP 405: Virtual-environment</text><text fill="#000000" font-family="sans-serif" font-size="20" lengthAdjust="spacing" textLength="92.9199" x="17" y="743.7399">&#8226; PEP 621:</text><text fill="#000000" font-family="monospace" font-size="20" lengthAdjust="spacing" textLength="167.9998" x="115.1199" y="743.8999">pyproject.toml</text><text fill="#000000" font-family="sans-serif" font-size="20" lengthAdjust="spacing" textLength="234.9397" x="17" y="770.9799">&#8226; PEP 660: Editable install</text><text fill="#000000" font-family="sans-serif" font-size="20" lengthAdjust="spacing" textLength="185.4798" x="17" y="798.2199">&#8226; PEP 751: Lock-files</text><text fill="#000000" font-family="sans-serif" font-size="20" lengthAdjust="spacing" textLength="40.6" x="17" y="825.4599">&#8226; uv:</text><text fill="#000000" font-family="monospace" font-size="20" lengthAdjust="spacing" textLength="83.9999" x="62.8" y="825.6198">uv.lock</text><text fill="#000000" font-family="sans-serif" font-size="20" lengthAdjust="spacing" textLength="86.6199" x="151.9998" y="825.4599">workflow</text><text fill="#000000" font-family="sans-serif" font-size="20" lengthAdjust="spacing" textLength="65.2599" x="17" y="852.6998">&#8226; PyPA:</text><text fill="#000000" font-family="monospace" font-size="20" lengthAdjust="spacing" textLength="47.9999" x="87.4599" y="852.8598">src/</text><text fill="#000000" font-family="sans-serif" font-size="20" lengthAdjust="spacing" textLength="70.0199" x="135.4599" y="852.6998">-Layout</text></g><!--link TEMP to BBinitcli--><g class="link" data-entity-1="ent0003" data-entity-2="ent0004" data-link-type="dependency" data-source-line="66" id="lnk6"><path codeLine="66" d="M366.61,153.94 C404.73,153.94 441.69,153.94 479.81,153.94" fill="none" id="TEMP-to-BBinitcli" style="stroke:#AFB200;stroke-width:3;"/><polygon fill="#AFB200" points="485.81,153.94,476.81,149.94,480.81,153.94,476.81,157.94,485.81,153.94" style="stroke:#AFB200;stroke-width:3;"/><text fill="#AFB200" font-family="sans-serif" font-size="20" font-style="italic" lengthAdjust="spacing" textLength="84.7399" x="384.19" y="144.32">copied by</text></g><!--link BBinitcli to P--><g class="link" data-entity-1="ent0004" data-entity-2="ent0007" data-link-type="dependency" data-source-line="87" id="lnk11"><path codeLine="87" d="M603.26,176.81 C620.37,208.02 656.43,264.33 705.19,289.68 C723.59,299.25 783.36,283.18 798.19,297.68 C825.59,324.46 830.62,367.055 828.6637,403.4087 C828.1747,412.4972 827.249,421.1955 826.127,429.1592 C825.8465,431.1501 826.4965,427.1696 826.1952,429.0633" fill="none" id="BBinitcli-to-P" style="stroke:#00A2FF;stroke-width:4;"/><polygon fill="#00A2FF" points="825.2525,434.9888,830.6169,426.729,826.0381,430.0509,822.7162,425.4721,825.2525,434.9888" style="stroke:#00A2FF;stroke-width:4;"/><text fill="#00A2FF" font-family="sans-serif" font-size="20" font-style="italic" font-weight="700" lengthAdjust="spacing" textLength="232.2297" x="706.19" y="283.06">creates project scaffold</text><text fill="#00A2FF" font-family="sans-serif" font-size="20" font-style="italic" lengthAdjust="spacing" textLength="337.9397" x="943.6197" y="283.06">(buildben is no dependency of project)</text></g><!--link Tools to PyTools--><g class="link" data-entity-1="ent0009" data-entity-2="ent0008" data-link-type="dependency" data-source-line="89" id="lnk12"><path codeLine="89" d="M485.77,472.78 C529.12,472.78 574.42,472.78 616.2,472.78" fill="none" id="Tools-to-PyTools" style="stroke:#00A2FF;stroke-width:2.5;"/><polygon fill="#00A2FF" points="622.2,472.78,613.2,468.78,617.2,472.78,613.2,476.78,622.2,472.78" style="stroke:#00A2FF;stroke-width:2.5;"/><text fill="#00A2FF" font-family="sans-serif" font-size="20" font-style="italic" font-weight="700" lengthAdjust="spacing" textLength="96.3199" x="503.52" y="436.16">automate</text><text fill="#00A2FF" font-family="sans-serif" font-size="20" font-style="italic" lengthAdjust="spacing" textLength="5.2" x="599.8399" y="436.16">&#160;</text><text fill="#00A2FF" font-family="sans-serif" font-size="20" font-style="italic" font-weight="700" lengthAdjust="spacing" textLength="98.6049" x="504.9775" y="463.4">&amp; simplify</text></g><!--link PyTools to Standards--><g class="link" data-entity-1="ent0008" data-entity-2="ent0010" data-link-type="dependency" data-source-line="98" id="lnk13"><path codeLine="98" d="M622.5,522.27 C586.39,543.83 542.96,569.19 503.19,590.88 C443.86,623.24 383.049,654.4115 324.959,683.3915" fill="none" id="PyTools-to-Standards" style="stroke:#EE220C;stroke-width:2.5;stroke-dasharray:10,5;"/><polygon fill="#EE220C" points="319.59,686.07,329.4291,685.6316,324.0641,683.8379,325.8578,678.473,319.59,686.07" style="stroke:#EE220C;stroke-width:2.5;"/><text fill="#EE220C" font-family="sans-serif" font-size="20" font-style="italic" font-weight="700" lengthAdjust="spacing" textLength="119.9699" x="486.17" y="621.26">comply with</text></g><!--link TEMP to Standards--><g class="link" data-entity-1="ent0003" data-entity-2="ent0010" data-link-type="dependency" data-source-line="99" id="lnk14"><path codeLine="99" d="M199.95,228.99 C186.18,249.98 173.47,273.69 166.19,297.68 C129.97,417.12 135.7794,555.9476 146.5594,651.7876" fill="none" id="TEMP-to-Standards" style="stroke:#EE220C;stroke-width:2.5;stroke-dasharray:10,5;"/><polygon fill="#EE220C" points="147.23,657.75,150.199,648.3593,146.6711,652.7813,142.2491,649.2535,147.23,657.75" style="stroke:#EE220C;stroke-width:2.5;"/><text fill="#EE220C" font-family="sans-serif" font-size="20" font-style="italic" font-weight="700" lengthAdjust="spacing" textLength="119.9699" x="167.19" y="480.66">comply with</text></g><?plantuml-src bLNRZjis47tNLmoK8jiAa6EhwnWnl0QogJSl6q38RllIBG9Af6p6D6cGb1qrMA3Vqa_hbsGeoTR5tcR39tiuS-RCcU7e0gwkhk2zK0aH89HQmql861FEt1pFyowUvsZMN6w99XkWB2Evi3TAsZl-DuDeY1ZDzJL9rqkjSadVAQ4ql1YMPpJqdlQncaY3LqnQZmYXzfys_0kNIwZfFUEqqBU8JfOCldg0vsELHakcOJGkJTTAKwRlLpnTIsOCH9NrbFZRwEPczAOLqxafxKw6oWf7--CfcTciLdWXTrmhkS5Iv_FPB2xiIac8Aw_vl2PzmeLaIOGYdk5ItMJPAPlZpUFpPSI9QBXhbbeYbwAIycv5gDgxhcH46EPrUKWbIrEV-9loJ2RUIISUswbIGR0HJnJVmkWcTUV5PNdEDdPq5ENE5bX6eWGzDnH8nPiPvpBtYDPgNpEvvP8rQB-Yt-nLxORdC6U-xoSv5pHX4dy2CN1z3K-qzg8bgXy4liybjo4bbYJ4CD-PAW2Q8CG7HNDCDZyNI2WDsPSjqzpDKYiIZTy9PN8N6acsPgKwWNBdhDtWJkWzssm5iSnCW-01Y_tldtzXMsor-enU0wismlSFzW72wRJv_patDkE27IqerM0mA7FVBpx4_Lo-_nCaUSAWLCZbQ55rjbHmptNaJD-QZdDB14-FpVoHDzEq-fWFPg5WcGrBmZ25L6qvev0KxMc8ApbAfZ6A-HjtTIbTu6BjlFwlWFkjLtKzDFTA2HC4KtYGJZlVptTW2ebojYm3eTAraxCo37Qe-E7lGTcuAA6Wd-TtoNTC6rn89waeycs0VDyrhWzRW-AxESV-3YsKQDg2ZHSnN0x7K_Y3QviJ4R96YPRBwsWqnPIdCtLqU3sSme9YMnFNNMcmlwAvdemn_XPb2TsecUeYtqtRUi5UwNM67vawh8ZVkdkZqrU-7zwIGkLLyuvbu5naqIIRH3JzdqLn-ctehezeCExDM_yxqXdPymCO_caFW5UNVuLpS6CO1Abcxbb2BHkOb6GPBhiWW9yFkmcumIsDd-yjavJ9j02L7G9-yRogfQ7covLrkFNWE7IIOniG7z4UP12y1CDn3_2i28AdvQYA6Gt3SL-XnIAAXk_wMjJMLja72Y7IQNfHbgimVm5xRbT8eNoCttFolW40?></g></svg>