<?xml version="1.0" encoding="us-ascii" standalone="no"?><svg xmlns="http://www.w3.org/2000/svg" xmlns:xlink="http://www.w3.org/1999/xlink" contentStyleType="text/css" height="674px" preserveAspectRatio="none" style="width:1134px;height:674px;" version="1.1" viewBox="0 0 1134 674" width="1134px" zoomAndPan="magnify"><defs/><g><!--cluster BB--><g id="cluster_BB"><path d="M13.5,7.2168 L100.5,7.2168 A11.25,11.25 0 0 1 108,14.7168 L115,36.498 L513.5,36.498 A7.5,7.5 0 0 1 521,43.998 L521,147.7168 A7.5,7.5 0 0 1 513.5,155.2168 L13.5,155.2168 A7.5,7.5 0 0 1 6,147.7168 L6,14.7168 A7.5,7.5 0 0 1 13.5,7.2168 " fill="#AFB200" fill-opacity="0.09804" style="stroke:#AFB200;stroke-width:2.0;"/><line style="stroke:#AFB200;stroke-width:2.0;" x1="6" x2="115" y1="36.498" y2="36.498"/><text fill="#AFB200" font-family="monospace" font-size="20" font-weight="bold" lengthAdjust="spacing" textLength="96" x="10" y="27.7813">buildben</text><text fill="#AFB200" font-family="sans-serif" font-size="20" font-style="italic" lengthAdjust="spacing" textLength="184" x="175.5" y="57.0625">&#171;Python Package&#187;</text></g><!--cluster P--><g id="cluster_P"><path d="M398.5,266.2168 L471.5,266.2168 A11.25,11.25 0 0 1 479,273.7168 L486,295.498 L1118.5,295.498 A7.5,7.5 0 0 1 1126,302.998 L1126,445.7168 A7.5,7.5 0 0 1 1118.5,453.2168 L398.5,453.2168 A7.5,7.5 0 0 1 391,445.7168 L391,273.7168 A7.5,7.5 0 0 1 398.5,266.2168 " fill="#00A2FF" fill-opacity="0.09804" style="stroke:#00A2FF;stroke-width:2.0;"/><line style="stroke:#00A2FF;stroke-width:2.0;" x1="391" x2="486" y1="295.498" y2="295.498"/><text fill="#00A2FF" font-family="sans-serif" font-size="20" font-weight="bold" lengthAdjust="spacing" textLength="82" x="395" y="286.7813">Project</text></g><!--entity TEMP--><g id="elem_TEMP"><rect fill="#999999" fill-opacity="0.46667" height="66.5625" rx="7.5" ry="7.5" style="stroke:none;stroke-width:0.5;" width="136" x="22" y="72.2168"/><text fill="#000000" font-family="sans-serif" font-size="20" font-style="italic" lengthAdjust="spacing" textLength="70" x="55" y="100.7813">&#171;Files&#187;</text><text fill="#000000" font-family="sans-serif" font-size="20" font-weight="bold" lengthAdjust="spacing" textLength="116" x="32" y="124.0625">templates</text></g><!--entity BBinitcli--><g id="elem_BBinitcli"><rect fill="#999999" fill-opacity="0.46667" height="66.5625" rx="7.5" ry="7.5" style="stroke:none;stroke-width:0.5;" width="212" x="293" y="72.2168"/><text fill="#000000" font-family="sans-serif" font-size="20" font-style="italic" lengthAdjust="spacing" textLength="161" x="318.5" y="100.7813">&#171;Cookie Cutter&#187;</text><text fill="#000000" font-family="monospace" font-size="20" font-weight="bold" lengthAdjust="spacing" textLength="192" x="303" y="124.0625">$&#160;bube&#160;init-proj</text></g><!--entity PyTools--><g id="elem_PyTools"><rect fill="#999999" fill-opacity="0.46667" height="113.125" rx="7.5" ry="7.5" style="stroke:none;stroke-width:0.5;" width="306" x="796" y="316.2168"/><text fill="#000000" font-family="sans-serif" font-size="20" font-weight="bold" lengthAdjust="spacing" textLength="148" x="806" y="344.7813">Python Tools</text><text fill="#000000" font-family="sans-serif" font-size="20" lengthAdjust="spacing" textLength="7" x="954" y="344.7813">:</text><text fill="#000000" font-family="sans-serif" font-size="20" lengthAdjust="spacing" textLength="12" x="806" y="368.0625">&#8226;</text><text fill="#000000" font-family="monospace" font-size="20" lengthAdjust="spacing" textLength="108" x="824" y="368.0625">pip-tools</text><text fill="#000000" font-family="sans-serif" font-size="20" lengthAdjust="spacing" textLength="148" x="938" y="368.0625">(compile/sync)</text><text fill="#000000" font-family="sans-serif" font-size="20" lengthAdjust="spacing" textLength="220" x="806" y="391.3438">&#8226; Virtual-environment</text><text fill="#000000" font-family="sans-serif" font-size="20" lengthAdjust="spacing" textLength="36" x="806" y="414.625">&#8226; ...</text></g><!--entity Tools--><g id="elem_Tools"><rect fill="#999999" fill-opacity="0.46667" height="113.125" rx="7.5" ry="7.5" style="stroke:none;stroke-width:0.5;" width="208" x="434" y="316.2168"/><text fill="#000000" font-family="sans-serif" font-size="20" font-weight="bold" lengthAdjust="spacing" textLength="175" x="444" y="344.7813">Universal Tools</text><text fill="#000000" font-family="sans-serif" font-size="20" lengthAdjust="spacing" textLength="7" x="619" y="344.7813">:</text><text fill="#000000" font-family="sans-serif" font-size="20" lengthAdjust="spacing" textLength="12" x="444" y="368.0625">&#8226;</text><text fill="#000000" font-family="monospace" font-size="20" lengthAdjust="spacing" textLength="72" x="462" y="368.0625">direnv</text><text fill="#000000" font-family="sans-serif" font-size="20" lengthAdjust="spacing" textLength="12" x="444" y="391.3438">&#8226;</text><text fill="#000000" font-family="monospace" font-size="20" lengthAdjust="spacing" textLength="48" x="462" y="391.3438">just</text><text fill="#000000" font-family="sans-serif" font-size="20" lengthAdjust="spacing" textLength="36" x="444" y="414.625">&#8226; ...</text></g><!--entity Standards--><g id="elem_Standards"><rect fill="#F27F72" fill-opacity="0.86275" height="136.4063" rx="7.5" ry="7.5" style="stroke:none;stroke-width:0.5;" width="341" x="778.5" y="532.2168"/><text fill="#000000" font-family="sans-serif" font-size="20" font-weight="bold" lengthAdjust="spacing" textLength="203" x="788.5" y="560.7813">Python Standards</text><text fill="#000000" font-family="sans-serif" font-size="20" lengthAdjust="spacing" textLength="7" x="991.5" y="560.7813">:</text><text fill="#000000" font-family="sans-serif" font-size="20" lengthAdjust="spacing" textLength="315" x="788.5" y="584.0625">&#8226; PEP 405: Virtual-environment</text><text fill="#000000" font-family="sans-serif" font-size="20" lengthAdjust="spacing" textLength="107" x="788.5" y="607.3438">&#8226; PEP 621:</text><text fill="#000000" font-family="monospace" font-size="20" lengthAdjust="spacing" textLength="168" x="901.5" y="607.3438">pyproject.toml</text><text fill="#000000" font-family="sans-serif" font-size="20" lengthAdjust="spacing" textLength="263" x="788.5" y="630.625">&#8226; PEP 660: Editable install</text><text fill="#000000" font-family="sans-serif" font-size="20" lengthAdjust="spacing" textLength="213" x="788.5" y="653.9063">&#8226;  PEP 751: Lock-files</text></g><!--link TEMP to BBinitcli--><g id="link_TEMP_BBinitcli"><path codeLine="67" d="M158.19,105.7168 C197.65,105.7168 242.16,105.7168 286.73,105.7168 " fill="none" id="TEMP-to-BBinitcli" style="stroke:#AFB200;stroke-width:3.0;"/><polygon fill="#AFB200" points="292.73,105.7168,283.73,101.7168,287.73,105.7168,283.73,109.7168,292.73,105.7168" style="stroke:#AFB200;stroke-width:3.0;"/><text fill="#AFB200" font-family="sans-serif" font-size="20" font-style="italic" lengthAdjust="spacing" textLength="98" x="176.5" y="97.2813">copied by</text></g><!--link BBinitcli to P--><g id="link_BBinitcli_P"><path codeLine="88" d="M399,139.4768 C399,156.9243 399,179.8493 399,204.4991 C399,216.8241 399,229.5802 399,242.2985 C399,248.6576 399,255.0073 399,261.2888 C399,262.8592 399,258.4253 399,259.9863 " fill="none" id="BBinitcli-to-P" style="stroke:#00A2FF;stroke-width:2.5;"/><polygon fill="#00A2FF" points="399,265.9863,403,256.9863,399,260.9863,395,256.9863,399,265.9863" style="stroke:#00A2FF;stroke-width:2.5;"/><text fill="#00A2FF" font-family="sans-serif" font-size="20" font-style="italic" font-weight="bold" lengthAdjust="spacing" textLength="280" x="470.5" y="190.7813">creates project scaffold:</text><text fill="#00A2FF" font-family="sans-serif" font-size="20" font-style="italic" lengthAdjust="spacing" textLength="6" x="400" y="214.0625">&#160;</text><text fill="#00A2FF" font-family="monospace" font-size="20" font-style="italic" lengthAdjust="spacing" textLength="168" x="406" y="214.0625">pyproject.toml</text><text fill="#00A2FF" font-family="sans-serif" font-size="20" font-style="italic" lengthAdjust="spacing" textLength="6" x="574" y="214.0625">,</text><text fill="#00A2FF" font-family="monospace" font-size="20" font-style="italic" lengthAdjust="spacing" textLength="72" x="586" y="214.0625">.envrc</text><text fill="#00A2FF" font-family="sans-serif" font-size="20" font-style="italic" lengthAdjust="spacing" textLength="6" x="658" y="214.0625">,</text><text fill="#00A2FF" font-family="monospace" font-size="20" font-style="italic" lengthAdjust="spacing" textLength="96" x="670" y="214.0625">justfile</text><text fill="#00A2FF" font-family="sans-serif" font-size="20" font-style="italic" lengthAdjust="spacing" textLength="49" x="766" y="214.0625">, etc.</text><text fill="#00A2FF" font-family="sans-serif" font-size="20" font-style="italic" lengthAdjust="spacing" textLength="389" x="419" y="237.3438">(buildben is no dependency of project)</text></g><!--link Tools to PyTools--><g id="link_Tools_PyTools"><path codeLine="90" d="M642.24,372.7168 C688.86,372.7168 738.73,372.7168 789.95,372.7168 " fill="none" id="Tools-to-PyTools" style="stroke:#00A2FF;stroke-width:2.5;"/><polygon fill="#00A2FF" points="795.95,372.7168,786.95,368.7168,790.95,372.7168,786.95,376.7168,795.95,372.7168" style="stroke:#00A2FF;stroke-width:2.5;"/><text fill="#00A2FF" font-family="sans-serif" font-size="20" font-style="italic" font-weight="bold" lengthAdjust="spacing" textLength="111" x="660.5" y="341.2813">automate</text><text fill="#00A2FF" font-family="sans-serif" font-size="20" font-style="italic" lengthAdjust="spacing" textLength="6" x="771.5" y="341.2813">&#160;</text><text fill="#00A2FF" font-family="sans-serif" font-size="20" font-style="italic" font-weight="bold" lengthAdjust="spacing" textLength="114" x="662" y="364.5625">&amp; simplify</text></g><!--link PyTools to Standards--><g id="link_PyTools_Standards"><path codeLine="100" d="M949,429.4568 C949,460.4968 949,493.3668 949,526.0668 " fill="none" id="PyTools-to-Standards" style="stroke:#EE220C;stroke-width:2.5;stroke-dasharray:10.0,5.0;"/><polygon fill="#EE220C" points="949,532.0668,953,523.0668,949,527.0668,945,523.0668,949,532.0668" style="stroke:#EE220C;stroke-width:2.5;"/><text fill="#EE220C" font-family="sans-serif" font-size="20" font-style="italic" font-weight="bold" lengthAdjust="spacing" textLength="137" x="950" y="496.7813">comply with</text></g><!--SRC=[bLNTRjCm5BxFKnm5n20YfGqh5LLNYKqTDo1LR70r2JcnqvgwTcGxtGAQnBFmQ3m9n_bfqpQ3uQlc-Fnyv_kEJq_WxEmCtWiL4m52gHKyWvGnuSoxutdUoUCSpOhBZ6Yo1ifIaWjxgQIzujyPH7tCiRi-9ybgeLKkwOKIIiEJVda6VUzX7wk9D7Z5fFM84EhswvhVSRc06juZJYjxXjd9Wi4F3_1ygifeoJGCXgNfN6dAzFMI9ol9Z86eiXu3VnTTNWxUjcBsRagxew6omjP-VmncCgaPdiaDrqgkiTNfT3AP5tQf9Cmhh-cq1ds4XQHnX2HsOAbkqlGOpVRc_l4quaJii6kMM28NegBoQacekdMgf4GOvktZa4gMfaFWRyip6db7IjotIoM2e10FDD_AiL_KdIUdvUaKTh0bvSeMs4Qi1EqQ2eJYJOnpcNf4QtLR8_d09TjbUur-arUr6vvcpdpVZtCkQCma_WHYuFmS7f3sf4Mg7mI-poMt8IMMnCGmtvcg13J651yLpR7Oj2kGK1gokunfxcQf5Od6VuGokGcD99bPghr0kN7M_U2zKClMcI2McJhcUlPnZkwNN31JUXy6-FvJYFEOGTbcfjMtLZrdImJ711UuTZY3YznQfZ6H8xf3ZfsGt1B1awr6__CKTWgs48I2fJQi-Xb3eZBEACH5M-GvWiVMIkpp7zZgOQ-rtjTA2UHd33VozyzVE1mPpqBhZ3WRpnErpf2jLwQGoOlQvGlNDYSYPBlLK5tqUhsgN54cFMBti-GRfWrkbQEYbECotVX-y_qjDxRvQjBMIN7uk_guGWibchRIpcTpEEqFnrs8Movlei7OzLra5MKzgzQYALuwlEcFOKPHnDXfAGsgAQhhyduqn0GVLB8AKpTP9TWj75GpZKRfAAB9NrxjyQBUVyjHRtWm9OTBVM_GkiScn7qemocucGc2H3FtDA3k6an2qXGNpZW8RcG77o_HraC6TLBzTXAvVjqNiqaF6ONdpM81Rd35udzlnYHbCYb0fKsb5vvNIHbglbXQ1wWU60UBv5WEWGK19Wo2Ps0uFcAU5a7mC7rLyuD-E3naT3QBelx58NUrjSrJWw4XQITWIHQ-0r70BRTBX-CF]--></g></svg>