<?xml version="1.0" encoding="us-ascii" standalone="no"?><svg xmlns="http://www.w3.org/2000/svg" xmlns:xlink="http://www.w3.org/1999/xlink" contentStyleType="text/css" height="743px" preserveAspectRatio="none" style="width:1131px;height:743px;" version="1.1" viewBox="0 0 1131 743" width="1131px" zoomAndPan="magnify"><defs/><g><!--cluster BB--><g id="cluster_BB"><path d="M13.5,7.2168 L100.5,7.2168 A11.25,11.25 0 0 1 108,14.7168 L115,36.498 L589.5,36.498 A7.5,7.5 0 0 1 597,43.998 L597,216.7168 A7.5,7.5 0 0 1 589.5,224.2168 L13.5,224.2168 A7.5,7.5 0 0 1 6,216.7168 L6,14.7168 A7.5,7.5 0 0 1 13.5,7.2168 " fill="#AFB200" fill-opacity="0.09804" style="stroke:#AFB200;stroke-width:2.0;"/><line style="stroke:#AFB200;stroke-width:2.0;" x1="6" x2="115" y1="36.498" y2="36.498"/><text fill="#AFB200" font-family="monospace" font-size="20" font-weight="bold" lengthAdjust="spacing" textLength="96" x="10" y="27.7813">buildben</text><text fill="#AFB200" font-family="sans-serif" font-size="20" font-style="italic" lengthAdjust="spacing" textLength="184" x="213.5" y="57.0625">&#171;Python Package&#187;</text></g><!--cluster P--><g id="cluster_P"><path d="M430.5,289.2168 L503.5,289.2168 A11.25,11.25 0 0 1 511,296.7168 L518,318.498 L1084.5,318.498 A7.5,7.5 0 0 1 1092,325.998 L1092,491.7168 A7.5,7.5 0 0 1 1084.5,499.2168 L430.5,499.2168 A7.5,7.5 0 0 1 423,491.7168 L423,296.7168 A7.5,7.5 0 0 1 430.5,289.2168 " fill="#00A2FF" fill-opacity="0.09804" style="stroke:#00A2FF;stroke-width:2.0;"/><line style="stroke:#00A2FF;stroke-width:2.0;" x1="423" x2="518" y1="318.498" y2="318.498"/><text fill="#00A2FF" font-family="sans-serif" font-size="20" font-weight="bold" lengthAdjust="spacing" textLength="82" x="427" y="309.7813">Project</text><text fill="#00A2FF" font-family="sans-serif" font-size="20" font-style="italic" lengthAdjust="spacing" textLength="274" x="624.5" y="339.0625">&#171;Directory &amp; Environment&#187;</text></g><!--entity TEMP--><g id="elem_TEMP"><rect fill="#999999" fill-opacity="0.46667" height="136.4063" rx="7.5" ry="7.5" style="stroke:none;stroke-width:0.5;" width="212" x="22" y="72.2168"/><text fill="#000000" font-family="sans-serif" font-size="20" font-weight="bold" lengthAdjust="spacing" textLength="128" x="32" y="100.7813">Templates:</text><text fill="#000000" font-family="monospace" font-size="20" lengthAdjust="spacing" textLength="192" x="32" y="124.0625">&#8226;&#160;pyproject.toml</text><text fill="#000000" font-family="monospace" font-size="20" lengthAdjust="spacing" textLength="96" x="32" y="147.3438">&#8226;&#160;.envrc</text><text fill="#000000" font-family="monospace" font-size="20" lengthAdjust="spacing" textLength="120" x="32" y="170.625">&#8226;&#160;justfile</text><text fill="#000000" font-family="monospace" font-size="20" lengthAdjust="spacing" textLength="12" x="32" y="193.9063">&#8226;</text><text fill="#000000" font-family="sans-serif" font-size="20" lengthAdjust="spacing" textLength="18" x="50" y="193.9063">...</text></g><!--entity BBinitcli--><g id="elem_BBinitcli"><rect fill="#999999" fill-opacity="0.46667" height="43.2813" rx="7.5" ry="7.5" style="stroke:none;stroke-width:0.5;" width="212" x="369" y="118.7168"/><text fill="#000000" font-family="monospace" font-size="20" font-weight="bold" lengthAdjust="spacing" textLength="192" x="379" y="147.2813">$&#160;bube&#160;init-proj</text></g><!--entity PyTools--><g id="elem_PyTools"><rect fill="#999999" fill-opacity="0.46667" height="113.125" rx="7.5" ry="7.5" style="stroke:none;stroke-width:0.5;" width="240" x="828" y="362.2168"/><text fill="#000000" font-family="sans-serif" font-size="20" font-weight="bold" lengthAdjust="spacing" textLength="148" x="838" y="390.7813">Python Tools</text><text fill="#000000" font-family="sans-serif" font-size="20" lengthAdjust="spacing" textLength="7" x="986" y="390.7813">:</text><text fill="#000000" font-family="sans-serif" font-size="20" lengthAdjust="spacing" textLength="12" x="838" y="414.0625">&#8226;</text><text fill="#000000" font-family="monospace" font-size="20" lengthAdjust="spacing" textLength="24" x="856" y="414.0625">uv</text><text fill="#000000" font-family="sans-serif" font-size="20" lengthAdjust="spacing" textLength="6" x="880" y="414.0625">&#160;</text><text fill="#000000" font-family="sans-serif" font-size="20" lengthAdjust="spacing" textLength="220" x="838" y="437.3438">&#8226; Virtual-environment</text><text fill="#000000" font-family="sans-serif" font-size="20" lengthAdjust="spacing" textLength="36" x="838" y="460.625">&#8226; ...</text></g><!--entity Tools--><g id="elem_Tools"><rect fill="#999999" fill-opacity="0.46667" height="113.125" rx="7.5" ry="7.5" style="stroke:none;stroke-width:0.5;" width="208" x="466" y="362.2168"/><text fill="#000000" font-family="sans-serif" font-size="20" font-weight="bold" lengthAdjust="spacing" textLength="175" x="476" y="390.7813">Universal Tools</text><text fill="#000000" font-family="sans-serif" font-size="20" lengthAdjust="spacing" textLength="7" x="651" y="390.7813">:</text><text fill="#000000" font-family="sans-serif" font-size="20" lengthAdjust="spacing" textLength="12" x="476" y="414.0625">&#8226;</text><text fill="#000000" font-family="monospace" font-size="20" lengthAdjust="spacing" textLength="72" x="494" y="414.0625">direnv</text><text fill="#000000" font-family="sans-serif" font-size="20" lengthAdjust="spacing" textLength="12" x="476" y="437.3438">&#8226;</text><text fill="#000000" font-family="monospace" font-size="20" lengthAdjust="spacing" textLength="48" x="494" y="437.3438">just</text><text fill="#000000" font-family="sans-serif" font-size="20" lengthAdjust="spacing" textLength="36" x="476" y="460.625">&#8226; ...</text></g><!--entity Standards--><g id="elem_Standards"><rect fill="#F27F72" fill-opacity="0.86275" height="159.6875" rx="7.5" ry="7.5" style="stroke:none;stroke-width:0.5;" width="341" x="29.5" y="578.2168"/><text fill="#000000" font-family="sans-serif" font-size="20" font-weight="bold" lengthAdjust="spacing" textLength="203" x="39.5" y="606.7813">Python Standards</text><text fill="#000000" font-family="sans-serif" font-size="20" lengthAdjust="spacing" textLength="7" x="242.5" y="606.7813">:</text><text fill="#000000" font-family="sans-serif" font-size="20" lengthAdjust="spacing" textLength="315" x="39.5" y="630.0625">&#8226; PEP 405: Virtual-environment</text><text fill="#000000" font-family="sans-serif" font-size="20" lengthAdjust="spacing" textLength="107" x="39.5" y="653.3438">&#8226; PEP 621:</text><text fill="#000000" font-family="monospace" font-size="20" lengthAdjust="spacing" textLength="168" x="152.5" y="653.3438">pyproject.toml</text><text fill="#000000" font-family="sans-serif" font-size="20" lengthAdjust="spacing" textLength="263" x="39.5" y="676.625">&#8226; PEP 660: Editable install</text><text fill="#000000" font-family="sans-serif" font-size="20" lengthAdjust="spacing" textLength="213" x="39.5" y="699.9063">&#8226;  PEP 751: Lock-files</text><text fill="#000000" font-family="sans-serif" font-size="20" lengthAdjust="spacing" textLength="80" x="39.5" y="723.1875">&#8226;  PyPA:</text><text fill="#000000" font-family="monospace" font-size="20" lengthAdjust="spacing" textLength="48" x="125.5" y="723.1875">src/</text><text fill="#000000" font-family="sans-serif" font-size="20" lengthAdjust="spacing" textLength="74" x="173.5" y="723.1875">-Layout</text></g><!--link TEMP to BBinitcli--><g id="link_TEMP_BBinitcli"><path codeLine="66" d="M234.47,140.2168 C277.1,140.2168 320.12,140.2168 362.73,140.2168 " fill="none" id="TEMP-to-BBinitcli" style="stroke:#AFB200;stroke-width:3.0;"/><polygon fill="#AFB200" points="368.73,140.2168,359.73,136.2168,363.73,140.2168,359.73,144.2168,368.73,140.2168" style="stroke:#AFB200;stroke-width:3.0;"/><text fill="#AFB200" font-family="sans-serif" font-size="20" font-style="italic" lengthAdjust="spacing" textLength="98" x="252.5" y="131.7813">copied by</text></g><!--link BBinitcli to P--><g id="link_BBinitcli_P"><path codeLine="87" d="M470.74,161.7268 C465.45,187.6368 456.35,233.6068 450,273.2168 C449.3694,277.1518 448.7444,281.1496 448.1268,285.1875 C447.9724,286.197 447.8185,287.209 447.665,288.2231 C447.6266,288.4767 448.4837,282.7975 448.4454,283.0513 " fill="none" id="BBinitcli-to-P" style="stroke:#00A2FF;stroke-width:4.0;"/><polygon fill="#00A2FF" points="447.55,288.9841,452.8483,280.6818,448.2961,284.0401,444.9378,279.488,447.55,288.9841" style="stroke:#00A2FF;stroke-width:4.0;"/><text fill="#00A2FF" font-family="sans-serif" font-size="20" font-style="italic" font-weight="bold" lengthAdjust="spacing" textLength="272" x="456" y="259.7813">creates project scaffold</text><text fill="#00A2FF" font-family="sans-serif" font-size="20" font-style="italic" lengthAdjust="spacing" textLength="389" x="734" y="259.7813">(buildben is no dependency of project)</text></g><!--link Tools to PyTools--><g id="link_Tools_PyTools"><path codeLine="89" d="M674.04,418.7168 C721.68,418.7168 772.42,418.7168 821.87,418.7168 " fill="none" id="Tools-to-PyTools" style="stroke:#00A2FF;stroke-width:2.5;"/><polygon fill="#00A2FF" points="827.87,418.7168,818.87,414.7168,822.87,418.7168,818.87,422.7168,827.87,418.7168" style="stroke:#00A2FF;stroke-width:2.5;"/><text fill="#00A2FF" font-family="sans-serif" font-size="20" font-style="italic" font-weight="bold" lengthAdjust="spacing" textLength="111" x="692.5" y="387.2813">automate</text><text fill="#00A2FF" font-family="sans-serif" font-size="20" font-style="italic" lengthAdjust="spacing" textLength="6" x="803.5" y="387.2813">&#160;</text><text fill="#00A2FF" font-family="sans-serif" font-size="20" font-style="italic" font-weight="bold" lengthAdjust="spacing" textLength="114" x="694" y="410.5625">&amp; simplify</text></g><!--link PyTools to Standards--><g id="link_PyTools_Standards"><path codeLine="98" d="M827.88,466.6768 C785.22,482.7768 736.7,500.4468 692,515.2168 C586.06,550.2068 471.5215,583.4123 376.3915,609.8123 " fill="none" id="PyTools-to-Standards" style="stroke:#EE220C;stroke-width:2.5;stroke-dasharray:10.0,5.0;"/><polygon fill="#EE220C" points="370.61,611.4168,380.3519,612.8645,375.4279,610.0798,378.2126,605.1558,370.61,611.4168" style="stroke:#EE220C;stroke-width:2.5;"/><text fill="#EE220C" font-family="sans-serif" font-size="20" font-style="italic" font-weight="bold" lengthAdjust="spacing" textLength="137" x="666" y="542.7813">comply with</text></g><!--link TEMP to Standards--><g id="link_TEMP_Standards"><path codeLine="99" d="M137.38,208.4068 C150.63,303.3868 173.971,470.6543 188.091,571.8643 " fill="none" id="TEMP-to-Standards" style="stroke:#EE220C;stroke-width:2.5;stroke-dasharray:10.0,5.0;"/><polygon fill="#EE220C" points="188.92,577.8068,191.6381,568.3404,188.2291,572.8548,183.7148,569.4458,188.92,577.8068" style="stroke:#EE220C;stroke-width:2.5;"/><text fill="#EE220C" font-family="sans-serif" font-size="20" font-style="italic" font-weight="bold" lengthAdjust="spacing" textLength="137" x="180" y="425.7813">comply with</text></g><!--SRC=[bLLTRzis57tNhxXGXsOJ8DVMuXer70DDv_Gb1OGbsyio39H8sQnfqY0ffreHOBzbFss_P9Vwbksi6P-ioyjp3y-vlBw0gwih-2XKGWG8fRRm6ZB6X0jto_EyYvSbcYsNUwB93YZBI2xiZPBsZl_981eZHhTzJTBjMgjSqWzAA0slnkMQZBtdSwmcqk0MazOZGgZ7FtRy2vThgEczOFNGzuXErWo-Ue3hvwgCbap3P5g6hfMcJDzlUBgLp1Y8gkWfyVVHpStaNU_COAUCEncgABJnfrCoYqMjy4eUk5PoXrTTBXUBkB0R9I6kifRBclG95v8b4OfuXakrasMdRDgTfvVBY1tHSTSijKIkHINbtOPGzUXSoOWmp1loa4gMeMFYxyerctadJZprIwM2e17FNBw7CIpgrglBSfqrTjAAScSBl4QY13tN54Z5MnYNilI8rkgnPdBB9UlGViIynPiw3LVJPxxl9paND64IVm8nS7qDprXxqHFL3mBVvvBRa19B4cAOxq8L04qGufEYEHPRdZj8A0tPbptJtFLIxoG6lt6KoKDe9DcRZHeSb0SN7HuU7BrdkxqWbfbv43pWPV_vws_O5tkjFcFMoAgTyFqcFa8udNRVdtDZCovO6q6fHgDHMVj-zIa-hkNxtq6I9mnAXLoD7bKNImNtd2DdVEiSvvO8dhPc_fytqrdTreD5A5Xcmv8mp25LUyue94M_6-9AZf9fZ6B-nDszb2vmi0vU_rV0-NPqwxffxfKI9WZcy22TThwV7r2kwkDNhcrEHCWwh6gZKJCkokDmZFsBv0Uc3GwX4tYA7EN1MLDzExEQhzQa2XJVoZd6TnYXHDCURBoAuN8ydPzZt4jv6qtcMFAqZzg4j-Cvh2XQcJX7fK5FHRLTxi-c272hqcte-iiqEqNytk4QdRxn_V2M52glJ6cfejzPDCjc4Kt_Om2SplpXM8X6qwC-Elv_6BJY-SOAVxCDuDNbx-4IN7i5GQgPUsvGImCc9Lc6Gom8uFjcvW0tE7tnRtdF96KoBK1bpO4VFA-oBTHylR4EjsuEXqvob1hn4Ur11i5hC1pVDy-A87XUZkeoat4uFLPejOgYyOTZBUfexzeDXH3fT5wKrrLOlu17RZT8eNnatqho_WK0]--></g></svg>