<?xml version="1.0" encoding="UTF-8" standalone="no"?>
<!DOCTYPE svg PUBLIC "-//W3C//DTD SVG 1.1//EN"
 "http://www.w3.org/Graphics/SVG/1.1/DTD/svg11.dtd">
<!-- Generated by graphviz version 15.0.0 (20260523.1842)
 -->
<!-- Title: diagram_simple_graphviz Pages: 1 -->
<svg width="900px" height="411.023622px"
 viewBox="0 0 635 290" xmlns="http://www.w3.org/2000/svg" xmlns:xlink="http://www.w3.org/1999/xlink">
<g id="graph0" class="graph" transform="scale(0.768352 0.768352) rotate(0) translate(2.88 374.33)">
<title>diagram_simple_graphviz</title>
<g id="clust1" class="cluster">
<title>cluster_GE</title>
<path fill="#afb200" fill-opacity="0.098039" stroke="#afb200" stroke-width="2" d="M12,-133.45C12,-133.45 118.75,-133.45 118.75,-133.45 124.75,-133.45 130.75,-139.45 130.75,-145.45 130.75,-145.45 130.75,-263.45 130.75,-263.45 130.75,-269.45 124.75,-275.45 118.75,-275.45 118.75,-275.45 12,-275.45 12,-275.45 6,-275.45 0,-269.45 0,-263.45 0,-263.45 0,-145.45 0,-145.45 0,-139.45 6,-133.45 12,-133.45"/>
<text xml:space="preserve" text-anchor="middle" x="65.38" y="-261.95" font-family="sans-serif" font-size="10.00" fill="#afb200">Operating System</text>
<text xml:space="preserve" text-anchor="middle" x="65.38" y="-247.7" font-family="sans-serif" font-size="10.00" fill="#afb200">&lt;&lt;Global Environment&gt;&gt;</text>
</g>
<g id="clust2" class="cluster">
<title>cluster_PDIR</title>
<path fill="#00a2ff" fill-opacity="0.098039" stroke="#00a2ff" stroke-width="2" d="M258.25,-22.45C258.25,-22.45 341.75,-22.45 341.75,-22.45 347.75,-22.45 353.75,-28.45 353.75,-34.45 353.75,-34.45 353.75,-351.45 353.75,-351.45 353.75,-357.45 347.75,-363.45 341.75,-363.45 341.75,-363.45 258.25,-363.45 258.25,-363.45 252.25,-363.45 246.25,-357.45 246.25,-351.45 246.25,-351.45 246.25,-34.45 246.25,-34.45 246.25,-28.45 252.25,-22.45 258.25,-22.45"/>
<text xml:space="preserve" text-anchor="middle" x="300" y="-349.95" font-family="sans-serif" font-size="10.00" fill="#00a2ff">Project Directory</text>
<text xml:space="preserve" text-anchor="middle" x="300" y="-335.7" font-family="sans-serif" font-size="10.00" fill="#00a2ff">&lt;&lt;Directory&gt;&gt;</text>
</g>
<g id="clust3" class="cluster">
<title>cluster_VENV</title>
<path fill="#32bc00" fill-opacity="0.098039" stroke="#32bc00" stroke-width="2" d="M700.75,-162.45C700.75,-162.45 808.25,-162.45 808.25,-162.45 814.25,-162.45 820.25,-168.45 820.25,-174.45 820.25,-174.45 820.25,-235.45 820.25,-235.45 820.25,-241.45 814.25,-247.45 808.25,-247.45 808.25,-247.45 700.75,-247.45 700.75,-247.45 694.75,-247.45 688.75,-241.45 688.75,-235.45 688.75,-235.45 688.75,-174.45 688.75,-174.45 688.75,-168.45 694.75,-162.45 700.75,-162.45"/>
<text xml:space="preserve" text-anchor="middle" x="754.5" y="-233.95" font-family="sans-serif" font-size="10.00" fill="#32bc00">.venv</text>
<text xml:space="preserve" text-anchor="middle" x="754.5" y="-219.7" font-family="sans-serif" font-size="10.00" fill="#32bc00">&lt;&lt;Virtual Environment&gt;&gt;</text>
</g>
<!-- UV&#45;&gt;PPRT -->
<!-- UV&#45;&gt;PPRT -->
<g id="edge10" class="edge">
<title>UV&#45;&gt;PPRT</title>
<path fill="none" stroke="#ee220c" stroke-width="2.5" stroke-dasharray="5,2" d="M110.56,-168.05C138.98,-158.56 176.64,-150.04 210.25,-155.7 219.38,-157.23 228.83,-159.6 238,-162.36"/>
<polygon fill="#ee220c" stroke="#ee220c" stroke-width="2.5" points="237.06,-164.81 245,-164.59 238.66,-159.81 237.06,-164.81"/>
<polygon fill="#ee220c" stroke="none" points="166.75,-155.7 166.75,-174.45 210.25,-174.45 210.25,-155.7 166.75,-155.7"/>
<text xml:space="preserve" text-anchor="start" x="169.75" y="-163.9" font-family="sans-serif" font-weight="bold" font-size="9.00" fill="#ffffff">requires</text>
<polygon fill="none" stroke="#ee220c" points="166.75,-155.7 166.75,-174.45 210.25,-174.45 210.25,-155.7 166.75,-155.7"/>
</g>
<!-- UV&#45;&gt;LOCK -->
<g id="edge5" class="edge">
<title>UV&#45;&gt;LOCK</title>
<path fill="none" stroke="#00a2ff" stroke-width="2.5" d="M110.5,-156.32C127.75,-145.19 147.86,-132.83 166.75,-122.7 192.07,-109.12 221.11,-95.86 245.52,-85.35"/>
<polygon fill="#00a2ff" stroke="#00a2ff" stroke-width="2.5" points="246.32,-87.86 252.19,-82.5 244.26,-83.03 246.32,-87.86"/>
<polygon fill="#00a2ff" stroke="none" points="166.75,-122.7 166.75,-141.45 210.25,-141.45 210.25,-122.7 166.75,-122.7"/>
<text xml:space="preserve" text-anchor="start" x="169.75" y="-130.9" font-family="sans-serif" font-weight="bold" font-size="9.00" fill="#ffffff">resolves</text>
<polygon fill="none" stroke="#00a2ff" points="166.75,-122.7 166.75,-141.45 210.25,-141.45 210.25,-122.7 166.75,-122.7"/>
</g>
<!-- UV&#45;&gt;LOCK -->
<g id="edge11" class="edge">
<title>UV&#45;&gt;LOCK</title>
<path fill="none" stroke="#ee220c" stroke-width="2.5" stroke-dasharray="5,2" d="M95.84,-136.24C113.25,-111.93 137.53,-84.97 166.75,-70.7 190.58,-59.06 219.78,-56.43 244.68,-57.07"/>
<polygon fill="#ee220c" stroke="#ee220c" stroke-width="2.5" points="244.39,-59.68 252,-57.39 244.62,-54.44 244.39,-59.68"/>
<polygon fill="#ee220c" stroke="none" points="173.12,-70.7 173.12,-89.45 203.88,-89.45 203.88,-70.7 173.12,-70.7"/>
<text xml:space="preserve" text-anchor="start" x="176.12" y="-78.9" font-family="sans-serif" font-weight="bold" font-size="9.00" fill="#ffffff">reads</text>
<polygon fill="none" stroke="#ee220c" points="173.12,-70.7 173.12,-89.45 203.88,-89.45 203.88,-70.7 173.12,-70.7"/>
</g>
<!-- UV&#45;&gt;PKG -->
<g id="edge7" class="edge">
<title>UV&#45;&gt;PKG</title>
<path fill="none" stroke="#32bc00" stroke-width="4" d="M93.23,-136.01C111.07,-106.83 136.61,-71.11 166.75,-46.45 232.25,7.15 270.91,6.9 353.75,-10.45 488.59,-38.69 633.36,-115.64 705.88,-157.83"/>
<polygon fill="#32bc00" stroke="#32bc00" stroke-width="4" points="704.29,-159.94 712.09,-161.47 706.95,-155.41 704.29,-159.94"/>
<polygon fill="#32bc00" stroke="none" points="389.75,-37.79 389.75,-61.79 454.25,-61.79 454.25,-37.79 389.75,-37.79"/>
<text xml:space="preserve" text-anchor="start" x="392.75" y="-51.24" font-family="sans-serif" font-weight="bold" font-size="9.00" fill="#ffffff">creates .venv</text>
<text xml:space="preserve" text-anchor="start" x="405.12" y="-42.24" font-family="sans-serif" font-weight="bold" font-size="9.00" fill="#ffffff">&amp; syncs</text>
<polygon fill="none" stroke="#32bc00" points="389.75,-37.79 389.75,-61.79 454.25,-61.79 454.25,-37.79 389.75,-37.79"/>
</g>
<!-- APP&#45;&gt;PKG -->
<g id="edge9" class="edge">
<title>APP&#45;&gt;PKG</title>
<path fill="none" stroke="#ee220c" stroke-width="2.5" stroke-dasharray="5,2" d="M336.9,-293.67C389.67,-287.65 491.02,-274.27 575,-252.45 610.55,-243.21 618.3,-237.18 652.75,-224.45 665.91,-219.59 680,-214.29 693.35,-209.25"/>
<polygon fill="#ee220c" stroke="#ee220c" stroke-width="2.5" points="694.23,-211.72 700.32,-206.6 692.37,-206.81 694.23,-211.72"/>
<polygon fill="#ee220c" stroke="none" points="511.88,-270.64 511.88,-289.39 555.38,-289.39 555.38,-270.64 511.88,-270.64"/>
<text xml:space="preserve" text-anchor="start" x="514.88" y="-278.84" font-family="sans-serif" font-weight="bold" font-size="9.00" fill="#ffffff">requires</text>
<polygon fill="none" stroke="#ee220c" points="511.88,-270.64 511.88,-289.39 555.38,-289.39 555.38,-270.64 511.88,-270.64"/>
</g>
<!-- PPRT&#45;&gt;USER -->
<!-- USER&#45;&gt;PPRT -->
<g id="edge4" class="edge">
<title>USER&#45;&gt;PPRT</title>
<path fill="none" stroke="#00a2ff" stroke-width="2.5" d="M492.4,-167.35C480.4,-162.57 467.03,-158.12 454.25,-155.7 426.08,-150.37 418.02,-150.94 389.75,-155.7 380.62,-157.23 371.17,-159.6 362,-162.36"/>
<polygon fill="#00a2ff" stroke="#00a2ff" stroke-width="2.5" points="361.34,-159.81 355,-164.59 362.94,-164.81 361.34,-159.81"/>
<polygon fill="#00a2ff" stroke="none" points="407.75,-155.7 407.75,-174.45 436.25,-174.45 436.25,-155.7 407.75,-155.7"/>
<text xml:space="preserve" text-anchor="start" x="410.75" y="-163.9" font-family="sans-serif" font-weight="bold" font-size="9.00" fill="#ffffff">edits</text>
<polygon fill="none" stroke="#00a2ff" points="407.75,-155.7 407.75,-174.45 436.25,-174.45 436.25,-155.7 407.75,-155.7"/>
</g>
<!-- USER&#45;&gt;LOCK -->
<g id="edge6" class="edge">
<title>USER&#45;&gt;LOCK</title>
<path fill="none" stroke="#00a2ff" stroke-width="2.5" d="M492.3,-148.15C480.62,-138.33 467.45,-128.39 454.25,-120.7 423.08,-102.53 385.11,-88.3 354.77,-78.57"/>
<polygon fill="#00a2ff" stroke="#00a2ff" stroke-width="2.5" points="355.93,-76.18 347.99,-76.44 354.36,-81.19 355.93,-76.18"/>
<polygon fill="#00a2ff" stroke="none" points="401.75,-120.7 401.75,-139.45 442.25,-139.45 442.25,-120.7 401.75,-120.7"/>
<text xml:space="preserve" text-anchor="start" x="404.75" y="-128.9" font-family="sans-serif" font-weight="bold" font-size="9.00" fill="#ffffff">reviews</text>
<polygon fill="none" stroke="#00a2ff" points="401.75,-120.7 401.75,-139.45 442.25,-139.45 442.25,-120.7 401.75,-120.7"/>
</g>
<!-- USER&#45;&gt;PKG -->
<!-- USER&#45;&gt;PKG -->
<g id="edge8" class="edge">
<title>USER&#45;&gt;PKG</title>
<path fill="none" stroke="#32bc00" stroke-width="2.5" d="M574.85,-167.35C586.85,-162.57 600.22,-158.12 613,-155.7 639.41,-150.7 668.46,-155.4 693.22,-162.49"/>
<polygon fill="#32bc00" stroke="#32bc00" stroke-width="2.5" points="692.35,-164.97 700.29,-164.67 693.89,-159.95 692.35,-164.97"/>
<polygon fill="#32bc00" stroke="none" points="613,-155.7 613,-174.45 652.75,-174.45 652.75,-155.7 613,-155.7"/>
<text xml:space="preserve" text-anchor="start" x="616" y="-163.9" font-family="sans-serif" font-weight="bold" font-size="9.00" fill="#ffffff">uses uv</text>
<polygon fill="none" stroke="#32bc00" points="613,-155.7 613,-174.45 652.75,-174.45 652.75,-155.7 613,-155.7"/>
</g>
<!-- UV -->
<g id="node1" class="node">
<title>UV</title>
<path fill="#cccccc" fill-opacity="0.466667" stroke="none" d="M31,-135.95C31,-135.95 98.75,-135.95 98.75,-135.95 104.75,-135.95 110.75,-141.95 110.75,-147.95 110.75,-147.95 110.75,-224.95 110.75,-224.95 110.75,-230.95 104.75,-236.95 98.75,-236.95 98.75,-236.95 31,-236.95 31,-236.95 25,-236.95 19,-230.95 19,-224.95 19,-224.95 19,-147.95 19,-147.95 19,-141.95 25,-135.95 31,-135.95"/>
<polygon fill="#b4a7e5" stroke="none" points="27,-208.95 27,-228.95 45.92,-228.95 45.92,-208.95 27,-208.95"/>
<polygon fill="none" stroke="#181818" points="27,-208.95 27,-228.95 45.92,-228.95 45.92,-208.95 27,-208.95"/>
<text xml:space="preserve" text-anchor="start" x="34.58" y="-214.82" font-family="sans-serif" font-size="10.00">I</text>
<text xml:space="preserve" text-anchor="start" x="73.67" y="-220.45" font-family="sans-serif" font-style="italic" font-size="10.00">«CLI»</text>
<text xml:space="preserve" text-anchor="start" x="79.29" y="-210.45" font-family="sans-serif" font-weight="bold" font-style="italic" font-size="10.00">uv</text>
<polygon fill="#000000" stroke="none" points="20,-200.95 20,-201.95 109.75,-201.95 109.75,-200.95 20,-200.95"/>
<text xml:space="preserve" text-anchor="start" x="27" y="-185.45" font-family="sans-serif" font-size="10.00" fill="#038048">∘</text>
<text xml:space="preserve" text-anchor="start" x="33" y="-185.45" font-family="sans-serif" font-size="10.00"> python install()</text>
<text xml:space="preserve" text-anchor="start" x="27" y="-175.45" font-family="sans-serif" font-size="10.00" fill="#038048">∘</text>
<text xml:space="preserve" text-anchor="start" x="33" y="-175.45" font-family="sans-serif" font-size="10.00"> venv()</text>
<text xml:space="preserve" text-anchor="start" x="27" y="-165.45" font-family="sans-serif" font-size="10.00" fill="#038048">∘</text>
<text xml:space="preserve" text-anchor="start" x="33" y="-165.45" font-family="sans-serif" font-size="10.00"> lock()</text>
<text xml:space="preserve" text-anchor="start" x="27" y="-155.45" font-family="sans-serif" font-size="10.00" fill="#038048">∘</text>
<text xml:space="preserve" text-anchor="start" x="33" y="-155.45" font-family="sans-serif" font-size="10.00"> sync()</text>
<text xml:space="preserve" text-anchor="start" x="27" y="-145.45" font-family="sans-serif" font-size="10.00" fill="#038048">∘</text>
<text xml:space="preserve" text-anchor="start" x="33" y="-145.45" font-family="sans-serif" font-size="10.00"> run()</text>
<path fill="none" stroke="#000000" d="M31,-135.95C31,-135.95 98.75,-135.95 98.75,-135.95 104.75,-135.95 110.75,-141.95 110.75,-147.95 110.75,-147.95 110.75,-224.95 110.75,-224.95 110.75,-230.95 104.75,-236.95 98.75,-236.95 98.75,-236.95 31,-236.95 31,-236.95 25,-236.95 19,-230.95 19,-224.95 19,-224.95 19,-147.95 19,-147.95 19,-141.95 25,-135.95 31,-135.95"/>
</g>
<!-- APP -->
<g id="node2" class="node">
<title>APP</title>
<path fill="#cccccc" fill-opacity="0.466667" stroke="none" d="M274.88,-270.45C274.88,-270.45 325.12,-270.45 325.12,-270.45 331.12,-270.45 337.12,-276.45 337.12,-282.45 337.12,-282.45 337.12,-312.45 337.12,-312.45 337.12,-318.45 331.12,-324.45 325.12,-324.45 325.12,-324.45 274.88,-324.45 274.88,-324.45 268.88,-324.45 262.88,-318.45 262.88,-312.45 262.88,-312.45 262.88,-282.45 262.88,-282.45 262.88,-276.45 268.88,-270.45 274.88,-270.45"/>
<polygon fill="#add1b2" stroke="none" points="269.88,-277.45 269.88,-317.45 277.88,-317.45 277.88,-277.45 269.88,-277.45"/>
<polygon fill="none" stroke="#181818" points="269.88,-277.45 269.88,-317.45 277.88,-317.45 277.88,-277.45 269.88,-277.45"/>
<text xml:space="preserve" text-anchor="start" x="270.88" y="-293.32" font-family="sans-serif" font-size="10.00">C</text>
<text xml:space="preserve" text-anchor="start" x="296.38" y="-308.95" font-family="sans-serif" font-style="italic" font-size="10.00">«File»</text>
<text xml:space="preserve" text-anchor="start" x="287.75" y="-298.95" font-family="sans-serif" font-weight="bold" font-size="10.00">main.py</text>
<text xml:space="preserve" text-anchor="start" x="285.88" y="-288.95" font-family="sans-serif" font-weight="bold" font-size="10.00">(or other</text>
<text xml:space="preserve" text-anchor="start" x="294.5" y="-278.95" font-family="sans-serif" font-weight="bold" font-size="10.00">code)</text>
</g>
<!-- PPRT -->
<g id="node3" class="node">
<title>PPRT</title>
<path fill="#cccccc" fill-opacity="0.466667" stroke="none" d="M260.25,-152.45C260.25,-152.45 339.75,-152.45 339.75,-152.45 345.75,-152.45 351.75,-158.45 351.75,-164.45 351.75,-164.45 351.75,-208.45 351.75,-208.45 351.75,-214.45 345.75,-220.45 339.75,-220.45 339.75,-220.45 260.25,-220.45 260.25,-220.45 254.25,-220.45 248.25,-214.45 248.25,-208.45 248.25,-208.45 248.25,-164.45 248.25,-164.45 248.25,-158.45 254.25,-152.45 260.25,-152.45"/>
<polygon fill="#add1b2" stroke="none" points="255.25,-193.45 255.25,-213.45 263.25,-213.45 263.25,-193.45 255.25,-193.45"/>
<polygon fill="none" stroke="#181818" points="255.25,-193.45 255.25,-213.45 263.25,-213.45 263.25,-193.45 255.25,-193.45"/>
<text xml:space="preserve" text-anchor="start" x="256.25" y="-199.32" font-family="sans-serif" font-size="10.00">C</text>
<text xml:space="preserve" text-anchor="start" x="288.5" y="-204.95" font-family="sans-serif" font-style="italic" font-size="10.00">«Config»</text>
<text xml:space="preserve" text-anchor="start" x="271.25" y="-194.95" font-family="sans-serif" font-weight="bold" font-size="10.00">pyproject.toml</text>
<polygon fill="none" stroke="none" points="248.25,-186.45 248.25,-186.45 351.75,-186.45 351.75,-186.45 248.25,-186.45"/>
<text xml:space="preserve" text-anchor="start" x="255.25" y="-170.95" font-family="sans-serif" font-size="10.00" fill="#038048">∘</text>
<text xml:space="preserve" text-anchor="start" x="261.25" y="-170.95" font-family="sans-serif" font-size="10.00"> Dependencies</text>
<text xml:space="preserve" text-anchor="start" x="255.25" y="-160.95" font-family="sans-serif" font-size="10.00" fill="#038048">∘</text>
<text xml:space="preserve" text-anchor="start" x="261.25" y="-160.95" font-family="sans-serif" font-size="10.00"> Project Metadata</text>
</g>
<!-- LOCK -->
<g id="node4" class="node">
<title>LOCK</title>
<path fill="#cccccc" fill-opacity="0.466667" stroke="none" d="M267.5,-24.45C267.5,-24.45 332.5,-24.45 332.5,-24.45 338.5,-24.45 344.5,-30.45 344.5,-36.45 344.5,-36.45 344.5,-90.45 344.5,-90.45 344.5,-96.45 338.5,-102.45 332.5,-102.45 332.5,-102.45 267.5,-102.45 267.5,-102.45 261.5,-102.45 255.5,-96.45 255.5,-90.45 255.5,-90.45 255.5,-36.45 255.5,-36.45 255.5,-30.45 261.5,-24.45 267.5,-24.45"/>
<polygon fill="#add1b2" stroke="none" points="262.5,-75.45 262.5,-95.45 274.67,-95.45 274.67,-75.45 262.5,-75.45"/>
<polygon fill="none" stroke="#181818" points="262.5,-75.45 262.5,-95.45 274.67,-95.45 274.67,-75.45 262.5,-75.45"/>
<text xml:space="preserve" text-anchor="start" x="265.58" y="-81.32" font-family="sans-serif" font-size="10.00">C</text>
<text xml:space="preserve" text-anchor="start" x="288.92" y="-86.95" font-family="sans-serif" font-style="italic" font-size="10.00">«Lock&#45;File»</text>
<text xml:space="preserve" text-anchor="start" x="294.54" y="-76.95" font-family="sans-serif" font-weight="bold" font-size="10.00">uv.lock</text>
<polygon fill="none" stroke="none" points="255.5,-68.45 255.5,-68.45 344.5,-68.45 344.5,-68.45 255.5,-68.45"/>
<text xml:space="preserve" text-anchor="start" x="262.5" y="-52.95" font-family="sans-serif" font-size="10.00" fill="#038048">∘</text>
<text xml:space="preserve" text-anchor="start" x="268.5" y="-52.95" font-family="sans-serif" font-size="10.00"> Dependencies</text>
<text xml:space="preserve" text-anchor="start" x="262.5" y="-42.95" font-family="sans-serif" font-size="10.00" fill="#038048">∘</text>
<text xml:space="preserve" text-anchor="start" x="268.5" y="-42.95" font-family="sans-serif" font-size="10.00"> Versions</text>
<text xml:space="preserve" text-anchor="start" x="262.5" y="-32.95" font-family="sans-serif" font-size="10.00" fill="#038048">∘</text>
<text xml:space="preserve" text-anchor="start" x="268.5" y="-32.95" font-family="sans-serif" font-size="10.00"> Sources</text>
</g>
<!-- PKG -->
<g id="node5" class="node">
<title>PKG</title>
<path fill="#cccccc" fill-opacity="0.466667" stroke="none" d="M715.75,-164.45C715.75,-164.45 792.25,-164.45 792.25,-164.45 798.25,-164.45 804.25,-170.45 804.25,-176.45 804.25,-176.45 804.25,-196.45 804.25,-196.45 804.25,-202.45 798.25,-208.45 792.25,-208.45 792.25,-208.45 715.75,-208.45 715.75,-208.45 709.75,-208.45 703.75,-202.45 703.75,-196.45 703.75,-196.45 703.75,-176.45 703.75,-176.45 703.75,-170.45 709.75,-164.45 715.75,-164.45"/>
<polygon fill="#add1b2" stroke="none" points="710.75,-171.45 710.75,-201.45 718.75,-201.45 718.75,-171.45 710.75,-171.45"/>
<polygon fill="none" stroke="#181818" points="710.75,-171.45 710.75,-201.45 718.75,-201.45 718.75,-171.45 710.75,-171.45"/>
<text xml:space="preserve" text-anchor="start" x="711.75" y="-182.32" font-family="sans-serif" font-size="10.00">C</text>
<text xml:space="preserve" text-anchor="start" x="748.88" y="-192.95" font-family="sans-serif" font-style="italic" font-size="10.00">«Pkg»</text>
<text xml:space="preserve" text-anchor="start" x="744" y="-182.95" font-family="sans-serif" font-weight="bold" font-size="10.00">Python</text>
<text xml:space="preserve" text-anchor="start" x="726.75" y="-172.95" font-family="sans-serif" font-weight="bold" font-size="10.00">Dependencies</text>
</g>
<!-- USER -->
<g id="node6" class="node">
<title>USER</title>
<path fill="#cccccc" fill-opacity="0.466667" stroke="none" d="M504.25,-145.95C504.25,-145.95 563,-145.95 563,-145.95 569,-145.95 575,-151.95 575,-157.95 575,-157.95 575,-214.95 575,-214.95 575,-220.95 569,-226.95 563,-226.95 563,-226.95 504.25,-226.95 504.25,-226.95 498.25,-226.95 492.25,-220.95 492.25,-214.95 492.25,-214.95 492.25,-157.95 492.25,-157.95 492.25,-151.95 498.25,-145.95 504.25,-145.95"/>
<polygon fill="#a9dcdf" stroke="none" points="500.25,-198.95 500.25,-218.95 515.17,-218.95 515.17,-198.95 500.25,-198.95"/>
<polygon fill="none" stroke="#181818" points="500.25,-198.95 500.25,-218.95 515.17,-218.95 515.17,-198.95 500.25,-198.95"/>
<text xml:space="preserve" text-anchor="start" x="504.33" y="-204.82" font-family="sans-serif" font-size="10.00">A</text>
<text xml:space="preserve" text-anchor="start" x="532.42" y="-210.45" font-family="sans-serif" font-style="italic" font-size="10.00">«Actor»</text>
<text xml:space="preserve" text-anchor="start" x="537.67" y="-200.45" font-family="sans-serif" font-weight="bold" font-style="italic" font-size="10.00">User</text>
<polygon fill="#666666" stroke="none" points="493.25,-190.95 493.25,-191.95 574,-191.95 574,-190.95 493.25,-190.95"/>
<text xml:space="preserve" text-anchor="start" x="500.25" y="-175.45" font-family="sans-serif" font-size="10.00" fill="#038048">∘</text>
<text xml:space="preserve" text-anchor="start" x="506.25" y="-175.45" font-family="sans-serif" font-size="10.00"> uses uv</text>
<text xml:space="preserve" text-anchor="start" x="500.25" y="-165.45" font-family="sans-serif" font-size="10.00" fill="#038048">∘</text>
<text xml:space="preserve" text-anchor="start" x="506.25" y="-165.45" font-family="sans-serif" font-size="10.00"> reviews locks</text>
<text xml:space="preserve" text-anchor="start" x="500.25" y="-155.45" font-family="sans-serif" font-size="10.00" fill="#038048">∘</text>
<text xml:space="preserve" text-anchor="start" x="506.25" y="-155.45" font-family="sans-serif" font-size="10.00"> codes</text>
<path fill="none" stroke="#666666" d="M504.25,-145.95C504.25,-145.95 563,-145.95 563,-145.95 569,-145.95 575,-151.95 575,-157.95 575,-157.95 575,-214.95 575,-214.95 575,-220.95 569,-226.95 563,-226.95 563,-226.95 504.25,-226.95 504.25,-226.95 498.25,-226.95 492.25,-220.95 492.25,-214.95 492.25,-214.95 492.25,-157.95 492.25,-157.95 492.25,-151.95 498.25,-145.95 504.25,-145.95"/>
</g>
</g>
</svg>
