<?xml version="1.0" encoding="UTF-8" standalone="no"?>
<!DOCTYPE svg PUBLIC "-//W3C//DTD SVG 1.1//EN"
 "http://www.w3.org/Graphics/SVG/1.1/DTD/svg11.dtd">
<!-- Generated by graphviz version 15.0.0 (20260523.1842)
 -->
<!-- Title: diagram_graphviz Pages: 1 -->
<svg width="900px" height="479.055118px"
 viewBox="0 0 635 338" xmlns="http://www.w3.org/2000/svg" xmlns:xlink="http://www.w3.org/1999/xlink">
<g id="graph0" class="graph" transform="scale(0.649435 0.649435) rotate(0) translate(2.88 516.88)">
<title>diagram_graphviz</title>
<g id="clust1" class="cluster">
<title>cluster_GE</title>
<path fill="#afb200" fill-opacity="0.098039" stroke="#afb200" stroke-width="2" d="M20,-196C20,-196 296.5,-196 296.5,-196 302.5,-196 308.5,-202 308.5,-208 308.5,-208 308.5,-494 308.5,-494 308.5,-500 302.5,-506 296.5,-506 296.5,-506 20,-506 20,-506 14,-506 8,-500 8,-494 8,-494 8,-208 8,-208 8,-202 14,-196 20,-196"/>
<text xml:space="preserve" text-anchor="middle" x="158.25" y="-492.5" font-family="sans-serif" font-size="10.00" fill="#afb200">Operating System</text>
<text xml:space="preserve" text-anchor="middle" x="158.25" y="-478.25" font-family="sans-serif" font-size="10.00" fill="#afb200">&lt;&lt;Global Environment&gt;&gt;</text>
</g>
<g id="clust2" class="cluster">
<title>cluster_PDIR</title>
<path fill="#00a2ff" fill-opacity="0.098039" stroke="#00a2ff" stroke-width="2" d="M461.75,-8C461.75,-8 551.75,-8 551.75,-8 557.75,-8 563.75,-14 563.75,-20 563.75,-20 563.75,-463 563.75,-463 563.75,-469 557.75,-475 551.75,-475 551.75,-475 461.75,-475 461.75,-475 455.75,-475 449.75,-469 449.75,-463 449.75,-463 449.75,-20 449.75,-20 449.75,-14 455.75,-8 461.75,-8"/>
<text xml:space="preserve" text-anchor="middle" x="506.75" y="-461.5" font-family="sans-serif" font-size="10.00" fill="#00a2ff">Project Directory</text>
<text xml:space="preserve" text-anchor="middle" x="506.75" y="-447.25" font-family="sans-serif" font-size="10.00" fill="#00a2ff">&lt;&lt;Directory&gt;&gt;</text>
</g>
<g id="clust3" class="cluster">
<title>cluster_VENV</title>
<path fill="#32bc00" fill-opacity="0.098039" stroke="#32bc00" stroke-width="2" d="M722.25,-349C722.25,-349 951.5,-349 951.5,-349 957.5,-349 963.5,-355 963.5,-361 963.5,-361 963.5,-469 963.5,-469 963.5,-475 957.5,-481 951.5,-481 951.5,-481 722.25,-481 722.25,-481 716.25,-481 710.25,-475 710.25,-469 710.25,-469 710.25,-361 710.25,-361 710.25,-355 716.25,-349 722.25,-349"/>
<text xml:space="preserve" text-anchor="middle" x="836.88" y="-467.5" font-family="sans-serif" font-size="10.00" fill="#32bc00">.venv</text>
<text xml:space="preserve" text-anchor="middle" x="836.88" y="-453.25" font-family="sans-serif" font-size="10.00" fill="#32bc00">&lt;&lt;Virtual Environment&gt;&gt;</text>
</g>
<!-- UVG&#45;&gt;B -->
<!-- UVG&#45;&gt;B -->
<g id="edge5" class="edge">
<title>UVG&#45;&gt;B</title>
<path fill="none" stroke="#afb200" stroke-width="2.5" d="M93.51,-425.42C120.99,-420.53 159.11,-413.75 191.22,-408.03"/>
<polygon fill="#afb200" stroke="#afb200" stroke-width="2.5" points="191.65,-410.62 198.58,-406.73 190.73,-405.46 191.65,-410.62"/>
<polygon fill="#afb200" stroke="none" points="132,-417.63 132,-441.63 171,-441.63 171,-417.63 132,-417.63"/>
<text xml:space="preserve" text-anchor="start" x="135" y="-431.08" font-family="sans-serif" font-weight="bold" font-size="9.00" fill="#ffffff">installs</text>
<text xml:space="preserve" text-anchor="start" x="136.12" y="-422.08" font-family="sans-serif" font-weight="bold" font-size="9.00" fill="#ffffff">as tool</text>
<polygon fill="none" stroke="#afb200" points="132,-417.63 132,-441.63 171,-441.63 171,-417.63 132,-417.63"/>
</g>
<!-- UVG&#45;&gt;UVV -->
<g id="edge9" class="edge">
<title>UVG&#45;&gt;UVV</title>
<path fill="none" stroke="#32bc00" stroke-width="4" d="M93.81,-441.88C112.83,-446.92 132,-452 132,-452 132,-452 449.75,-483 449.75,-483 449.75,-483 563.75,-483 563.75,-483 563.75,-483 681.25,-426 681.25,-426 681.25,-426 689.8,-421.78 700.38,-416.56"/>
<polygon fill="#32bc00" stroke="#32bc00" stroke-width="4" points="701.35,-419 706.92,-413.33 699.03,-414.3 701.35,-419"/>
<polygon fill="#32bc00" stroke="none" points="360,-480 360,-504 398.25,-504 398.25,-480 360,-480"/>
<text xml:space="preserve" text-anchor="start" x="363" y="-493.45" font-family="sans-serif" font-weight="bold" font-size="9.00" fill="#ffffff">creates</text>
<text xml:space="preserve" text-anchor="start" x="367.12" y="-484.45" font-family="sans-serif" font-weight="bold" font-size="9.00" fill="#ffffff">.venv</text>
<polygon fill="none" stroke="#32bc00" points="360,-480 360,-504 398.25,-504 398.25,-480 360,-480"/>
</g>
<!-- B&#45;&gt;PPRT -->
<!-- B&#45;&gt;PPRT -->
<g id="edge6" class="edge">
<title>B&#45;&gt;PPRT</title>
<path fill="none" stroke="#00a2ff" stroke-width="4" d="M306.4,-375.85C323.13,-368.94 337.5,-363 337.5,-363 337.5,-363 420.75,-363 420.75,-363 420.75,-363 430.29,-366.81 442.97,-371.89"/>
<polygon fill="#00a2ff" stroke="#00a2ff" stroke-width="4" points="441.76,-374.23 449.7,-374.58 443.71,-369.36 441.76,-374.23"/>
<polygon fill="#00a2ff" stroke="none" points="337.5,-363 337.5,-387 420.75,-387 420.75,-363 337.5,-363"/>
<text xml:space="preserve" text-anchor="start" x="340.5" y="-376.45" font-family="sans-serif" font-weight="bold" font-size="9.00" fill="#ffffff">copies templates</text>
<text xml:space="preserve" text-anchor="start" x="347.62" y="-367.45" font-family="sans-serif" font-weight="bold" font-size="9.00" fill="#ffffff">(cookiecutter)</text>
<polygon fill="none" stroke="#00a2ff" points="337.5,-363 337.5,-387 420.75,-387 420.75,-363 337.5,-363"/>
</g>
<!-- PPRT&#45;&gt;UVV -->
<!-- ERC&#45;&gt;D -->
<g id="edge13" class="edge">
<title>ERC&#45;&gt;D</title>
<path fill="none" stroke="#ee220c" stroke-width="2.5" stroke-dasharray="5,2" d="M459.95,-168.52C375.09,-180.6 202,-205.25 202,-205.25 202,-205.25 152.9,-216.64 111.75,-226.18"/>
<polygon fill="#ee220c" stroke="#ee220c" stroke-width="2.5" points="111.34,-223.58 104.63,-227.84 112.53,-228.7 111.34,-223.58"/>
<polygon fill="#ee220c" stroke="none" points="232.5,-205.25 232.5,-224 276,-224 276,-205.25 232.5,-205.25"/>
<text xml:space="preserve" text-anchor="start" x="235.5" y="-213.45" font-family="sans-serif" font-weight="bold" font-size="9.00" fill="#ffffff">requires</text>
<polygon fill="none" stroke="#ee220c" points="232.5,-205.25 232.5,-224 276,-224 276,-205.25 232.5,-205.25"/>
</g>
<!-- ERC&#45;&gt;UVV -->
<g id="edge11" class="edge">
<title>ERC&#45;&gt;UVV</title>
<path fill="none" stroke="#32bc00" stroke-width="2.5" d="M542.26,-195.89C553.78,-207.21 563.75,-217 563.75,-217 563.75,-217 592.75,-397 592.75,-397 592.75,-397 657.55,-397 701.18,-397"/>
<polygon fill="#32bc00" stroke="#32bc00" stroke-width="2.5" points="701.02,-399.63 708.52,-397 701.02,-394.38 701.02,-399.63"/>
<polygon fill="#32bc00" stroke="none" points="613.75,-397 613.75,-415.75 660.25,-415.75 660.25,-397 613.75,-397"/>
<text xml:space="preserve" text-anchor="start" x="616.75" y="-405.2" font-family="sans-serif" font-weight="bold" font-size="9.00" fill="#ffffff">activates</text>
<polygon fill="none" stroke="#32bc00" points="613.75,-397 613.75,-415.75 660.25,-415.75 660.25,-397 613.75,-397"/>
</g>
<!-- JF&#45;&gt;D -->
<g id="edge15" class="edge">
<title>JF&#45;&gt;D</title>
<path fill="none" stroke="#ee220c" stroke-width="2.5" stroke-dasharray="5,2" d="M466.24,-264.45C444.04,-257.4 420.75,-250 420.75,-250 420.75,-250 308.5,-234.25 308.5,-234.25 308.5,-234.25 202,-234.25 202,-234.25 202,-234.25 153.11,-235.85 112.01,-237.19"/>
<polygon fill="#ee220c" stroke="#ee220c" stroke-width="2.5" points="112.14,-234.56 104.73,-237.43 112.31,-239.8 112.14,-234.56"/>
<polygon fill="#ee220c" stroke="none" points="232.5,-234.25 232.5,-253 276,-253 276,-234.25 232.5,-234.25"/>
<text xml:space="preserve" text-anchor="start" x="235.5" y="-242.45" font-family="sans-serif" font-weight="bold" font-size="9.00" fill="#ffffff">requires</text>
<polygon fill="none" stroke="#ee220c" points="232.5,-234.25 232.5,-253 276,-253 276,-234.25 232.5,-234.25"/>
</g>
<!-- JF&#45;&gt;J -->
<g id="edge14" class="edge">
<title>JF&#45;&gt;J</title>
<path fill="none" stroke="#ee220c" stroke-width="2.5" stroke-dasharray="5,2" d="M466.05,-282.39C379.7,-294.12 175.87,-321.79 92.75,-333.08"/>
<polygon fill="#ee220c" stroke="#ee220c" stroke-width="2.5" points="92.44,-330.47 85.37,-334.08 93.15,-335.67 92.44,-330.47"/>
<polygon fill="#ee220c" stroke="none" points="232.5,-317.5 232.5,-336.25 276,-336.25 276,-317.5 232.5,-317.5"/>
<text xml:space="preserve" text-anchor="start" x="235.5" y="-325.7" font-family="sans-serif" font-weight="bold" font-size="9.00" fill="#ffffff">requires</text>
<polygon fill="none" stroke="#ee220c" points="232.5,-317.5 232.5,-336.25 276,-336.25 276,-317.5 232.5,-317.5"/>
</g>
<!-- JF&#45;&gt;UVV -->
<g id="edge12" class="edge">
<title>JF&#45;&gt;UVV</title>
<path fill="none" stroke="#32bc00" stroke-width="2.5" d="M547.55,-283.48C598.78,-291.82 681.25,-305.25 681.25,-305.25 681.25,-305.25 693.17,-323.87 706.28,-344.34"/>
<polygon fill="#32bc00" stroke="#32bc00" stroke-width="2.5" points="704.05,-345.72 710.3,-350.63 708.47,-342.89 704.05,-345.72"/>
<polygon fill="#32bc00" stroke="none" points="623.88,-305.25 623.88,-324 650.12,-324 650.12,-305.25 623.88,-305.25"/>
<text xml:space="preserve" text-anchor="start" x="626.88" y="-313.45" font-family="sans-serif" font-weight="bold" font-size="9.00" fill="#ffffff">runs</text>
<polygon fill="none" stroke="#32bc00" points="623.88,-305.25 623.88,-324 650.12,-324 650.12,-305.25 623.88,-305.25"/>
</g>
<!-- UVV&#45;&gt;PPRT -->
<g id="edge8" class="edge">
<title>UVV&#45;&gt;PPRT</title>
<path fill="none" stroke="#00a2ff" stroke-width="2.5" d="M712.35,-383.47C697.11,-376.01 681.25,-368.25 681.25,-368.25 681.25,-368.25 592.75,-368.25 592.75,-368.25 592.75,-368.25 582.22,-371.81 568.56,-376.43"/>
<polygon fill="#00a2ff" stroke="#00a2ff" stroke-width="2.5" points="568.03,-373.84 561.76,-378.73 569.71,-378.81 568.03,-373.84"/>
<polygon fill="#00a2ff" stroke="none" points="599.88,-368.25 599.88,-387 674.12,-387 674.12,-368.25 599.88,-368.25"/>
<text xml:space="preserve" text-anchor="start" x="602.88" y="-376.45" font-family="sans-serif" font-weight="bold" font-size="9.00" fill="#ffffff">editable install</text>
<polygon fill="none" stroke="#00a2ff" points="599.88,-368.25 599.88,-387 674.12,-387 674.12,-368.25 599.88,-368.25"/>
</g>
<!-- UVV&#45;&gt;PPRT -->
<g id="edge16" class="edge">
<title>UVV&#45;&gt;PPRT</title>
<path fill="none" stroke="#ee220c" stroke-width="2.5" stroke-dasharray="5,2" d="M712.35,-367.34C697.11,-351 681.25,-334 681.25,-334 681.25,-334 592.75,-334 592.75,-334 592.75,-334 581.38,-342.43 566.96,-353.12"/>
<polygon fill="#ee220c" stroke="#ee220c" stroke-width="2.5" points="565.68,-350.8 561.22,-357.37 568.81,-355.01 565.68,-350.8"/>
<polygon fill="#ee220c" stroke="none" points="592.75,-334 592.75,-358 681.25,-358 681.25,-334 592.75,-334"/>
<text xml:space="preserve" text-anchor="start" x="595.75" y="-347.45" font-family="sans-serif" font-weight="bold" font-size="9.00" fill="#ffffff">reads dependency</text>
<text xml:space="preserve" text-anchor="start" x="624.62" y="-338.45" font-family="sans-serif" font-weight="bold" font-size="9.00" fill="#ffffff">specs</text>
<polygon fill="none" stroke="#ee220c" points="592.75,-334 592.75,-358 681.25,-358 681.25,-334 592.75,-334"/>
</g>
<!-- UVV&#45;&gt;LOCK -->
<g id="edge7" class="edge">
<title>UVV&#45;&gt;LOCK</title>
<path fill="none" stroke="#00a2ff" stroke-width="2.5" d="M720.93,-351.55C703.77,-310.67 681.25,-257 681.25,-257 681.25,-257 563.75,-108 563.75,-108 563.75,-108 558.85,-102.83 551.94,-95.56"/>
<polygon fill="#00a2ff" stroke="#00a2ff" stroke-width="2.5" points="554.15,-94.07 547.08,-90.44 550.34,-97.69 554.15,-94.07"/>
<polygon fill="#00a2ff" stroke="none" points="612.25,-257 612.25,-281 661.75,-281 661.75,-257 612.25,-257"/>
<text xml:space="preserve" text-anchor="start" x="618.25" y="-270.45" font-family="sans-serif" font-weight="bold" font-size="9.00" fill="#ffffff">resolves</text>
<text xml:space="preserve" text-anchor="start" x="615.25" y="-261.45" font-family="sans-serif" font-weight="bold" font-size="9.00" fill="#ffffff">&amp; exports</text>
<polygon fill="none" stroke="#00a2ff" points="612.25,-257 612.25,-281 661.75,-281 661.75,-257 612.25,-257"/>
</g>
<!-- UVV&#45;&gt;PD -->
<!-- UVV&#45;&gt;PD -->
<g id="edge10" class="edge">
<title>UVV&#45;&gt;PD</title>
<path fill="none" stroke="#32bc00" stroke-width="2.5" d="M769.53,-393.91C791.74,-391.41 823.78,-387.81 851.76,-384.66"/>
<polygon fill="#32bc00" stroke="#32bc00" stroke-width="2.5" points="851.73,-387.31 858.89,-383.86 851.14,-382.09 851.73,-387.31"/>
<polygon fill="#32bc00" stroke="none" points="800.75,-390.31 800.75,-409.06 831.5,-409.06 831.5,-390.31 800.75,-390.31"/>
<text xml:space="preserve" text-anchor="start" x="803.75" y="-398.51" font-family="sans-serif" font-weight="bold" font-size="9.00" fill="#ffffff">syncs</text>
<polygon fill="none" stroke="#32bc00" points="800.75,-390.31 800.75,-409.06 831.5,-409.06 831.5,-390.31 800.75,-390.31"/>
</g>
<!-- UVG -->
<g id="node1" class="node">
<title>UVG</title>
<path fill="#cccccc" fill-opacity="0.466667" stroke="none" d="M29.12,-396.5C29.12,-396.5 81.88,-396.5 81.88,-396.5 87.88,-396.5 93.88,-402.5 93.88,-408.5 93.88,-408.5 93.88,-455.5 93.88,-455.5 93.88,-461.5 87.88,-467.5 81.88,-467.5 81.88,-467.5 29.12,-467.5 29.12,-467.5 23.12,-467.5 17.12,-461.5 17.12,-455.5 17.12,-455.5 17.12,-408.5 17.12,-408.5 17.12,-402.5 23.12,-396.5 29.12,-396.5"/>
<polygon fill="#b4a7e5" stroke="none" points="25.12,-439.5 25.12,-459.5 39.04,-459.5 39.04,-439.5 25.12,-439.5"/>
<polygon fill="none" stroke="#181818" points="25.12,-439.5 25.12,-459.5 39.04,-459.5 39.04,-439.5 25.12,-439.5"/>
<text xml:space="preserve" text-anchor="start" x="30.21" y="-445.38" font-family="sans-serif" font-size="10.00">I</text>
<text xml:space="preserve" text-anchor="start" x="59.29" y="-451" font-family="sans-serif" font-style="italic" font-size="10.00">«CLI»</text>
<text xml:space="preserve" text-anchor="start" x="64.92" y="-441" font-family="sans-serif" font-weight="bold" font-style="italic" font-size="10.00">uv</text>
<polygon fill="#000000" stroke="none" points="18.12,-431.5 18.12,-432.5 92.88,-432.5 92.88,-431.5 18.12,-431.5"/>
<text xml:space="preserve" text-anchor="start" x="25.12" y="-416" font-family="sans-serif" font-size="10.00" fill="#038048">∘</text>
<text xml:space="preserve" text-anchor="start" x="31.12" y="-416" font-family="sans-serif" font-size="10.00"> tool install()</text>
<text xml:space="preserve" text-anchor="start" x="25.12" y="-406" font-family="sans-serif" font-size="10.00" fill="#038048">∘</text>
<text xml:space="preserve" text-anchor="start" x="31.12" y="-406" font-family="sans-serif" font-size="10.00"> tool run()</text>
<path fill="none" stroke="#000000" d="M29.12,-396.5C29.12,-396.5 81.88,-396.5 81.88,-396.5 87.88,-396.5 93.88,-402.5 93.88,-408.5 93.88,-408.5 93.88,-455.5 93.88,-455.5 93.88,-461.5 87.88,-467.5 81.88,-467.5 81.88,-467.5 29.12,-467.5 29.12,-467.5 23.12,-467.5 17.12,-461.5 17.12,-455.5 17.12,-455.5 17.12,-408.5 17.12,-408.5 17.12,-402.5 23.12,-396.5 29.12,-396.5"/>
</g>
<!-- B -->
<g id="node2" class="node">
<title>B</title>
<path fill="#cccccc" fill-opacity="0.466667" stroke="none" d="M214,-361.5C214,-361.5 294.5,-361.5 294.5,-361.5 300.5,-361.5 306.5,-367.5 306.5,-373.5 306.5,-373.5 306.5,-420.5 306.5,-420.5 306.5,-426.5 300.5,-432.5 294.5,-432.5 294.5,-432.5 214,-432.5 214,-432.5 208,-432.5 202,-426.5 202,-420.5 202,-420.5 202,-373.5 202,-373.5 202,-367.5 208,-361.5 214,-361.5"/>
<polygon fill="#b4a7e5" stroke="none" points="210,-404.5 210,-424.5 226.92,-424.5 226.92,-404.5 210,-404.5"/>
<polygon fill="none" stroke="#181818" points="210,-404.5 210,-424.5 226.92,-424.5 226.92,-404.5 210,-404.5"/>
<text xml:space="preserve" text-anchor="start" x="216.58" y="-410.38" font-family="sans-serif" font-size="10.00">I</text>
<text xml:space="preserve" text-anchor="start" x="261.04" y="-416" font-family="sans-serif" font-style="italic" font-size="10.00">«CLI»</text>
<text xml:space="preserve" text-anchor="start" x="251.67" y="-406" font-family="sans-serif" font-weight="bold" font-style="italic" font-size="10.00">buildben</text>
<polygon fill="#000000" stroke="none" points="203,-396.5 203,-397.5 305.5,-397.5 305.5,-396.5 203,-396.5"/>
<text xml:space="preserve" text-anchor="start" x="210" y="-381" font-family="sans-serif" font-size="10.00" fill="#038048">∘</text>
<text xml:space="preserve" text-anchor="start" x="216" y="-381" font-family="sans-serif" font-size="10.00"> init&#45;proj()</text>
<text xml:space="preserve" text-anchor="start" x="210" y="-371" font-family="sans-serif" font-size="10.00" fill="#038048">∘</text>
<text xml:space="preserve" text-anchor="start" x="216" y="-371" font-family="sans-serif" font-size="10.00"> add&#45;experiment()</text>
<path fill="none" stroke="#000000" d="M214,-361.5C214,-361.5 294.5,-361.5 294.5,-361.5 300.5,-361.5 306.5,-367.5 306.5,-373.5 306.5,-373.5 306.5,-420.5 306.5,-420.5 306.5,-426.5 300.5,-432.5 294.5,-432.5 294.5,-432.5 214,-432.5 214,-432.5 208,-432.5 202,-426.5 202,-420.5 202,-420.5 202,-373.5 202,-373.5 202,-367.5 208,-361.5 214,-361.5"/>
</g>
<!-- D -->
<g id="node3" class="node">
<title>D</title>
<path fill="#cccccc" fill-opacity="0.466667" stroke="none" d="M22,-198.5C22,-198.5 89,-198.5 89,-198.5 95,-198.5 101,-204.5 101,-210.5 101,-210.5 101,-267.5 101,-267.5 101,-273.5 95,-279.5 89,-279.5 89,-279.5 22,-279.5 22,-279.5 16,-279.5 10,-273.5 10,-267.5 10,-267.5 10,-210.5 10,-210.5 10,-204.5 16,-198.5 22,-198.5"/>
<polygon fill="#b4a7e5" stroke="none" points="18,-251.5 18,-271.5 34.17,-271.5 34.17,-251.5 18,-251.5"/>
<polygon fill="none" stroke="#181818" points="18,-251.5 18,-271.5 34.17,-271.5 34.17,-251.5 18,-251.5"/>
<text xml:space="preserve" text-anchor="start" x="24.21" y="-257.38" font-family="sans-serif" font-size="10.00">I</text>
<text xml:space="preserve" text-anchor="start" x="61.54" y="-263" font-family="sans-serif" font-style="italic" font-size="10.00">«CLI»</text>
<text xml:space="preserve" text-anchor="start" x="57.79" y="-253" font-family="sans-serif" font-weight="bold" font-style="italic" font-size="10.00">Direnv</text>
<polygon fill="#000000" stroke="none" points="11,-243.5 11,-244.5 100,-244.5 100,-243.5 11,-243.5"/>
<text xml:space="preserve" text-anchor="start" x="18" y="-228" font-family="sans-serif" font-size="10.00" fill="#038048">∘</text>
<text xml:space="preserve" text-anchor="start" x="24" y="-228" font-family="sans-serif" font-size="10.00"> layout()</text>
<text xml:space="preserve" text-anchor="start" x="18" y="-218" font-family="sans-serif" font-size="10.00" fill="#038048">∘</text>
<text xml:space="preserve" text-anchor="start" x="24" y="-218" font-family="sans-serif" font-size="10.00"> direnv reload()</text>
<text xml:space="preserve" text-anchor="start" x="18" y="-208" font-family="sans-serif" font-size="10.00" fill="#038048">∘</text>
<text xml:space="preserve" text-anchor="start" x="24" y="-208" font-family="sans-serif" font-size="10.00"> direnv exec()</text>
<path fill="none" stroke="#000000" d="M22,-198.5C22,-198.5 89,-198.5 89,-198.5 95,-198.5 101,-204.5 101,-210.5 101,-210.5 101,-267.5 101,-267.5 101,-273.5 95,-279.5 89,-279.5 89,-279.5 22,-279.5 22,-279.5 16,-279.5 10,-273.5 10,-267.5 10,-267.5 10,-210.5 10,-210.5 10,-204.5 16,-198.5 22,-198.5"/>
</g>
<!-- J -->
<g id="node4" class="node">
<title>J</title>
<path fill="#cccccc" fill-opacity="0.466667" stroke="none" d="M41.38,-320C41.38,-320 69.62,-320 69.62,-320 75.62,-320 81.62,-326 81.62,-332 81.62,-332 81.62,-344 81.62,-344 81.62,-350 75.62,-356 69.62,-356 69.62,-356 41.38,-356 41.38,-356 35.38,-356 29.38,-350 29.38,-344 29.38,-344 29.38,-332 29.38,-332 29.38,-326 35.38,-320 41.38,-320"/>
<polygon fill="#b4a7e5" stroke="none" points="37.38,-328 37.38,-348 43.12,-348 43.12,-328 37.38,-328"/>
<polygon fill="none" stroke="#181818" points="37.38,-328 37.38,-348 43.12,-348 43.12,-328 37.38,-328"/>
<text xml:space="preserve" text-anchor="start" x="38.38" y="-333.88" font-family="sans-serif" font-size="10.00">I</text>
<text xml:space="preserve" text-anchor="start" x="51.12" y="-339.5" font-family="sans-serif" font-style="italic" font-size="10.00">«CLI»</text>
<text xml:space="preserve" text-anchor="start" x="53.75" y="-329.5" font-family="sans-serif" font-weight="bold" font-style="italic" font-size="10.00">just</text>
<path fill="none" stroke="#000000" d="M41.38,-320C41.38,-320 69.62,-320 69.62,-320 75.62,-320 81.62,-326 81.62,-332 81.62,-332 81.62,-344 81.62,-344 81.62,-350 75.62,-356 69.62,-356 69.62,-356 41.38,-356 41.38,-356 35.38,-356 29.38,-350 29.38,-344 29.38,-344 29.38,-332 29.38,-332 29.38,-326 35.38,-320 41.38,-320"/>
</g>
<!-- PPRT -->
<g id="node5" class="node">
<title>PPRT</title>
<path fill="#cccccc" fill-opacity="0.466667" stroke="none" d="M467,-358C467,-358 546.5,-358 546.5,-358 552.5,-358 558.5,-364 558.5,-370 558.5,-370 558.5,-424 558.5,-424 558.5,-430 552.5,-436 546.5,-436 546.5,-436 467,-436 467,-436 461,-436 455,-430 455,-424 455,-424 455,-370 455,-370 455,-364 461,-358 467,-358"/>
<polygon fill="#add1b2" stroke="none" points="462,-409 462,-429 470,-429 470,-409 462,-409"/>
<polygon fill="none" stroke="#181818" points="462,-409 462,-429 470,-429 470,-409 462,-409"/>
<text xml:space="preserve" text-anchor="start" x="463" y="-414.88" font-family="sans-serif" font-size="10.00">C</text>
<text xml:space="preserve" text-anchor="start" x="495.25" y="-420.5" font-family="sans-serif" font-style="italic" font-size="10.00">«Config»</text>
<text xml:space="preserve" text-anchor="start" x="478" y="-410.5" font-family="sans-serif" font-weight="bold" font-size="10.00">pyproject.toml</text>
<polygon fill="none" stroke="none" points="455,-402 455,-402 558.5,-402 558.5,-402 455,-402"/>
<text xml:space="preserve" text-anchor="start" x="462" y="-386.5" font-family="sans-serif" font-size="10.00" fill="#038048">∘</text>
<text xml:space="preserve" text-anchor="start" x="468" y="-386.5" font-family="sans-serif" font-size="10.00"> Dependencies</text>
<text xml:space="preserve" text-anchor="start" x="462" y="-376.5" font-family="sans-serif" font-size="10.00" fill="#038048">∘</text>
<text xml:space="preserve" text-anchor="start" x="468" y="-376.5" font-family="sans-serif" font-size="10.00"> Setup</text>
<text xml:space="preserve" text-anchor="start" x="462" y="-366.5" font-family="sans-serif" font-size="10.00">Configuration</text>
</g>
<!-- LOCK -->
<g id="node6" class="node">
<title>LOCK</title>
<path fill="#cccccc" fill-opacity="0.466667" stroke="none" d="M463.75,-10C463.75,-10 549.75,-10 549.75,-10 555.75,-10 561.75,-16 561.75,-22 561.75,-22 561.75,-76 561.75,-76 561.75,-82 555.75,-88 549.75,-88 549.75,-88 463.75,-88 463.75,-88 457.75,-88 451.75,-82 451.75,-76 451.75,-76 451.75,-22 451.75,-22 451.75,-16 457.75,-10 463.75,-10"/>
<polygon fill="#add1b2" stroke="none" points="458.75,-51 458.75,-81 473.92,-81 473.92,-51 458.75,-51"/>
<polygon fill="none" stroke="#181818" points="458.75,-51 458.75,-81 473.92,-81 473.92,-51 458.75,-51"/>
<text xml:space="preserve" text-anchor="start" x="463.33" y="-61.88" font-family="sans-serif" font-size="10.00">C</text>
<text xml:space="preserve" text-anchor="start" x="496.42" y="-72.5" font-family="sans-serif" font-style="italic" font-size="10.00">«Lock&#45;Files»</text>
<text xml:space="preserve" text-anchor="start" x="504.29" y="-62.5" font-family="sans-serif" font-weight="bold" font-size="10.00">uv.lock</text>
<text xml:space="preserve" text-anchor="start" x="492.67" y="-52.5" font-family="sans-serif" font-weight="bold" font-size="10.00">pylock.toml</text>
<polygon fill="none" stroke="none" points="451.75,-44 451.75,-44 561.75,-44 561.75,-44 451.75,-44"/>
<text xml:space="preserve" text-anchor="start" x="458.75" y="-28.5" font-family="sans-serif" font-size="10.00" fill="#038048">∘</text>
<text xml:space="preserve" text-anchor="start" x="464.75" y="-28.5" font-family="sans-serif" font-size="10.00"> Dependencies</text>
<text xml:space="preserve" text-anchor="start" x="458.75" y="-18.5" font-family="sans-serif" font-size="10.00" fill="#038048">∘</text>
<text xml:space="preserve" text-anchor="start" x="464.75" y="-18.5" font-family="sans-serif" font-size="10.00"> Versions &amp; Sources</text>
</g>
<!-- ERC -->
<g id="node7" class="node">
<title>ERC</title>
<path fill="#cccccc" fill-opacity="0.466667" stroke="none" d="M471.62,-128C471.62,-128 541.88,-128 541.88,-128 547.88,-128 553.88,-134 553.88,-140 553.88,-140 553.88,-184 553.88,-184 553.88,-190 547.88,-196 541.88,-196 541.88,-196 471.62,-196 471.62,-196 465.62,-196 459.62,-190 459.62,-184 459.62,-184 459.62,-140 459.62,-140 459.62,-134 465.62,-128 471.62,-128"/>
<polygon fill="#add1b2" stroke="none" points="466.62,-169 466.62,-189 483.04,-189 483.04,-169 466.62,-169"/>
<polygon fill="none" stroke="#181818" points="466.62,-169 466.62,-189 483.04,-189 483.04,-169 466.62,-169"/>
<text xml:space="preserve" text-anchor="start" x="471.83" y="-174.88" font-family="sans-serif" font-size="10.00">C</text>
<text xml:space="preserve" text-anchor="start" x="503.67" y="-180.5" font-family="sans-serif" font-style="italic" font-size="10.00">«Config»</text>
<text xml:space="preserve" text-anchor="start" x="507.42" y="-170.5" font-family="sans-serif" font-weight="bold" font-size="10.00">.envrc</text>
<polygon fill="none" stroke="none" points="459.62,-162 459.62,-162 553.88,-162 553.88,-162 459.62,-162"/>
<text xml:space="preserve" text-anchor="start" x="466.62" y="-146.5" font-family="sans-serif" font-size="10.00" fill="#038048">∘</text>
<text xml:space="preserve" text-anchor="start" x="472.62" y="-146.5" font-family="sans-serif" font-size="10.00"> PROJECT_NAME</text>
<text xml:space="preserve" text-anchor="start" x="466.62" y="-136.5" font-family="sans-serif" font-size="10.00" fill="#038048">∘</text>
<text xml:space="preserve" text-anchor="start" x="472.62" y="-136.5" font-family="sans-serif" font-size="10.00"> ENV_VARS</text>
</g>
<!-- JF -->
<g id="node8" class="node">
<title>JF</title>
<path fill="#cccccc" fill-opacity="0.466667" stroke="none" d="M477.75,-236.5C477.75,-236.5 535.75,-236.5 535.75,-236.5 541.75,-236.5 547.75,-242.5 547.75,-248.5 547.75,-248.5 547.75,-305.5 547.75,-305.5 547.75,-311.5 541.75,-317.5 535.75,-317.5 535.75,-317.5 477.75,-317.5 477.75,-317.5 471.75,-317.5 465.75,-311.5 465.75,-305.5 465.75,-305.5 465.75,-248.5 465.75,-248.5 465.75,-242.5 471.75,-236.5 477.75,-236.5"/>
<polygon fill="#add1b2" stroke="none" points="473.75,-289.5 473.75,-309.5 484.17,-309.5 484.17,-289.5 473.75,-289.5"/>
<polygon fill="none" stroke="#181818" points="473.75,-289.5 473.75,-309.5 484.17,-309.5 484.17,-289.5 473.75,-289.5"/>
<text xml:space="preserve" text-anchor="start" x="475.96" y="-295.38" font-family="sans-serif" font-size="10.00">C</text>
<text xml:space="preserve" text-anchor="start" x="495.79" y="-301" font-family="sans-serif" font-style="italic" font-size="10.00">«Recipes»</text>
<text xml:space="preserve" text-anchor="start" x="499.54" y="-291" font-family="sans-serif" font-weight="bold" font-size="10.00">justfile</text>
<polygon fill="#666666" stroke="none" points="466.75,-281.5 466.75,-282.5 546.75,-282.5 546.75,-281.5 466.75,-281.5"/>
<text xml:space="preserve" text-anchor="start" x="473.75" y="-266" font-family="sans-serif" font-size="10.00" fill="#038048">∘</text>
<text xml:space="preserve" text-anchor="start" x="479.75" y="-266" font-family="sans-serif" font-size="10.00"> reset()</text>
<text xml:space="preserve" text-anchor="start" x="473.75" y="-256" font-family="sans-serif" font-size="10.00" fill="#038048">∘</text>
<text xml:space="preserve" text-anchor="start" x="479.75" y="-256" font-family="sans-serif" font-size="10.00"> install&#45;deps()</text>
<text xml:space="preserve" text-anchor="start" x="473.75" y="-246" font-family="sans-serif" font-size="10.00" fill="#038048">∘</text>
<text xml:space="preserve" text-anchor="start" x="479.75" y="-246" font-family="sans-serif" font-size="10.00"> ...()</text>
<path fill="none" stroke="#666666" d="M477.75,-236.5C477.75,-236.5 535.75,-236.5 535.75,-236.5 541.75,-236.5 547.75,-242.5 547.75,-248.5 547.75,-248.5 547.75,-305.5 547.75,-305.5 547.75,-311.5 541.75,-317.5 535.75,-317.5 535.75,-317.5 477.75,-317.5 477.75,-317.5 471.75,-317.5 465.75,-311.5 465.75,-305.5 465.75,-305.5 465.75,-248.5 465.75,-248.5 465.75,-242.5 471.75,-236.5 477.75,-236.5"/>
</g>
<!-- UVV -->
<g id="node9" class="node">
<title>UVV</title>
<path fill="#cccccc" fill-opacity="0.466667" stroke="none" d="M724.25,-351.5C724.25,-351.5 757.75,-351.5 757.75,-351.5 763.75,-351.5 769.75,-357.5 769.75,-363.5 769.75,-363.5 769.75,-430.5 769.75,-430.5 769.75,-436.5 763.75,-442.5 757.75,-442.5 757.75,-442.5 724.25,-442.5 724.25,-442.5 718.25,-442.5 712.25,-436.5 712.25,-430.5 712.25,-430.5 712.25,-363.5 712.25,-363.5 712.25,-357.5 718.25,-351.5 724.25,-351.5"/>
<polygon fill="#b4a7e5" stroke="none" points="720.25,-414.5 720.25,-434.5 726,-434.5 726,-414.5 720.25,-414.5"/>
<polygon fill="none" stroke="#181818" points="720.25,-414.5 720.25,-434.5 726,-434.5 726,-414.5 720.25,-414.5"/>
<text xml:space="preserve" text-anchor="start" x="721.25" y="-420.38" font-family="sans-serif" font-size="10.00">I</text>
<text xml:space="preserve" text-anchor="start" x="734" y="-426" font-family="sans-serif" font-style="italic" font-size="10.00">«Tool»</text>
<text xml:space="preserve" text-anchor="start" x="742.25" y="-416" font-family="sans-serif" font-weight="bold" font-style="italic" font-size="10.00">uv</text>
<polygon fill="#666666" stroke="none" points="713.25,-406.5 713.25,-407.5 768.75,-407.5 768.75,-406.5 713.25,-406.5"/>
<text xml:space="preserve" text-anchor="start" x="720.25" y="-391" font-family="sans-serif" font-size="10.00" fill="#038048">∘</text>
<text xml:space="preserve" text-anchor="start" x="726.25" y="-391" font-family="sans-serif" font-size="10.00"> venv()</text>
<text xml:space="preserve" text-anchor="start" x="720.25" y="-381" font-family="sans-serif" font-size="10.00" fill="#038048">∘</text>
<text xml:space="preserve" text-anchor="start" x="726.25" y="-381" font-family="sans-serif" font-size="10.00"> lock()</text>
<text xml:space="preserve" text-anchor="start" x="720.25" y="-371" font-family="sans-serif" font-size="10.00" fill="#038048">∘</text>
<text xml:space="preserve" text-anchor="start" x="726.25" y="-371" font-family="sans-serif" font-size="10.00"> sync()</text>
<text xml:space="preserve" text-anchor="start" x="720.25" y="-361" font-family="sans-serif" font-size="10.00" fill="#038048">∘</text>
<text xml:space="preserve" text-anchor="start" x="726.25" y="-361" font-family="sans-serif" font-size="10.00"> run()</text>
<path fill="none" stroke="#666666" d="M724.25,-351.5C724.25,-351.5 757.75,-351.5 757.75,-351.5 763.75,-351.5 769.75,-357.5 769.75,-363.5 769.75,-363.5 769.75,-430.5 769.75,-430.5 769.75,-436.5 763.75,-442.5 757.75,-442.5 757.75,-442.5 724.25,-442.5 724.25,-442.5 718.25,-442.5 712.25,-436.5 712.25,-430.5 712.25,-430.5 712.25,-363.5 712.25,-363.5 712.25,-357.5 718.25,-351.5 724.25,-351.5"/>
</g>
<!-- PD -->
<g id="node10" class="node">
<title>PD</title>
<path fill="#cccccc" fill-opacity="0.466667" stroke="none" d="M874.5,-356C874.5,-356 949.5,-356 949.5,-356 955.5,-356 961.5,-362 961.5,-368 961.5,-368 961.5,-388 961.5,-388 961.5,-394 955.5,-400 949.5,-400 949.5,-400 874.5,-400 874.5,-400 868.5,-400 862.5,-394 862.5,-388 862.5,-388 862.5,-368 862.5,-368 862.5,-362 868.5,-356 874.5,-356"/>
<polygon fill="#add1b2" stroke="none" points="869.5,-363 869.5,-393 877.5,-393 877.5,-363 869.5,-363"/>
<polygon fill="none" stroke="#181818" points="869.5,-363 869.5,-393 877.5,-393 877.5,-363 869.5,-363"/>
<text xml:space="preserve" text-anchor="start" x="870.5" y="-373.88" font-family="sans-serif" font-size="10.00">C</text>
<text xml:space="preserve" text-anchor="start" x="906.88" y="-384.5" font-family="sans-serif" font-style="italic" font-size="10.00">«Pkg»</text>
<text xml:space="preserve" text-anchor="start" x="902" y="-374.5" font-family="sans-serif" font-weight="bold" font-size="10.00">python</text>
<text xml:space="preserve" text-anchor="start" x="885.5" y="-364.5" font-family="sans-serif" font-weight="bold" font-size="10.00">dependencies</text>
</g>
</g>
</svg>
