<?xml version="1.0" encoding="UTF-8" standalone="no"?>
<!DOCTYPE svg PUBLIC "-//W3C//DTD SVG 1.1//EN"
 "http://www.w3.org/Graphics/SVG/1.1/DTD/svg11.dtd">
<!-- Generated by graphviz version 15.0.0 (20260523.1842)
 -->
<!-- Title: diagram_simple_graphviz Pages: 1 -->
<svg width="1344pt" height="577pt"
 viewBox="3.00 3.00 1341.00 575.00" xmlns="http://www.w3.org/2000/svg" xmlns:xlink="http://www.w3.org/1999/xlink">
<g id="graph0" class="graph" transform="scale(1 1) rotate(0) translate(5.76 571.68)">
<title>diagram_simple_graphviz</title>
<g id="clust1" class="cluster">
<title>cluster_GE</title>
<path fill="#afb200" fill-opacity="0.098039" stroke="#afb200" stroke-width="2" d="M12,-138.92C12,-138.92 234.25,-138.92 234.25,-138.92 240.25,-138.92 246.25,-144.92 246.25,-150.92 246.25,-150.92 246.25,-400.92 246.25,-400.92 246.25,-406.92 240.25,-412.92 234.25,-412.92 234.25,-412.92 12,-412.92 12,-412.92 6,-412.92 0,-406.92 0,-400.92 0,-400.92 0,-150.92 0,-150.92 0,-144.92 6,-138.92 12,-138.92"/>
<text xml:space="preserve" text-anchor="middle" x="123.12" y="-389.92" font-family="sans-serif" font-size="20.00" fill="#afb200">Operating System</text>
<text xml:space="preserve" text-anchor="middle" x="123.12" y="-362.17" font-family="sans-serif" font-size="20.00" fill="#afb200">&lt;&lt;Global Environment&gt;&gt;</text>
</g>
<g id="clust2" class="cluster">
<title>cluster_PDIR</title>
<path fill="#00a2ff" fill-opacity="0.098039" stroke="#00a2ff" stroke-width="2" d="M369.5,-47.92C369.5,-47.92 580,-47.92 580,-47.92 586,-47.92 592,-53.92 592,-59.92 592,-59.92 592,-545.92 592,-545.92 592,-551.92 586,-557.92 580,-557.92 580,-557.92 369.5,-557.92 369.5,-557.92 363.5,-557.92 357.5,-551.92 357.5,-545.92 357.5,-545.92 357.5,-59.92 357.5,-59.92 357.5,-53.92 363.5,-47.92 369.5,-47.92"/>
<text xml:space="preserve" text-anchor="middle" x="474.75" y="-534.92" font-family="sans-serif" font-size="20.00" fill="#00a2ff">Project Directory</text>
<text xml:space="preserve" text-anchor="middle" x="474.75" y="-507.17" font-family="sans-serif" font-size="20.00" fill="#00a2ff">&lt;&lt;Directory&gt;&gt;</text>
</g>
<g id="clust3" class="cluster">
<title>cluster_VENV</title>
<path fill="#32bc00" fill-opacity="0.098039" stroke="#32bc00" stroke-width="2" d="M1050.25,-198.92C1050.25,-198.92 1312.75,-198.92 1312.75,-198.92 1318.75,-198.92 1324.75,-204.92 1324.75,-210.92 1324.75,-210.92 1324.75,-340.92 1324.75,-340.92 1324.75,-346.92 1318.75,-352.92 1312.75,-352.92 1312.75,-352.92 1050.25,-352.92 1050.25,-352.92 1044.25,-352.92 1038.25,-346.92 1038.25,-340.92 1038.25,-340.92 1038.25,-210.92 1038.25,-210.92 1038.25,-204.92 1044.25,-198.92 1050.25,-198.92"/>
<text xml:space="preserve" text-anchor="middle" x="1181.5" y="-329.92" font-family="sans-serif" font-size="20.00" fill="#32bc00">.venv</text>
<text xml:space="preserve" text-anchor="middle" x="1181.5" y="-302.17" font-family="sans-serif" font-size="20.00" fill="#32bc00">&lt;&lt;Virtual Environment&gt;&gt;</text>
</g>
<!-- USER&#45;&gt;PPRT -->
<g id="edge4" class="edge">
<title>USER&#45;&gt;PPRT</title>
<path fill="none" stroke="#00a2ff" stroke-width="2.5" d="M814.68,-310.75C802.77,-353.67 780.15,-406.21 738,-432.92 690.7,-462.89 654.99,-468.8 612,-432.92 573.85,-401.08 619.1,-364.57 592,-322.92 588.26,-317.16 583.93,-311.72 579.2,-306.59"/>
<polygon fill="#00a2ff" stroke="#00a2ff" stroke-width="2.5" points="581.56,-304.49 572.96,-300.37 577.11,-308.95 581.56,-304.49"/>
<text xml:space="preserve" text-anchor="start" x="654" y="-467.41" font-family="sans-serif" font-style="italic" font-size="20.00" fill="#00a2ff">edits</text>
</g>
<!-- USER&#45;&gt;LOCK -->
<g id="edge6" class="edge">
<title>USER&#45;&gt;LOCK</title>
<path fill="none" stroke="#00a2ff" stroke-width="2.5" d="M782.18,-310.76C769.44,-325.52 754.49,-339.77 738,-349.92 710.22,-367.01 634.88,-383.88 572.05,-395.69"/>
<polygon fill="#00a2ff" stroke="#00a2ff" stroke-width="2.5" points="571.66,-392.56 563.39,-397.3 572.81,-398.76 571.66,-392.56"/>
<text xml:space="preserve" text-anchor="start" x="642.75" y="-396.59" font-family="sans-serif" font-style="italic" font-size="20.00" fill="#00a2ff">reviews</text>
</g>
<!-- USER&#45;&gt;PKG -->
<!-- USER&#45;&gt;PKG -->
<g id="edge8" class="edge">
<title>USER&#45;&gt;PKG</title>
<path fill="none" stroke="#32bc00" stroke-width="2.5" d="M880.34,-193.19C892.01,-184.47 904.98,-176.69 918.5,-171.92 989.93,-146.7 1074.83,-181.44 1128.2,-210.85"/>
<polygon fill="#32bc00" stroke="#32bc00" stroke-width="2.5" points="1126.42,-213.46 1135.81,-215.16 1129.53,-207.98 1126.42,-213.46"/>
<text xml:space="preserve" text-anchor="start" x="933.5" y="-213.92" font-family="sans-serif" font-style="italic" font-size="20.00" fill="#32bc00">runs uv,</text>
<text xml:space="preserve" text-anchor="start" x="929.38" y="-193.92" font-family="sans-serif" font-style="italic" font-size="20.00" fill="#32bc00">activates</text>
<text xml:space="preserve" text-anchor="start" x="918.5" y="-173.92" font-family="sans-serif" font-style="italic" font-size="20.00" fill="#32bc00">&amp; manages</text>
</g>
<!-- UV&#45;&gt;PPRT -->
<!-- UV&#45;&gt;PPRT -->
<g id="edge10" class="edge">
<title>UV&#45;&gt;PPRT</title>
<path fill="none" stroke="#ee220c" stroke-width="2.5" stroke-dasharray="5,2" d="M213,-215.02C230.48,-210.51 248.8,-206.55 266.25,-204.17 297.62,-199.88 306.15,-199.69 337.5,-204.17 345.96,-205.37 354.62,-206.98 363.28,-208.86"/>
<polygon fill="#ee220c" stroke="#ee220c" stroke-width="2.5" points="362.34,-211.88 371.81,-210.84 363.75,-205.74 362.34,-211.88"/>
<text xml:space="preserve" text-anchor="start" x="266.25" y="-213.92" font-family="sans-serif" font-style="italic" font-size="20.00" fill="#ee220c">requires</text>
</g>
<!-- UV&#45;&gt;LOCK -->
<g id="edge5" class="edge">
<title>UV&#45;&gt;LOCK</title>
<path fill="none" stroke="#00a2ff" stroke-width="2.5" d="M213.18,-170.1C254.72,-145.01 302.52,-130.25 337.5,-161.17 364.64,-185.15 339.5,-291.49 357.5,-322.92 363.66,-333.67 371.69,-343.55 380.65,-352.51"/>
<polygon fill="#00a2ff" stroke="#00a2ff" stroke-width="2.5" points="378.4,-354.72 387.13,-358.57 382.71,-350.12 378.4,-354.72"/>
<text xml:space="preserve" text-anchor="start" x="266.62" y="-170.92" font-family="sans-serif" font-style="italic" font-size="20.00" fill="#00a2ff">resolves</text>
</g>
<!-- UV&#45;&gt;LOCK -->
<g id="edge11" class="edge">
<title>UV&#45;&gt;LOCK</title>
<path fill="none" stroke="#ee220c" stroke-width="2.5" stroke-dasharray="5,2" d="M188.28,-156.98C232.82,-107.38 291.96,-62.6 337.5,-104.17 373.55,-137.07 333.91,-280.18 357.5,-322.92 363.53,-333.85 371.53,-343.86 380.52,-352.91"/>
<polygon fill="#ee220c" stroke="#ee220c" stroke-width="2.5" points="378.33,-355.17 387.04,-359.04 382.64,-350.58 378.33,-355.17"/>
<text xml:space="preserve" text-anchor="start" x="277.5" y="-113.92" font-family="sans-serif" font-style="italic" font-size="20.00" fill="#ee220c">reads</text>
</g>
<!-- UV&#45;&gt;PKG -->
<g id="edge7" class="edge">
<title>UV&#45;&gt;PKG</title>
<path fill="none" stroke="#32bc00" stroke-width="4" d="M184.83,-156.95C207.94,-128.48 236.02,-98.42 266.25,-75.92 301.77,-49.47 314.16,-45 357.5,-35.92 646.72,24.69 749.79,13.57 1018.25,-109.92 1068.21,-132.89 1115.51,-175.17 1146.01,-206.12"/>
<polygon fill="#32bc00" stroke="#32bc00" stroke-width="4" points="1143.73,-208.3 1152.25,-212.59 1148.27,-203.93 1143.73,-208.3"/>
<text xml:space="preserve" text-anchor="start" x="612" y="-31.64" font-family="sans-serif" font-weight="bold" font-style="italic" font-size="20.00" fill="#32bc00">creates .venv</text>
<text xml:space="preserve" text-anchor="start" x="639.38" y="-11.64" font-family="sans-serif" font-weight="bold" font-style="italic" font-size="20.00" fill="#32bc00">&amp; syncs</text>
</g>
<!-- APP&#45;&gt;PKG -->
<g id="edge9" class="edge">
<title>APP&#45;&gt;PKG</title>
<path fill="none" stroke="#ee220c" stroke-width="2.5" stroke-dasharray="5,2" d="M566.21,-111.57C581.48,-112.83 597.19,-114.01 612,-114.92 792.92,-125.99 848.36,-87.72 1018.25,-150.92 1058.4,-165.85 1100.26,-190.1 1131.41,-210.09"/>
<polygon fill="#ee220c" stroke="#ee220c" stroke-width="2.5" points="1129.53,-212.62 1138.79,-214.89 1132.97,-207.34 1129.53,-212.62"/>
<text xml:space="preserve" text-anchor="start" x="792.62" y="-125.71" font-family="sans-serif" font-style="italic" font-size="20.00" fill="#ee220c">requires</text>
</g>
<!-- PPRT&#45;&gt;USER -->
<!-- USER -->
<g id="node1" class="node">
<title>USER</title>
<path fill="#cccccc" fill-opacity="0.466667" stroke="none" d="M788,-176.92C788,-176.92 868.5,-176.92 868.5,-176.92 874.5,-176.92 880.5,-182.92 880.5,-188.92 880.5,-188.92 880.5,-298.92 880.5,-298.92 880.5,-304.92 874.5,-310.92 868.5,-310.92 868.5,-310.92 788,-310.92 788,-310.92 782,-310.92 776,-304.92 776,-298.92 776,-298.92 776,-188.92 776,-188.92 776,-182.92 782,-176.92 788,-176.92"/>
<polygon fill="none" stroke="#444444" points="777,-253.92 777,-309.92 879.5,-309.92 879.5,-253.92 777,-253.92"/>
<polygon fill="#a9dcdf" stroke="none" points="785,-261.92 785,-301.92 797.5,-301.92 797.5,-261.92 785,-261.92"/>
<polygon fill="none" stroke="#181818" points="785,-261.92 785,-301.92 797.5,-301.92 797.5,-261.92 785,-261.92"/>
<text xml:space="preserve" text-anchor="start" x="786" y="-275.92" font-family="sans-serif" font-size="16.00">A</text>
<text xml:space="preserve" text-anchor="start" x="805.5" y="-283.92" font-family="sans-serif" font-style="italic" font-size="20.00">«Actor»</text>
<text xml:space="preserve" text-anchor="start" x="817.12" y="-263.92" font-family="sans-serif" font-weight="bold" font-style="italic" font-size="20.00">User</text>
<polygon fill="none" stroke="#444444" points="777,-177.92 777,-253.92 879.5,-253.92 879.5,-177.92 777,-177.92"/>
<text xml:space="preserve" text-anchor="start" x="785" y="-227.92" font-family="sans-serif" font-size="20.00" fill="#038048">∘</text>
<text xml:space="preserve" text-anchor="start" x="803.75" y="-227.92" font-family="sans-serif" font-size="20.00"> eat()</text>
<text xml:space="preserve" text-anchor="start" x="785" y="-207.92" font-family="sans-serif" font-size="20.00" fill="#038048">∘</text>
<text xml:space="preserve" text-anchor="start" x="803.75" y="-207.92" font-family="sans-serif" font-size="20.00"> sleep()</text>
<text xml:space="preserve" text-anchor="start" x="785" y="-187.92" font-family="sans-serif" font-size="20.00" fill="#038048">∘</text>
<text xml:space="preserve" text-anchor="start" x="803.75" y="-187.92" font-family="sans-serif" font-size="20.00"> code()</text>
<path fill="none" stroke="#444444" d="M788,-176.92C788,-176.92 868.5,-176.92 868.5,-176.92 874.5,-176.92 880.5,-182.92 880.5,-188.92 880.5,-188.92 880.5,-298.92 880.5,-298.92 880.5,-304.92 874.5,-310.92 868.5,-310.92 868.5,-310.92 788,-310.92 788,-310.92 782,-310.92 776,-304.92 776,-298.92 776,-298.92 776,-188.92 776,-188.92 776,-182.92 782,-176.92 788,-176.92"/>
</g>
<!-- UV -->
<g id="node2" class="node">
<title>UV</title>
<path fill="#cccccc" fill-opacity="0.466667" stroke="none" d="M43.88,-156.92C43.88,-156.92 201.38,-156.92 201.38,-156.92 207.38,-156.92 213.38,-162.92 213.38,-168.92 213.38,-168.92 213.38,-318.92 213.38,-318.92 213.38,-324.92 207.38,-330.92 201.38,-330.92 201.38,-330.92 43.88,-330.92 43.88,-330.92 37.88,-330.92 31.88,-324.92 31.88,-318.92 31.88,-318.92 31.88,-168.92 31.88,-168.92 31.88,-162.92 37.88,-156.92 43.88,-156.92"/>
<polygon fill="none" stroke="#000000" points="32.88,-273.92 32.88,-329.92 212.38,-329.92 212.38,-273.92 32.88,-273.92"/>
<polygon fill="#b4a7e5" stroke="none" points="40.88,-281.92 40.88,-321.92 81.54,-321.92 81.54,-281.92 40.88,-281.92"/>
<polygon fill="none" stroke="#181818" points="40.88,-281.92 40.88,-321.92 81.54,-321.92 81.54,-281.92 40.88,-281.92"/>
<text xml:space="preserve" text-anchor="start" x="58.58" y="-295.92" font-family="sans-serif" font-size="16.00">I</text>
<text xml:space="preserve" text-anchor="start" x="139.67" y="-303.92" font-family="sans-serif" font-style="italic" font-size="20.00">«CLI»</text>
<text xml:space="preserve" text-anchor="start" x="152.42" y="-283.92" font-family="sans-serif" font-weight="bold" font-style="italic" font-size="20.00">uv</text>
<polygon fill="none" stroke="#000000" points="32.88,-157.92 32.88,-273.92 212.38,-273.92 212.38,-157.92 32.88,-157.92"/>
<text xml:space="preserve" text-anchor="start" x="40.88" y="-247.92" font-family="sans-serif" font-size="20.00" fill="#038048">∘</text>
<text xml:space="preserve" text-anchor="start" x="59.62" y="-247.92" font-family="sans-serif" font-size="20.00"> python install()</text>
<text xml:space="preserve" text-anchor="start" x="40.88" y="-227.92" font-family="sans-serif" font-size="20.00" fill="#038048">∘</text>
<text xml:space="preserve" text-anchor="start" x="59.62" y="-227.92" font-family="sans-serif" font-size="20.00"> venv()</text>
<text xml:space="preserve" text-anchor="start" x="40.88" y="-207.92" font-family="sans-serif" font-size="20.00" fill="#038048">∘</text>
<text xml:space="preserve" text-anchor="start" x="59.62" y="-207.92" font-family="sans-serif" font-size="20.00"> lock()</text>
<text xml:space="preserve" text-anchor="start" x="40.88" y="-187.92" font-family="sans-serif" font-size="20.00" fill="#038048">∘</text>
<text xml:space="preserve" text-anchor="start" x="59.62" y="-187.92" font-family="sans-serif" font-size="20.00"> sync()</text>
<text xml:space="preserve" text-anchor="start" x="40.88" y="-167.92" font-family="sans-serif" font-size="20.00" fill="#038048">∘</text>
<text xml:space="preserve" text-anchor="start" x="59.62" y="-167.92" font-family="sans-serif" font-size="20.00"> run()</text>
<path fill="none" stroke="#000000" d="M43.88,-156.92C43.88,-156.92 201.38,-156.92 201.38,-156.92 207.38,-156.92 213.38,-162.92 213.38,-168.92 213.38,-168.92 213.38,-318.92 213.38,-318.92 213.38,-324.92 207.38,-330.92 201.38,-330.92 201.38,-330.92 43.88,-330.92 43.88,-330.92 37.88,-330.92 31.88,-324.92 31.88,-318.92 31.88,-318.92 31.88,-168.92 31.88,-168.92 31.88,-162.92 37.88,-156.92 43.88,-156.92"/>
</g>
<!-- APP -->
<g id="node3" class="node">
<title>APP</title>
<path fill="#cccccc" fill-opacity="0.466667" stroke="none" d="M395.25,-65.92C395.25,-65.92 554.25,-65.92 554.25,-65.92 560.25,-65.92 566.25,-71.92 566.25,-77.92 566.25,-77.92 566.25,-127.92 566.25,-127.92 566.25,-133.92 560.25,-139.92 554.25,-139.92 554.25,-139.92 395.25,-139.92 395.25,-139.92 389.25,-139.92 383.25,-133.92 383.25,-127.92 383.25,-127.92 383.25,-77.92 383.25,-77.92 383.25,-71.92 389.25,-65.92 395.25,-65.92"/>
<polygon fill="#add1b2" stroke="none" points="390.25,-72.92 390.25,-132.92 402,-132.92 402,-72.92 390.25,-72.92"/>
<polygon fill="none" stroke="#181818" points="390.25,-72.92 390.25,-132.92 402,-132.92 402,-72.92 390.25,-72.92"/>
<text xml:space="preserve" text-anchor="start" x="391.25" y="-96.92" font-family="sans-serif" font-size="16.00">C</text>
<text xml:space="preserve" text-anchor="start" x="459.88" y="-114.92" font-family="sans-serif" font-style="italic" font-size="20.00">«File»</text>
<text xml:space="preserve" text-anchor="start" x="445.25" y="-94.92" font-family="sans-serif" font-weight="bold" font-size="20.00">main.py</text>
<text xml:space="preserve" text-anchor="start" x="410" y="-74.92" font-family="sans-serif" font-weight="bold" font-size="20.00">(or other code)</text>
</g>
<!-- PPRT -->
<g id="node4" class="node">
<title>PPRT</title>
<path fill="#cccccc" fill-opacity="0.466667" stroke="none" d="M387.5,-189.92C387.5,-189.92 562,-189.92 562,-189.92 568,-189.92 574,-195.92 574,-201.92 574,-201.92 574,-285.92 574,-285.92 574,-291.92 568,-297.92 562,-297.92 562,-297.92 387.5,-297.92 387.5,-297.92 381.5,-297.92 375.5,-291.92 375.5,-285.92 375.5,-285.92 375.5,-201.92 375.5,-201.92 375.5,-195.92 381.5,-189.92 387.5,-189.92"/>
<polygon fill="#add1b2" stroke="none" points="382.5,-250.92 382.5,-290.92 400.17,-290.92 400.17,-250.92 382.5,-250.92"/>
<polygon fill="none" stroke="#181818" points="382.5,-250.92 382.5,-290.92 400.17,-290.92 400.17,-250.92 382.5,-250.92"/>
<text xml:space="preserve" text-anchor="start" x="386.46" y="-264.92" font-family="sans-serif" font-size="16.00">C</text>
<text xml:space="preserve" text-anchor="start" x="452.29" y="-272.92" font-family="sans-serif" font-style="italic" font-size="20.00">«Config»</text>
<text xml:space="preserve" text-anchor="start" x="417.04" y="-252.92" font-family="sans-serif" font-weight="bold" font-size="20.00">pyproject.toml</text>
<text xml:space="preserve" text-anchor="start" x="382.5" y="-218.92" font-family="sans-serif" font-size="20.00" fill="#038048">∘</text>
<text xml:space="preserve" text-anchor="start" x="401.25" y="-218.92" font-family="sans-serif" font-size="20.00"> Dependencies</text>
<text xml:space="preserve" text-anchor="start" x="382.5" y="-198.92" font-family="sans-serif" font-size="20.00" fill="#038048">∘</text>
<text xml:space="preserve" text-anchor="start" x="401.25" y="-198.92" font-family="sans-serif" font-size="20.00"> Project Metadata</text>
</g>
<!-- LOCK -->
<g id="node5" class="node">
<title>LOCK</title>
<path fill="#cccccc" fill-opacity="0.466667" stroke="none" d="M401.75,-347.92C401.75,-347.92 547.75,-347.92 547.75,-347.92 553.75,-347.92 559.75,-353.92 559.75,-359.92 559.75,-359.92 559.75,-463.92 559.75,-463.92 559.75,-469.92 553.75,-475.92 547.75,-475.92 547.75,-475.92 401.75,-475.92 401.75,-475.92 395.75,-475.92 389.75,-469.92 389.75,-463.92 389.75,-463.92 389.75,-359.92 389.75,-359.92 389.75,-353.92 395.75,-347.92 401.75,-347.92"/>
<polygon fill="#add1b2" stroke="none" points="396.75,-428.92 396.75,-468.92 422.17,-468.92 422.17,-428.92 396.75,-428.92"/>
<polygon fill="none" stroke="#181818" points="396.75,-428.92 396.75,-468.92 422.17,-468.92 422.17,-428.92 396.75,-428.92"/>
<text xml:space="preserve" text-anchor="start" x="404.58" y="-442.92" font-family="sans-serif" font-size="16.00">C</text>
<text xml:space="preserve" text-anchor="start" x="450.67" y="-450.92" font-family="sans-serif" font-style="italic" font-size="20.00">«Lock&#45;File»</text>
<text xml:space="preserve" text-anchor="start" x="463.04" y="-430.92" font-family="sans-serif" font-weight="bold" font-size="20.00">uv.lock</text>
<text xml:space="preserve" text-anchor="start" x="396.75" y="-396.92" font-family="sans-serif" font-size="20.00" fill="#038048">∘</text>
<text xml:space="preserve" text-anchor="start" x="415.5" y="-396.92" font-family="sans-serif" font-size="20.00"> Dependencies</text>
<text xml:space="preserve" text-anchor="start" x="396.75" y="-376.92" font-family="sans-serif" font-size="20.00" fill="#038048">∘</text>
<text xml:space="preserve" text-anchor="start" x="415.5" y="-376.92" font-family="sans-serif" font-size="20.00"> Versions</text>
<text xml:space="preserve" text-anchor="start" x="396.75" y="-356.92" font-family="sans-serif" font-size="20.00" fill="#038048">∘</text>
<text xml:space="preserve" text-anchor="start" x="415.5" y="-356.92" font-family="sans-serif" font-size="20.00"> Sources</text>
</g>
<!-- PKG -->
<g id="node6" class="node">
<title>PKG</title>
<path fill="#cccccc" fill-opacity="0.466667" stroke="none" d="M1068.25,-216.92C1068.25,-216.92 1294.75,-216.92 1294.75,-216.92 1300.75,-216.92 1306.75,-222.92 1306.75,-228.92 1306.75,-228.92 1306.75,-258.92 1306.75,-258.92 1306.75,-264.92 1300.75,-270.92 1294.75,-270.92 1294.75,-270.92 1068.25,-270.92 1068.25,-270.92 1062.25,-270.92 1056.25,-264.92 1056.25,-258.92 1056.25,-258.92 1056.25,-228.92 1056.25,-228.92 1056.25,-222.92 1062.25,-216.92 1068.25,-216.92"/>
<polygon fill="#add1b2" stroke="none" points="1063.25,-223.92 1063.25,-263.92 1075,-263.92 1075,-223.92 1063.25,-223.92"/>
<polygon fill="none" stroke="#181818" points="1063.25,-223.92 1063.25,-263.92 1075,-263.92 1075,-223.92 1063.25,-223.92"/>
<text xml:space="preserve" text-anchor="start" x="1064.25" y="-237.92" font-family="sans-serif" font-size="16.00">C</text>
<text xml:space="preserve" text-anchor="start" x="1165.5" y="-245.92" font-family="sans-serif" font-style="italic" font-size="20.00">«Pkg»</text>
<text xml:space="preserve" text-anchor="start" x="1083" y="-225.92" font-family="sans-serif" font-weight="bold" font-size="20.00">Python Dependencies</text>
</g>
</g>
</svg>
