<?xml version="1.0" encoding="UTF-8" standalone="no"?>
<!DOCTYPE svg PUBLIC "-//W3C//DTD SVG 1.1//EN"
 "http://www.w3.org/Graphics/SVG/1.1/DTD/svg11.dtd">
<!-- Generated by graphviz version 15.0.0 (20260523.1842)
 -->
<!-- Title: diagram_graphviz Pages: 1 -->
<svg width="900px" height="330px"
 viewBox="-132.5 0 900 330" xmlns="http://www.w3.org/2000/svg" xmlns:xlink="http://www.w3.org/1999/xlink">
<g id="graph0" class="graph" transform="scale(0.634978 0.634978) rotate(0) translate(2.88 516.88)">
<title>diagram_graphviz</title>
<g id="clust1" class="cluster">
<title>cluster_GE</title>
<path fill="#afb200" fill-opacity="0.098039" stroke="#afb200" stroke-width="2" d="M20,-196C20,-196 310,-196 310,-196 316,-196 322,-202 322,-208 322,-208 322,-494 322,-494 322,-500 316,-506 310,-506 310,-506 20,-506 20,-506 14,-506 8,-500 8,-494 8,-494 8,-208 8,-208 8,-202 14,-196 20,-196"/>
<text xml:space="preserve" text-anchor="middle" x="165" y="-492.5" font-family="sans-serif" font-size="10.00" fill="#afb200">Operating System</text>
<text xml:space="preserve" text-anchor="middle" x="165" y="-478.25" font-family="sans-serif" font-size="10.00" fill="#afb200">&lt;&lt;Global Environment&gt;&gt;</text>
</g>
<g id="clust2" class="cluster">
<title>cluster_PDIR</title>
<path fill="#00a2ff" fill-opacity="0.098039" stroke="#00a2ff" stroke-width="2" d="M475.25,-8C475.25,-8 572,-8 572,-8 578,-8 584,-14 584,-20 584,-20 584,-463 584,-463 584,-469 578,-475 572,-475 572,-475 475.25,-475 475.25,-475 469.25,-475 463.25,-469 463.25,-463 463.25,-463 463.25,-20 463.25,-20 463.25,-14 469.25,-8 475.25,-8"/>
<text xml:space="preserve" text-anchor="middle" x="523.62" y="-461.5" font-family="sans-serif" font-size="10.00" fill="#00a2ff">Project Directory</text>
<text xml:space="preserve" text-anchor="middle" x="523.62" y="-447.25" font-family="sans-serif" font-size="10.00" fill="#00a2ff">&lt;&lt;Directory&gt;&gt;</text>
</g>
<g id="clust3" class="cluster">
<title>cluster_VENV</title>
<path fill="#32bc00" fill-opacity="0.098039" stroke="#32bc00" stroke-width="2" d="M742.5,-349C742.5,-349 973.75,-349 973.75,-349 979.75,-349 985.75,-355 985.75,-361 985.75,-361 985.75,-469 985.75,-469 985.75,-475 979.75,-481 973.75,-481 973.75,-481 742.5,-481 742.5,-481 736.5,-481 730.5,-475 730.5,-469 730.5,-469 730.5,-361 730.5,-361 730.5,-355 736.5,-349 742.5,-349"/>
<text xml:space="preserve" text-anchor="middle" x="858.12" y="-467.5" font-family="sans-serif" font-size="10.00" fill="#32bc00">.venv</text>
<text xml:space="preserve" text-anchor="middle" x="858.12" y="-453.25" font-family="sans-serif" font-size="10.00" fill="#32bc00">&lt;&lt;Virtual Environment&gt;&gt;</text>
</g>
<!-- UVG&#45;&gt;B -->
<!-- UVG&#45;&gt;B -->
<g id="edge5" class="edge">
<title>UVG&#45;&gt;B</title>
<path fill="none" stroke="#afb200" stroke-width="2.5" d="M100.57,-425C128.37,-420.22 165.83,-413.78 197.81,-408.28"/>
<polygon fill="#afb200" stroke="#afb200" stroke-width="2.5" points="198.19,-410.87 205.14,-407.02 197.3,-405.7 198.19,-410.87"/>
<polygon fill="#afb200" stroke="none" points="138.75,-417.63 138.75,-441.63 177.75,-441.63 177.75,-417.63 138.75,-417.63"/>
<text xml:space="preserve" text-anchor="start" x="141.75" y="-431.08" font-family="sans-serif" font-weight="bold" font-size="9.00" fill="#ffffff">installs</text>
<text xml:space="preserve" text-anchor="start" x="142.88" y="-422.08" font-family="sans-serif" font-weight="bold" font-size="9.00" fill="#ffffff">as tool</text>
<polygon fill="none" stroke="#afb200" points="138.75,-417.63 138.75,-441.63 177.75,-441.63 177.75,-417.63 138.75,-417.63"/>
</g>
<!-- UVG&#45;&gt;UVV -->
<g id="edge9" class="edge">
<title>UVG&#45;&gt;UVV</title>
<path fill="none" stroke="#32bc00" stroke-width="4" d="M100.24,-442.23C119.64,-447.16 138.75,-452 138.75,-452 138.75,-452 463.25,-483 463.25,-483 463.25,-483 584,-483 584,-483 584,-483 701.5,-426 701.5,-426 701.5,-426 710.07,-421.84 720.71,-416.67"/>
<polygon fill="#32bc00" stroke="#32bc00" stroke-width="4" points="721.73,-419.1 727.33,-413.46 719.43,-414.38 721.73,-419.1"/>
<polygon fill="#32bc00" stroke="none" points="373.5,-480.22 373.5,-504.22 411.75,-504.22 411.75,-480.22 373.5,-480.22"/>
<text xml:space="preserve" text-anchor="start" x="376.5" y="-493.67" font-family="sans-serif" font-weight="bold" font-size="9.00" fill="#ffffff">creates</text>
<text xml:space="preserve" text-anchor="start" x="380.62" y="-484.67" font-family="sans-serif" font-weight="bold" font-size="9.00" fill="#ffffff">.venv</text>
<polygon fill="none" stroke="#32bc00" points="373.5,-480.22 373.5,-504.22 411.75,-504.22 411.75,-480.22 373.5,-480.22"/>
</g>
<!-- B&#45;&gt;PPRT -->
<!-- B&#45;&gt;PPRT -->
<g id="edge6" class="edge">
<title>B&#45;&gt;PPRT</title>
<path fill="none" stroke="#00a2ff" stroke-width="4" d="M319.6,-375.47C336.6,-368.72 351,-363 351,-363 351,-363 434.25,-363 434.25,-363 434.25,-363 445.23,-367.22 459.45,-372.69"/>
<polygon fill="#00a2ff" stroke="#00a2ff" stroke-width="4" points="458.39,-375.1 466.33,-375.34 460.28,-370.2 458.39,-375.1"/>
<polygon fill="#00a2ff" stroke="none" points="351,-363 351,-387 434.25,-387 434.25,-363 351,-363"/>
<text xml:space="preserve" text-anchor="start" x="354" y="-376.45" font-family="sans-serif" font-weight="bold" font-size="9.00" fill="#ffffff">copies templates</text>
<text xml:space="preserve" text-anchor="start" x="361.12" y="-367.45" font-family="sans-serif" font-weight="bold" font-size="9.00" fill="#ffffff">(cookiecutter)</text>
<polygon fill="none" stroke="#00a2ff" points="351,-363 351,-387 434.25,-387 434.25,-363 351,-363"/>
</g>
<!-- PPRT&#45;&gt;UVV -->
<!-- ERC&#45;&gt;D -->
<g id="edge13" class="edge">
<title>ERC&#45;&gt;D</title>
<path fill="none" stroke="#ee220c" stroke-width="2.5" stroke-dasharray="5,2" d="M473.24,-168.81C384.85,-180.99 208.75,-205.25 208.75,-205.25 208.75,-205.25 160.05,-216.29 118.36,-225.74"/>
<polygon fill="#ee220c" stroke="#ee220c" stroke-width="2.5" points="117.81,-223.17 111.08,-227.39 118.97,-228.29 117.81,-223.17"/>
<polygon fill="#ee220c" stroke="none" points="242.62,-205.25 242.62,-224 286.12,-224 286.12,-205.25 242.62,-205.25"/>
<text xml:space="preserve" text-anchor="start" x="245.62" y="-213.45" font-family="sans-serif" font-weight="bold" font-size="9.00" fill="#ffffff">requires</text>
<polygon fill="none" stroke="#ee220c" points="242.62,-205.25 242.62,-224 286.12,-224 286.12,-205.25 242.62,-205.25"/>
</g>
<!-- ERC&#45;&gt;UVV -->
<g id="edge11" class="edge">
<title>ERC&#45;&gt;UVV</title>
<path fill="none" stroke="#32bc00" stroke-width="2.5" d="M561.21,-195.89C573.43,-207.21 584,-217 584,-217 584,-217 613,-397 613,-397 613,-397 677.54,-397 721.45,-397"/>
<polygon fill="#32bc00" stroke="#32bc00" stroke-width="2.5" points="721.38,-399.63 728.88,-397 721.38,-394.38 721.38,-399.63"/>
<polygon fill="#32bc00" stroke="none" points="634,-397 634,-415.75 680.5,-415.75 680.5,-397 634,-397"/>
<text xml:space="preserve" text-anchor="start" x="637" y="-405.2" font-family="sans-serif" font-weight="bold" font-size="9.00" fill="#ffffff">activates</text>
<polygon fill="none" stroke="#32bc00" points="634,-397 634,-415.75 680.5,-415.75 680.5,-397 634,-397"/>
</g>
<!-- JF&#45;&gt;D -->
<g id="edge15" class="edge">
<title>JF&#45;&gt;D</title>
<path fill="none" stroke="#ee220c" stroke-width="2.5" stroke-dasharray="5,2" d="M479.47,-263.82C457.04,-256.96 434.25,-250 434.25,-250 434.25,-250 322,-234.25 322,-234.25 322,-234.25 208.75,-234.25 208.75,-234.25 208.75,-234.25 160.26,-235.8 118.63,-237.13"/>
<polygon fill="#ee220c" stroke="#ee220c" stroke-width="2.5" points="118.58,-234.5 111.17,-237.36 118.75,-239.75 118.58,-234.5"/>
<polygon fill="#ee220c" stroke="none" points="242.62,-234.25 242.62,-253 286.12,-253 286.12,-234.25 242.62,-234.25"/>
<text xml:space="preserve" text-anchor="start" x="245.62" y="-242.45" font-family="sans-serif" font-weight="bold" font-size="9.00" fill="#ffffff">requires</text>
<polygon fill="none" stroke="#ee220c" points="242.62,-234.25 242.62,-253 286.12,-253 286.12,-234.25 242.62,-234.25"/>
</g>
<!-- JF&#45;&gt;J -->
<g id="edge14" class="edge">
<title>JF&#45;&gt;J</title>
<path fill="none" stroke="#ee220c" stroke-width="2.5" stroke-dasharray="5,2" d="M479.36,-282.7C388.57,-294.67 179.67,-322.21 95.74,-333.27"/>
<polygon fill="#ee220c" stroke="#ee220c" stroke-width="2.5" points="95.6,-330.64 88.51,-334.23 96.28,-335.85 95.6,-330.64"/>
<polygon fill="#ee220c" stroke="none" points="242.62,-317.5 242.62,-336.25 286.12,-336.25 286.12,-317.5 242.62,-317.5"/>
<text xml:space="preserve" text-anchor="start" x="245.62" y="-325.7" font-family="sans-serif" font-weight="bold" font-size="9.00" fill="#ffffff">requires</text>
<polygon fill="none" stroke="#ee220c" points="242.62,-317.5 242.62,-336.25 286.12,-336.25 286.12,-317.5 242.62,-317.5"/>
</g>
<!-- JF&#45;&gt;UVV -->
<g id="edge12" class="edge">
<title>JF&#45;&gt;UVV</title>
<path fill="none" stroke="#32bc00" stroke-width="2.5" d="M567.89,-283.91C620.26,-292.27 701.5,-305.25 701.5,-305.25 701.5,-305.25 713.36,-323.46 726.51,-343.65"/>
<polygon fill="#32bc00" stroke="#32bc00" stroke-width="2.5" points="724.24,-344.98 730.54,-349.84 728.64,-342.12 724.24,-344.98"/>
<polygon fill="#32bc00" stroke="none" points="644.12,-305.25 644.12,-324 670.38,-324 670.38,-305.25 644.12,-305.25"/>
<text xml:space="preserve" text-anchor="start" x="647.12" y="-313.45" font-family="sans-serif" font-weight="bold" font-size="9.00" fill="#ffffff">runs</text>
<polygon fill="none" stroke="#32bc00" points="644.12,-305.25 644.12,-324 670.38,-324 670.38,-305.25 644.12,-305.25"/>
</g>
<!-- UVV&#45;&gt;PPRT -->
<g id="edge8" class="edge">
<title>UVV&#45;&gt;PPRT</title>
<path fill="none" stroke="#00a2ff" stroke-width="2.5" d="M732.77,-383.3C717.39,-375.89 701.5,-368.25 701.5,-368.25 701.5,-368.25 613,-368.25 613,-368.25 613,-368.25 600.89,-372.19 585.64,-377.15"/>
<polygon fill="#00a2ff" stroke="#00a2ff" stroke-width="2.5" points="585.18,-374.54 578.86,-379.36 586.81,-379.53 585.18,-374.54"/>
<polygon fill="#00a2ff" stroke="none" points="620.12,-368.25 620.12,-387 694.38,-387 694.38,-368.25 620.12,-368.25"/>
<text xml:space="preserve" text-anchor="start" x="623.12" y="-376.45" font-family="sans-serif" font-weight="bold" font-size="9.00" fill="#ffffff">editable install</text>
<polygon fill="none" stroke="#00a2ff" points="620.12,-368.25 620.12,-387 694.38,-387 694.38,-368.25 620.12,-368.25"/>
</g>
<!-- UVV&#45;&gt;PPRT -->
<g id="edge16" class="edge">
<title>UVV&#45;&gt;PPRT</title>
<path fill="none" stroke="#ee220c" stroke-width="2.5" stroke-dasharray="5,2" d="M732.77,-366.98C717.39,-350.75 701.5,-334 701.5,-334 701.5,-334 613,-334 613,-334 613,-334 600.19,-343.13 584.33,-354.44"/>
<polygon fill="#ee220c" stroke="#ee220c" stroke-width="2.5" points="582.93,-352.21 578.35,-358.7 585.98,-356.49 582.93,-352.21"/>
<polygon fill="#ee220c" stroke="none" points="613,-334 613,-358 701.5,-358 701.5,-334 613,-334"/>
<text xml:space="preserve" text-anchor="start" x="616" y="-347.45" font-family="sans-serif" font-weight="bold" font-size="9.00" fill="#ffffff">reads dependency</text>
<text xml:space="preserve" text-anchor="start" x="644.88" y="-338.45" font-family="sans-serif" font-weight="bold" font-size="9.00" fill="#ffffff">specs</text>
<polygon fill="none" stroke="#ee220c" points="613,-334 613,-358 701.5,-358 701.5,-334 613,-334"/>
</g>
<!-- UVV&#45;&gt;LOCK -->
<g id="edge7" class="edge">
<title>UVV&#45;&gt;LOCK</title>
<path fill="none" stroke="#00a2ff" stroke-width="2.5" d="M741.85,-351.55C724.4,-310.67 701.5,-257 701.5,-257 701.5,-257 584,-108 584,-108 584,-108 578.8,-102.83 571.48,-95.56"/>
<polygon fill="#00a2ff" stroke="#00a2ff" stroke-width="2.5" points="573.42,-93.79 566.25,-90.36 569.72,-97.51 573.42,-93.79"/>
<polygon fill="#00a2ff" stroke="none" points="632.5,-257 632.5,-281 682,-281 682,-257 632.5,-257"/>
<text xml:space="preserve" text-anchor="start" x="638.5" y="-270.45" font-family="sans-serif" font-weight="bold" font-size="9.00" fill="#ffffff">resolves</text>
<text xml:space="preserve" text-anchor="start" x="635.5" y="-261.45" font-family="sans-serif" font-weight="bold" font-size="9.00" fill="#ffffff">&amp; exports</text>
<polygon fill="none" stroke="#00a2ff" points="632.5,-257 632.5,-281 682,-281 682,-257 632.5,-257"/>
</g>
<!-- UVV&#45;&gt;PD -->
<!-- UVV&#45;&gt;PD -->
<g id="edge10" class="edge">
<title>UVV&#45;&gt;PD</title>
<path fill="none" stroke="#32bc00" stroke-width="2.5" d="M791.7,-393.82C814.15,-391.31 846.23,-387.73 874.17,-384.6"/>
<polygon fill="#32bc00" stroke="#32bc00" stroke-width="2.5" points="874.12,-387.25 881.28,-383.81 873.54,-382.03 874.12,-387.25"/>
<polygon fill="#32bc00" stroke="none" points="823,-390.31 823,-409.06 853.75,-409.06 853.75,-390.31 823,-390.31"/>
<text xml:space="preserve" text-anchor="start" x="826" y="-398.51" font-family="sans-serif" font-weight="bold" font-size="9.00" fill="#ffffff">syncs</text>
<polygon fill="none" stroke="#32bc00" points="823,-390.31 823,-409.06 853.75,-409.06 853.75,-390.31 823,-390.31"/>
</g>
<!-- UVG -->
<g id="node1" class="node">
<title>UVG</title>
<path fill="#cccccc" fill-opacity="0.466667" stroke="none" d="M29.12,-396.5C29.12,-396.5 88.62,-396.5 88.62,-396.5 94.62,-396.5 100.62,-402.5 100.62,-408.5 100.62,-408.5 100.62,-455.5 100.62,-455.5 100.62,-461.5 94.62,-467.5 88.62,-467.5 88.62,-467.5 29.12,-467.5 29.12,-467.5 23.12,-467.5 17.12,-461.5 17.12,-455.5 17.12,-455.5 17.12,-408.5 17.12,-408.5 17.12,-402.5 23.12,-396.5 29.12,-396.5"/>
<polygon fill="#b4a7e5" stroke="none" points="25.12,-439.5 25.12,-459.5 41.29,-459.5 41.29,-439.5 25.12,-439.5"/>
<polygon fill="none" stroke="#181818" points="25.12,-439.5 25.12,-459.5 41.29,-459.5 41.29,-439.5 25.12,-439.5"/>
<text xml:space="preserve" text-anchor="start" x="31.33" y="-445.38" font-family="sans-serif" font-size="10.00">I</text>
<text xml:space="preserve" text-anchor="start" x="64.92" y="-451" font-family="sans-serif" font-style="italic" font-size="10.00">«CLI»</text>
<text xml:space="preserve" text-anchor="start" x="70.54" y="-441" font-family="sans-serif" font-weight="bold" font-style="italic" font-size="10.00">uv</text>
<polygon fill="#000000" stroke="none" points="18.12,-431.5 18.12,-432.5 99.62,-432.5 99.62,-431.5 18.12,-431.5"/>
<text xml:space="preserve" text-anchor="start" x="25.12" y="-416" font-family="sans-serif" font-size="10.00" fill="#038048">∘</text>
<text xml:space="preserve" text-anchor="start" x="37.88" y="-416" font-family="sans-serif" font-size="10.00"> tool install()</text>
<text xml:space="preserve" text-anchor="start" x="25.12" y="-406" font-family="sans-serif" font-size="10.00" fill="#038048">∘</text>
<text xml:space="preserve" text-anchor="start" x="37.88" y="-406" font-family="sans-serif" font-size="10.00"> tool run()</text>
<path fill="none" stroke="#000000" d="M29.12,-396.5C29.12,-396.5 88.62,-396.5 88.62,-396.5 94.62,-396.5 100.62,-402.5 100.62,-408.5 100.62,-408.5 100.62,-455.5 100.62,-455.5 100.62,-461.5 94.62,-467.5 88.62,-467.5 88.62,-467.5 29.12,-467.5 29.12,-467.5 23.12,-467.5 17.12,-461.5 17.12,-455.5 17.12,-455.5 17.12,-408.5 17.12,-408.5 17.12,-402.5 23.12,-396.5 29.12,-396.5"/>
</g>
<!-- B -->
<g id="node2" class="node">
<title>B</title>
<path fill="#cccccc" fill-opacity="0.466667" stroke="none" d="M220.75,-361.5C220.75,-361.5 308,-361.5 308,-361.5 314,-361.5 320,-367.5 320,-373.5 320,-373.5 320,-420.5 320,-420.5 320,-426.5 314,-432.5 308,-432.5 308,-432.5 220.75,-432.5 220.75,-432.5 214.75,-432.5 208.75,-426.5 208.75,-420.5 208.75,-420.5 208.75,-373.5 208.75,-373.5 208.75,-367.5 214.75,-361.5 220.75,-361.5"/>
<polygon fill="#b4a7e5" stroke="none" points="216.75,-404.5 216.75,-424.5 235.92,-424.5 235.92,-404.5 216.75,-404.5"/>
<polygon fill="none" stroke="#181818" points="216.75,-404.5 216.75,-424.5 235.92,-424.5 235.92,-404.5 216.75,-404.5"/>
<text xml:space="preserve" text-anchor="start" x="224.46" y="-410.38" font-family="sans-serif" font-size="10.00">I</text>
<text xml:space="preserve" text-anchor="start" x="273.42" y="-416" font-family="sans-serif" font-style="italic" font-size="10.00">«CLI»</text>
<text xml:space="preserve" text-anchor="start" x="264.04" y="-406" font-family="sans-serif" font-weight="bold" font-style="italic" font-size="10.00">buildben</text>
<polygon fill="#000000" stroke="none" points="209.75,-396.5 209.75,-397.5 319,-397.5 319,-396.5 209.75,-396.5"/>
<text xml:space="preserve" text-anchor="start" x="216.75" y="-381" font-family="sans-serif" font-size="10.00" fill="#038048">∘</text>
<text xml:space="preserve" text-anchor="start" x="229.5" y="-381" font-family="sans-serif" font-size="10.00"> init&#45;proj()</text>
<text xml:space="preserve" text-anchor="start" x="216.75" y="-371" font-family="sans-serif" font-size="10.00" fill="#038048">∘</text>
<text xml:space="preserve" text-anchor="start" x="229.5" y="-371" font-family="sans-serif" font-size="10.00"> add&#45;experiment()</text>
<path fill="none" stroke="#000000" d="M220.75,-361.5C220.75,-361.5 308,-361.5 308,-361.5 314,-361.5 320,-367.5 320,-373.5 320,-373.5 320,-420.5 320,-420.5 320,-426.5 314,-432.5 308,-432.5 308,-432.5 220.75,-432.5 220.75,-432.5 214.75,-432.5 208.75,-426.5 208.75,-420.5 208.75,-420.5 208.75,-373.5 208.75,-373.5 208.75,-367.5 214.75,-361.5 220.75,-361.5"/>
</g>
<!-- D -->
<g id="node3" class="node">
<title>D</title>
<path fill="#cccccc" fill-opacity="0.466667" stroke="none" d="M22,-198.5C22,-198.5 95.75,-198.5 95.75,-198.5 101.75,-198.5 107.75,-204.5 107.75,-210.5 107.75,-210.5 107.75,-267.5 107.75,-267.5 107.75,-273.5 101.75,-279.5 95.75,-279.5 95.75,-279.5 22,-279.5 22,-279.5 16,-279.5 10,-273.5 10,-267.5 10,-267.5 10,-210.5 10,-210.5 10,-204.5 16,-198.5 22,-198.5"/>
<polygon fill="#b4a7e5" stroke="none" points="18,-251.5 18,-271.5 36.42,-271.5 36.42,-251.5 18,-251.5"/>
<polygon fill="none" stroke="#181818" points="18,-251.5 18,-271.5 36.42,-271.5 36.42,-251.5 18,-251.5"/>
<text xml:space="preserve" text-anchor="start" x="25.33" y="-257.38" font-family="sans-serif" font-size="10.00">I</text>
<text xml:space="preserve" text-anchor="start" x="67.17" y="-263" font-family="sans-serif" font-style="italic" font-size="10.00">«CLI»</text>
<text xml:space="preserve" text-anchor="start" x="63.42" y="-253" font-family="sans-serif" font-weight="bold" font-style="italic" font-size="10.00">Direnv</text>
<polygon fill="#000000" stroke="none" points="11,-243.5 11,-244.5 106.75,-244.5 106.75,-243.5 11,-243.5"/>
<text xml:space="preserve" text-anchor="start" x="18" y="-228" font-family="sans-serif" font-size="10.00" fill="#038048">∘</text>
<text xml:space="preserve" text-anchor="start" x="30.75" y="-228" font-family="sans-serif" font-size="10.00"> layout()</text>
<text xml:space="preserve" text-anchor="start" x="18" y="-218" font-family="sans-serif" font-size="10.00" fill="#038048">∘</text>
<text xml:space="preserve" text-anchor="start" x="30.75" y="-218" font-family="sans-serif" font-size="10.00"> direnv reload()</text>
<text xml:space="preserve" text-anchor="start" x="18" y="-208" font-family="sans-serif" font-size="10.00" fill="#038048">∘</text>
<text xml:space="preserve" text-anchor="start" x="30.75" y="-208" font-family="sans-serif" font-size="10.00"> direnv exec()</text>
<path fill="none" stroke="#000000" d="M22,-198.5C22,-198.5 95.75,-198.5 95.75,-198.5 101.75,-198.5 107.75,-204.5 107.75,-210.5 107.75,-210.5 107.75,-267.5 107.75,-267.5 107.75,-273.5 101.75,-279.5 95.75,-279.5 95.75,-279.5 22,-279.5 22,-279.5 16,-279.5 10,-273.5 10,-267.5 10,-267.5 10,-210.5 10,-210.5 10,-204.5 16,-198.5 22,-198.5"/>
</g>
<!-- J -->
<g id="node4" class="node">
<title>J</title>
<path fill="#cccccc" fill-opacity="0.466667" stroke="none" d="M44.75,-320C44.75,-320 73,-320 73,-320 79,-320 85,-326 85,-332 85,-332 85,-344 85,-344 85,-350 79,-356 73,-356 73,-356 44.75,-356 44.75,-356 38.75,-356 32.75,-350 32.75,-344 32.75,-344 32.75,-332 32.75,-332 32.75,-326 38.75,-320 44.75,-320"/>
<polygon fill="#b4a7e5" stroke="none" points="40.75,-328 40.75,-348 46.5,-348 46.5,-328 40.75,-328"/>
<polygon fill="none" stroke="#181818" points="40.75,-328 40.75,-348 46.5,-348 46.5,-328 40.75,-328"/>
<text xml:space="preserve" text-anchor="start" x="41.75" y="-333.88" font-family="sans-serif" font-size="10.00">I</text>
<text xml:space="preserve" text-anchor="start" x="54.5" y="-339.5" font-family="sans-serif" font-style="italic" font-size="10.00">«CLI»</text>
<text xml:space="preserve" text-anchor="start" x="57.12" y="-329.5" font-family="sans-serif" font-weight="bold" font-style="italic" font-size="10.00">just</text>
<path fill="none" stroke="#000000" d="M44.75,-320C44.75,-320 73,-320 73,-320 79,-320 85,-326 85,-332 85,-332 85,-344 85,-344 85,-350 79,-356 73,-356 73,-356 44.75,-356 44.75,-356 38.75,-356 32.75,-350 32.75,-344 32.75,-344 32.75,-332 32.75,-332 32.75,-326 38.75,-320 44.75,-320"/>
</g>
<!-- PPRT -->
<g id="node5" class="node">
<title>PPRT</title>
<path fill="#cccccc" fill-opacity="0.466667" stroke="none" d="M483.88,-358C483.88,-358 563.38,-358 563.38,-358 569.38,-358 575.38,-364 575.38,-370 575.38,-370 575.38,-424 575.38,-424 575.38,-430 569.38,-436 563.38,-436 563.38,-436 483.88,-436 483.88,-436 477.88,-436 471.88,-430 471.88,-424 471.88,-424 471.88,-370 471.88,-370 471.88,-364 477.88,-358 483.88,-358"/>
<polygon fill="#add1b2" stroke="none" points="478.88,-409 478.88,-429 486.88,-429 486.88,-409 478.88,-409"/>
<polygon fill="none" stroke="#181818" points="478.88,-409 478.88,-429 486.88,-429 486.88,-409 478.88,-409"/>
<text xml:space="preserve" text-anchor="start" x="479.88" y="-414.88" font-family="sans-serif" font-size="10.00">C</text>
<text xml:space="preserve" text-anchor="start" x="512.12" y="-420.5" font-family="sans-serif" font-style="italic" font-size="10.00">«Config»</text>
<text xml:space="preserve" text-anchor="start" x="494.88" y="-410.5" font-family="sans-serif" font-weight="bold" font-size="10.00">pyproject.toml</text>
<polygon fill="none" stroke="none" points="471.88,-402 471.88,-402 575.38,-402 575.38,-402 471.88,-402"/>
<text xml:space="preserve" text-anchor="start" x="478.88" y="-386.5" font-family="sans-serif" font-size="10.00" fill="#038048">∘</text>
<text xml:space="preserve" text-anchor="start" x="491.62" y="-386.5" font-family="sans-serif" font-size="10.00"> Dependencies</text>
<text xml:space="preserve" text-anchor="start" x="478.88" y="-376.5" font-family="sans-serif" font-size="10.00" fill="#038048">∘</text>
<text xml:space="preserve" text-anchor="start" x="491.62" y="-376.5" font-family="sans-serif" font-size="10.00"> Setup</text>
<text xml:space="preserve" text-anchor="start" x="478.88" y="-366.5" font-family="sans-serif" font-size="10.00">Configuration</text>
</g>
<!-- LOCK -->
<g id="node6" class="node">
<title>LOCK</title>
<path fill="#cccccc" fill-opacity="0.466667" stroke="none" d="M477.25,-10C477.25,-10 570,-10 570,-10 576,-10 582,-16 582,-22 582,-22 582,-76 582,-76 582,-82 576,-88 570,-88 570,-88 477.25,-88 477.25,-88 471.25,-88 465.25,-82 465.25,-76 465.25,-76 465.25,-22 465.25,-22 465.25,-16 471.25,-10 477.25,-10"/>
<polygon fill="#add1b2" stroke="none" points="472.25,-51 472.25,-81 489.67,-81 489.67,-51 472.25,-51"/>
<polygon fill="none" stroke="#181818" points="472.25,-51 472.25,-81 489.67,-81 489.67,-51 472.25,-51"/>
<text xml:space="preserve" text-anchor="start" x="477.96" y="-61.88" font-family="sans-serif" font-size="10.00">C</text>
<text xml:space="preserve" text-anchor="start" x="515.54" y="-72.5" font-family="sans-serif" font-style="italic" font-size="10.00">«Lock&#45;Files»</text>
<text xml:space="preserve" text-anchor="start" x="523.42" y="-62.5" font-family="sans-serif" font-weight="bold" font-size="10.00">uv.lock</text>
<text xml:space="preserve" text-anchor="start" x="511.79" y="-52.5" font-family="sans-serif" font-weight="bold" font-size="10.00">pylock.toml</text>
<polygon fill="none" stroke="none" points="465.25,-44 465.25,-44 582,-44 582,-44 465.25,-44"/>
<text xml:space="preserve" text-anchor="start" x="472.25" y="-28.5" font-family="sans-serif" font-size="10.00" fill="#038048">∘</text>
<text xml:space="preserve" text-anchor="start" x="485" y="-28.5" font-family="sans-serif" font-size="10.00"> Dependencies</text>
<text xml:space="preserve" text-anchor="start" x="472.25" y="-18.5" font-family="sans-serif" font-size="10.00" fill="#038048">∘</text>
<text xml:space="preserve" text-anchor="start" x="485" y="-18.5" font-family="sans-serif" font-size="10.00"> Versions &amp; Sources</text>
</g>
<!-- ERC -->
<g id="node7" class="node">
<title>ERC</title>
<path fill="#cccccc" fill-opacity="0.466667" stroke="none" d="M485.12,-128C485.12,-128 562.12,-128 562.12,-128 568.12,-128 574.12,-134 574.12,-140 574.12,-140 574.12,-184 574.12,-184 574.12,-190 568.12,-196 562.12,-196 562.12,-196 485.12,-196 485.12,-196 479.12,-196 473.12,-190 473.12,-184 473.12,-184 473.12,-140 473.12,-140 473.12,-134 479.12,-128 485.12,-128"/>
<polygon fill="#add1b2" stroke="none" points="480.12,-169 480.12,-189 498.79,-189 498.79,-169 480.12,-169"/>
<polygon fill="none" stroke="#181818" points="480.12,-169 480.12,-189 498.79,-189 498.79,-169 480.12,-169"/>
<text xml:space="preserve" text-anchor="start" x="486.46" y="-174.88" font-family="sans-serif" font-size="10.00">C</text>
<text xml:space="preserve" text-anchor="start" x="522.79" y="-180.5" font-family="sans-serif" font-style="italic" font-size="10.00">«Config»</text>
<text xml:space="preserve" text-anchor="start" x="526.54" y="-170.5" font-family="sans-serif" font-weight="bold" font-size="10.00">.envrc</text>
<polygon fill="none" stroke="none" points="473.12,-162 473.12,-162 574.12,-162 574.12,-162 473.12,-162"/>
<text xml:space="preserve" text-anchor="start" x="480.12" y="-146.5" font-family="sans-serif" font-size="10.00" fill="#038048">∘</text>
<text xml:space="preserve" text-anchor="start" x="492.88" y="-146.5" font-family="sans-serif" font-size="10.00"> PROJECT_NAME</text>
<text xml:space="preserve" text-anchor="start" x="480.12" y="-136.5" font-family="sans-serif" font-size="10.00" fill="#038048">∘</text>
<text xml:space="preserve" text-anchor="start" x="492.88" y="-136.5" font-family="sans-serif" font-size="10.00"> ENV_VARS</text>
</g>
<!-- JF -->
<g id="node8" class="node">
<title>JF</title>
<path fill="#cccccc" fill-opacity="0.466667" stroke="none" d="M491.25,-236.5C491.25,-236.5 556,-236.5 556,-236.5 562,-236.5 568,-242.5 568,-248.5 568,-248.5 568,-305.5 568,-305.5 568,-311.5 562,-317.5 556,-317.5 556,-317.5 491.25,-317.5 491.25,-317.5 485.25,-317.5 479.25,-311.5 479.25,-305.5 479.25,-305.5 479.25,-248.5 479.25,-248.5 479.25,-242.5 485.25,-236.5 491.25,-236.5"/>
<polygon fill="#add1b2" stroke="none" points="487.25,-289.5 487.25,-309.5 499.92,-309.5 499.92,-289.5 487.25,-289.5"/>
<polygon fill="none" stroke="#181818" points="487.25,-289.5 487.25,-309.5 499.92,-309.5 499.92,-289.5 487.25,-289.5"/>
<text xml:space="preserve" text-anchor="start" x="490.58" y="-295.38" font-family="sans-serif" font-size="10.00">C</text>
<text xml:space="preserve" text-anchor="start" x="514.92" y="-301" font-family="sans-serif" font-style="italic" font-size="10.00">«Recipes»</text>
<text xml:space="preserve" text-anchor="start" x="518.67" y="-291" font-family="sans-serif" font-weight="bold" font-size="10.00">justfile</text>
<polygon fill="#666666" stroke="none" points="480.25,-281.5 480.25,-282.5 567,-282.5 567,-281.5 480.25,-281.5"/>
<text xml:space="preserve" text-anchor="start" x="487.25" y="-266" font-family="sans-serif" font-size="10.00" fill="#038048">∘</text>
<text xml:space="preserve" text-anchor="start" x="500" y="-266" font-family="sans-serif" font-size="10.00"> reset()</text>
<text xml:space="preserve" text-anchor="start" x="487.25" y="-256" font-family="sans-serif" font-size="10.00" fill="#038048">∘</text>
<text xml:space="preserve" text-anchor="start" x="500" y="-256" font-family="sans-serif" font-size="10.00"> install&#45;deps()</text>
<text xml:space="preserve" text-anchor="start" x="487.25" y="-246" font-family="sans-serif" font-size="10.00" fill="#038048">∘</text>
<text xml:space="preserve" text-anchor="start" x="500" y="-246" font-family="sans-serif" font-size="10.00"> ...()</text>
<path fill="none" stroke="#666666" d="M491.25,-236.5C491.25,-236.5 556,-236.5 556,-236.5 562,-236.5 568,-242.5 568,-248.5 568,-248.5 568,-305.5 568,-305.5 568,-311.5 562,-317.5 556,-317.5 556,-317.5 491.25,-317.5 491.25,-317.5 485.25,-317.5 479.25,-311.5 479.25,-305.5 479.25,-305.5 479.25,-248.5 479.25,-248.5 479.25,-242.5 485.25,-236.5 491.25,-236.5"/>
</g>
<!-- UVV -->
<g id="node9" class="node">
<title>UVV</title>
<path fill="#cccccc" fill-opacity="0.466667" stroke="none" d="M744.5,-351.5C744.5,-351.5 780,-351.5 780,-351.5 786,-351.5 792,-357.5 792,-363.5 792,-363.5 792,-430.5 792,-430.5 792,-436.5 786,-442.5 780,-442.5 780,-442.5 744.5,-442.5 744.5,-442.5 738.5,-442.5 732.5,-436.5 732.5,-430.5 732.5,-430.5 732.5,-363.5 732.5,-363.5 732.5,-357.5 738.5,-351.5 744.5,-351.5"/>
<polygon fill="#b4a7e5" stroke="none" points="740.5,-414.5 740.5,-434.5 746.92,-434.5 746.92,-414.5 740.5,-414.5"/>
<polygon fill="none" stroke="#181818" points="740.5,-414.5 740.5,-434.5 746.92,-434.5 746.92,-414.5 740.5,-414.5"/>
<text xml:space="preserve" text-anchor="start" x="741.83" y="-420.38" font-family="sans-serif" font-size="10.00">I</text>
<text xml:space="preserve" text-anchor="start" x="755.92" y="-426" font-family="sans-serif" font-style="italic" font-size="10.00">«Tool»</text>
<text xml:space="preserve" text-anchor="start" x="764.17" y="-416" font-family="sans-serif" font-weight="bold" font-style="italic" font-size="10.00">uv</text>
<polygon fill="#666666" stroke="none" points="733.5,-406.5 733.5,-407.5 791,-407.5 791,-406.5 733.5,-406.5"/>
<text xml:space="preserve" text-anchor="start" x="740.5" y="-391" font-family="sans-serif" font-size="10.00" fill="#038048">∘</text>
<text xml:space="preserve" text-anchor="start" x="753.25" y="-391" font-family="sans-serif" font-size="10.00"> venv()</text>
<text xml:space="preserve" text-anchor="start" x="740.5" y="-381" font-family="sans-serif" font-size="10.00" fill="#038048">∘</text>
<text xml:space="preserve" text-anchor="start" x="753.25" y="-381" font-family="sans-serif" font-size="10.00"> lock()</text>
<text xml:space="preserve" text-anchor="start" x="740.5" y="-371" font-family="sans-serif" font-size="10.00" fill="#038048">∘</text>
<text xml:space="preserve" text-anchor="start" x="753.25" y="-371" font-family="sans-serif" font-size="10.00"> sync()</text>
<text xml:space="preserve" text-anchor="start" x="740.5" y="-361" font-family="sans-serif" font-size="10.00" fill="#038048">∘</text>
<text xml:space="preserve" text-anchor="start" x="753.25" y="-361" font-family="sans-serif" font-size="10.00"> run()</text>
<path fill="none" stroke="#666666" d="M744.5,-351.5C744.5,-351.5 780,-351.5 780,-351.5 786,-351.5 792,-357.5 792,-363.5 792,-363.5 792,-430.5 792,-430.5 792,-436.5 786,-442.5 780,-442.5 780,-442.5 744.5,-442.5 744.5,-442.5 738.5,-442.5 732.5,-436.5 732.5,-430.5 732.5,-430.5 732.5,-363.5 732.5,-363.5 732.5,-357.5 738.5,-351.5 744.5,-351.5"/>
</g>
<!-- PD -->
<g id="node10" class="node">
<title>PD</title>
<path fill="#cccccc" fill-opacity="0.466667" stroke="none" d="M896.75,-356C896.75,-356 971.75,-356 971.75,-356 977.75,-356 983.75,-362 983.75,-368 983.75,-368 983.75,-388 983.75,-388 983.75,-394 977.75,-400 971.75,-400 971.75,-400 896.75,-400 896.75,-400 890.75,-400 884.75,-394 884.75,-388 884.75,-388 884.75,-368 884.75,-368 884.75,-362 890.75,-356 896.75,-356"/>
<polygon fill="#add1b2" stroke="none" points="891.75,-363 891.75,-393 899.75,-393 899.75,-363 891.75,-363"/>
<polygon fill="none" stroke="#181818" points="891.75,-363 891.75,-393 899.75,-393 899.75,-363 891.75,-363"/>
<text xml:space="preserve" text-anchor="start" x="892.75" y="-373.88" font-family="sans-serif" font-size="10.00">C</text>
<text xml:space="preserve" text-anchor="start" x="929.12" y="-384.5" font-family="sans-serif" font-style="italic" font-size="10.00">«Pkg»</text>
<text xml:space="preserve" text-anchor="start" x="924.25" y="-374.5" font-family="sans-serif" font-weight="bold" font-size="10.00">python</text>
<text xml:space="preserve" text-anchor="start" x="907.75" y="-364.5" font-family="sans-serif" font-weight="bold" font-size="10.00">dependencies</text>
</g>
</g>
</svg>
