<?xml version="1.0" encoding="UTF-8" standalone="no"?>
<!DOCTYPE svg PUBLIC "-//W3C//DTD SVG 1.1//EN"
 "http://www.w3.org/Graphics/SVG/1.1/DTD/svg11.dtd">
<!-- Generated by graphviz version 14.1.5 (20260411.2331)
 -->
<!-- Title: diagram_graphviz Pages: 1 -->
<svg width="1691pt" height="765pt"
 viewBox="3.00 3.00 1688.00 762.00" xmlns="http://www.w3.org/2000/svg" xmlns:xlink="http://www.w3.org/1999/xlink">
<g id="graph0" class="graph" transform="scale(1 1) rotate(0) translate(5.76 759.58)">
<title>diagram_graphviz</title>
<g id="clust1" class="cluster">
<title>cluster_GE</title>
<path fill="#afb200" fill-opacity="0.098039" stroke="#afb200" stroke-width="2" d="M20,-252C20,-252 524.5,-252 524.5,-252 530.5,-252 536.5,-258 536.5,-264 536.5,-264 536.5,-726 536.5,-726 536.5,-732 530.5,-738 524.5,-738 524.5,-738 20,-738 20,-738 14,-738 8,-732 8,-726 8,-726 8,-264 8,-264 8,-258 14,-252 20,-252"/>
<text xml:space="preserve" text-anchor="middle" x="272.25" y="-715" font-family="sans-serif" font-size="20.00" fill="#afb200">Operating System</text>
<text xml:space="preserve" text-anchor="middle" x="272.25" y="-687.25" font-family="sans-serif" font-size="20.00" fill="#afb200">&lt;&lt;Global Environment&gt;&gt;</text>
</g>
<g id="clust2" class="cluster">
<title>cluster_PDIR</title>
<path fill="#00a2ff" fill-opacity="0.098039" stroke="#00a2ff" stroke-width="2" d="M708,-8C708,-8 938.75,-8 938.75,-8 944.75,-8 950.75,-14 950.75,-20 950.75,-20 950.75,-694 950.75,-694 950.75,-700 944.75,-706 938.75,-706 938.75,-706 708,-706 708,-706 702,-706 696,-700 696,-694 696,-694 696,-20 696,-20 696,-14 702,-8 708,-8"/>
<text xml:space="preserve" text-anchor="middle" x="823.38" y="-683" font-family="sans-serif" font-size="20.00" fill="#00a2ff">Project Directory</text>
<text xml:space="preserve" text-anchor="middle" x="823.38" y="-655.25" font-family="sans-serif" font-size="20.00" fill="#00a2ff">&lt;&lt;Directory&gt;&gt;</text>
</g>
<g id="clust3" class="cluster">
<title>cluster_VENV</title>
<path fill="#32bc00" fill-opacity="0.098039" stroke="#32bc00" stroke-width="2" d="M1199.5,-475C1199.5,-475 1659.75,-475 1659.75,-475 1665.75,-475 1671.75,-481 1671.75,-487 1671.75,-487 1671.75,-717 1671.75,-717 1671.75,-723 1665.75,-729 1659.75,-729 1659.75,-729 1199.5,-729 1199.5,-729 1193.5,-729 1187.5,-723 1187.5,-717 1187.5,-717 1187.5,-487 1187.5,-487 1187.5,-481 1193.5,-475 1199.5,-475"/>
<text xml:space="preserve" text-anchor="middle" x="1429.62" y="-706" font-family="sans-serif" font-size="20.00" fill="#32bc00">.venv</text>
<text xml:space="preserve" text-anchor="middle" x="1429.62" y="-678.25" font-family="sans-serif" font-size="20.00" fill="#32bc00">&lt;&lt;Virtual Environment&gt;&gt;</text>
</g>
<!-- UVG&#45;&gt;B -->
<!-- UVG&#45;&gt;B -->
<g id="edge5" class="edge">
<title>UVG&#45;&gt;B</title>
<path fill="none" stroke="#afb200" stroke-width="2.5" d="M183.66,-592.24C220.88,-588.72 267.19,-584.34 308.86,-580.4"/>
<polygon fill="#afb200" stroke="#afb200" stroke-width="2.5" points="308.91,-583.56 317.57,-579.58 308.31,-577.29 308.91,-583.56"/>
<text xml:space="preserve" text-anchor="start" x="227.25" y="-609.95" font-family="sans-serif" font-style="italic" font-size="20.00" fill="#afb200">installs</text>
<text xml:space="preserve" text-anchor="start" x="228.75" y="-589.95" font-family="sans-serif" font-style="italic" font-size="20.00" fill="#afb200">as tool</text>
</g>
<!-- UVG&#45;&gt;UVV -->
<g id="edge9" class="edge">
<title>UVG&#45;&gt;UVV</title>
<path fill="none" stroke="#32bc00" stroke-width="4" d="M183.73,-623.26C207.14,-631.19 227.25,-638 227.25,-638 227.25,-638 696,-716 696,-716 696,-716 950.75,-716 950.75,-716 950.75,-716 1174.5,-608 1174.5,-608 1174.5,-608 1182.12,-604.18 1192.54,-598.95"/>
<polygon fill="#32bc00" stroke="#32bc00" stroke-width="4" points="1193.7,-601.89 1200.34,-595.04 1190.88,-596.26 1193.7,-601.89"/>
<text xml:space="preserve" text-anchor="start" x="581" y="-735.82" font-family="sans-serif" font-weight="bold" font-style="italic" font-size="20.00" fill="#32bc00">creates</text>
<text xml:space="preserve" text-anchor="start" x="591.12" y="-715.82" font-family="sans-serif" font-weight="bold" font-style="italic" font-size="20.00" fill="#32bc00">.venv</text>
</g>
<!-- B&#45;&gt;PPRT -->
<!-- B&#45;&gt;PPRT -->
<g id="edge6" class="edge">
<title>B&#45;&gt;PPRT</title>
<path fill="none" stroke="#00a2ff" stroke-width="4" d="M518.36,-516.95C536.3,-507.18 549.5,-500 549.5,-500 549.5,-500 683,-500 683,-500 683,-500 690.4,-503.72 701.8,-509.44"/>
<polygon fill="#00a2ff" stroke="#00a2ff" stroke-width="4" points="700.11,-512.12 709.57,-513.34 702.94,-506.49 700.11,-512.12"/>
<text xml:space="preserve" text-anchor="start" x="585.88" y="-542" font-family="sans-serif" font-weight="bold" font-style="italic" font-size="20.00" fill="#00a2ff">copies</text>
<text xml:space="preserve" text-anchor="start" x="567.88" y="-522" font-family="sans-serif" font-weight="bold" font-style="italic" font-size="20.00" fill="#00a2ff">templates</text>
<text xml:space="preserve" text-anchor="start" x="549.5" y="-502" font-family="sans-serif" font-weight="bold" font-style="italic" font-size="20.00" fill="#00a2ff">(cookiecutter)</text>
</g>
<!-- PPRT&#45;&gt;UVV -->
<!-- ERC&#45;&gt;D -->
<g id="edge13" class="edge">
<title>ERC&#45;&gt;D</title>
<path fill="none" stroke="#ee220c" stroke-width="2.5" stroke-dasharray="5,2" d="M734.51,-259.01C600.84,-275.76 347.34,-307.53 208.68,-324.9"/>
<polygon fill="#ee220c" stroke="#ee220c" stroke-width="2.5" points="208.33,-321.77 199.79,-326.01 209.11,-328.02 208.33,-321.77"/>
<text xml:space="preserve" text-anchor="start" x="384.25" y="-319.63" font-family="sans-serif" font-style="italic" font-size="20.00" fill="#ee220c">requires</text>
</g>
<!-- ERC&#45;&gt;UVV -->
<g id="edge11" class="edge">
<title>ERC&#45;&gt;UVV</title>
<path fill="none" stroke="#32bc00" stroke-width="2.5" d="M912.49,-299.6C933.89,-312.13 950.75,-322 950.75,-322 950.75,-322 963.75,-570 963.75,-570 963.75,-570 1109.63,-570 1193.2,-570"/>
<polygon fill="#32bc00" stroke="#32bc00" stroke-width="2.5" points="1193.01,-573.15 1202.01,-570 1193.01,-566.85 1193.01,-573.15"/>
<text xml:space="preserve" text-anchor="start" x="1030.12" y="-579.75" font-family="sans-serif" font-style="italic" font-size="20.00" fill="#32bc00">activates</text>
</g>
<!-- JF&#45;&gt;D -->
<g id="edge15" class="edge">
<title>JF&#45;&gt;D</title>
<path fill="none" stroke="#ee220c" stroke-width="2.5" stroke-dasharray="5,2" d="M745.97,-401.25C615.81,-388.06 351.34,-361.25 208.62,-346.78"/>
<polygon fill="#ee220c" stroke="#ee220c" stroke-width="2.5" points="209.07,-343.66 199.8,-345.89 208.44,-349.93 209.07,-343.66"/>
<text xml:space="preserve" text-anchor="start" x="384.25" y="-388.73" font-family="sans-serif" font-style="italic" font-size="20.00" fill="#ee220c">requires</text>
</g>
<!-- JF&#45;&gt;J -->
<g id="edge14" class="edge">
<title>JF&#45;&gt;J</title>
<path fill="none" stroke="#ee220c" stroke-width="2.5" stroke-dasharray="5,2" d="M745.92,-415.89C600.53,-428.99 287.68,-457.18 163.98,-468.33"/>
<polygon fill="#ee220c" stroke="#ee220c" stroke-width="2.5" points="164.03,-465.16 155.35,-469.11 164.59,-471.43 164.03,-465.16"/>
<text xml:space="preserve" text-anchor="start" x="384.25" y="-463.25" font-family="sans-serif" font-style="italic" font-size="20.00" fill="#ee220c">requires</text>
</g>
<!-- JF&#45;&gt;UVV -->
<g id="edge12" class="edge">
<title>JF&#45;&gt;UVV</title>
<path fill="none" stroke="#32bc00" stroke-width="2.5" d="M900.78,-419.31C1003.8,-433.21 1174.5,-456.25 1174.5,-456.25 1174.5,-456.25 1185.21,-472.33 1198.57,-492.39"/>
<polygon fill="#32bc00" stroke="#32bc00" stroke-width="2.5" points="1195.82,-493.95 1203.43,-499.7 1201.06,-490.46 1195.82,-493.95"/>
<text xml:space="preserve" text-anchor="start" x="1049.25" y="-466" font-family="sans-serif" font-style="italic" font-size="20.00" fill="#32bc00">runs</text>
</g>
<!-- UVV&#45;&gt;PPRT -->
<g id="edge8" class="edge">
<title>UVV&#45;&gt;PPRT</title>
<path fill="none" stroke="#00a2ff" stroke-width="2.5" d="M1205.75,-547.82C1189.26,-539.61 1174.5,-532.25 1174.5,-532.25 1174.5,-532.25 963.75,-532.25 963.75,-532.25 963.75,-532.25 956.22,-534.29 944.67,-537.42"/>
<polygon fill="#00a2ff" stroke="#00a2ff" stroke-width="2.5" points="943.99,-534.34 936.12,-539.73 945.63,-540.42 943.99,-534.34"/>
<text xml:space="preserve" text-anchor="start" x="1004.25" y="-542" font-family="sans-serif" font-style="italic" font-size="20.00" fill="#00a2ff">editable install</text>
</g>
<!-- UVV&#45;&gt;PPRT -->
<g id="edge16" class="edge">
<title>UVV&#45;&gt;PPRT</title>
<path fill="none" stroke="#ee220c" stroke-width="2.5" stroke-dasharray="5,2" d="M1205.75,-525.5C1189.26,-509.01 1174.5,-494.25 1174.5,-494.25 1174.5,-494.25 963.75,-494.25 963.75,-494.25 963.75,-494.25 951.67,-500.81 934.63,-510.08"/>
<polygon fill="#ee220c" stroke="#ee220c" stroke-width="2.5" points="933.16,-507.29 926.76,-514.35 936.17,-512.82 933.16,-507.29"/>
<text xml:space="preserve" text-anchor="start" x="963.75" y="-504" font-family="sans-serif" font-style="italic" font-size="20.00" fill="#ee220c">reads dependency specs</text>
</g>
<!-- UVV&#45;&gt;LOCK -->
<g id="edge7" class="edge">
<title>UVV&#45;&gt;LOCK</title>
<path fill="none" stroke="#00a2ff" stroke-width="2.5" d="M1219.88,-493.01C1198.8,-439.6 1174.5,-378 1174.5,-378 1174.5,-378 950.75,-174 950.75,-174 950.75,-174 942.78,-168.7 930.83,-160.76"/>
<polygon fill="#00a2ff" stroke="#00a2ff" stroke-width="2.5" points="932.87,-158.33 923.63,-155.97 929.38,-163.58 932.87,-158.33"/>
<text xml:space="preserve" text-anchor="start" x="1033.88" y="-400" font-family="sans-serif" font-style="italic" font-size="20.00" fill="#00a2ff">resolves</text>
<text xml:space="preserve" text-anchor="start" x="1026.75" y="-380" font-family="sans-serif" font-style="italic" font-size="20.00" fill="#00a2ff">&amp; exports</text>
</g>
<!-- UVV&#45;&gt;PD -->
<!-- UVV&#45;&gt;PD -->
<g id="edge10" class="edge">
<title>UVV&#45;&gt;PD</title>
<path fill="none" stroke="#32bc00" stroke-width="2.5" d="M1296.75,-571.17C1313.24,-571.61 1328,-572 1328,-572 1328,-572 1375.25,-572 1375.25,-572 1375.25,-572 1382.48,-571.91 1393.8,-571.76"/>
<polygon fill="#32bc00" stroke="#32bc00" stroke-width="2.5" points="1393.62,-574.91 1402.58,-571.64 1393.54,-568.61 1393.62,-574.91"/>
<text xml:space="preserve" text-anchor="start" x="1328" y="-581.75" font-family="sans-serif" font-style="italic" font-size="20.00" fill="#32bc00">syncs</text>
</g>
<!-- UVG -->
<g id="node1" class="node">
<title>UVG</title>
<path fill="#cccccc" fill-opacity="0.466667" stroke="none" d="M50.38,-542C50.38,-542 171.88,-542 171.88,-542 177.88,-542 183.88,-548 183.88,-554 183.88,-554 183.88,-644 183.88,-644 183.88,-650 177.88,-656 171.88,-656 171.88,-656 50.38,-656 50.38,-656 44.38,-656 38.38,-650 38.38,-644 38.38,-644 38.38,-554 38.38,-554 38.38,-548 44.38,-542 50.38,-542"/>
<polygon fill="none" stroke="#000000" points="39.38,-599 39.38,-655 182.88,-655 182.88,-599 39.38,-599"/>
<polygon fill="#b4a7e5" stroke="none" points="47.38,-607 47.38,-647 76.04,-647 76.04,-607 47.38,-607"/>
<polygon fill="none" stroke="#181818" points="47.38,-607 47.38,-647 76.04,-647 76.04,-607 47.38,-607"/>
<text xml:space="preserve" text-anchor="start" x="59.08" y="-621" font-family="sans-serif" font-size="16.00">I</text>
<text xml:space="preserve" text-anchor="start" x="116.17" y="-629" font-family="sans-serif" font-style="italic" font-size="20.00">«CLI»</text>
<text xml:space="preserve" text-anchor="start" x="128.92" y="-609" font-family="sans-serif" font-weight="bold" font-style="italic" font-size="20.00">uv</text>
<polygon fill="none" stroke="#000000" points="39.38,-543 39.38,-599 182.88,-599 182.88,-543 39.38,-543"/>
<text xml:space="preserve" text-anchor="start" x="47.38" y="-573" font-family="sans-serif" font-size="20.00" fill="#038048">∘</text>
<text xml:space="preserve" text-anchor="start" x="59.38" y="-573" font-family="sans-serif" font-size="20.00"> tool install()</text>
<text xml:space="preserve" text-anchor="start" x="47.38" y="-553" font-family="sans-serif" font-size="20.00" fill="#038048">∘</text>
<text xml:space="preserve" text-anchor="start" x="59.38" y="-553" font-family="sans-serif" font-size="20.00"> tool run()</text>
<path fill="none" stroke="#000000" d="M50.38,-542C50.38,-542 171.88,-542 171.88,-542 177.88,-542 183.88,-548 183.88,-554 183.88,-554 183.88,-644 183.88,-644 183.88,-650 177.88,-656 171.88,-656 171.88,-656 50.38,-656 50.38,-656 44.38,-656 38.38,-650 38.38,-644 38.38,-644 38.38,-554 38.38,-554 38.38,-548 44.38,-542 50.38,-542"/>
</g>
<!-- B -->
<g id="node2" class="node">
<title>B</title>
<path fill="#cccccc" fill-opacity="0.466667" stroke="none" d="M333.25,-513C333.25,-513 506.5,-513 506.5,-513 512.5,-513 518.5,-519 518.5,-525 518.5,-525 518.5,-615 518.5,-615 518.5,-621 512.5,-627 506.5,-627 506.5,-627 333.25,-627 333.25,-627 327.25,-627 321.25,-621 321.25,-615 321.25,-615 321.25,-525 321.25,-525 321.25,-519 327.25,-513 333.25,-513"/>
<polygon fill="none" stroke="#000000" points="322.25,-570 322.25,-626 517.5,-626 517.5,-570 322.25,-570"/>
<polygon fill="#b4a7e5" stroke="none" points="330.25,-578 330.25,-618 364.42,-618 364.42,-578 330.25,-578"/>
<polygon fill="none" stroke="#181818" points="330.25,-578 330.25,-618 364.42,-618 364.42,-578 330.25,-578"/>
<text xml:space="preserve" text-anchor="start" x="344.71" y="-592" font-family="sans-serif" font-size="16.00">I</text>
<text xml:space="preserve" text-anchor="start" x="430.42" y="-600" font-family="sans-serif" font-style="italic" font-size="20.00">«CLI»</text>
<text xml:space="preserve" text-anchor="start" x="412.79" y="-580" font-family="sans-serif" font-weight="bold" font-style="italic" font-size="20.00">buildben</text>
<polygon fill="none" stroke="#000000" points="322.25,-514 322.25,-570 517.5,-570 517.5,-514 322.25,-514"/>
<text xml:space="preserve" text-anchor="start" x="330.25" y="-544" font-family="sans-serif" font-size="20.00" fill="#038048">∘</text>
<text xml:space="preserve" text-anchor="start" x="342.25" y="-544" font-family="sans-serif" font-size="20.00"> init&#45;proj()</text>
<text xml:space="preserve" text-anchor="start" x="330.25" y="-524" font-family="sans-serif" font-size="20.00" fill="#038048">∘</text>
<text xml:space="preserve" text-anchor="start" x="342.25" y="-524" font-family="sans-serif" font-size="20.00"> add&#45;experiment()</text>
<path fill="none" stroke="#000000" d="M333.25,-513C333.25,-513 506.5,-513 506.5,-513 512.5,-513 518.5,-519 518.5,-525 518.5,-525 518.5,-615 518.5,-615 518.5,-621 512.5,-627 506.5,-627 506.5,-627 333.25,-627 333.25,-627 327.25,-627 321.25,-621 321.25,-615 321.25,-615 321.25,-525 321.25,-525 321.25,-519 327.25,-513 333.25,-513"/>
</g>
<!-- D -->
<g id="node3" class="node">
<title>D</title>
<path fill="#cccccc" fill-opacity="0.466667" stroke="none" d="M38,-270C38,-270 184.25,-270 184.25,-270 190.25,-270 196.25,-276 196.25,-282 196.25,-282 196.25,-392 196.25,-392 196.25,-398 190.25,-404 184.25,-404 184.25,-404 38,-404 38,-404 32,-404 26,-398 26,-392 26,-392 26,-282 26,-282 26,-276 32,-270 38,-270"/>
<polygon fill="none" stroke="#000000" points="27,-347 27,-403 195.25,-403 195.25,-347 27,-347"/>
<polygon fill="#b4a7e5" stroke="none" points="35,-355 35,-395 67.42,-395 67.42,-355 35,-355"/>
<polygon fill="none" stroke="#181818" points="35,-355 35,-395 67.42,-395 67.42,-355 35,-355"/>
<text xml:space="preserve" text-anchor="start" x="48.58" y="-369" font-family="sans-serif" font-size="16.00">I</text>
<text xml:space="preserve" text-anchor="start" x="119.92" y="-377" font-family="sans-serif" font-style="italic" font-size="20.00">«CLI»</text>
<text xml:space="preserve" text-anchor="start" x="113.17" y="-357" font-family="sans-serif" font-weight="bold" font-style="italic" font-size="20.00">Direnv</text>
<polygon fill="none" stroke="#000000" points="27,-271 27,-347 195.25,-347 195.25,-271 27,-271"/>
<text xml:space="preserve" text-anchor="start" x="35" y="-321" font-family="sans-serif" font-size="20.00" fill="#038048">∘</text>
<text xml:space="preserve" text-anchor="start" x="47" y="-321" font-family="sans-serif" font-size="20.00"> layout()</text>
<text xml:space="preserve" text-anchor="start" x="35" y="-301" font-family="sans-serif" font-size="20.00" fill="#038048">∘</text>
<text xml:space="preserve" text-anchor="start" x="47" y="-301" font-family="sans-serif" font-size="20.00"> direnv reload()</text>
<text xml:space="preserve" text-anchor="start" x="35" y="-281" font-family="sans-serif" font-size="20.00" fill="#038048">∘</text>
<text xml:space="preserve" text-anchor="start" x="47" y="-281" font-family="sans-serif" font-size="20.00"> direnv exec()</text>
<path fill="none" stroke="#000000" d="M38,-270C38,-270 184.25,-270 184.25,-270 190.25,-270 196.25,-276 196.25,-282 196.25,-282 196.25,-392 196.25,-392 196.25,-398 190.25,-404 184.25,-404 184.25,-404 38,-404 38,-404 32,-404 26,-398 26,-392 26,-392 26,-282 26,-282 26,-276 32,-270 38,-270"/>
</g>
<!-- J -->
<g id="node4" class="node">
<title>J</title>
<path fill="#cccccc" fill-opacity="0.466667" stroke="none" d="M82.5,-444C82.5,-444 139.75,-444 139.75,-444 145.75,-444 151.75,-450 151.75,-456 151.75,-456 151.75,-490 151.75,-490 151.75,-496 145.75,-502 139.75,-502 139.75,-502 82.5,-502 82.5,-502 76.5,-502 70.5,-496 70.5,-490 70.5,-490 70.5,-456 70.5,-456 70.5,-450 76.5,-444 82.5,-444"/>
<polygon fill="none" stroke="#000000" points="71.5,-445 71.5,-501 150.75,-501 150.75,-445 71.5,-445"/>
<polygon fill="#b4a7e5" stroke="none" points="79.5,-453 79.5,-493 86.75,-493 86.75,-453 79.5,-453"/>
<polygon fill="none" stroke="#181818" points="79.5,-453 79.5,-493 86.75,-493 86.75,-453 79.5,-453"/>
<text xml:space="preserve" text-anchor="start" x="80.5" y="-467" font-family="sans-serif" font-size="16.00">I</text>
<text xml:space="preserve" text-anchor="start" x="94.75" y="-475" font-family="sans-serif" font-style="italic" font-size="20.00">«CLI»</text>
<text xml:space="preserve" text-anchor="start" x="100.75" y="-455" font-family="sans-serif" font-weight="bold" font-style="italic" font-size="20.00">just</text>
<path fill="none" stroke="#000000" d="M82.5,-444C82.5,-444 139.75,-444 139.75,-444 145.75,-444 151.75,-450 151.75,-456 151.75,-456 151.75,-490 151.75,-490 151.75,-496 145.75,-502 139.75,-502 139.75,-502 82.5,-502 82.5,-502 76.5,-502 70.5,-496 70.5,-490 70.5,-490 70.5,-456 70.5,-456 70.5,-450 76.5,-444 82.5,-444"/>
</g>
<!-- PPRT -->
<g id="node5" class="node">
<title>PPRT</title>
<path fill="#cccccc" fill-opacity="0.466667" stroke="none" d="M726,-516C726,-516 920.75,-516 920.75,-516 926.75,-516 932.75,-522 932.75,-528 932.75,-528 932.75,-612 932.75,-612 932.75,-618 926.75,-624 920.75,-624 920.75,-624 726,-624 726,-624 720,-624 714,-618 714,-612 714,-612 714,-528 714,-528 714,-522 720,-516 726,-516"/>
<polygon fill="#add1b2" stroke="none" points="721,-577 721,-617 745.42,-617 745.42,-577 721,-577"/>
<polygon fill="none" stroke="#181818" points="721,-577 721,-617 745.42,-617 745.42,-577 721,-577"/>
<text xml:space="preserve" text-anchor="start" x="728.33" y="-591" font-family="sans-serif" font-size="16.00">C</text>
<text xml:space="preserve" text-anchor="start" x="807.67" y="-599" font-family="sans-serif" font-style="italic" font-size="20.00">«Config»</text>
<text xml:space="preserve" text-anchor="start" x="772.42" y="-579" font-family="sans-serif" font-weight="bold" font-size="20.00">pyproject.toml</text>
<text xml:space="preserve" text-anchor="start" x="721" y="-545" font-family="sans-serif" font-size="20.00" fill="#038048">∘</text>
<text xml:space="preserve" text-anchor="start" x="733" y="-545" font-family="sans-serif" font-size="20.00"> Dependencies</text>
<text xml:space="preserve" text-anchor="start" x="721" y="-525" font-family="sans-serif" font-size="20.00" fill="#038048">∘</text>
<text xml:space="preserve" text-anchor="start" x="733" y="-525" font-family="sans-serif" font-size="20.00"> Setup Configuration</text>
</g>
<!-- LOCK -->
<g id="node6" class="node">
<title>LOCK</title>
<path fill="#cccccc" fill-opacity="0.466667" stroke="none" d="M730.5,-26C730.5,-26 916.25,-26 916.25,-26 922.25,-26 928.25,-32 928.25,-38 928.25,-38 928.25,-142 928.25,-142 928.25,-148 922.25,-154 916.25,-154 916.25,-154 730.5,-154 730.5,-154 724.5,-154 718.5,-148 718.5,-142 718.5,-142 718.5,-38 718.5,-38 718.5,-32 724.5,-26 730.5,-26"/>
<polygon fill="#add1b2" stroke="none" points="725.5,-87 725.5,-147 756.67,-147 756.67,-87 725.5,-87"/>
<polygon fill="none" stroke="#181818" points="725.5,-87 725.5,-147 756.67,-147 756.67,-87 725.5,-87"/>
<text xml:space="preserve" text-anchor="start" x="736.21" y="-111" font-family="sans-serif" font-size="16.00">C</text>
<text xml:space="preserve" text-anchor="start" x="800.54" y="-129" font-family="sans-serif" font-style="italic" font-size="20.00">«Lock&#45;Files»</text>
<text xml:space="preserve" text-anchor="start" x="817.42" y="-109" font-family="sans-serif" font-weight="bold" font-size="20.00">uv.lock</text>
<text xml:space="preserve" text-anchor="start" x="793.79" y="-89" font-family="sans-serif" font-weight="bold" font-size="20.00">pylock.toml</text>
<text xml:space="preserve" text-anchor="start" x="725.5" y="-55" font-family="sans-serif" font-size="20.00" fill="#038048">∘</text>
<text xml:space="preserve" text-anchor="start" x="737.5" y="-55" font-family="sans-serif" font-size="20.00"> Dependencies</text>
<text xml:space="preserve" text-anchor="start" x="725.5" y="-35" font-family="sans-serif" font-size="20.00" fill="#038048">∘</text>
<text xml:space="preserve" text-anchor="start" x="737.5" y="-35" font-family="sans-serif" font-size="20.00"> Versions &amp; Sources</text>
</g>
<!-- ERC -->
<g id="node7" class="node">
<title>ERC</title>
<path fill="#cccccc" fill-opacity="0.466667" stroke="none" d="M746.25,-194C746.25,-194 900.5,-194 900.5,-194 906.5,-194 912.5,-200 912.5,-206 912.5,-206 912.5,-290 912.5,-290 912.5,-296 906.5,-302 900.5,-302 900.5,-302 746.25,-302 746.25,-302 740.25,-302 734.25,-296 734.25,-290 734.25,-290 734.25,-206 734.25,-206 734.25,-200 740.25,-194 746.25,-194"/>
<polygon fill="#add1b2" stroke="none" points="741.25,-255 741.25,-295 775.67,-295 775.67,-255 741.25,-255"/>
<polygon fill="none" stroke="#181818" points="741.25,-255 741.25,-295 775.67,-295 775.67,-255 741.25,-255"/>
<text xml:space="preserve" text-anchor="start" x="753.58" y="-269" font-family="sans-serif" font-size="16.00">C</text>
<text xml:space="preserve" text-anchor="start" x="817.67" y="-277" font-family="sans-serif" font-style="italic" font-size="20.00">«Config»</text>
<text xml:space="preserve" text-anchor="start" x="825.92" y="-257" font-family="sans-serif" font-weight="bold" font-size="20.00">.envrc</text>
<text xml:space="preserve" text-anchor="start" x="741.25" y="-223" font-family="sans-serif" font-size="20.00" fill="#038048">∘</text>
<text xml:space="preserve" text-anchor="start" x="753.25" y="-223" font-family="sans-serif" font-size="20.00"> PROJECT_NAME</text>
<text xml:space="preserve" text-anchor="start" x="741.25" y="-203" font-family="sans-serif" font-size="20.00" fill="#038048">∘</text>
<text xml:space="preserve" text-anchor="start" x="753.25" y="-203" font-family="sans-serif" font-size="20.00"> ENV_VARS</text>
</g>
<!-- JF -->
<g id="node8" class="node">
<title>JF</title>
<path fill="#cccccc" fill-opacity="0.466667" stroke="none" d="M757.75,-342C757.75,-342 889,-342 889,-342 895,-342 901,-348 901,-354 901,-354 901,-464 901,-464 901,-470 895,-476 889,-476 889,-476 757.75,-476 757.75,-476 751.75,-476 745.75,-470 745.75,-464 745.75,-464 745.75,-354 745.75,-354 745.75,-348 751.75,-342 757.75,-342"/>
<polygon fill="none" stroke="#444444" points="746.75,-419 746.75,-475 900,-475 900,-419 746.75,-419"/>
<polygon fill="#add1b2" stroke="none" points="754.75,-427 754.75,-467 777.42,-467 777.42,-427 754.75,-427"/>
<polygon fill="none" stroke="#181818" points="754.75,-427 754.75,-467 777.42,-467 777.42,-427 754.75,-427"/>
<text xml:space="preserve" text-anchor="start" x="761.21" y="-441" font-family="sans-serif" font-size="16.00">C</text>
<text xml:space="preserve" text-anchor="start" x="801.79" y="-449" font-family="sans-serif" font-style="italic" font-size="20.00">«Recipes»</text>
<text xml:space="preserve" text-anchor="start" x="809.67" y="-429" font-family="sans-serif" font-weight="bold" font-size="20.00">justfile</text>
<polygon fill="none" stroke="#444444" points="746.75,-343 746.75,-419 900,-419 900,-343 746.75,-343"/>
<text xml:space="preserve" text-anchor="start" x="754.75" y="-393" font-family="sans-serif" font-size="20.00" fill="#038048">∘</text>
<text xml:space="preserve" text-anchor="start" x="766.75" y="-393" font-family="sans-serif" font-size="20.00"> reset()</text>
<text xml:space="preserve" text-anchor="start" x="754.75" y="-373" font-family="sans-serif" font-size="20.00" fill="#038048">∘</text>
<text xml:space="preserve" text-anchor="start" x="766.75" y="-373" font-family="sans-serif" font-size="20.00"> install&#45;deps()</text>
<text xml:space="preserve" text-anchor="start" x="754.75" y="-353" font-family="sans-serif" font-size="20.00" fill="#038048">∘</text>
<text xml:space="preserve" text-anchor="start" x="766.75" y="-353" font-family="sans-serif" font-size="20.00"> ...()</text>
<path fill="none" stroke="#444444" d="M757.75,-342C757.75,-342 889,-342 889,-342 895,-342 901,-348 901,-354 901,-354 901,-464 901,-464 901,-470 895,-476 889,-476 889,-476 757.75,-476 757.75,-476 751.75,-476 745.75,-470 745.75,-464 745.75,-464 745.75,-354 745.75,-354 745.75,-348 751.75,-342 757.75,-342"/>
</g>
<!-- UVV -->
<g id="node9" class="node">
<title>UVV</title>
<path fill="#cccccc" fill-opacity="0.466667" stroke="none" d="M1217.5,-493C1217.5,-493 1285,-493 1285,-493 1291,-493 1297,-499 1297,-505 1297,-505 1297,-635 1297,-635 1297,-641 1291,-647 1285,-647 1285,-647 1217.5,-647 1217.5,-647 1211.5,-647 1205.5,-641 1205.5,-635 1205.5,-635 1205.5,-505 1205.5,-505 1205.5,-499 1211.5,-493 1217.5,-493"/>
<polygon fill="none" stroke="#444444" points="1206.5,-590 1206.5,-646 1296,-646 1296,-590 1206.5,-590"/>
<polygon fill="#b4a7e5" stroke="none" points="1214.5,-598 1214.5,-638 1222.92,-638 1222.92,-598 1214.5,-598"/>
<polygon fill="none" stroke="#181818" points="1214.5,-598 1214.5,-638 1222.92,-638 1222.92,-598 1214.5,-598"/>
<text xml:space="preserve" text-anchor="start" x="1216.08" y="-612" font-family="sans-serif" font-size="16.00">I</text>
<text xml:space="preserve" text-anchor="start" x="1232.67" y="-620" font-family="sans-serif" font-style="italic" font-size="20.00">«Tool»</text>
<text xml:space="preserve" text-anchor="start" x="1248.79" y="-600" font-family="sans-serif" font-weight="bold" font-style="italic" font-size="20.00">uv</text>
<polygon fill="none" stroke="#444444" points="1206.5,-494 1206.5,-590 1296,-590 1296,-494 1206.5,-494"/>
<text xml:space="preserve" text-anchor="start" x="1214.5" y="-564" font-family="sans-serif" font-size="20.00" fill="#038048">∘</text>
<text xml:space="preserve" text-anchor="start" x="1226.5" y="-564" font-family="sans-serif" font-size="20.00"> venv()</text>
<text xml:space="preserve" text-anchor="start" x="1214.5" y="-544" font-family="sans-serif" font-size="20.00" fill="#038048">∘</text>
<text xml:space="preserve" text-anchor="start" x="1226.5" y="-544" font-family="sans-serif" font-size="20.00"> lock()</text>
<text xml:space="preserve" text-anchor="start" x="1214.5" y="-524" font-family="sans-serif" font-size="20.00" fill="#038048">∘</text>
<text xml:space="preserve" text-anchor="start" x="1226.5" y="-524" font-family="sans-serif" font-size="20.00"> sync()</text>
<text xml:space="preserve" text-anchor="start" x="1214.5" y="-504" font-family="sans-serif" font-size="20.00" fill="#038048">∘</text>
<text xml:space="preserve" text-anchor="start" x="1226.5" y="-504" font-family="sans-serif" font-size="20.00"> run()</text>
<path fill="none" stroke="#444444" d="M1217.5,-493C1217.5,-493 1285,-493 1285,-493 1291,-493 1297,-499 1297,-505 1297,-505 1297,-635 1297,-635 1297,-641 1291,-647 1285,-647 1285,-647 1217.5,-647 1217.5,-647 1211.5,-647 1205.5,-641 1205.5,-635 1205.5,-635 1205.5,-505 1205.5,-505 1205.5,-499 1211.5,-493 1217.5,-493"/>
</g>
<!-- PD -->
<g id="node10" class="node">
<title>PD</title>
<path fill="#cccccc" fill-opacity="0.466667" stroke="none" d="M1418.25,-543C1418.25,-543 1641.75,-543 1641.75,-543 1647.75,-543 1653.75,-549 1653.75,-555 1653.75,-555 1653.75,-585 1653.75,-585 1653.75,-591 1647.75,-597 1641.75,-597 1641.75,-597 1418.25,-597 1418.25,-597 1412.25,-597 1406.25,-591 1406.25,-585 1406.25,-585 1406.25,-555 1406.25,-555 1406.25,-549 1412.25,-543 1418.25,-543"/>
<polygon fill="#add1b2" stroke="none" points="1413.25,-550 1413.25,-590 1425,-590 1425,-550 1413.25,-550"/>
<polygon fill="none" stroke="#181818" points="1413.25,-550 1413.25,-590 1425,-590 1425,-550 1413.25,-550"/>
<text xml:space="preserve" text-anchor="start" x="1414.25" y="-564" font-family="sans-serif" font-size="16.00">C</text>
<text xml:space="preserve" text-anchor="start" x="1514" y="-572" font-family="sans-serif" font-style="italic" font-size="20.00">«Pkg»</text>
<text xml:space="preserve" text-anchor="start" x="1433" y="-552" font-family="sans-serif" font-weight="bold" font-size="20.00">python dependencies</text>
</g>
</g>
</svg>
