<?xml version="1.0" encoding="UTF-8" standalone="no"?>
<!DOCTYPE svg PUBLIC "-//W3C//DTD SVG 1.1//EN"
 "http://www.w3.org/Graphics/SVG/1.1/DTD/svg11.dtd">
<!-- Generated by graphviz version 15.0.0 (20260523.1842)
 -->
<!-- Title: diagram_graphviz Pages: 1 -->
<svg width="1718pt" height="765pt"
 viewBox="3.00 3.00 1715.00 762.00" xmlns="http://www.w3.org/2000/svg" xmlns:xlink="http://www.w3.org/1999/xlink">
<g id="graph0" class="graph" transform="scale(1 1) rotate(0) translate(5.76 759.58)">
<title>diagram_graphviz</title>
<g id="clust1" class="cluster">
<title>cluster_GE</title>
<path fill="#afb200" fill-opacity="0.098039" stroke="#afb200" stroke-width="2" d="M20,-252C20,-252 538,-252 538,-252 544,-252 550,-258 550,-264 550,-264 550,-726 550,-726 550,-732 544,-738 538,-738 538,-738 20,-738 20,-738 14,-738 8,-732 8,-726 8,-726 8,-264 8,-264 8,-258 14,-252 20,-252"/>
<text xml:space="preserve" text-anchor="middle" x="279" y="-715" font-family="sans-serif" font-size="20.00" fill="#afb200">Operating System</text>
<text xml:space="preserve" text-anchor="middle" x="279" y="-687.25" font-family="sans-serif" font-size="20.00" fill="#afb200">&lt;&lt;Global Environment&gt;&gt;</text>
</g>
<g id="clust2" class="cluster">
<title>cluster_PDIR</title>
<path fill="#00a2ff" fill-opacity="0.098039" stroke="#00a2ff" stroke-width="2" d="M721.5,-8C721.5,-8 959,-8 959,-8 965,-8 971,-14 971,-20 971,-20 971,-694 971,-694 971,-700 965,-706 959,-706 959,-706 721.5,-706 721.5,-706 715.5,-706 709.5,-700 709.5,-694 709.5,-694 709.5,-20 709.5,-20 709.5,-14 715.5,-8 721.5,-8"/>
<text xml:space="preserve" text-anchor="middle" x="840.25" y="-683" font-family="sans-serif" font-size="20.00" fill="#00a2ff">Project Directory</text>
<text xml:space="preserve" text-anchor="middle" x="840.25" y="-655.25" font-family="sans-serif" font-size="20.00" fill="#00a2ff">&lt;&lt;Directory&gt;&gt;</text>
</g>
<g id="clust3" class="cluster">
<title>cluster_VENV</title>
<path fill="#32bc00" fill-opacity="0.098039" stroke="#32bc00" stroke-width="2" d="M1219.75,-475C1219.75,-475 1686.75,-475 1686.75,-475 1692.75,-475 1698.75,-481 1698.75,-487 1698.75,-487 1698.75,-717 1698.75,-717 1698.75,-723 1692.75,-729 1686.75,-729 1686.75,-729 1219.75,-729 1219.75,-729 1213.75,-729 1207.75,-723 1207.75,-717 1207.75,-717 1207.75,-487 1207.75,-487 1207.75,-481 1213.75,-475 1219.75,-475"/>
<text xml:space="preserve" text-anchor="middle" x="1453.25" y="-706" font-family="sans-serif" font-size="20.00" fill="#32bc00">.venv</text>
<text xml:space="preserve" text-anchor="middle" x="1453.25" y="-678.25" font-family="sans-serif" font-size="20.00" fill="#32bc00">&lt;&lt;Virtual Environment&gt;&gt;</text>
</g>
<!-- UVG&#45;&gt;B -->
<!-- UVG&#45;&gt;B -->
<g id="edge5" class="edge">
<title>UVG&#45;&gt;B</title>
<path fill="none" stroke="#afb200" stroke-width="2.5" d="M190.59,-592.05C228.02,-588.59 274.06,-584.33 315.68,-580.48"/>
<polygon fill="#afb200" stroke="#afb200" stroke-width="2.5" points="315.7,-583.64 324.38,-579.68 315.12,-577.37 315.7,-583.64"/>
<text xml:space="preserve" text-anchor="start" x="234" y="-609.95" font-family="sans-serif" font-style="italic" font-size="20.00" fill="#afb200">installs</text>
<text xml:space="preserve" text-anchor="start" x="235.5" y="-589.95" font-family="sans-serif" font-style="italic" font-size="20.00" fill="#afb200">as tool</text>
</g>
<!-- UVG&#45;&gt;UVV -->
<g id="edge9" class="edge">
<title>UVG&#45;&gt;UVV</title>
<path fill="none" stroke="#32bc00" stroke-width="4" d="M190.55,-623.7C214.06,-631.44 234,-638 234,-638 234,-638 709.5,-716 709.5,-716 709.5,-716 971,-716 971,-716 971,-716 1124.02,-642.24 1212.53,-599.57"/>
<polygon fill="#32bc00" stroke="#32bc00" stroke-width="4" points="1213.69,-602.51 1220.43,-595.76 1210.95,-596.83 1213.69,-602.51"/>
<text xml:space="preserve" text-anchor="start" x="594.5" y="-735.82" font-family="sans-serif" font-weight="bold" font-style="italic" font-size="20.00" fill="#32bc00">creates</text>
<text xml:space="preserve" text-anchor="start" x="604.62" y="-715.82" font-family="sans-serif" font-weight="bold" font-style="italic" font-size="20.00" fill="#32bc00">.venv</text>
</g>
<!-- B&#45;&gt;PPRT -->
<!-- B&#45;&gt;PPRT -->
<g id="edge6" class="edge">
<title>B&#45;&gt;PPRT</title>
<path fill="none" stroke="#00a2ff" stroke-width="4" d="M531.72,-516.59C549.79,-507.01 563,-500 563,-500 563,-500 696.5,-500 696.5,-500 696.5,-500 704.08,-503.72 715.75,-509.44"/>
<polygon fill="#00a2ff" stroke="#00a2ff" stroke-width="4" points="714.35,-512.26 723.81,-513.39 717.12,-506.6 714.35,-512.26"/>
<text xml:space="preserve" text-anchor="start" x="599.38" y="-542" font-family="sans-serif" font-weight="bold" font-style="italic" font-size="20.00" fill="#00a2ff">copies</text>
<text xml:space="preserve" text-anchor="start" x="581.38" y="-522" font-family="sans-serif" font-weight="bold" font-style="italic" font-size="20.00" fill="#00a2ff">templates</text>
<text xml:space="preserve" text-anchor="start" x="563" y="-502" font-family="sans-serif" font-weight="bold" font-style="italic" font-size="20.00" fill="#00a2ff">(cookiecutter)</text>
</g>
<!-- PPRT&#45;&gt;UVV -->
<!-- ERC&#45;&gt;D -->
<g id="edge13" class="edge">
<title>ERC&#45;&gt;D</title>
<path fill="none" stroke="#ee220c" stroke-width="2.5" stroke-dasharray="5,2" d="M747.94,-259.23C611.71,-275.98 356.22,-307.4 215.25,-324.73"/>
<polygon fill="#ee220c" stroke="#ee220c" stroke-width="2.5" points="215.1,-321.58 206.56,-325.8 215.87,-327.83 215.1,-321.58"/>
<text xml:space="preserve" text-anchor="start" x="394.38" y="-319.63" font-family="sans-serif" font-style="italic" font-size="20.00" fill="#ee220c">requires</text>
</g>
<!-- ERC&#45;&gt;UVV -->
<g id="edge11" class="edge">
<title>ERC&#45;&gt;UVV</title>
<path fill="none" stroke="#32bc00" stroke-width="2.5" d="M932.42,-300C954.06,-312.34 971,-322 971,-322 971,-322 984,-570 984,-570 984,-570 1128.46,-570 1213.42,-570"/>
<polygon fill="#32bc00" stroke="#32bc00" stroke-width="2.5" points="1213.22,-573.15 1222.22,-570 1213.22,-566.85 1213.22,-573.15"/>
<text xml:space="preserve" text-anchor="start" x="1050.38" y="-579.75" font-family="sans-serif" font-style="italic" font-size="20.00" fill="#32bc00">activates</text>
</g>
<!-- JF&#45;&gt;D -->
<g id="edge15" class="edge">
<title>JF&#45;&gt;D</title>
<path fill="none" stroke="#ee220c" stroke-width="2.5" stroke-dasharray="5,2" d="M759.4,-401.06C626.49,-387.83 360.18,-361.34 215.17,-346.91"/>
<polygon fill="#ee220c" stroke="#ee220c" stroke-width="2.5" points="215.83,-343.82 206.57,-346.06 215.21,-350.09 215.83,-343.82"/>
<text xml:space="preserve" text-anchor="start" x="394.38" y="-389.91" font-family="sans-serif" font-style="italic" font-size="20.00" fill="#ee220c">requires</text>
</g>
<!-- JF&#45;&gt;J -->
<g id="edge14" class="edge">
<title>JF&#45;&gt;J</title>
<path fill="none" stroke="#ee220c" stroke-width="2.5" stroke-dasharray="5,2" d="M759.31,-416.07C609.94,-429.28 292.29,-457.37 167.44,-468.41"/>
<polygon fill="#ee220c" stroke="#ee220c" stroke-width="2.5" points="167.38,-465.25 158.7,-469.18 167.94,-471.53 167.38,-465.25"/>
<text xml:space="preserve" text-anchor="start" x="394.38" y="-463.25" font-family="sans-serif" font-style="italic" font-size="20.00" fill="#ee220c">requires</text>
</g>
<!-- JF&#45;&gt;UVV -->
<g id="edge12" class="edge">
<title>JF&#45;&gt;UVV</title>
<path fill="none" stroke="#32bc00" stroke-width="2.5" d="M921.02,-419.66C1025.28,-433.6 1194.75,-456.25 1194.75,-456.25 1194.75,-456.25 1205.25,-471.34 1218.6,-490.53"/>
<polygon fill="#32bc00" stroke="#32bc00" stroke-width="2.5" points="1215.91,-492.18 1223.63,-497.77 1221.08,-488.59 1215.91,-492.18"/>
<text xml:space="preserve" text-anchor="start" x="1069.5" y="-466" font-family="sans-serif" font-style="italic" font-size="20.00" fill="#32bc00">runs</text>
</g>
<!-- UVV&#45;&gt;PPRT -->
<g id="edge8" class="edge">
<title>UVV&#45;&gt;PPRT</title>
<path fill="none" stroke="#00a2ff" stroke-width="2.5" d="M1226.02,-547.17C1209.36,-539.22 1194.75,-532.25 1194.75,-532.25 1194.75,-532.25 984,-532.25 984,-532.25 984,-532.25 976.49,-534.24 964.91,-537.3"/>
<polygon fill="#00a2ff" stroke="#00a2ff" stroke-width="2.5" points="964.23,-534.22 956.33,-539.57 965.84,-540.31 964.23,-534.22"/>
<text xml:space="preserve" text-anchor="start" x="1024.5" y="-542" font-family="sans-serif" font-style="italic" font-size="20.00" fill="#00a2ff">editable install</text>
</g>
<!-- UVV&#45;&gt;PPRT -->
<g id="edge16" class="edge">
<title>UVV&#45;&gt;PPRT</title>
<path fill="none" stroke="#ee220c" stroke-width="2.5" stroke-dasharray="5,2" d="M1226.02,-524.19C1209.36,-508.24 1194.75,-494.25 1194.75,-494.25 1194.75,-494.25 984,-494.25 984,-494.25 984,-494.25 971.4,-500.94 953.68,-510.34"/>
<polygon fill="#ee220c" stroke="#ee220c" stroke-width="2.5" points="952.53,-507.39 946.05,-514.39 955.48,-512.95 952.53,-507.39"/>
<text xml:space="preserve" text-anchor="start" x="984" y="-504" font-family="sans-serif" font-style="italic" font-size="20.00" fill="#ee220c">reads dependency specs</text>
</g>
<!-- UVV&#45;&gt;LOCK -->
<g id="edge7" class="edge">
<title>UVV&#45;&gt;LOCK</title>
<path fill="none" stroke="#00a2ff" stroke-width="2.5" d="M1242.15,-493.01C1220.13,-439.6 1194.75,-378 1194.75,-378 1194.75,-378 971,-174 971,-174 971,-174 962.81,-168.7 950.55,-160.76"/>
<polygon fill="#00a2ff" stroke="#00a2ff" stroke-width="2.5" points="952.36,-158.18 943.1,-155.94 948.94,-163.47 952.36,-158.18"/>
<text xml:space="preserve" text-anchor="start" x="1054.12" y="-400" font-family="sans-serif" font-style="italic" font-size="20.00" fill="#00a2ff">resolves</text>
<text xml:space="preserve" text-anchor="start" x="1047" y="-380" font-family="sans-serif" font-style="italic" font-size="20.00" fill="#00a2ff">&amp; exports</text>
</g>
<!-- UVV&#45;&gt;PD -->
<!-- UVV&#45;&gt;PD -->
<g id="edge10" class="edge">
<title>UVV&#45;&gt;PD</title>
<path fill="none" stroke="#32bc00" stroke-width="2.5" d="M1323.73,-571.21C1340.39,-571.63 1355,-572 1355,-572 1355,-572 1402.25,-572 1402.25,-572 1402.25,-572 1409.48,-571.91 1420.8,-571.76"/>
<polygon fill="#32bc00" stroke="#32bc00" stroke-width="2.5" points="1420.62,-574.91 1429.58,-571.64 1420.54,-568.61 1420.62,-574.91"/>
<text xml:space="preserve" text-anchor="start" x="1355" y="-581.75" font-family="sans-serif" font-style="italic" font-size="20.00" fill="#32bc00">syncs</text>
</g>
<!-- UVG -->
<g id="node1" class="node">
<title>UVG</title>
<path fill="#cccccc" fill-opacity="0.466667" stroke="none" d="M50.38,-542C50.38,-542 178.62,-542 178.62,-542 184.62,-542 190.62,-548 190.62,-554 190.62,-554 190.62,-644 190.62,-644 190.62,-650 184.62,-656 178.62,-656 178.62,-656 50.38,-656 50.38,-656 44.38,-656 38.38,-650 38.38,-644 38.38,-644 38.38,-554 38.38,-554 38.38,-548 44.38,-542 50.38,-542"/>
<polygon fill="none" stroke="#000000" points="39.38,-599 39.38,-655 189.62,-655 189.62,-599 39.38,-599"/>
<polygon fill="#b4a7e5" stroke="none" points="47.38,-607 47.38,-647 78.29,-647 78.29,-607 47.38,-607"/>
<polygon fill="none" stroke="#181818" points="47.38,-607 47.38,-647 78.29,-647 78.29,-607 47.38,-607"/>
<text xml:space="preserve" text-anchor="start" x="60.21" y="-621" font-family="sans-serif" font-size="16.00">I</text>
<text xml:space="preserve" text-anchor="start" x="121.79" y="-629" font-family="sans-serif" font-style="italic" font-size="20.00">«CLI»</text>
<text xml:space="preserve" text-anchor="start" x="134.54" y="-609" font-family="sans-serif" font-weight="bold" font-style="italic" font-size="20.00">uv</text>
<polygon fill="none" stroke="#000000" points="39.38,-543 39.38,-599 189.62,-599 189.62,-543 39.38,-543"/>
<text xml:space="preserve" text-anchor="start" x="47.38" y="-573" font-family="sans-serif" font-size="20.00" fill="#038048">∘</text>
<text xml:space="preserve" text-anchor="start" x="66.12" y="-573" font-family="sans-serif" font-size="20.00"> tool install()</text>
<text xml:space="preserve" text-anchor="start" x="47.38" y="-553" font-family="sans-serif" font-size="20.00" fill="#038048">∘</text>
<text xml:space="preserve" text-anchor="start" x="66.12" y="-553" font-family="sans-serif" font-size="20.00"> tool run()</text>
<path fill="none" stroke="#000000" d="M50.38,-542C50.38,-542 178.62,-542 178.62,-542 184.62,-542 190.62,-548 190.62,-554 190.62,-554 190.62,-644 190.62,-644 190.62,-650 184.62,-656 178.62,-656 178.62,-656 50.38,-656 50.38,-656 44.38,-656 38.38,-650 38.38,-644 38.38,-644 38.38,-554 38.38,-554 38.38,-548 44.38,-542 50.38,-542"/>
</g>
<!-- B -->
<g id="node2" class="node">
<title>B</title>
<path fill="#cccccc" fill-opacity="0.466667" stroke="none" d="M340,-513C340,-513 520,-513 520,-513 526,-513 532,-519 532,-525 532,-525 532,-615 532,-615 532,-621 526,-627 520,-627 520,-627 340,-627 340,-627 334,-627 328,-621 328,-615 328,-615 328,-525 328,-525 328,-519 334,-513 340,-513"/>
<polygon fill="none" stroke="#000000" points="329,-570 329,-626 531,-626 531,-570 329,-570"/>
<polygon fill="#b4a7e5" stroke="none" points="337,-578 337,-618 373.42,-618 373.42,-578 337,-578"/>
<polygon fill="none" stroke="#181818" points="337,-578 337,-618 373.42,-618 373.42,-578 337,-578"/>
<text xml:space="preserve" text-anchor="start" x="352.58" y="-592" font-family="sans-serif" font-size="16.00">I</text>
<text xml:space="preserve" text-anchor="start" x="442.79" y="-600" font-family="sans-serif" font-style="italic" font-size="20.00">«CLI»</text>
<text xml:space="preserve" text-anchor="start" x="425.17" y="-580" font-family="sans-serif" font-weight="bold" font-style="italic" font-size="20.00">buildben</text>
<polygon fill="none" stroke="#000000" points="329,-514 329,-570 531,-570 531,-514 329,-514"/>
<text xml:space="preserve" text-anchor="start" x="337" y="-544" font-family="sans-serif" font-size="20.00" fill="#038048">∘</text>
<text xml:space="preserve" text-anchor="start" x="355.75" y="-544" font-family="sans-serif" font-size="20.00"> init&#45;proj()</text>
<text xml:space="preserve" text-anchor="start" x="337" y="-524" font-family="sans-serif" font-size="20.00" fill="#038048">∘</text>
<text xml:space="preserve" text-anchor="start" x="355.75" y="-524" font-family="sans-serif" font-size="20.00"> add&#45;experiment()</text>
<path fill="none" stroke="#000000" d="M340,-513C340,-513 520,-513 520,-513 526,-513 532,-519 532,-525 532,-525 532,-615 532,-615 532,-621 526,-627 520,-627 520,-627 340,-627 340,-627 334,-627 328,-621 328,-615 328,-615 328,-525 328,-525 328,-519 334,-513 340,-513"/>
</g>
<!-- D -->
<g id="node3" class="node">
<title>D</title>
<path fill="#cccccc" fill-opacity="0.466667" stroke="none" d="M38,-270C38,-270 191,-270 191,-270 197,-270 203,-276 203,-282 203,-282 203,-392 203,-392 203,-398 197,-404 191,-404 191,-404 38,-404 38,-404 32,-404 26,-398 26,-392 26,-392 26,-282 26,-282 26,-276 32,-270 38,-270"/>
<polygon fill="none" stroke="#000000" points="27,-347 27,-403 202,-403 202,-347 27,-347"/>
<polygon fill="#b4a7e5" stroke="none" points="35,-355 35,-395 69.67,-395 69.67,-355 35,-355"/>
<polygon fill="none" stroke="#181818" points="35,-355 35,-395 69.67,-395 69.67,-355 35,-355"/>
<text xml:space="preserve" text-anchor="start" x="49.71" y="-369" font-family="sans-serif" font-size="16.00">I</text>
<text xml:space="preserve" text-anchor="start" x="125.54" y="-377" font-family="sans-serif" font-style="italic" font-size="20.00">«CLI»</text>
<text xml:space="preserve" text-anchor="start" x="118.79" y="-357" font-family="sans-serif" font-weight="bold" font-style="italic" font-size="20.00">Direnv</text>
<polygon fill="none" stroke="#000000" points="27,-271 27,-347 202,-347 202,-271 27,-271"/>
<text xml:space="preserve" text-anchor="start" x="35" y="-321" font-family="sans-serif" font-size="20.00" fill="#038048">∘</text>
<text xml:space="preserve" text-anchor="start" x="53.75" y="-321" font-family="sans-serif" font-size="20.00"> layout()</text>
<text xml:space="preserve" text-anchor="start" x="35" y="-301" font-family="sans-serif" font-size="20.00" fill="#038048">∘</text>
<text xml:space="preserve" text-anchor="start" x="53.75" y="-301" font-family="sans-serif" font-size="20.00"> direnv reload()</text>
<text xml:space="preserve" text-anchor="start" x="35" y="-281" font-family="sans-serif" font-size="20.00" fill="#038048">∘</text>
<text xml:space="preserve" text-anchor="start" x="53.75" y="-281" font-family="sans-serif" font-size="20.00"> direnv exec()</text>
<path fill="none" stroke="#000000" d="M38,-270C38,-270 191,-270 191,-270 197,-270 203,-276 203,-282 203,-282 203,-392 203,-392 203,-398 197,-404 191,-404 191,-404 38,-404 38,-404 32,-404 26,-398 26,-392 26,-392 26,-282 26,-282 26,-276 32,-270 38,-270"/>
</g>
<!-- J -->
<g id="node4" class="node">
<title>J</title>
<path fill="#cccccc" fill-opacity="0.466667" stroke="none" d="M85.88,-444C85.88,-444 143.12,-444 143.12,-444 149.12,-444 155.12,-450 155.12,-456 155.12,-456 155.12,-490 155.12,-490 155.12,-496 149.12,-502 143.12,-502 143.12,-502 85.88,-502 85.88,-502 79.88,-502 73.88,-496 73.88,-490 73.88,-490 73.88,-456 73.88,-456 73.88,-450 79.88,-444 85.88,-444"/>
<polygon fill="none" stroke="#000000" points="74.88,-445 74.88,-501 154.12,-501 154.12,-445 74.88,-445"/>
<polygon fill="#b4a7e5" stroke="none" points="82.88,-453 82.88,-493 90.12,-493 90.12,-453 82.88,-453"/>
<polygon fill="none" stroke="#181818" points="82.88,-453 82.88,-493 90.12,-493 90.12,-453 82.88,-453"/>
<text xml:space="preserve" text-anchor="start" x="83.88" y="-467" font-family="sans-serif" font-size="16.00">I</text>
<text xml:space="preserve" text-anchor="start" x="98.12" y="-475" font-family="sans-serif" font-style="italic" font-size="20.00">«CLI»</text>
<text xml:space="preserve" text-anchor="start" x="104.12" y="-455" font-family="sans-serif" font-weight="bold" font-style="italic" font-size="20.00">just</text>
<path fill="none" stroke="#000000" d="M85.88,-444C85.88,-444 143.12,-444 143.12,-444 149.12,-444 155.12,-450 155.12,-456 155.12,-456 155.12,-490 155.12,-490 155.12,-496 149.12,-502 143.12,-502 143.12,-502 85.88,-502 85.88,-502 79.88,-502 73.88,-496 73.88,-490 73.88,-490 73.88,-456 73.88,-456 73.88,-450 79.88,-444 85.88,-444"/>
</g>
<!-- PPRT -->
<g id="node5" class="node">
<title>PPRT</title>
<path fill="#cccccc" fill-opacity="0.466667" stroke="none" d="M739.5,-516C739.5,-516 941,-516 941,-516 947,-516 953,-522 953,-528 953,-528 953,-612 953,-612 953,-618 947,-624 941,-624 941,-624 739.5,-624 739.5,-624 733.5,-624 727.5,-618 727.5,-612 727.5,-612 727.5,-528 727.5,-528 727.5,-522 733.5,-516 739.5,-516"/>
<polygon fill="#add1b2" stroke="none" points="734.5,-577 734.5,-617 761.17,-617 761.17,-577 734.5,-577"/>
<polygon fill="none" stroke="#181818" points="734.5,-577 734.5,-617 761.17,-617 761.17,-577 734.5,-577"/>
<text xml:space="preserve" text-anchor="start" x="742.96" y="-591" font-family="sans-serif" font-size="16.00">C</text>
<text xml:space="preserve" text-anchor="start" x="826.79" y="-599" font-family="sans-serif" font-style="italic" font-size="20.00">«Config»</text>
<text xml:space="preserve" text-anchor="start" x="791.54" y="-579" font-family="sans-serif" font-weight="bold" font-size="20.00">pyproject.toml</text>
<text xml:space="preserve" text-anchor="start" x="734.5" y="-545" font-family="sans-serif" font-size="20.00" fill="#038048">∘</text>
<text xml:space="preserve" text-anchor="start" x="753.25" y="-545" font-family="sans-serif" font-size="20.00"> Dependencies</text>
<text xml:space="preserve" text-anchor="start" x="734.5" y="-525" font-family="sans-serif" font-size="20.00" fill="#038048">∘</text>
<text xml:space="preserve" text-anchor="start" x="753.25" y="-525" font-family="sans-serif" font-size="20.00"> Setup Configuration</text>
</g>
<!-- LOCK -->
<g id="node6" class="node">
<title>LOCK</title>
<path fill="#cccccc" fill-opacity="0.466667" stroke="none" d="M744,-26C744,-26 936.5,-26 936.5,-26 942.5,-26 948.5,-32 948.5,-38 948.5,-38 948.5,-142 948.5,-142 948.5,-148 942.5,-154 936.5,-154 936.5,-154 744,-154 744,-154 738,-154 732,-148 732,-142 732,-142 732,-38 732,-38 732,-32 738,-26 744,-26"/>
<polygon fill="#add1b2" stroke="none" points="739,-87 739,-147 772.42,-147 772.42,-87 739,-87"/>
<polygon fill="none" stroke="#181818" points="739,-87 739,-147 772.42,-147 772.42,-87 739,-87"/>
<text xml:space="preserve" text-anchor="start" x="750.83" y="-111" font-family="sans-serif" font-size="16.00">C</text>
<text xml:space="preserve" text-anchor="start" x="819.67" y="-129" font-family="sans-serif" font-style="italic" font-size="20.00">«Lock&#45;Files»</text>
<text xml:space="preserve" text-anchor="start" x="836.54" y="-109" font-family="sans-serif" font-weight="bold" font-size="20.00">uv.lock</text>
<text xml:space="preserve" text-anchor="start" x="812.92" y="-89" font-family="sans-serif" font-weight="bold" font-size="20.00">pylock.toml</text>
<text xml:space="preserve" text-anchor="start" x="739" y="-55" font-family="sans-serif" font-size="20.00" fill="#038048">∘</text>
<text xml:space="preserve" text-anchor="start" x="757.75" y="-55" font-family="sans-serif" font-size="20.00"> Dependencies</text>
<text xml:space="preserve" text-anchor="start" x="739" y="-35" font-family="sans-serif" font-size="20.00" fill="#038048">∘</text>
<text xml:space="preserve" text-anchor="start" x="757.75" y="-35" font-family="sans-serif" font-size="20.00"> Versions &amp; Sources</text>
</g>
<!-- ERC -->
<g id="node7" class="node">
<title>ERC</title>
<path fill="#cccccc" fill-opacity="0.466667" stroke="none" d="M759.75,-194C759.75,-194 920.75,-194 920.75,-194 926.75,-194 932.75,-200 932.75,-206 932.75,-206 932.75,-290 932.75,-290 932.75,-296 926.75,-302 920.75,-302 920.75,-302 759.75,-302 759.75,-302 753.75,-302 747.75,-296 747.75,-290 747.75,-290 747.75,-206 747.75,-206 747.75,-200 753.75,-194 759.75,-194"/>
<polygon fill="#add1b2" stroke="none" points="754.75,-255 754.75,-295 791.42,-295 791.42,-255 754.75,-255"/>
<polygon fill="none" stroke="#181818" points="754.75,-255 754.75,-295 791.42,-295 791.42,-255 754.75,-255"/>
<text xml:space="preserve" text-anchor="start" x="768.21" y="-269" font-family="sans-serif" font-size="16.00">C</text>
<text xml:space="preserve" text-anchor="start" x="836.79" y="-277" font-family="sans-serif" font-style="italic" font-size="20.00">«Config»</text>
<text xml:space="preserve" text-anchor="start" x="845.04" y="-257" font-family="sans-serif" font-weight="bold" font-size="20.00">.envrc</text>
<text xml:space="preserve" text-anchor="start" x="754.75" y="-223" font-family="sans-serif" font-size="20.00" fill="#038048">∘</text>
<text xml:space="preserve" text-anchor="start" x="773.5" y="-223" font-family="sans-serif" font-size="20.00"> PROJECT_NAME</text>
<text xml:space="preserve" text-anchor="start" x="754.75" y="-203" font-family="sans-serif" font-size="20.00" fill="#038048">∘</text>
<text xml:space="preserve" text-anchor="start" x="773.5" y="-203" font-family="sans-serif" font-size="20.00"> ENV_VARS</text>
</g>
<!-- JF -->
<g id="node8" class="node">
<title>JF</title>
<path fill="#cccccc" fill-opacity="0.466667" stroke="none" d="M771.25,-342C771.25,-342 909.25,-342 909.25,-342 915.25,-342 921.25,-348 921.25,-354 921.25,-354 921.25,-464 921.25,-464 921.25,-470 915.25,-476 909.25,-476 909.25,-476 771.25,-476 771.25,-476 765.25,-476 759.25,-470 759.25,-464 759.25,-464 759.25,-354 759.25,-354 759.25,-348 765.25,-342 771.25,-342"/>
<polygon fill="none" stroke="#444444" points="760.25,-419 760.25,-475 920.25,-475 920.25,-419 760.25,-419"/>
<polygon fill="#add1b2" stroke="none" points="768.25,-427 768.25,-467 793.17,-467 793.17,-427 768.25,-427"/>
<polygon fill="none" stroke="#181818" points="768.25,-427 768.25,-467 793.17,-467 793.17,-427 768.25,-427"/>
<text xml:space="preserve" text-anchor="start" x="775.83" y="-441" font-family="sans-serif" font-size="16.00">C</text>
<text xml:space="preserve" text-anchor="start" x="820.92" y="-449" font-family="sans-serif" font-style="italic" font-size="20.00">«Recipes»</text>
<text xml:space="preserve" text-anchor="start" x="828.79" y="-429" font-family="sans-serif" font-weight="bold" font-size="20.00">justfile</text>
<polygon fill="none" stroke="#444444" points="760.25,-343 760.25,-419 920.25,-419 920.25,-343 760.25,-343"/>
<text xml:space="preserve" text-anchor="start" x="768.25" y="-393" font-family="sans-serif" font-size="20.00" fill="#038048">∘</text>
<text xml:space="preserve" text-anchor="start" x="787" y="-393" font-family="sans-serif" font-size="20.00"> reset()</text>
<text xml:space="preserve" text-anchor="start" x="768.25" y="-373" font-family="sans-serif" font-size="20.00" fill="#038048">∘</text>
<text xml:space="preserve" text-anchor="start" x="787" y="-373" font-family="sans-serif" font-size="20.00"> install&#45;deps()</text>
<text xml:space="preserve" text-anchor="start" x="768.25" y="-353" font-family="sans-serif" font-size="20.00" fill="#038048">∘</text>
<text xml:space="preserve" text-anchor="start" x="787" y="-353" font-family="sans-serif" font-size="20.00"> ...()</text>
<path fill="none" stroke="#444444" d="M771.25,-342C771.25,-342 909.25,-342 909.25,-342 915.25,-342 921.25,-348 921.25,-354 921.25,-354 921.25,-464 921.25,-464 921.25,-470 915.25,-476 909.25,-476 909.25,-476 771.25,-476 771.25,-476 765.25,-476 759.25,-470 759.25,-464 759.25,-464 759.25,-354 759.25,-354 759.25,-348 765.25,-342 771.25,-342"/>
</g>
<!-- UVV -->
<g id="node9" class="node">
<title>UVV</title>
<path fill="#cccccc" fill-opacity="0.466667" stroke="none" d="M1237.75,-493C1237.75,-493 1312,-493 1312,-493 1318,-493 1324,-499 1324,-505 1324,-505 1324,-635 1324,-635 1324,-641 1318,-647 1312,-647 1312,-647 1237.75,-647 1237.75,-647 1231.75,-647 1225.75,-641 1225.75,-635 1225.75,-635 1225.75,-505 1225.75,-505 1225.75,-499 1231.75,-493 1237.75,-493"/>
<polygon fill="none" stroke="#444444" points="1226.75,-590 1226.75,-646 1323,-646 1323,-590 1226.75,-590"/>
<polygon fill="#b4a7e5" stroke="none" points="1234.75,-598 1234.75,-638 1245.42,-638 1245.42,-598 1234.75,-598"/>
<polygon fill="none" stroke="#181818" points="1234.75,-598 1234.75,-638 1245.42,-638 1245.42,-598 1234.75,-598"/>
<text xml:space="preserve" text-anchor="start" x="1237.46" y="-612" font-family="sans-serif" font-size="16.00">I</text>
<text xml:space="preserve" text-anchor="start" x="1258.54" y="-620" font-family="sans-serif" font-style="italic" font-size="20.00">«Tool»</text>
<text xml:space="preserve" text-anchor="start" x="1274.67" y="-600" font-family="sans-serif" font-weight="bold" font-style="italic" font-size="20.00">uv</text>
<polygon fill="none" stroke="#444444" points="1226.75,-494 1226.75,-590 1323,-590 1323,-494 1226.75,-494"/>
<text xml:space="preserve" text-anchor="start" x="1234.75" y="-564" font-family="sans-serif" font-size="20.00" fill="#038048">∘</text>
<text xml:space="preserve" text-anchor="start" x="1253.5" y="-564" font-family="sans-serif" font-size="20.00"> venv()</text>
<text xml:space="preserve" text-anchor="start" x="1234.75" y="-544" font-family="sans-serif" font-size="20.00" fill="#038048">∘</text>
<text xml:space="preserve" text-anchor="start" x="1253.5" y="-544" font-family="sans-serif" font-size="20.00"> lock()</text>
<text xml:space="preserve" text-anchor="start" x="1234.75" y="-524" font-family="sans-serif" font-size="20.00" fill="#038048">∘</text>
<text xml:space="preserve" text-anchor="start" x="1253.5" y="-524" font-family="sans-serif" font-size="20.00"> sync()</text>
<text xml:space="preserve" text-anchor="start" x="1234.75" y="-504" font-family="sans-serif" font-size="20.00" fill="#038048">∘</text>
<text xml:space="preserve" text-anchor="start" x="1253.5" y="-504" font-family="sans-serif" font-size="20.00"> run()</text>
<path fill="none" stroke="#444444" d="M1237.75,-493C1237.75,-493 1312,-493 1312,-493 1318,-493 1324,-499 1324,-505 1324,-505 1324,-635 1324,-635 1324,-641 1318,-647 1312,-647 1312,-647 1237.75,-647 1237.75,-647 1231.75,-647 1225.75,-641 1225.75,-635 1225.75,-635 1225.75,-505 1225.75,-505 1225.75,-499 1231.75,-493 1237.75,-493"/>
</g>
<!-- PD -->
<g id="node10" class="node">
<title>PD</title>
<path fill="#cccccc" fill-opacity="0.466667" stroke="none" d="M1445.25,-543C1445.25,-543 1668.75,-543 1668.75,-543 1674.75,-543 1680.75,-549 1680.75,-555 1680.75,-555 1680.75,-585 1680.75,-585 1680.75,-591 1674.75,-597 1668.75,-597 1668.75,-597 1445.25,-597 1445.25,-597 1439.25,-597 1433.25,-591 1433.25,-585 1433.25,-585 1433.25,-555 1433.25,-555 1433.25,-549 1439.25,-543 1445.25,-543"/>
<polygon fill="#add1b2" stroke="none" points="1440.25,-550 1440.25,-590 1452,-590 1452,-550 1440.25,-550"/>
<polygon fill="none" stroke="#181818" points="1440.25,-550 1440.25,-590 1452,-590 1452,-550 1440.25,-550"/>
<text xml:space="preserve" text-anchor="start" x="1441.25" y="-564" font-family="sans-serif" font-size="16.00">C</text>
<text xml:space="preserve" text-anchor="start" x="1541" y="-572" font-family="sans-serif" font-style="italic" font-size="20.00">«Pkg»</text>
<text xml:space="preserve" text-anchor="start" x="1460" y="-552" font-family="sans-serif" font-weight="bold" font-size="20.00">python dependencies</text>
</g>
</g>
</svg>
