<?xml version="1.0" encoding="UTF-8" standalone="no"?>
<!DOCTYPE svg PUBLIC "-//W3C//DTD SVG 1.1//EN"
 "http://www.w3.org/Graphics/SVG/1.1/DTD/svg11.dtd">
<!-- Generated by graphviz version 15.0.0 (20260523.1842)
 -->
<!-- Title: diagram_simple_graphviz Pages: 1 -->
<svg width="900px" height="284px"
 viewBox="-132.5 0 900 284" xmlns="http://www.w3.org/2000/svg" xmlns:xlink="http://www.w3.org/1999/xlink">
<g id="graph0" class="graph" transform="scale(0.758255 0.758255) rotate(0) translate(2.88 372.16)">
<title>diagram_simple_graphviz</title>
<g id="clust1" class="cluster">
<title>cluster_GE</title>
<path fill="#afb200" fill-opacity="0.098039" stroke="#afb200" stroke-width="2" d="M12,-131.28C12,-131.28 118.75,-131.28 118.75,-131.28 124.75,-131.28 130.75,-137.28 130.75,-143.28 130.75,-143.28 130.75,-261.28 130.75,-261.28 130.75,-267.28 124.75,-273.28 118.75,-273.28 118.75,-273.28 12,-273.28 12,-273.28 6,-273.28 0,-267.28 0,-261.28 0,-261.28 0,-143.28 0,-143.28 0,-137.28 6,-131.28 12,-131.28"/>
<text xml:space="preserve" text-anchor="middle" x="65.38" y="-259.78" font-family="sans-serif" font-size="10.00" fill="#afb200">Operating System</text>
<text xml:space="preserve" text-anchor="middle" x="65.38" y="-245.53" font-family="sans-serif" font-size="10.00" fill="#afb200">&lt;&lt;Global Environment&gt;&gt;</text>
</g>
<g id="clust2" class="cluster">
<title>cluster_PDIR</title>
<path fill="#00a2ff" fill-opacity="0.098039" stroke="#00a2ff" stroke-width="2" d="M258.25,-20.28C258.25,-20.28 346,-20.28 346,-20.28 352,-20.28 358,-26.28 358,-32.28 358,-32.28 358,-349.28 358,-349.28 358,-355.28 352,-361.28 346,-361.28 346,-361.28 258.25,-361.28 258.25,-361.28 252.25,-361.28 246.25,-355.28 246.25,-349.28 246.25,-349.28 246.25,-32.28 246.25,-32.28 246.25,-26.28 252.25,-20.28 258.25,-20.28"/>
<text xml:space="preserve" text-anchor="middle" x="302.12" y="-347.78" font-family="sans-serif" font-size="10.00" fill="#00a2ff">Project Directory</text>
<text xml:space="preserve" text-anchor="middle" x="302.12" y="-333.53" font-family="sans-serif" font-size="10.00" fill="#00a2ff">&lt;&lt;Directory&gt;&gt;</text>
</g>
<g id="clust3" class="cluster">
<title>cluster_VENV</title>
<path fill="#32bc00" fill-opacity="0.098039" stroke="#32bc00" stroke-width="2" d="M711.75,-160.28C711.75,-160.28 819.25,-160.28 819.25,-160.28 825.25,-160.28 831.25,-166.28 831.25,-172.28 831.25,-172.28 831.25,-233.28 831.25,-233.28 831.25,-239.28 825.25,-245.28 819.25,-245.28 819.25,-245.28 711.75,-245.28 711.75,-245.28 705.75,-245.28 699.75,-239.28 699.75,-233.28 699.75,-233.28 699.75,-172.28 699.75,-172.28 699.75,-166.28 705.75,-160.28 711.75,-160.28"/>
<text xml:space="preserve" text-anchor="middle" x="765.5" y="-231.78" font-family="sans-serif" font-size="10.00" fill="#32bc00">.venv</text>
<text xml:space="preserve" text-anchor="middle" x="765.5" y="-217.53" font-family="sans-serif" font-size="10.00" fill="#32bc00">&lt;&lt;Virtual Environment&gt;&gt;</text>
</g>
<!-- UV&#45;&gt;PPRT -->
<!-- UV&#45;&gt;PPRT -->
<g id="edge10" class="edge">
<title>UV&#45;&gt;PPRT</title>
<path fill="none" stroke="#ee220c" stroke-width="2.5" stroke-dasharray="5,2" d="M114.12,-164.81C142.07,-155.83 178.01,-148.23 210.25,-153.53 219.35,-155.03 228.76,-157.32 237.92,-159.98"/>
<polygon fill="#ee220c" stroke="#ee220c" stroke-width="2.5" points="236.97,-162.44 244.91,-162.14 238.52,-157.42 236.97,-162.44"/>
<polygon fill="#ee220c" stroke="none" points="166.75,-153.53 166.75,-172.28 210.25,-172.28 210.25,-153.53 166.75,-153.53"/>
<text xml:space="preserve" text-anchor="start" x="169.75" y="-161.73" font-family="sans-serif" font-weight="bold" font-size="9.00" fill="#ffffff">requires</text>
<polygon fill="none" stroke="#ee220c" points="166.75,-153.53 166.75,-172.28 210.25,-172.28 210.25,-153.53 166.75,-153.53"/>
</g>
<!-- UV&#45;&gt;LOCK -->
<g id="edge5" class="edge">
<title>UV&#45;&gt;LOCK</title>
<path fill="none" stroke="#00a2ff" stroke-width="2.5" d="M114.09,-152.45C130.52,-142.1 149.18,-130.88 166.75,-121.53 191.63,-108.29 220.01,-95.28 244.25,-84.76"/>
<polygon fill="#00a2ff" stroke="#00a2ff" stroke-width="2.5" points="245.04,-87.28 250.89,-81.9 242.96,-82.45 245.04,-87.28"/>
<polygon fill="#00a2ff" stroke="none" points="166.75,-121.53 166.75,-140.28 210.25,-140.28 210.25,-121.53 166.75,-121.53"/>
<text xml:space="preserve" text-anchor="start" x="169.75" y="-129.73" font-family="sans-serif" font-weight="bold" font-size="9.00" fill="#ffffff">resolves</text>
<polygon fill="none" stroke="#00a2ff" points="166.75,-121.53 166.75,-140.28 210.25,-140.28 210.25,-121.53 166.75,-121.53"/>
</g>
<!-- UV&#45;&gt;LOCK -->
<g id="edge11" class="edge">
<title>UV&#45;&gt;LOCK</title>
<path fill="none" stroke="#ee220c" stroke-width="2.5" stroke-dasharray="5,2" d="M96.97,-133.92C114.39,-110.38 138.33,-84.51 166.75,-70.53 190.13,-59.03 218.62,-55.79 243.34,-55.8"/>
<polygon fill="#ee220c" stroke="#ee220c" stroke-width="2.5" points="243.06,-58.42 250.61,-55.94 243.17,-53.17 243.06,-58.42"/>
<polygon fill="#ee220c" stroke="none" points="173.12,-70.53 173.12,-89.28 203.88,-89.28 203.88,-70.53 173.12,-70.53"/>
<text xml:space="preserve" text-anchor="start" x="176.12" y="-78.73" font-family="sans-serif" font-weight="bold" font-size="9.00" fill="#ffffff">reads</text>
<polygon fill="none" stroke="#ee220c" points="173.12,-70.53 173.12,-89.28 203.88,-89.28 203.88,-70.53 173.12,-70.53"/>
</g>
<!-- UV&#45;&gt;PKG -->
<g id="edge7" class="edge">
<title>UV&#45;&gt;PKG</title>
<path fill="none" stroke="#32bc00" stroke-width="4" d="M94.18,-133.81C112.1,-105.31 137.41,-70.64 166.75,-46.28 196.89,-21.27 208.06,-16.94 246.25,-8.28 429.27,33.21 638.33,-94.3 724.11,-154.57"/>
<polygon fill="#32bc00" stroke="#32bc00" stroke-width="4" points="722.58,-156.7 730.21,-158.91 725.63,-152.42 722.58,-156.7"/>
<polygon fill="#32bc00" stroke="none" points="394,-21 394,-45 458.5,-45 458.5,-21 394,-21"/>
<text xml:space="preserve" text-anchor="start" x="397" y="-34.45" font-family="sans-serif" font-weight="bold" font-size="9.00" fill="#ffffff">creates .venv</text>
<text xml:space="preserve" text-anchor="start" x="409.38" y="-25.45" font-family="sans-serif" font-weight="bold" font-size="9.00" fill="#ffffff">&amp; syncs</text>
<polygon fill="none" stroke="#32bc00" points="394,-21 394,-45 458.5,-45 458.5,-21 394,-21"/>
</g>
<!-- APP&#45;&gt;PKG -->
<g id="edge9" class="edge">
<title>APP&#45;&gt;PKG</title>
<path fill="none" stroke="#ee220c" stroke-width="2.5" stroke-dasharray="5,2" d="M338.84,-291.78C392.93,-285.99 498.59,-272.76 586,-250.28 621.57,-241.13 629.3,-235.01 663.75,-222.28 676.91,-217.42 691,-212.13 704.35,-207.08"/>
<polygon fill="#ee220c" stroke="#ee220c" stroke-width="2.5" points="705.23,-209.55 711.32,-204.44 703.37,-204.64 705.23,-209.55"/>
<polygon fill="#ee220c" stroke="none" points="519.5,-268.75 519.5,-287.5 563,-287.5 563,-268.75 519.5,-268.75"/>
<text xml:space="preserve" text-anchor="start" x="522.5" y="-276.95" font-family="sans-serif" font-weight="bold" font-size="9.00" fill="#ffffff">requires</text>
<polygon fill="none" stroke="#ee220c" points="519.5,-268.75 519.5,-287.5 563,-287.5 563,-268.75 519.5,-268.75"/>
</g>
<!-- PPRT&#45;&gt;USER -->
<!-- USER&#45;&gt;PPRT -->
<g id="edge4" class="edge">
<title>USER&#45;&gt;PPRT</title>
<path fill="none" stroke="#00a2ff" stroke-width="2.5" d="M496.53,-164.54C484.45,-160 471.18,-155.84 458.5,-153.53 430.3,-148.4 422.29,-148.88 394,-153.53 384.9,-155.03 375.49,-157.32 366.33,-159.98"/>
<polygon fill="#00a2ff" stroke="#00a2ff" stroke-width="2.5" points="365.73,-157.42 359.34,-162.14 367.28,-162.44 365.73,-157.42"/>
<polygon fill="#00a2ff" stroke="none" points="412,-153.53 412,-172.28 440.5,-172.28 440.5,-153.53 412,-153.53"/>
<text xml:space="preserve" text-anchor="start" x="415" y="-161.73" font-family="sans-serif" font-weight="bold" font-size="9.00" fill="#ffffff">edits</text>
<polygon fill="none" stroke="#00a2ff" points="412,-153.53 412,-172.28 440.5,-172.28 440.5,-153.53 412,-153.53"/>
</g>
<!-- USER&#45;&gt;LOCK -->
<g id="edge6" class="edge">
<title>USER&#45;&gt;LOCK</title>
<path fill="none" stroke="#00a2ff" stroke-width="2.5" d="M496.63,-145.67C484.78,-136.33 471.58,-126.92 458.5,-119.53 427.54,-102.04 390.31,-87.87 360.05,-77.89"/>
<polygon fill="#00a2ff" stroke="#00a2ff" stroke-width="2.5" points="361.21,-75.51 353.27,-75.7 359.6,-80.5 361.21,-75.51"/>
<polygon fill="#00a2ff" stroke="none" points="406,-119.53 406,-138.28 446.5,-138.28 446.5,-119.53 406,-119.53"/>
<text xml:space="preserve" text-anchor="start" x="409" y="-127.73" font-family="sans-serif" font-weight="bold" font-size="9.00" fill="#ffffff">reviews</text>
<polygon fill="none" stroke="#00a2ff" points="406,-119.53 406,-138.28 446.5,-138.28 446.5,-119.53 406,-119.53"/>
</g>
<!-- USER&#45;&gt;PKG -->
<!-- USER&#45;&gt;PKG -->
<g id="edge8" class="edge">
<title>USER&#45;&gt;PKG</title>
<path fill="none" stroke="#32bc00" stroke-width="2.5" d="M585.97,-164.54C598.05,-160 611.32,-155.84 624,-153.53 650.45,-148.72 679.5,-153.45 704.25,-160.51"/>
<polygon fill="#32bc00" stroke="#32bc00" stroke-width="2.5" points="703.38,-162.99 711.32,-162.68 704.91,-157.97 703.38,-162.99"/>
<polygon fill="#32bc00" stroke="none" points="624,-153.53 624,-172.28 663.75,-172.28 663.75,-153.53 624,-153.53"/>
<text xml:space="preserve" text-anchor="start" x="627" y="-161.73" font-family="sans-serif" font-weight="bold" font-size="9.00" fill="#ffffff">uses uv</text>
<polygon fill="none" stroke="#32bc00" points="624,-153.53 624,-172.28 663.75,-172.28 663.75,-153.53 624,-153.53"/>
</g>
<!-- UV -->
<g id="node1" class="node">
<title>UV</title>
<path fill="#cccccc" fill-opacity="0.466667" stroke="none" d="M27.62,-133.78C27.62,-133.78 102.12,-133.78 102.12,-133.78 108.12,-133.78 114.12,-139.78 114.12,-145.78 114.12,-145.78 114.12,-222.78 114.12,-222.78 114.12,-228.78 108.12,-234.78 102.12,-234.78 102.12,-234.78 27.62,-234.78 27.62,-234.78 21.62,-234.78 15.62,-228.78 15.62,-222.78 15.62,-222.78 15.62,-145.78 15.62,-145.78 15.62,-139.78 21.62,-133.78 27.62,-133.78"/>
<polygon fill="#b4a7e5" stroke="none" points="23.62,-206.78 23.62,-226.78 44.79,-226.78 44.79,-206.78 23.62,-206.78"/>
<polygon fill="none" stroke="#181818" points="23.62,-206.78 23.62,-226.78 44.79,-226.78 44.79,-206.78 23.62,-206.78"/>
<text xml:space="preserve" text-anchor="start" x="32.33" y="-212.66" font-family="sans-serif" font-size="10.00">I</text>
<text xml:space="preserve" text-anchor="start" x="75.92" y="-218.28" font-family="sans-serif" font-style="italic" font-size="10.00">«CLI»</text>
<text xml:space="preserve" text-anchor="start" x="81.54" y="-208.28" font-family="sans-serif" font-weight="bold" font-style="italic" font-size="10.00">uv</text>
<polygon fill="#000000" stroke="none" points="16.62,-198.78 16.62,-199.78 113.12,-199.78 113.12,-198.78 16.62,-198.78"/>
<text xml:space="preserve" text-anchor="start" x="23.62" y="-183.28" font-family="sans-serif" font-size="10.00" fill="#038048">∘</text>
<text xml:space="preserve" text-anchor="start" x="36.38" y="-183.28" font-family="sans-serif" font-size="10.00"> python install()</text>
<text xml:space="preserve" text-anchor="start" x="23.62" y="-173.28" font-family="sans-serif" font-size="10.00" fill="#038048">∘</text>
<text xml:space="preserve" text-anchor="start" x="36.38" y="-173.28" font-family="sans-serif" font-size="10.00"> venv()</text>
<text xml:space="preserve" text-anchor="start" x="23.62" y="-163.28" font-family="sans-serif" font-size="10.00" fill="#038048">∘</text>
<text xml:space="preserve" text-anchor="start" x="36.38" y="-163.28" font-family="sans-serif" font-size="10.00"> lock()</text>
<text xml:space="preserve" text-anchor="start" x="23.62" y="-153.28" font-family="sans-serif" font-size="10.00" fill="#038048">∘</text>
<text xml:space="preserve" text-anchor="start" x="36.38" y="-153.28" font-family="sans-serif" font-size="10.00"> sync()</text>
<text xml:space="preserve" text-anchor="start" x="23.62" y="-143.28" font-family="sans-serif" font-size="10.00" fill="#038048">∘</text>
<text xml:space="preserve" text-anchor="start" x="36.38" y="-143.28" font-family="sans-serif" font-size="10.00"> run()</text>
<path fill="none" stroke="#000000" d="M27.62,-133.78C27.62,-133.78 102.12,-133.78 102.12,-133.78 108.12,-133.78 114.12,-139.78 114.12,-145.78 114.12,-145.78 114.12,-222.78 114.12,-222.78 114.12,-228.78 108.12,-234.78 102.12,-234.78 102.12,-234.78 27.62,-234.78 27.62,-234.78 21.62,-234.78 15.62,-228.78 15.62,-222.78 15.62,-222.78 15.62,-145.78 15.62,-145.78 15.62,-139.78 21.62,-133.78 27.62,-133.78"/>
</g>
<!-- APP -->
<g id="node2" class="node">
<title>APP</title>
<path fill="#cccccc" fill-opacity="0.466667" stroke="none" d="M277,-268.28C277,-268.28 327.25,-268.28 327.25,-268.28 333.25,-268.28 339.25,-274.28 339.25,-280.28 339.25,-280.28 339.25,-310.28 339.25,-310.28 339.25,-316.28 333.25,-322.28 327.25,-322.28 327.25,-322.28 277,-322.28 277,-322.28 271,-322.28 265,-316.28 265,-310.28 265,-310.28 265,-280.28 265,-280.28 265,-274.28 271,-268.28 277,-268.28"/>
<polygon fill="#add1b2" stroke="none" points="272,-275.28 272,-315.28 280,-315.28 280,-275.28 272,-275.28"/>
<polygon fill="none" stroke="#181818" points="272,-275.28 272,-315.28 280,-315.28 280,-275.28 272,-275.28"/>
<text xml:space="preserve" text-anchor="start" x="273" y="-291.16" font-family="sans-serif" font-size="10.00">C</text>
<text xml:space="preserve" text-anchor="start" x="298.5" y="-306.78" font-family="sans-serif" font-style="italic" font-size="10.00">«File»</text>
<text xml:space="preserve" text-anchor="start" x="289.88" y="-296.78" font-family="sans-serif" font-weight="bold" font-size="10.00">main.py</text>
<text xml:space="preserve" text-anchor="start" x="288" y="-286.78" font-family="sans-serif" font-weight="bold" font-size="10.00">(or other</text>
<text xml:space="preserve" text-anchor="start" x="296.62" y="-276.78" font-family="sans-serif" font-weight="bold" font-size="10.00">code)</text>
</g>
<!-- PPRT -->
<g id="node3" class="node">
<title>PPRT</title>
<path fill="#cccccc" fill-opacity="0.466667" stroke="none" d="M260.25,-150.28C260.25,-150.28 344,-150.28 344,-150.28 350,-150.28 356,-156.28 356,-162.28 356,-162.28 356,-206.28 356,-206.28 356,-212.28 350,-218.28 344,-218.28 344,-218.28 260.25,-218.28 260.25,-218.28 254.25,-218.28 248.25,-212.28 248.25,-206.28 248.25,-206.28 248.25,-162.28 248.25,-162.28 248.25,-156.28 254.25,-150.28 260.25,-150.28"/>
<polygon fill="#add1b2" stroke="none" points="255.25,-191.28 255.25,-211.28 264.67,-211.28 264.67,-191.28 255.25,-191.28"/>
<polygon fill="none" stroke="#181818" points="255.25,-191.28 255.25,-211.28 264.67,-211.28 264.67,-191.28 255.25,-191.28"/>
<text xml:space="preserve" text-anchor="start" x="256.96" y="-197.16" font-family="sans-serif" font-size="10.00">C</text>
<text xml:space="preserve" text-anchor="start" x="292.04" y="-202.78" font-family="sans-serif" font-style="italic" font-size="10.00">«Config»</text>
<text xml:space="preserve" text-anchor="start" x="274.79" y="-192.78" font-family="sans-serif" font-weight="bold" font-size="10.00">pyproject.toml</text>
<polygon fill="none" stroke="none" points="248.25,-184.28 248.25,-184.28 356,-184.28 356,-184.28 248.25,-184.28"/>
<text xml:space="preserve" text-anchor="start" x="255.25" y="-168.78" font-family="sans-serif" font-size="10.00" fill="#038048">∘</text>
<text xml:space="preserve" text-anchor="start" x="268" y="-168.78" font-family="sans-serif" font-size="10.00"> Dependencies</text>
<text xml:space="preserve" text-anchor="start" x="255.25" y="-158.78" font-family="sans-serif" font-size="10.00" fill="#038048">∘</text>
<text xml:space="preserve" text-anchor="start" x="268" y="-158.78" font-family="sans-serif" font-size="10.00"> Project Metadata</text>
</g>
<!-- LOCK -->
<g id="node4" class="node">
<title>LOCK</title>
<path fill="#cccccc" fill-opacity="0.466667" stroke="none" d="M266.25,-22.28C266.25,-22.28 338,-22.28 338,-22.28 344,-22.28 350,-28.28 350,-34.28 350,-34.28 350,-88.28 350,-88.28 350,-94.28 344,-100.28 338,-100.28 338,-100.28 266.25,-100.28 266.25,-100.28 260.25,-100.28 254.25,-94.28 254.25,-88.28 254.25,-88.28 254.25,-34.28 254.25,-34.28 254.25,-28.28 260.25,-22.28 266.25,-22.28"/>
<polygon fill="#add1b2" stroke="none" points="261.25,-73.28 261.25,-93.28 275.67,-93.28 275.67,-73.28 261.25,-73.28"/>
<polygon fill="none" stroke="#181818" points="261.25,-73.28 261.25,-93.28 275.67,-93.28 275.67,-73.28 261.25,-73.28"/>
<text xml:space="preserve" text-anchor="start" x="265.46" y="-79.16" font-family="sans-serif" font-size="10.00">C</text>
<text xml:space="preserve" text-anchor="start" x="293.29" y="-84.78" font-family="sans-serif" font-style="italic" font-size="10.00">«Lock&#45;File»</text>
<text xml:space="preserve" text-anchor="start" x="298.92" y="-74.78" font-family="sans-serif" font-weight="bold" font-size="10.00">uv.lock</text>
<polygon fill="none" stroke="none" points="254.25,-66.28 254.25,-66.28 350,-66.28 350,-66.28 254.25,-66.28"/>
<text xml:space="preserve" text-anchor="start" x="261.25" y="-50.78" font-family="sans-serif" font-size="10.00" fill="#038048">∘</text>
<text xml:space="preserve" text-anchor="start" x="274" y="-50.78" font-family="sans-serif" font-size="10.00"> Dependencies</text>
<text xml:space="preserve" text-anchor="start" x="261.25" y="-40.78" font-family="sans-serif" font-size="10.00" fill="#038048">∘</text>
<text xml:space="preserve" text-anchor="start" x="274" y="-40.78" font-family="sans-serif" font-size="10.00"> Versions</text>
<text xml:space="preserve" text-anchor="start" x="261.25" y="-30.78" font-family="sans-serif" font-size="10.00" fill="#038048">∘</text>
<text xml:space="preserve" text-anchor="start" x="274" y="-30.78" font-family="sans-serif" font-size="10.00"> Sources</text>
</g>
<!-- PKG -->
<g id="node5" class="node">
<title>PKG</title>
<path fill="#cccccc" fill-opacity="0.466667" stroke="none" d="M726.75,-162.28C726.75,-162.28 803.25,-162.28 803.25,-162.28 809.25,-162.28 815.25,-168.28 815.25,-174.28 815.25,-174.28 815.25,-194.28 815.25,-194.28 815.25,-200.28 809.25,-206.28 803.25,-206.28 803.25,-206.28 726.75,-206.28 726.75,-206.28 720.75,-206.28 714.75,-200.28 714.75,-194.28 714.75,-194.28 714.75,-174.28 714.75,-174.28 714.75,-168.28 720.75,-162.28 726.75,-162.28"/>
<polygon fill="#add1b2" stroke="none" points="721.75,-169.28 721.75,-199.28 729.75,-199.28 729.75,-169.28 721.75,-169.28"/>
<polygon fill="none" stroke="#181818" points="721.75,-169.28 721.75,-199.28 729.75,-199.28 729.75,-169.28 721.75,-169.28"/>
<text xml:space="preserve" text-anchor="start" x="722.75" y="-180.16" font-family="sans-serif" font-size="10.00">C</text>
<text xml:space="preserve" text-anchor="start" x="759.88" y="-190.78" font-family="sans-serif" font-style="italic" font-size="10.00">«Pkg»</text>
<text xml:space="preserve" text-anchor="start" x="755" y="-180.78" font-family="sans-serif" font-weight="bold" font-size="10.00">Python</text>
<text xml:space="preserve" text-anchor="start" x="737.75" y="-170.78" font-family="sans-serif" font-weight="bold" font-size="10.00">Dependencies</text>
</g>
<!-- USER -->
<g id="node6" class="node">
<title>USER</title>
<path fill="#cccccc" fill-opacity="0.466667" stroke="none" d="M508.5,-143.78C508.5,-143.78 574,-143.78 574,-143.78 580,-143.78 586,-149.78 586,-155.78 586,-155.78 586,-212.78 586,-212.78 586,-218.78 580,-224.78 574,-224.78 574,-224.78 508.5,-224.78 508.5,-224.78 502.5,-224.78 496.5,-218.78 496.5,-212.78 496.5,-212.78 496.5,-155.78 496.5,-155.78 496.5,-149.78 502.5,-143.78 508.5,-143.78"/>
<polygon fill="#a9dcdf" stroke="none" points="504.5,-196.78 504.5,-216.78 521.67,-216.78 521.67,-196.78 504.5,-196.78"/>
<polygon fill="none" stroke="#181818" points="504.5,-196.78 504.5,-216.78 521.67,-216.78 521.67,-196.78 504.5,-196.78"/>
<text xml:space="preserve" text-anchor="start" x="509.71" y="-202.66" font-family="sans-serif" font-size="10.00">A</text>
<text xml:space="preserve" text-anchor="start" x="542.29" y="-208.28" font-family="sans-serif" font-style="italic" font-size="10.00">«Actor»</text>
<text xml:space="preserve" text-anchor="start" x="547.54" y="-198.28" font-family="sans-serif" font-weight="bold" font-style="italic" font-size="10.00">User</text>
<polygon fill="#666666" stroke="none" points="497.5,-188.78 497.5,-189.78 585,-189.78 585,-188.78 497.5,-188.78"/>
<text xml:space="preserve" text-anchor="start" x="504.5" y="-173.28" font-family="sans-serif" font-size="10.00" fill="#038048">∘</text>
<text xml:space="preserve" text-anchor="start" x="517.25" y="-173.28" font-family="sans-serif" font-size="10.00"> uses uv</text>
<text xml:space="preserve" text-anchor="start" x="504.5" y="-163.28" font-family="sans-serif" font-size="10.00" fill="#038048">∘</text>
<text xml:space="preserve" text-anchor="start" x="517.25" y="-163.28" font-family="sans-serif" font-size="10.00"> reviews locks</text>
<text xml:space="preserve" text-anchor="start" x="504.5" y="-153.28" font-family="sans-serif" font-size="10.00" fill="#038048">∘</text>
<text xml:space="preserve" text-anchor="start" x="517.25" y="-153.28" font-family="sans-serif" font-size="10.00"> codes</text>
<path fill="none" stroke="#666666" d="M508.5,-143.78C508.5,-143.78 574,-143.78 574,-143.78 580,-143.78 586,-149.78 586,-155.78 586,-155.78 586,-212.78 586,-212.78 586,-218.78 580,-224.78 574,-224.78 574,-224.78 508.5,-224.78 508.5,-224.78 502.5,-224.78 496.5,-218.78 496.5,-212.78 496.5,-212.78 496.5,-155.78 496.5,-155.78 496.5,-149.78 502.5,-143.78 508.5,-143.78"/>
</g>
</g>
</svg>
