<?xml version="1.0" encoding="UTF-8" standalone="no"?>
<!DOCTYPE svg PUBLIC "-//W3C//DTD SVG 1.1//EN"
 "http://www.w3.org/Graphics/SVG/1.1/DTD/svg11.dtd">
<!-- Generated by graphviz version 15.0.0 (20260523.1842)
 -->
<!-- Title: graphical_abstract_init_proj_graphviz Pages: 1 -->
<svg width="900px" height="456px"
 viewBox="-132.5 0 900 456" xmlns="http://www.w3.org/2000/svg" xmlns:xlink="http://www.w3.org/1999/xlink">
<g id="graph0" class="graph" transform="scale(0.783288 0.783288) rotate(0) translate(2.88 579.63)">
<title>graphical_abstract_init_proj_graphviz</title>
<g id="clust1" class="cluster">
<title>cluster_BB</title>
<path fill="#afb200" fill-opacity="0.098039" stroke="#afb200" stroke-width="2" d="M28,-388.75C28,-388.75 322,-388.75 322,-388.75 328,-388.75 334,-394.75 334,-400.75 334,-400.75 334,-556.75 334,-556.75 334,-562.75 328,-568.75 322,-568.75 322,-568.75 28,-568.75 28,-568.75 22,-568.75 16,-562.75 16,-556.75 16,-556.75 16,-400.75 16,-400.75 16,-394.75 22,-388.75 28,-388.75"/>
<text xml:space="preserve" text-anchor="middle" x="175" y="-555.25" font-family="sans-serif" font-size="10.00" fill="#afb200">buildben</text>
<text xml:space="preserve" text-anchor="middle" x="175" y="-541" font-family="sans-serif" font-size="10.00" fill="#afb200">&lt;&lt;Python Package&gt;&gt;</text>
</g>
<g id="clust2" class="cluster">
<title>cluster_P</title>
<path fill="#00a2ff" fill-opacity="0.098039" stroke="#00a2ff" stroke-width="2" d="M490.5,-395.75C490.5,-395.75 784.5,-395.75 784.5,-395.75 790.5,-395.75 796.5,-401.75 796.5,-407.75 796.5,-407.75 796.5,-549.75 796.5,-549.75 796.5,-555.75 790.5,-561.75 784.5,-561.75 784.5,-561.75 490.5,-561.75 490.5,-561.75 484.5,-561.75 478.5,-555.75 478.5,-549.75 478.5,-549.75 478.5,-407.75 478.5,-407.75 478.5,-401.75 484.5,-395.75 490.5,-395.75"/>
<text xml:space="preserve" text-anchor="middle" x="637.5" y="-548.25" font-family="sans-serif" font-size="10.00" fill="#00a2ff">Project</text>
<text xml:space="preserve" text-anchor="middle" x="637.5" y="-534" font-family="sans-serif" font-size="10.00" fill="#00a2ff">&lt;&lt;Directory &amp; Environment&gt;&gt;</text>
</g>
<!-- TEMP&#45;&gt;BBinitcli -->
<g id="edge1" class="edge">
<title>TEMP&#45;&gt;BBinitcli</title>
<path fill="none" stroke="#afb200" stroke-width="2.5" d="M95.37,-460.75C130.55,-460.75 183.62,-460.75 224.27,-460.75"/>
<polygon fill="#afb200" stroke="#afb200" stroke-width="2.5" points="224.1,-463.38 231.6,-460.75 224.1,-458.13 224.1,-463.38"/>
<polygon fill="#afb200" stroke="none" points="149.5,-460.75 149.5,-479.5 199,-479.5 199,-460.75 149.5,-460.75"/>
<text xml:space="preserve" text-anchor="start" x="152.5" y="-468.95" font-family="sans-serif" font-weight="bold" font-size="9.00" fill="#ffffff">copied by</text>
<polygon fill="none" stroke="#afb200" points="149.5,-460.75 149.5,-479.5 199,-479.5 199,-460.75 149.5,-460.75"/>
</g>
<!-- TEMP&#45;&gt;Standards -->
<g id="edge5" class="edge">
<title>TEMP&#45;&gt;Standards</title>
<path fill="none" stroke="#ee220c" stroke-width="2.5" stroke-dasharray="5,2" d="M56.75,-391.22C56.75,-358.72 56.75,-318.73 56.75,-280.09"/>
<polygon fill="#ee220c" stroke="#ee220c" stroke-width="2.5" points="59.38,-280.51 56.75,-273.01 54.13,-280.51 59.38,-280.51"/>
<polygon fill="#ee220c" stroke="none" points="13.25,-320.88 13.25,-339.62 75.5,-339.62 75.5,-320.88 13.25,-320.88"/>
<text xml:space="preserve" text-anchor="start" x="16.25" y="-329.07" font-family="sans-serif" font-weight="bold" font-size="9.00" fill="#ffffff">comply with</text>
<polygon fill="none" stroke="#ee220c" points="13.25,-320.88 13.25,-339.62 75.5,-339.62 75.5,-320.88 13.25,-320.88"/>
</g>
<!-- BBinitcli&#45;&gt;Tools -->
<g id="edge2" class="edge">
<title>BBinitcli&#45;&gt;Tools</title>
<path fill="none" stroke="#00a2ff" stroke-width="4" d="M331.81,-460.75C370.31,-460.75 424.97,-460.75 467.12,-460.75"/>
<polygon fill="#00a2ff" stroke="#00a2ff" stroke-width="4" points="467.05,-463.38 474.55,-460.75 467.05,-458.13 467.05,-463.38"/>
<polygon fill="#00a2ff" stroke="none" points="368,-460.75 368,-484.75 444.5,-484.75 444.5,-460.75 368,-460.75"/>
<text xml:space="preserve" text-anchor="start" x="371" y="-474.2" font-family="sans-serif" font-weight="bold" font-size="9.00" fill="#ffffff">creates scaffold</text>
<text xml:space="preserve" text-anchor="start" x="371" y="-465.2" font-family="sans-serif" font-weight="bold" font-size="9.00" fill="#ffffff">no runtime dep</text>
<polygon fill="none" stroke="#00a2ff" points="368,-460.75 368,-484.75 444.5,-484.75 444.5,-460.75 368,-460.75"/>
</g>
<!-- Tools&#45;&gt;PyTools -->
<g id="edge3" class="edge">
<title>Tools&#45;&gt;PyTools</title>
<path fill="none" stroke="#00a2ff" stroke-width="2.5" d="M581.17,-460.75C615.06,-460.75 660.07,-460.75 694.96,-460.75"/>
<polygon fill="#00a2ff" stroke="#00a2ff" stroke-width="2.5" points="694.62,-463.38 702.12,-460.75 694.62,-458.13 694.62,-463.38"/>
<polygon fill="#00a2ff" stroke="none" points="617.25,-460.75 617.25,-484.75 669.75,-484.75 669.75,-460.75 617.25,-460.75"/>
<text xml:space="preserve" text-anchor="start" x="621.38" y="-474.2" font-family="sans-serif" font-weight="bold" font-size="9.00" fill="#ffffff">automate</text>
<text xml:space="preserve" text-anchor="start" x="620.25" y="-465.2" font-family="sans-serif" font-weight="bold" font-size="9.00" fill="#ffffff">&amp; simplify</text>
<polygon fill="none" stroke="#00a2ff" points="617.25,-460.75 617.25,-484.75 669.75,-484.75 669.75,-460.75 617.25,-460.75"/>
</g>
<!-- PyTools&#45;&gt;Standards -->
<g id="edge4" class="edge">
<title>PyTools&#45;&gt;Standards</title>
<path fill="none" stroke="#ee220c" stroke-width="2.5" stroke-dasharray="5,2" d="M705.75,-439.29C671.92,-422.62 623.7,-399.01 581.25,-378.75 417.15,-300.44 222.87,-210.64 123.49,-164.93"/>
<polygon fill="#ee220c" stroke="#ee220c" stroke-width="2.5" points="124.66,-162.57 116.74,-161.82 122.46,-167.34 124.66,-162.57"/>
<polygon fill="#ee220c" stroke="none" points="375.12,-313.54 375.12,-332.29 437.38,-332.29 437.38,-313.54 375.12,-313.54"/>
<text xml:space="preserve" text-anchor="start" x="378.12" y="-321.74" font-family="sans-serif" font-weight="bold" font-size="9.00" fill="#ffffff">comply with</text>
<polygon fill="none" stroke="#ee220c" points="375.12,-313.54 375.12,-332.29 437.38,-332.29 437.38,-313.54 375.12,-313.54"/>
</g>
<!-- TEMP -->
<g id="node1" class="node">
<title>TEMP</title>
<path fill="#cccccc" fill-opacity="0.466667" stroke="none" d="M30,-391C30,-391 83.5,-391 83.5,-391 89.5,-391 95.5,-397 95.5,-403 95.5,-403 95.5,-518.5 95.5,-518.5 95.5,-524.5 89.5,-530.5 83.5,-530.5 83.5,-530.5 30,-530.5 30,-530.5 24,-530.5 18,-524.5 18,-518.5 18,-518.5 18,-403 18,-403 18,-397 24,-391 30,-391"/>
<text xml:space="preserve" text-anchor="start" x="29" y="-511" font-family="sans-serif" font-weight="bold" font-size="10.00">Templates:</text>
<text xml:space="preserve" text-anchor="start" x="23" y="-480" font-family="monospace" font-size="10.00">•</text>
<text xml:space="preserve" text-anchor="start" x="23" y="-465.75" font-family="monospace" font-size="10.00">pyproject.toml</text>
<text xml:space="preserve" text-anchor="start" x="23" y="-443.5" font-family="monospace" font-size="10.00">• .envrc</text>
<text xml:space="preserve" text-anchor="start" x="23" y="-421.25" font-family="monospace" font-size="10.00">• justfile</text>
<text xml:space="preserve" text-anchor="start" x="23" y="-399" font-family="monospace" font-size="10.00">• ...</text>
<path fill="none" stroke="#666666" d="M30,-391C30,-391 83.5,-391 83.5,-391 89.5,-391 95.5,-397 95.5,-403 95.5,-403 95.5,-518.5 95.5,-518.5 95.5,-524.5 89.5,-530.5 83.5,-530.5 83.5,-530.5 30,-530.5 30,-530.5 24,-530.5 18,-524.5 18,-518.5 18,-518.5 18,-403 18,-403 18,-397 24,-391 30,-391"/>
</g>
<!-- BBinitcli -->
<g id="node2" class="node">
<title>BBinitcli</title>
<path fill="#cccccc" fill-opacity="0.466667" stroke="none" d="M247,-442.62C247,-442.62 320,-442.62 320,-442.62 326,-442.62 332,-448.62 332,-454.62 332,-454.62 332,-466.88 332,-466.88 332,-472.88 326,-478.88 320,-478.88 320,-478.88 247,-478.88 247,-478.88 241,-478.88 235,-472.88 235,-466.88 235,-466.88 235,-454.62 235,-454.62 235,-448.62 241,-442.62 247,-442.62"/>
<text xml:space="preserve" text-anchor="start" x="246" y="-459.38" font-family="sans-serif" font-weight="bold" font-size="10.00">$ bube init&#45;proj</text>
<path fill="none" stroke="#666666" d="M247,-442.62C247,-442.62 320,-442.62 320,-442.62 326,-442.62 332,-448.62 332,-454.62 332,-454.62 332,-466.88 332,-466.88 332,-472.88 326,-478.88 320,-478.88 320,-478.88 247,-478.88 247,-478.88 241,-478.88 235,-472.88 235,-466.88 235,-466.88 235,-454.62 235,-454.62 235,-448.62 241,-442.62 247,-442.62"/>
</g>
<!-- Tools -->
<g id="node3" class="node">
<title>Tools</title>
<path fill="#cccccc" fill-opacity="0.466667" stroke="none" d="M492.5,-409.25C492.5,-409.25 569.25,-409.25 569.25,-409.25 575.25,-409.25 581.25,-415.25 581.25,-421.25 581.25,-421.25 581.25,-500.25 581.25,-500.25 581.25,-506.25 575.25,-512.25 569.25,-512.25 569.25,-512.25 492.5,-512.25 492.5,-512.25 486.5,-512.25 480.5,-506.25 480.5,-500.25 480.5,-500.25 480.5,-421.25 480.5,-421.25 480.5,-415.25 486.5,-409.25 492.5,-409.25"/>
<text xml:space="preserve" text-anchor="start" x="491.5" y="-492.75" font-family="sans-serif" font-weight="bold" font-size="10.00">Universal Tools:</text>
<text xml:space="preserve" text-anchor="start" x="485.5" y="-461.75" font-family="monospace" font-size="10.00">• direnv</text>
<text xml:space="preserve" text-anchor="start" x="485.5" y="-439.5" font-family="monospace" font-size="10.00">• just</text>
<text xml:space="preserve" text-anchor="start" x="485.5" y="-417.25" font-family="monospace" font-size="10.00">• ...</text>
<path fill="none" stroke="#666666" d="M492.5,-409.25C492.5,-409.25 569.25,-409.25 569.25,-409.25 575.25,-409.25 581.25,-415.25 581.25,-421.25 581.25,-421.25 581.25,-500.25 581.25,-500.25 581.25,-506.25 575.25,-512.25 569.25,-512.25 569.25,-512.25 492.5,-512.25 492.5,-512.25 486.5,-512.25 480.5,-506.25 480.5,-500.25 480.5,-500.25 480.5,-421.25 480.5,-421.25 480.5,-415.25 486.5,-409.25 492.5,-409.25"/>
</g>
<!-- PyTools -->
<g id="node4" class="node">
<title>PyTools</title>
<path fill="#cccccc" fill-opacity="0.466667" stroke="none" d="M717.75,-398.12C717.75,-398.12 782.5,-398.12 782.5,-398.12 788.5,-398.12 794.5,-404.12 794.5,-410.12 794.5,-410.12 794.5,-511.38 794.5,-511.38 794.5,-517.38 788.5,-523.38 782.5,-523.38 782.5,-523.38 717.75,-523.38 717.75,-523.38 711.75,-523.38 705.75,-517.38 705.75,-511.38 705.75,-511.38 705.75,-410.12 705.75,-410.12 705.75,-404.12 711.75,-398.12 717.75,-398.12"/>
<text xml:space="preserve" text-anchor="start" x="716.75" y="-503.88" font-family="sans-serif" font-weight="bold" font-size="10.00">Python Tools:</text>
<text xml:space="preserve" text-anchor="start" x="710.75" y="-472.88" font-family="monospace" font-size="10.00">• uv sync</text>
<text xml:space="preserve" text-anchor="start" x="710.75" y="-450.62" font-family="monospace" font-size="10.00">• uv.lock</text>
<text xml:space="preserve" text-anchor="start" x="710.75" y="-428.38" font-family="monospace" font-size="10.00">• .venv</text>
<text xml:space="preserve" text-anchor="start" x="710.75" y="-406.12" font-family="monospace" font-size="10.00">• ...</text>
<path fill="none" stroke="#666666" d="M717.75,-398.12C717.75,-398.12 782.5,-398.12 782.5,-398.12 788.5,-398.12 794.5,-404.12 794.5,-410.12 794.5,-410.12 794.5,-511.38 794.5,-511.38 794.5,-517.38 788.5,-523.38 782.5,-523.38 782.5,-523.38 717.75,-523.38 717.75,-523.38 711.75,-523.38 705.75,-517.38 705.75,-511.38 705.75,-511.38 705.75,-410.12 705.75,-410.12 705.75,-404.12 711.75,-398.12 717.75,-398.12"/>
</g>
<!-- Standards -->
<g id="node5" class="node">
<title>Standards</title>
<path fill="#cccccc" fill-opacity="0.466667" stroke="none" d="M12,0C12,0 101.5,0 101.5,0 107.5,0 113.5,-6 113.5,-12 113.5,-12 113.5,-257.5 113.5,-257.5 113.5,-263.5 107.5,-269.5 101.5,-269.5 101.5,-269.5 12,-269.5 12,-269.5 6,-269.5 0,-263.5 0,-257.5 0,-257.5 0,-12 0,-12 0,-6 6,0 12,0"/>
<text xml:space="preserve" text-anchor="start" x="11" y="-250" font-family="sans-serif" font-weight="bold" font-size="10.00">Python Standards:</text>
<text xml:space="preserve" text-anchor="start" x="5" y="-219" font-family="monospace" font-size="10.00">• PEP 405:</text>
<text xml:space="preserve" text-anchor="start" x="5" y="-204.75" font-family="monospace" font-size="10.00">Virtual&#45;</text>
<text xml:space="preserve" text-anchor="start" x="5" y="-190.5" font-family="monospace" font-size="10.00">environment</text>
<text xml:space="preserve" text-anchor="start" x="5" y="-168.25" font-family="monospace" font-size="10.00">• PEP 621:</text>
<text xml:space="preserve" text-anchor="start" x="5" y="-154" font-family="monospace" font-size="10.00">pyproject.toml</text>
<text xml:space="preserve" text-anchor="start" x="5" y="-131.75" font-family="monospace" font-size="10.00">• PEP 660:</text>
<text xml:space="preserve" text-anchor="start" x="5" y="-117.5" font-family="monospace" font-size="10.00">Editable install</text>
<text xml:space="preserve" text-anchor="start" x="5" y="-95.25" font-family="monospace" font-size="10.00">• PEP 751:</text>
<text xml:space="preserve" text-anchor="start" x="6.88" y="-81" font-family="monospace" font-size="10.00">Lock&#45;files</text>
<text xml:space="preserve" text-anchor="start" x="5" y="-58.75" font-family="monospace" font-size="10.00">• uv:</text>
<text xml:space="preserve" text-anchor="start" x="5" y="-44.5" font-family="monospace" font-size="10.00">uv.lock workflow</text>
<text xml:space="preserve" text-anchor="start" x="5" y="-22.25" font-family="monospace" font-size="10.00">• PyPA:</text>
<text xml:space="preserve" text-anchor="start" x="5" y="-8" font-family="monospace" font-size="10.00">src/&#45;Layout</text>
<path fill="none" stroke="#f4a261" d="M12,0C12,0 101.5,0 101.5,0 107.5,0 113.5,-6 113.5,-12 113.5,-12 113.5,-257.5 113.5,-257.5 113.5,-263.5 107.5,-269.5 101.5,-269.5 101.5,-269.5 12,-269.5 12,-269.5 6,-269.5 0,-263.5 0,-257.5 0,-257.5 0,-12 0,-12 0,-6 6,0 12,0"/>
</g>
</g>
</svg>
