<?xml version="1.0" encoding="UTF-8" standalone="no"?>
<!DOCTYPE svg PUBLIC "-//W3C//DTD SVG 1.1//EN"
 "http://www.w3.org/Graphics/SVG/1.1/DTD/svg11.dtd">
<!-- Generated by graphviz version 14.1.5 (20260411.2331)
 -->
<!-- Title: graphical_abstract_init_proj_graphviz Pages: 1 -->
<svg width="1666pt" height="590pt"
 viewBox="3.00 3.00 1663.00 587.00" xmlns="http://www.w3.org/2000/svg" xmlns:xlink="http://www.w3.org/1999/xlink">
<g id="graph0" class="graph" transform="scale(1 1) rotate(0) translate(5.76 584.13)">
<title>graphical_abstract_init_proj_graphviz</title>
<g id="clust1" class="cluster">
<title>cluster_BB</title>
<path fill="#afb200" fill-opacity="0.098039" stroke="#afb200" stroke-width="2" d="M78,-8C78,-8 701.5,-8 701.5,-8 707.5,-8 713.5,-14 713.5,-20 713.5,-20 713.5,-277 713.5,-277 713.5,-283 707.5,-289 701.5,-289 701.5,-289 78,-289 78,-289 72,-289 66,-283 66,-277 66,-277 66,-20 66,-20 66,-14 72,-8 78,-8"/>
<text xml:space="preserve" text-anchor="middle" x="389.75" y="-266" font-family="sans-serif" font-size="20.00" fill="#afb200">buildben</text>
<text xml:space="preserve" text-anchor="middle" x="389.75" y="-238.25" font-family="sans-serif" font-size="20.00" fill="#afb200">&lt;&lt;Python Package&gt;&gt;</text>
</g>
<g id="clust2" class="cluster">
<title>cluster_P</title>
<path fill="#00a2ff" fill-opacity="0.098039" stroke="#00a2ff" stroke-width="2" d="M1125.25,-8C1125.25,-8 1634,-8 1634,-8 1640,-8 1646,-14 1646,-20 1646,-20 1646,-277 1646,-277 1646,-283 1640,-289 1634,-289 1634,-289 1125.25,-289 1125.25,-289 1119.25,-289 1113.25,-283 1113.25,-277 1113.25,-277 1113.25,-20 1113.25,-20 1113.25,-14 1119.25,-8 1125.25,-8"/>
<text xml:space="preserve" text-anchor="middle" x="1379.62" y="-266" font-family="sans-serif" font-size="20.00" fill="#00a2ff">Project</text>
<text xml:space="preserve" text-anchor="middle" x="1379.62" y="-238.25" font-family="sans-serif" font-size="20.00" fill="#00a2ff">&lt;&lt;Directory &amp; Environment&gt;&gt;</text>
</g>
<!-- TEMP&#45;&gt;Standards -->
<g id="edge5" class="edge">
<title>TEMP&#45;&gt;Standards</title>
<path fill="none" stroke="#ee220c" stroke-width="2.5" stroke-dasharray="5,2" d="M184,-207.75C184,-241.47 184,-280.51 184,-317.42"/>
<polygon fill="#ee220c" stroke="#ee220c" stroke-width="2.5" points="180.85,-317.06 184,-326.06 187.15,-317.06 180.85,-317.06"/>
<text xml:space="preserve" text-anchor="start" x="109.38" y="-264.62" font-family="sans-serif" font-weight="bold" font-style="italic" font-size="20.00" fill="#ee220c">comply with</text>
</g>
<!-- TEMP&#45;&gt;BBinitcli -->
<g id="edge1" class="edge">
<title>TEMP&#45;&gt;BBinitcli</title>
<path fill="none" stroke="#afb200" stroke-width="2.5" d="M284,-117C352.44,-117 443.06,-117 511.12,-117"/>
<polygon fill="#afb200" stroke="#afb200" stroke-width="2.5" points="510.78,-120.15 519.78,-117 510.78,-113.85 510.78,-120.15"/>
<text xml:space="preserve" text-anchor="start" x="404" y="-126.75" font-family="sans-serif" font-style="italic" font-size="20.00" fill="#afb200">copied by</text>
</g>
<!-- BBinitcli&#45;&gt;Tools -->
<g id="edge2" class="edge">
<title>BBinitcli&#45;&gt;Tools</title>
<path fill="none" stroke="#00a2ff" stroke-width="4" d="M695.22,-117C805.74,-117 998.76,-117 1116.87,-117"/>
<polygon fill="#00a2ff" stroke="#00a2ff" stroke-width="4" points="1116.55,-120.15 1125.55,-117 1116.55,-113.85 1116.55,-120.15"/>
<text xml:space="preserve" text-anchor="start" x="801.25" y="-139" font-family="sans-serif" font-weight="bold" font-style="italic" font-size="20.00" fill="#00a2ff">creates project scaffold</text>
<text xml:space="preserve" text-anchor="start" x="731.5" y="-119" font-family="sans-serif" font-weight="bold" font-style="italic" font-size="20.00" fill="#00a2ff">(buildben is no dependency of project)</text>
</g>
<!-- Tools&#45;&gt;PyTools -->
<g id="edge3" class="edge">
<title>Tools&#45;&gt;PyTools</title>
<path fill="none" stroke="#00a2ff" stroke-width="2.5" d="M1306.95,-117C1354.72,-117 1413.89,-117 1461.91,-117"/>
<polygon fill="#00a2ff" stroke="#00a2ff" stroke-width="2.5" points="1461.72,-120.15 1470.72,-117 1461.72,-113.85 1461.72,-120.15"/>
<text xml:space="preserve" text-anchor="start" x="1344" y="-139" font-family="sans-serif" font-weight="bold" font-style="italic" font-size="20.00" fill="#00a2ff">automate</text>
<text xml:space="preserve" text-anchor="start" x="1343.25" y="-119" font-family="sans-serif" font-weight="bold" font-style="italic" font-size="20.00" fill="#00a2ff">&amp; simplify</text>
</g>
<!-- PyTools&#45;&gt;Standards -->
<g id="edge4" class="edge">
<title>PyTools&#45;&gt;Standards</title>
<path fill="none" stroke="#ee220c" stroke-width="2.5" stroke-dasharray="5,2" d="M1474.63,-155.46C1427.56,-177.93 1365.15,-205.1 1307.25,-222 987.5,-315.3 605.99,-385.79 380.26,-423.41"/>
<polygon fill="#ee220c" stroke="#ee220c" stroke-width="2.5" points="380.05,-420.25 371.69,-424.83 381.09,-426.46 380.05,-420.25"/>
<text xml:space="preserve" text-anchor="start" x="855.62" y="-368.42" font-family="sans-serif" font-weight="bold" font-style="italic" font-size="20.00" fill="#ee220c">comply with</text>
</g>
<!-- Standards -->
<g id="node1" class="node">
<title>Standards</title>
<path fill="#f27f72" fill-opacity="0.862745" stroke="none" d="M12,-329.62C12,-329.62 356,-329.62 356,-329.62 362,-329.62 368,-335.62 368,-341.62 368,-341.62 368,-566.38 368,-566.38 368,-572.38 362,-578.38 356,-578.38 356,-578.38 12,-578.38 12,-578.38 6,-578.38 0,-572.38 0,-566.38 0,-566.38 0,-341.62 0,-341.62 0,-335.62 6,-329.62 12,-329.62"/>
<text xml:space="preserve" text-anchor="start" x="10" y="-550.38" font-family="sans-serif" font-weight="bold" font-size="20.00">Python Standards:</text>
<text xml:space="preserve" text-anchor="start" x="4" y="-507.12" font-family="monospace" font-size="20.00">• PEP 405: Virtual&#45;environment</text>
<text xml:space="preserve" text-anchor="start" x="4" y="-473.62" font-family="monospace" font-size="20.00">• PEP 621: pyproject.toml</text>
<text xml:space="preserve" text-anchor="start" x="4" y="-440.12" font-family="monospace" font-size="20.00">• PEP 660: Editable install</text>
<text xml:space="preserve" text-anchor="start" x="4" y="-406.62" font-family="monospace" font-size="20.00">• PEP 751: Lock&#45;files</text>
<text xml:space="preserve" text-anchor="start" x="4" y="-373.12" font-family="monospace" font-size="20.00">• uv: uv.lock workflow</text>
<text xml:space="preserve" text-anchor="start" x="4" y="-339.62" font-family="monospace" font-size="20.00">• PyPA: src/&#45;Layout</text>
</g>
<!-- TEMP -->
<g id="node2" class="node">
<title>TEMP</title>
<path fill="#999999" fill-opacity="0.466667" stroke="none" d="M96,-26.12C96,-26.12 272,-26.12 272,-26.12 278,-26.12 284,-32.12 284,-38.12 284,-38.12 284,-195.88 284,-195.88 284,-201.88 278,-207.88 272,-207.88 272,-207.88 96,-207.88 96,-207.88 90,-207.88 84,-201.88 84,-195.88 84,-195.88 84,-38.12 84,-38.12 84,-32.12 90,-26.12 96,-26.12"/>
<text xml:space="preserve" text-anchor="start" x="94" y="-179.88" font-family="sans-serif" font-weight="bold" font-size="20.00">Templates:</text>
<text xml:space="preserve" text-anchor="start" x="88" y="-136.62" font-family="monospace" font-size="20.00">• pyproject.toml</text>
<text xml:space="preserve" text-anchor="start" x="88" y="-103.12" font-family="monospace" font-size="20.00">• .envrc</text>
<text xml:space="preserve" text-anchor="start" x="88" y="-69.62" font-family="monospace" font-size="20.00">• justfile</text>
<text xml:space="preserve" text-anchor="start" x="88" y="-36.12" font-family="monospace" font-size="20.00">• ...</text>
</g>
<!-- BBinitcli -->
<g id="node3" class="node">
<title>BBinitcli</title>
<path fill="#999999" fill-opacity="0.466667" stroke="none" d="M535.25,-93.12C535.25,-93.12 683.5,-93.12 683.5,-93.12 689.5,-93.12 695.5,-99.12 695.5,-105.12 695.5,-105.12 695.5,-128.88 695.5,-128.88 695.5,-134.88 689.5,-140.88 683.5,-140.88 683.5,-140.88 535.25,-140.88 535.25,-140.88 529.25,-140.88 523.25,-134.88 523.25,-128.88 523.25,-128.88 523.25,-105.12 523.25,-105.12 523.25,-99.12 529.25,-93.12 535.25,-93.12"/>
<text xml:space="preserve" text-anchor="start" x="533.25" y="-112.88" font-family="sans-serif" font-weight="bold" font-size="20.00">$ bube init&#45;proj</text>
</g>
<!-- Tools -->
<g id="node4" class="node">
<title>Tools</title>
<path fill="#999999" fill-opacity="0.466667" stroke="none" d="M1143.25,-42.88C1143.25,-42.88 1295.25,-42.88 1295.25,-42.88 1301.25,-42.88 1307.25,-48.88 1307.25,-54.88 1307.25,-54.88 1307.25,-179.12 1307.25,-179.12 1307.25,-185.12 1301.25,-191.12 1295.25,-191.12 1295.25,-191.12 1143.25,-191.12 1143.25,-191.12 1137.25,-191.12 1131.25,-185.12 1131.25,-179.12 1131.25,-179.12 1131.25,-54.88 1131.25,-54.88 1131.25,-48.88 1137.25,-42.88 1143.25,-42.88"/>
<text xml:space="preserve" text-anchor="start" x="1141.25" y="-163.12" font-family="sans-serif" font-weight="bold" font-size="20.00">Universal Tools:</text>
<text xml:space="preserve" text-anchor="start" x="1135.25" y="-119.88" font-family="monospace" font-size="20.00">• direnv</text>
<text xml:space="preserve" text-anchor="start" x="1135.25" y="-86.38" font-family="monospace" font-size="20.00">• just</text>
<text xml:space="preserve" text-anchor="start" x="1135.25" y="-52.88" font-family="monospace" font-size="20.00">• ...</text>
</g>
<!-- PyTools -->
<g id="node5" class="node">
<title>PyTools</title>
<path fill="#999999" fill-opacity="0.466667" stroke="none" d="M1486.5,-26.12C1486.5,-26.12 1616,-26.12 1616,-26.12 1622,-26.12 1628,-32.12 1628,-38.12 1628,-38.12 1628,-195.88 1628,-195.88 1628,-201.88 1622,-207.88 1616,-207.88 1616,-207.88 1486.5,-207.88 1486.5,-207.88 1480.5,-207.88 1474.5,-201.88 1474.5,-195.88 1474.5,-195.88 1474.5,-38.12 1474.5,-38.12 1474.5,-32.12 1480.5,-26.12 1486.5,-26.12"/>
<text xml:space="preserve" text-anchor="start" x="1484.5" y="-179.88" font-family="sans-serif" font-weight="bold" font-size="20.00">Python Tools:</text>
<text xml:space="preserve" text-anchor="start" x="1478.5" y="-136.62" font-family="monospace" font-size="20.00">• uv sync</text>
<text xml:space="preserve" text-anchor="start" x="1478.5" y="-103.12" font-family="monospace" font-size="20.00">• uv.lock</text>
<text xml:space="preserve" text-anchor="start" x="1478.5" y="-69.62" font-family="monospace" font-size="20.00">• .venv</text>
<text xml:space="preserve" text-anchor="start" x="1478.5" y="-36.12" font-family="monospace" font-size="20.00">• ...</text>
</g>
</g>
</svg>
