<?xml version="1.0" encoding="UTF-8" standalone="no"?>
<!DOCTYPE svg PUBLIC "-//W3C//DTD SVG 1.1//EN"
 "http://www.w3.org/Graphics/SVG/1.1/DTD/svg11.dtd">
<!-- Generated by graphviz version 15.0.0 (20260523.1842)
 -->
<!-- Title: graphical_abstract_init_proj_graphviz Pages: 1 -->
<svg width="900px" height="617.952756px"
 viewBox="0 0 635 436" xmlns="http://www.w3.org/2000/svg" xmlns:xlink="http://www.w3.org/1999/xlink">
<g id="graph0" class="graph" transform="scale(0.783046 0.783046) rotate(0) translate(2.88 553.88)">
<title>graphical_abstract_init_proj_graphviz</title>
<g id="clust1" class="cluster">
<title>cluster_BB</title>
<path fill="#afb200" fill-opacity="0.098039" stroke="#afb200" stroke-width="2" d="M20,-370C20,-370 322.25,-370 322.25,-370 328.25,-370 334.25,-376 334.25,-382 334.25,-382 334.25,-531 334.25,-531 334.25,-537 328.25,-543 322.25,-543 322.25,-543 20,-543 20,-543 14,-543 8,-537 8,-531 8,-531 8,-382 8,-382 8,-376 14,-370 20,-370"/>
<text xml:space="preserve" text-anchor="middle" x="171.12" y="-529.5" font-family="sans-serif" font-size="10.00" fill="#afb200">buildben</text>
<text xml:space="preserve" text-anchor="middle" x="171.12" y="-515.25" font-family="sans-serif" font-size="10.00" fill="#afb200">&lt;&lt;Python Package&gt;&gt;</text>
</g>
<g id="clust2" class="cluster">
<title>cluster_P</title>
<path fill="#00a2ff" fill-opacity="0.098039" stroke="#00a2ff" stroke-width="2" d="M490.75,-375C490.75,-375 784.75,-375 784.75,-375 790.75,-375 796.75,-381 796.75,-387 796.75,-387 796.75,-523 796.75,-523 796.75,-529 790.75,-535 784.75,-535 784.75,-535 490.75,-535 490.75,-535 484.75,-535 478.75,-529 478.75,-523 478.75,-523 478.75,-387 478.75,-387 478.75,-381 484.75,-375 490.75,-375"/>
<text xml:space="preserve" text-anchor="middle" x="637.75" y="-521.5" font-family="sans-serif" font-size="10.00" fill="#00a2ff">Project</text>
<text xml:space="preserve" text-anchor="middle" x="637.75" y="-507.25" font-family="sans-serif" font-size="10.00" fill="#00a2ff">&lt;&lt;Directory &amp; Environment&gt;&gt;</text>
</g>
<!-- TEMP&#45;&gt;BBinitcli -->
<g id="edge1" class="edge">
<title>TEMP&#45;&gt;BBinitcli</title>
<path fill="none" stroke="#afb200" stroke-width="2.5" d="M103.75,-438C138.68,-438 187.05,-438 224.7,-438"/>
<polygon fill="#afb200" stroke="#afb200" stroke-width="2.5" points="224.23,-440.63 231.73,-438 224.23,-435.38 224.23,-440.63"/>
<polygon fill="#afb200" stroke="none" points="149.75,-438 149.75,-456.75 199.25,-456.75 199.25,-438 149.75,-438"/>
<text xml:space="preserve" text-anchor="start" x="152.75" y="-446.2" font-family="sans-serif" font-weight="bold" font-size="9.00" fill="#ffffff">copied by</text>
<polygon fill="none" stroke="#afb200" points="149.75,-438 149.75,-456.75 199.25,-456.75 199.25,-438 149.75,-438"/>
</g>
<!-- TEMP&#45;&gt;Standards -->
<g id="edge5" class="edge">
<title>TEMP&#45;&gt;Standards</title>
<path fill="none" stroke="#ee220c" stroke-width="2.5" stroke-dasharray="5,2" d="M57,-372.24C57,-339.73 57,-299.23 57,-260.48"/>
<polygon fill="#ee220c" stroke="#ee220c" stroke-width="2.5" points="59.63,-260.89 57,-253.39 54.38,-260.89 59.63,-260.89"/>
<polygon fill="#ee220c" stroke="none" points="13.5,-301.62 13.5,-320.38 75.75,-320.38 75.75,-301.62 13.5,-301.62"/>
<text xml:space="preserve" text-anchor="start" x="16.5" y="-309.82" font-family="sans-serif" font-weight="bold" font-size="9.00" fill="#ffffff">comply with</text>
<polygon fill="none" stroke="#ee220c" points="13.5,-301.62 13.5,-320.38 75.75,-320.38 75.75,-301.62 13.5,-301.62"/>
</g>
<!-- BBinitcli&#45;&gt;Tools -->
<g id="edge2" class="edge">
<title>BBinitcli&#45;&gt;Tools</title>
<path fill="none" stroke="#00a2ff" stroke-width="4" d="M332.06,-438C370.56,-438 425.22,-438 467.37,-438"/>
<polygon fill="#00a2ff" stroke="#00a2ff" stroke-width="4" points="467.3,-440.63 474.8,-438 467.3,-435.38 467.3,-440.63"/>
<polygon fill="#00a2ff" stroke="none" points="368.25,-438 368.25,-462 444.75,-462 444.75,-438 368.25,-438"/>
<text xml:space="preserve" text-anchor="start" x="371.25" y="-451.45" font-family="sans-serif" font-weight="bold" font-size="9.00" fill="#ffffff">creates scaffold</text>
<text xml:space="preserve" text-anchor="start" x="371.25" y="-442.45" font-family="sans-serif" font-weight="bold" font-size="9.00" fill="#ffffff">no runtime dep</text>
<polygon fill="none" stroke="#00a2ff" points="368.25,-438 368.25,-462 444.75,-462 444.75,-438 368.25,-438"/>
</g>
<!-- Tools&#45;&gt;PyTools -->
<g id="edge3" class="edge">
<title>Tools&#45;&gt;PyTools</title>
<path fill="none" stroke="#00a2ff" stroke-width="2.5" d="M581.42,-437.77C615.31,-437.62 660.32,-437.41 695.21,-437.25"/>
<polygon fill="#00a2ff" stroke="#00a2ff" stroke-width="2.5" points="694.88,-439.88 702.37,-437.22 694.86,-434.63 694.88,-439.88"/>
<polygon fill="#00a2ff" stroke="none" points="617.5,-437.59 617.5,-461.59 670,-461.59 670,-437.59 617.5,-437.59"/>
<text xml:space="preserve" text-anchor="start" x="621.62" y="-451.04" font-family="sans-serif" font-weight="bold" font-size="9.00" fill="#ffffff">automate</text>
<text xml:space="preserve" text-anchor="start" x="620.5" y="-442.04" font-family="sans-serif" font-weight="bold" font-size="9.00" fill="#ffffff">&amp; simplify</text>
<polygon fill="none" stroke="#00a2ff" points="617.5,-437.59 617.5,-461.59 670,-461.59 670,-437.59 617.5,-437.59"/>
</g>
<!-- PyTools&#45;&gt;Standards -->
<g id="edge4" class="edge">
<title>PyTools&#45;&gt;Standards</title>
<path fill="none" stroke="#ee220c" stroke-width="2.5" stroke-dasharray="5,2" d="M706.01,-416.29C672.18,-400.2 623.97,-377.44 581.5,-358 417.48,-282.91 223.16,-197.3 123.76,-153.74"/>
<polygon fill="#ee220c" stroke="#ee220c" stroke-width="2.5" points="124.96,-151.4 117.04,-150.79 122.86,-156.21 124.96,-151.4"/>
<polygon fill="#ee220c" stroke="none" points="375.38,-295.57 375.38,-314.32 437.62,-314.32 437.62,-295.57 375.38,-295.57"/>
<text xml:space="preserve" text-anchor="start" x="378.38" y="-303.77" font-family="sans-serif" font-weight="bold" font-size="9.00" fill="#ffffff">comply with</text>
<polygon fill="none" stroke="#ee220c" points="375.38,-295.57 375.38,-314.32 437.62,-314.32 437.62,-295.57 375.38,-295.57"/>
</g>
<!-- TEMP -->
<g id="node1" class="node">
<title>TEMP</title>
<path fill="#cccccc" fill-opacity="0.466667" stroke="none" d="M22,-372C22,-372 92,-372 92,-372 98,-372 104,-378 104,-384 104,-384 104,-492 104,-492 104,-498 98,-504 92,-504 92,-504 22,-504 22,-504 16,-504 10,-498 10,-492 10,-492 10,-384 10,-384 10,-378 16,-372 22,-372"/>
<text xml:space="preserve" text-anchor="start" x="21" y="-484.5" font-family="sans-serif" font-weight="bold" font-size="10.00">Templates:</text>
<text xml:space="preserve" text-anchor="start" x="15" y="-455" font-family="monospace" font-size="10.00">•</text>
<text xml:space="preserve" text-anchor="start" x="15" y="-442.25" font-family="monospace" font-size="10.00">pyproject.toml</text>
<text xml:space="preserve" text-anchor="start" x="15" y="-421.5" font-family="monospace" font-size="10.00">• .envrc</text>
<text xml:space="preserve" text-anchor="start" x="15" y="-400.75" font-family="monospace" font-size="10.00">• justfile</text>
<text xml:space="preserve" text-anchor="start" x="15" y="-380" font-family="monospace" font-size="10.00">• ...</text>
<path fill="none" stroke="#666666" d="M22,-372C22,-372 92,-372 92,-372 98,-372 104,-378 104,-384 104,-384 104,-492 104,-492 104,-498 98,-504 92,-504 92,-504 22,-504 22,-504 16,-504 10,-498 10,-492 10,-492 10,-384 10,-384 10,-378 16,-372 22,-372"/>
</g>
<!-- BBinitcli -->
<g id="node2" class="node">
<title>BBinitcli</title>
<path fill="#cccccc" fill-opacity="0.466667" stroke="none" d="M247.25,-419.88C247.25,-419.88 320.25,-419.88 320.25,-419.88 326.25,-419.88 332.25,-425.88 332.25,-431.88 332.25,-431.88 332.25,-444.12 332.25,-444.12 332.25,-450.12 326.25,-456.12 320.25,-456.12 320.25,-456.12 247.25,-456.12 247.25,-456.12 241.25,-456.12 235.25,-450.12 235.25,-444.12 235.25,-444.12 235.25,-431.88 235.25,-431.88 235.25,-425.88 241.25,-419.88 247.25,-419.88"/>
<text xml:space="preserve" text-anchor="start" x="246.25" y="-436.62" font-family="sans-serif" font-weight="bold" font-size="10.00">$ bube init&#45;proj</text>
<path fill="none" stroke="#666666" d="M247.25,-419.88C247.25,-419.88 320.25,-419.88 320.25,-419.88 326.25,-419.88 332.25,-425.88 332.25,-431.88 332.25,-431.88 332.25,-444.12 332.25,-444.12 332.25,-450.12 326.25,-456.12 320.25,-456.12 320.25,-456.12 247.25,-456.12 247.25,-456.12 241.25,-456.12 235.25,-450.12 235.25,-444.12 235.25,-444.12 235.25,-431.88 235.25,-431.88 235.25,-425.88 241.25,-419.88 247.25,-419.88"/>
</g>
<!-- Tools -->
<g id="node3" class="node">
<title>Tools</title>
<path fill="#cccccc" fill-opacity="0.466667" stroke="none" d="M492.75,-388.75C492.75,-388.75 569.5,-388.75 569.5,-388.75 575.5,-388.75 581.5,-394.75 581.5,-400.75 581.5,-400.75 581.5,-475.25 581.5,-475.25 581.5,-481.25 575.5,-487.25 569.5,-487.25 569.5,-487.25 492.75,-487.25 492.75,-487.25 486.75,-487.25 480.75,-481.25 480.75,-475.25 480.75,-475.25 480.75,-400.75 480.75,-400.75 480.75,-394.75 486.75,-388.75 492.75,-388.75"/>
<text xml:space="preserve" text-anchor="start" x="491.75" y="-467.75" font-family="sans-serif" font-weight="bold" font-size="10.00">Universal Tools:</text>
<text xml:space="preserve" text-anchor="start" x="485.75" y="-438.25" font-family="monospace" font-size="10.00">• direnv</text>
<text xml:space="preserve" text-anchor="start" x="485.75" y="-417.5" font-family="monospace" font-size="10.00">• just</text>
<text xml:space="preserve" text-anchor="start" x="485.75" y="-396.75" font-family="monospace" font-size="10.00">• ...</text>
<path fill="none" stroke="#666666" d="M492.75,-388.75C492.75,-388.75 569.5,-388.75 569.5,-388.75 575.5,-388.75 581.5,-394.75 581.5,-400.75 581.5,-400.75 581.5,-475.25 581.5,-475.25 581.5,-481.25 575.5,-487.25 569.5,-487.25 569.5,-487.25 492.75,-487.25 492.75,-487.25 486.75,-487.25 480.75,-481.25 480.75,-475.25 480.75,-475.25 480.75,-400.75 480.75,-400.75 480.75,-394.75 486.75,-388.75 492.75,-388.75"/>
</g>
<!-- PyTools -->
<g id="node4" class="node">
<title>PyTools</title>
<path fill="#cccccc" fill-opacity="0.466667" stroke="none" d="M718,-377.38C718,-377.38 782.75,-377.38 782.75,-377.38 788.75,-377.38 794.75,-383.38 794.75,-389.38 794.75,-389.38 794.75,-484.62 794.75,-484.62 794.75,-490.62 788.75,-496.62 782.75,-496.62 782.75,-496.62 718,-496.62 718,-496.62 712,-496.62 706,-490.62 706,-484.62 706,-484.62 706,-389.38 706,-389.38 706,-383.38 712,-377.38 718,-377.38"/>
<text xml:space="preserve" text-anchor="start" x="717" y="-477.12" font-family="sans-serif" font-weight="bold" font-size="10.00">Python Tools:</text>
<text xml:space="preserve" text-anchor="start" x="711" y="-447.62" font-family="monospace" font-size="10.00">• uv sync</text>
<text xml:space="preserve" text-anchor="start" x="711" y="-426.88" font-family="monospace" font-size="10.00">• uv.lock</text>
<text xml:space="preserve" text-anchor="start" x="711" y="-406.12" font-family="monospace" font-size="10.00">• .venv</text>
<text xml:space="preserve" text-anchor="start" x="711" y="-385.38" font-family="monospace" font-size="10.00">• ...</text>
<path fill="none" stroke="#666666" d="M718,-377.38C718,-377.38 782.75,-377.38 782.75,-377.38 788.75,-377.38 794.75,-383.38 794.75,-389.38 794.75,-389.38 794.75,-484.62 794.75,-484.62 794.75,-490.62 788.75,-496.62 782.75,-496.62 782.75,-496.62 718,-496.62 718,-496.62 712,-496.62 706,-490.62 706,-484.62 706,-484.62 706,-389.38 706,-389.38 706,-383.38 712,-377.38 718,-377.38"/>
</g>
<!-- Standards -->
<g id="node5" class="node">
<title>Standards</title>
<path fill="#cccccc" fill-opacity="0.466667" stroke="none" d="M12.25,0C12.25,0 101.75,0 101.75,0 107.75,0 113.75,-6 113.75,-12 113.75,-12 113.75,-238 113.75,-238 113.75,-244 107.75,-250 101.75,-250 101.75,-250 12.25,-250 12.25,-250 6.25,-250 0.25,-244 0.25,-238 0.25,-238 0.25,-12 0.25,-12 0.25,-6 6.25,0 12.25,0"/>
<text xml:space="preserve" text-anchor="start" x="11.25" y="-230.5" font-family="sans-serif" font-weight="bold" font-size="10.00">Python Standards:</text>
<text xml:space="preserve" text-anchor="start" x="5.25" y="-201" font-family="monospace" font-size="10.00">• PEP 405:</text>
<text xml:space="preserve" text-anchor="start" x="5.25" y="-188.25" font-family="monospace" font-size="10.00">Virtual&#45;</text>
<text xml:space="preserve" text-anchor="start" x="5.25" y="-175.5" font-family="monospace" font-size="10.00">environment</text>
<text xml:space="preserve" text-anchor="start" x="5.25" y="-154.75" font-family="monospace" font-size="10.00">• PEP 621:</text>
<text xml:space="preserve" text-anchor="start" x="5.25" y="-142" font-family="monospace" font-size="10.00">pyproject.toml</text>
<text xml:space="preserve" text-anchor="start" x="5.25" y="-121.25" font-family="monospace" font-size="10.00">• PEP 660:</text>
<text xml:space="preserve" text-anchor="start" x="5.25" y="-108.5" font-family="monospace" font-size="10.00">Editable install</text>
<text xml:space="preserve" text-anchor="start" x="5.25" y="-87.75" font-family="monospace" font-size="10.00">• PEP 751:</text>
<text xml:space="preserve" text-anchor="start" x="5.25" y="-75" font-family="monospace" font-size="10.00">Lock&#45;files</text>
<text xml:space="preserve" text-anchor="start" x="5.25" y="-54.25" font-family="monospace" font-size="10.00">• uv:</text>
<text xml:space="preserve" text-anchor="start" x="5.25" y="-41.5" font-family="monospace" font-size="10.00">uv.lock workflow</text>
<text xml:space="preserve" text-anchor="start" x="5.25" y="-20.75" font-family="monospace" font-size="10.00">• PyPA:</text>
<text xml:space="preserve" text-anchor="start" x="5.25" y="-8" font-family="monospace" font-size="10.00">src/&#45;Layout</text>
<path fill="none" stroke="#f4a261" d="M12.25,0C12.25,0 101.75,0 101.75,0 107.75,0 113.75,-6 113.75,-12 113.75,-12 113.75,-238 113.75,-238 113.75,-244 107.75,-250 101.75,-250 101.75,-250 12.25,-250 12.25,-250 6.25,-250 0.25,-244 0.25,-238 0.25,-238 0.25,-12 0.25,-12 0.25,-6 6.25,0 12.25,0"/>
</g>
</g>
</svg>
