<?xml version="1.0" encoding="UTF-8" standalone="no"?>
<!DOCTYPE svg PUBLIC "-//W3C//DTD SVG 1.1//EN"
 "http://www.w3.org/Graphics/SVG/1.1/DTD/svg11.dtd">
<!-- Generated by graphviz version 15.0.0 (20260523.1842)
 -->
<!-- Title: graphical_abstract_init_proj_graphviz Pages: 1 -->
<svg width="1591pt" height="612pt"
 viewBox="3.00 3.00 1588.00 609.00" xmlns="http://www.w3.org/2000/svg" xmlns:xlink="http://www.w3.org/1999/xlink">
<g id="graph0" class="graph" transform="scale(1 1) rotate(0) translate(5.76 605.88)">
<title>graphical_abstract_init_proj_graphviz</title>
<g id="clust1" class="cluster">
<title>cluster_BB</title>
<path fill="#afb200" fill-opacity="0.098039" stroke="#afb200" stroke-width="2" d="M62.25,-8C62.25,-8 627.25,-8 627.25,-8 633.25,-8 639.25,-14 639.25,-20 639.25,-20 639.25,-286 639.25,-286 639.25,-292 633.25,-298 627.25,-298 627.25,-298 62.25,-298 62.25,-298 56.25,-298 50.25,-292 50.25,-286 50.25,-286 50.25,-20 50.25,-20 50.25,-14 56.25,-8 62.25,-8"/>
<text xml:space="preserve" text-anchor="middle" x="344.75" y="-275" font-family="sans-serif" font-size="20.00" fill="#afb200">buildben</text>
<text xml:space="preserve" text-anchor="middle" x="344.75" y="-247.25" font-family="sans-serif" font-size="20.00" fill="#afb200">&lt;&lt;Python Package&gt;&gt;</text>
</g>
<g id="clust2" class="cluster">
<title>cluster_P</title>
<path fill="#00a2ff" fill-opacity="0.098039" stroke="#00a2ff" stroke-width="2" d="M1051,-8C1051,-8 1559.75,-8 1559.75,-8 1565.75,-8 1571.75,-14 1571.75,-20 1571.75,-20 1571.75,-286 1571.75,-286 1571.75,-292 1565.75,-298 1559.75,-298 1559.75,-298 1051,-298 1051,-298 1045,-298 1039,-292 1039,-286 1039,-286 1039,-20 1039,-20 1039,-14 1045,-8 1051,-8"/>
<text xml:space="preserve" text-anchor="middle" x="1305.38" y="-275" font-family="sans-serif" font-size="20.00" fill="#00a2ff">Project</text>
<text xml:space="preserve" text-anchor="middle" x="1305.38" y="-247.25" font-family="sans-serif" font-size="20.00" fill="#00a2ff">&lt;&lt;Directory &amp; Environment&gt;&gt;</text>
</g>
<!-- TEMP&#45;&gt;Standards -->
<g id="edge5" class="edge">
<title>TEMP&#45;&gt;Standards</title>
<path fill="none" stroke="#ee220c" stroke-width="2.5" stroke-dasharray="5,2" d="M146.88,-216.09C146.88,-249.9 146.88,-288.76 146.88,-325.7"/>
<polygon fill="#ee220c" stroke="#ee220c" stroke-width="2.5" points="143.73,-325.36 146.88,-334.36 150.03,-325.37 143.73,-325.36"/>
<text xml:space="preserve" text-anchor="start" x="72.25" y="-273" font-family="sans-serif" font-weight="bold" font-style="italic" font-size="20.00" fill="#ee220c">comply with</text>
</g>
<!-- TEMP&#45;&gt;BBinitcli -->
<g id="edge1" class="edge">
<title>TEMP&#45;&gt;BBinitcli</title>
<path fill="none" stroke="#afb200" stroke-width="2.5" d="M225.11,-121C286.02,-121 371.33,-121 436.89,-121"/>
<polygon fill="#afb200" stroke="#afb200" stroke-width="2.5" points="436.53,-124.15 445.53,-121 436.53,-117.85 436.53,-124.15"/>
<text xml:space="preserve" text-anchor="start" x="329.75" y="-130.75" font-family="sans-serif" font-style="italic" font-size="20.00" fill="#afb200">copied by</text>
</g>
<!-- BBinitcli&#45;&gt;Tools -->
<g id="edge2" class="edge">
<title>BBinitcli&#45;&gt;Tools</title>
<path fill="none" stroke="#00a2ff" stroke-width="4" d="M620.97,-121C731.49,-121 924.51,-121 1042.62,-121"/>
<polygon fill="#00a2ff" stroke="#00a2ff" stroke-width="4" points="1042.3,-124.15 1051.3,-121 1042.3,-117.85 1042.3,-124.15"/>
<text xml:space="preserve" text-anchor="start" x="727" y="-143" font-family="sans-serif" font-weight="bold" font-style="italic" font-size="20.00" fill="#00a2ff">creates project scaffold</text>
<text xml:space="preserve" text-anchor="start" x="657.25" y="-123" font-family="sans-serif" font-weight="bold" font-style="italic" font-size="20.00" fill="#00a2ff">(buildben is no dependency of project)</text>
</g>
<!-- Tools&#45;&gt;PyTools -->
<g id="edge3" class="edge">
<title>Tools&#45;&gt;PyTools</title>
<path fill="none" stroke="#00a2ff" stroke-width="2.5" d="M1232.7,-121C1280.47,-121 1339.64,-121 1387.66,-121"/>
<polygon fill="#00a2ff" stroke="#00a2ff" stroke-width="2.5" points="1387.47,-124.15 1396.47,-121 1387.47,-117.85 1387.47,-124.15"/>
<text xml:space="preserve" text-anchor="start" x="1269.75" y="-143" font-family="sans-serif" font-weight="bold" font-style="italic" font-size="20.00" fill="#00a2ff">automate</text>
<text xml:space="preserve" text-anchor="start" x="1269" y="-123" font-family="sans-serif" font-weight="bold" font-style="italic" font-size="20.00" fill="#00a2ff">&amp; simplify</text>
</g>
<!-- PyTools&#45;&gt;Standards -->
<g id="edge4" class="edge">
<title>PyTools&#45;&gt;Standards</title>
<path fill="none" stroke="#ee220c" stroke-width="2.5" stroke-dasharray="5,2" d="M1400.36,-160.16C1353.28,-183.12 1290.87,-211.05 1233,-229 909.35,-329.37 519.06,-404.98 305.89,-442.57"/>
<polygon fill="#ee220c" stroke="#ee220c" stroke-width="2.5" points="305.41,-439.45 297.09,-444.11 306.5,-445.66 305.41,-439.45"/>
<text xml:space="preserve" text-anchor="start" x="781.38" y="-384.17" font-family="sans-serif" font-weight="bold" font-style="italic" font-size="20.00" fill="#ee220c">comply with</text>
</g>
<!-- Standards -->
<g id="node1" class="node">
<title>Standards</title>
<path fill="#f27f72" fill-opacity="0.862745" stroke="none" d="M12,-337.88C12,-337.88 281.75,-337.88 281.75,-337.88 287.75,-337.88 293.75,-343.88 293.75,-349.88 293.75,-349.88 293.75,-588.12 293.75,-588.12 293.75,-594.12 287.75,-600.12 281.75,-600.12 281.75,-600.12 12,-600.12 12,-600.12 6,-600.12 0,-594.12 0,-588.12 0,-588.12 0,-349.88 0,-349.88 0,-343.88 6,-337.88 12,-337.88"/>
<text xml:space="preserve" text-anchor="start" x="10" y="-572.12" font-family="sans-serif" font-weight="bold" font-size="20.00">Python Standards:</text>
<text xml:space="preserve" text-anchor="start" x="4" y="-526.62" font-family="monospace" font-size="20.00">• PEP 405: Virtual&#45;environment</text>
<text xml:space="preserve" text-anchor="start" x="4" y="-490.88" font-family="monospace" font-size="20.00">• PEP 621: pyproject.toml</text>
<text xml:space="preserve" text-anchor="start" x="4" y="-455.12" font-family="monospace" font-size="20.00">• PEP 660: Editable install</text>
<text xml:space="preserve" text-anchor="start" x="4" y="-419.38" font-family="monospace" font-size="20.00">• PEP 751: Lock&#45;files</text>
<text xml:space="preserve" text-anchor="start" x="4" y="-383.62" font-family="monospace" font-size="20.00">• uv: uv.lock workflow</text>
<text xml:space="preserve" text-anchor="start" x="4" y="-347.88" font-family="monospace" font-size="20.00">• PyPA: src/&#45;Layout</text>
</g>
<!-- TEMP -->
<g id="node2" class="node">
<title>TEMP</title>
<path fill="#cccccc" fill-opacity="0.466667" stroke="none" d="M80.25,-25.62C80.25,-25.62 213.5,-25.62 213.5,-25.62 219.5,-25.62 225.5,-31.62 225.5,-37.62 225.5,-37.62 225.5,-204.38 225.5,-204.38 225.5,-210.38 219.5,-216.38 213.5,-216.38 213.5,-216.38 80.25,-216.38 80.25,-216.38 74.25,-216.38 68.25,-210.38 68.25,-204.38 68.25,-204.38 68.25,-37.62 68.25,-37.62 68.25,-31.62 74.25,-25.62 80.25,-25.62"/>
<text xml:space="preserve" text-anchor="start" x="78.25" y="-188.38" font-family="sans-serif" font-weight="bold" font-size="20.00">Templates:</text>
<text xml:space="preserve" text-anchor="start" x="72.25" y="-142.88" font-family="monospace" font-size="20.00">• pyproject.toml</text>
<text xml:space="preserve" text-anchor="start" x="72.25" y="-107.12" font-family="monospace" font-size="20.00">• .envrc</text>
<text xml:space="preserve" text-anchor="start" x="72.25" y="-71.38" font-family="monospace" font-size="20.00">• justfile</text>
<text xml:space="preserve" text-anchor="start" x="72.25" y="-35.62" font-family="monospace" font-size="20.00">• ...</text>
</g>
<!-- BBinitcli -->
<g id="node3" class="node">
<title>BBinitcli</title>
<path fill="#cccccc" fill-opacity="0.466667" stroke="none" d="M461,-97.12C461,-97.12 609.25,-97.12 609.25,-97.12 615.25,-97.12 621.25,-103.12 621.25,-109.12 621.25,-109.12 621.25,-132.88 621.25,-132.88 621.25,-138.88 615.25,-144.88 609.25,-144.88 609.25,-144.88 461,-144.88 461,-144.88 455,-144.88 449,-138.88 449,-132.88 449,-132.88 449,-109.12 449,-109.12 449,-103.12 455,-97.12 461,-97.12"/>
<text xml:space="preserve" text-anchor="start" x="459" y="-116.88" font-family="sans-serif" font-weight="bold" font-size="20.00">$ bube init&#45;proj</text>
</g>
<!-- Tools -->
<g id="node4" class="node">
<title>Tools</title>
<path fill="#cccccc" fill-opacity="0.466667" stroke="none" d="M1069,-43.5C1069,-43.5 1221,-43.5 1221,-43.5 1227,-43.5 1233,-49.5 1233,-55.5 1233,-55.5 1233,-186.5 1233,-186.5 1233,-192.5 1227,-198.5 1221,-198.5 1221,-198.5 1069,-198.5 1069,-198.5 1063,-198.5 1057,-192.5 1057,-186.5 1057,-186.5 1057,-55.5 1057,-55.5 1057,-49.5 1063,-43.5 1069,-43.5"/>
<text xml:space="preserve" text-anchor="start" x="1067" y="-170.5" font-family="sans-serif" font-weight="bold" font-size="20.00">Universal Tools:</text>
<text xml:space="preserve" text-anchor="start" x="1061" y="-125" font-family="monospace" font-size="20.00">• direnv</text>
<text xml:space="preserve" text-anchor="start" x="1061" y="-89.25" font-family="monospace" font-size="20.00">• just</text>
<text xml:space="preserve" text-anchor="start" x="1061" y="-53.5" font-family="monospace" font-size="20.00">• ...</text>
</g>
<!-- PyTools -->
<g id="node5" class="node">
<title>PyTools</title>
<path fill="#cccccc" fill-opacity="0.466667" stroke="none" d="M1412.25,-25.62C1412.25,-25.62 1541.75,-25.62 1541.75,-25.62 1547.75,-25.62 1553.75,-31.62 1553.75,-37.62 1553.75,-37.62 1553.75,-204.38 1553.75,-204.38 1553.75,-210.38 1547.75,-216.38 1541.75,-216.38 1541.75,-216.38 1412.25,-216.38 1412.25,-216.38 1406.25,-216.38 1400.25,-210.38 1400.25,-204.38 1400.25,-204.38 1400.25,-37.62 1400.25,-37.62 1400.25,-31.62 1406.25,-25.62 1412.25,-25.62"/>
<text xml:space="preserve" text-anchor="start" x="1410.25" y="-188.38" font-family="sans-serif" font-weight="bold" font-size="20.00">Python Tools:</text>
<text xml:space="preserve" text-anchor="start" x="1404.25" y="-142.88" font-family="monospace" font-size="20.00">• uv sync</text>
<text xml:space="preserve" text-anchor="start" x="1404.25" y="-107.12" font-family="monospace" font-size="20.00">• uv.lock</text>
<text xml:space="preserve" text-anchor="start" x="1404.25" y="-71.38" font-family="monospace" font-size="20.00">• .venv</text>
<text xml:space="preserve" text-anchor="start" x="1404.25" y="-35.62" font-family="monospace" font-size="20.00">• ...</text>
</g>
</g>
</svg>
