<?xml version="1.0" encoding="us-ascii" standalone="no"?><svg xmlns="http://www.w3.org/2000/svg" xmlns:xlink="http://www.w3.org/1999/xlink" contentStyleType="text/css" height="733px" preserveAspectRatio="none" style="width:1769px;height:733px;" version="1.1" viewBox="0 0 1769 733" width="1769px" zoomAndPan="magnify"><defs/><g><!--cluster GE--><g id="cluster_GE"><path d="M8.5,6.7188 L214.5,6.7188 A3.75,3.75 0 0 1 217,9.2188 L224,36.2734 L527.5,36.2734 A2.5,2.5 0 0 1 530,38.7734 L530,445.2188 A2.5,2.5 0 0 1 527.5,447.7188 L8.5,447.7188 A2.5,2.5 0 0 1 6,445.2188 L6,9.2188 A2.5,2.5 0 0 1 8.5,6.7188 " fill="#999999" fill-opacity="0.60000" style="stroke:#99999999;stroke-width:1.5;"/><line style="stroke:#99999999;stroke-width:1.5;" x1="6" x2="224" y1="36.2734" y2="36.2734"/><text fill="#FFFFFF" font-family="sans-serif" font-size="20" font-weight="bold" lengthAdjust="spacing" textLength="205" x="10" y="28.0547">Global Environment</text></g><!--cluster PDIR--><g id="cluster_PDIR"><path d="M724.5,95.7188 L901.5,95.7188 A3.75,3.75 0 0 1 904,98.2188 L911,125.2734 L1027.5,125.2734 A2.5,2.5 0 0 1 1030,127.7734 L1030,724.2188 A2.5,2.5 0 0 1 1027.5,726.7188 L724.5,726.7188 A2.5,2.5 0 0 1 722,724.2188 L722,98.2188 A2.5,2.5 0 0 1 724.5,95.7188 " fill="#999999" fill-opacity="0.60000" style="stroke:#99999999;stroke-width:1.5;"/><line style="stroke:#99999999;stroke-width:1.5;" x1="722" x2="911" y1="125.2734" y2="125.2734"/><text fill="#FFFFFF" font-family="sans-serif" font-size="20" font-weight="bold" lengthAdjust="spacing" textLength="176" x="726" y="117.0547">Project Directory</text></g><!--cluster VENV--><g id="cluster_VENV"><path d="M1185.5,342.7188 L1394.5,342.7188 A3.75,3.75 0 0 1 1397,345.2188 L1404,372.2734 L1759.5,372.2734 A2.5,2.5 0 0 1 1762,374.7734 L1762,553.2188 A2.5,2.5 0 0 1 1759.5,555.7188 L1185.5,555.7188 A2.5,2.5 0 0 1 1183,553.2188 L1183,345.2188 A2.5,2.5 0 0 1 1185.5,342.7188 " fill="#999999" fill-opacity="0.60000" style="stroke:#99999999;stroke-width:1.5;"/><line style="stroke:#99999999;stroke-width:1.5;" x1="1183" x2="1404" y1="372.2734" y2="372.2734"/><text fill="#FFFFFF" font-family="sans-serif" font-size="20" font-weight="bold" lengthAdjust="spacing" textLength="208" x="1187" y="364.0547">Virtual Environment</text></g><!--class B--><g id="elem_B"><rect codeLine="25" fill="#999999" height="120.2188" id="B" rx="2.5" ry="2.5" style="stroke:#00000099;stroke-width:0.5;" width="194" x="320" y="54.6087"/><ellipse cx="369.5" cy="83.1634" fill="#B4A7E5" rx="12" ry="12" style="stroke:#181818;stroke-width:1.0;"/><path d="M365.1797,78.6224 L365.1797,76.0834 L373.8613,76.0834 L373.8613,78.6224 L370.9609,78.6224 L370.9609,88.1244 L373.8613,88.1244 L373.8613,90.6634 L365.1797,90.6634 L365.1797,88.1244 L368.0801,88.1244 L368.0801,78.6224 Z " fill="#000000"/><text fill="#000000" font-family="sans-serif" font-size="20" font-style="italic" lengthAdjust="spacing" textLength="51" x="409" y="78.9447">&#171;CLI&#187;</text><text fill="#000000" font-family="sans-serif" font-size="20" font-style="italic" lengthAdjust="spacing" textLength="86" x="391.5" y="102.4994">buildben</text><line style="stroke:#00000099;stroke-width:0.5;" x1="321" x2="513" y1="111.7181" y2="111.7181"/><line style="stroke:#00000099;stroke-width:0.5;" x1="321" x2="513" y1="119.7181" y2="119.7181"/><ellipse cx="331" cy="136.9955" fill="#84BE84" rx="3" ry="3" style="stroke:#038048;stroke-width:1.0;"/><text fill="#000000" font-family="sans-serif" font-size="20" lengthAdjust="spacing" textLength="96" x="341" y="143.0541">init-proj()</text><ellipse cx="331" cy="160.5502" fill="#84BE84" rx="3" ry="3" style="stroke:#038048;stroke-width:1.0;"/><text fill="#000000" font-family="sans-serif" font-size="20" lengthAdjust="spacing" textLength="167" x="341" y="166.6088">init-experiment()</text></g><!--class PIP--><g id="elem_PIP"><rect codeLine="29" fill="#999999" height="96.6641" id="PIP" rx="2.5" ry="2.5" style="stroke:#00000099;stroke-width:0.5;" width="132" x="40" y="48.3887"/><ellipse cx="56" cy="76.9434" fill="#ADD1B2" rx="12" ry="12" style="stroke:#181818;stroke-width:1.0;"/><path d="M58.8066,84.0235 Q58.123,84.3751 57.3711,84.5509 Q56.6191,84.7266 55.7891,84.7266 Q52.8398,84.7266 51.2871,82.7833 Q49.7344,80.8399 49.7344,77.168 Q49.7344,73.4864 51.2871,71.543 Q52.8398,69.5997 55.7891,69.5997 Q56.6191,69.5997 57.3809,69.7755 Q58.1426,69.9512 58.8066,70.3028 L58.8066,73.5059 Q58.0645,72.8223 57.3662,72.505 Q56.668,72.1876 55.9258,72.1876 Q54.3438,72.1876 53.5381,73.4425 Q52.7324,74.6973 52.7324,77.168 Q52.7324,79.629 53.5381,80.8839 Q54.3438,82.1387 55.9258,82.1387 Q56.668,82.1387 57.3662,81.8214 Q58.0645,81.504 58.8066,80.8204 Z " fill="#000000"/><text fill="#000000" font-family="sans-serif" font-size="20" font-style="italic" lengthAdjust="spacing" textLength="51" x="94.5" y="72.7247">&#171;CLI&#187;</text><text fill="#000000" font-family="sans-serif" font-size="20" lengthAdjust="spacing" textLength="98" x="71" y="96.2794">pip / pipx</text><line style="stroke:#00000099;stroke-width:0.5;" x1="41" x2="171" y1="105.4981" y2="105.4981"/><line style="stroke:#00000099;stroke-width:0.5;" x1="41" x2="171" y1="113.4981" y2="113.4981"/><ellipse cx="51" cy="130.7755" fill="#84BE84" rx="3" ry="3" style="stroke:#038048;stroke-width:1.0;"/><text fill="#000000" font-family="sans-serif" font-size="20" lengthAdjust="spacing" textLength="72" x="61" y="136.8341">install()</text></g><!--class J--><g id="elem_J"><rect codeLine="33" fill="#999999" height="73.1094" id="J" rx="2.5" ry="2.5" style="stroke:#00000099;stroke-width:0.5;" width="81" x="65.5" y="358.1688"/><ellipse cx="81.5" cy="386.7234" fill="#ADD1B2" rx="12" ry="12" style="stroke:#181818;stroke-width:1.0;"/><path d="M84.3066,393.8035 Q83.623,394.1551 82.8711,394.3309 Q82.1191,394.5066 81.2891,394.5066 Q78.3398,394.5066 76.7871,392.5633 Q75.2344,390.6199 75.2344,386.948 Q75.2344,383.2664 76.7871,381.323 Q78.3398,379.3797 81.2891,379.3797 Q82.1191,379.3797 82.8809,379.5555 Q83.6426,379.7313 84.3066,380.0828 L84.3066,383.2859 Q83.5645,382.6023 82.8662,382.285 Q82.168,381.9676 81.4258,381.9676 Q79.8438,381.9676 79.0381,383.2225 Q78.2324,384.4773 78.2324,386.948 Q78.2324,389.409 79.0381,390.6639 Q79.8438,391.9188 81.4258,391.9188 Q82.168,391.9188 82.8662,391.6014 Q83.5645,391.284 84.3066,390.6004 Z " fill="#000000"/><text fill="#000000" font-family="sans-serif" font-size="20" font-style="italic" lengthAdjust="spacing" textLength="51" x="94.5" y="382.5047">&#171;CLI&#187;</text><text fill="#000000" font-family="sans-serif" font-size="20" lengthAdjust="spacing" textLength="35" x="102.5" y="406.0594">just</text><line style="stroke:#00000099;stroke-width:0.5;" x1="66.5" x2="145.5" y1="415.2781" y2="415.2781"/><line style="stroke:#00000099;stroke-width:0.5;" x1="66.5" x2="145.5" y1="423.2781" y2="423.2781"/></g><!--class D--><g id="elem_D"><rect codeLine="34" fill="#999999" height="143.7734" id="D" rx="2.5" ry="2.5" style="stroke:#00000099;stroke-width:0.5;" width="168" x="22" y="179.8288"/><ellipse cx="70.5" cy="208.3834" fill="#ADD1B2" rx="12" ry="12" style="stroke:#181818;stroke-width:1.0;"/><path d="M73.3066,215.4635 Q72.623,215.8151 71.8711,215.9909 Q71.1191,216.1666 70.2891,216.1666 Q67.3398,216.1666 65.7871,214.2233 Q64.2344,212.2799 64.2344,208.608 Q64.2344,204.9264 65.7871,202.983 Q67.3398,201.0397 70.2891,201.0397 Q71.1191,201.0397 71.8809,201.2155 Q72.6426,201.3913 73.3066,201.7428 L73.3066,204.9459 Q72.5645,204.2623 71.8662,203.945 Q71.168,203.6276 70.4258,203.6276 Q68.8438,203.6276 68.0381,204.8825 Q67.2324,206.1373 67.2324,208.608 Q67.2324,211.069 68.0381,212.3239 Q68.8438,213.5788 70.4258,213.5788 Q71.168,213.5788 71.8662,213.2614 Q72.5645,212.944 73.3066,212.2604 Z " fill="#000000"/><text fill="#000000" font-family="sans-serif" font-size="20" font-style="italic" lengthAdjust="spacing" textLength="51" x="98" y="204.1647">&#171;CLI&#187;</text><text fill="#000000" font-family="sans-serif" font-size="20" lengthAdjust="spacing" textLength="62" x="92.5" y="227.7194">Direnv</text><line style="stroke:#00000099;stroke-width:0.5;" x1="23" x2="189" y1="236.9381" y2="236.9381"/><line style="stroke:#00000099;stroke-width:0.5;" x1="23" x2="189" y1="244.9381" y2="244.9381"/><ellipse cx="33" cy="262.2155" fill="#84BE84" rx="3" ry="3" style="stroke:#038048;stroke-width:1.0;"/><text fill="#000000" font-family="sans-serif" font-size="20" lengthAdjust="spacing" textLength="72" x="43" y="268.2741">layout()</text><ellipse cx="33" cy="285.7702" fill="#84BE84" rx="3" ry="3" style="stroke:#038048;stroke-width:1.0;"/><text fill="#000000" font-family="sans-serif" font-size="20" lengthAdjust="spacing" textLength="141" x="43" y="291.8288">direnv reload()</text><ellipse cx="33" cy="309.3248" fill="#84BE84" rx="3" ry="3" style="stroke:#038048;stroke-width:1.0;"/><text fill="#000000" font-family="sans-serif" font-size="20" lengthAdjust="spacing" textLength="124" x="43" y="315.3834">direnv exec()</text></g><!--class PPRT--><g id="elem_PPRT"><rect codeLine="45" fill="#999999" height="73.1094" id="PPRT" rx="2.5" ry="2.5" style="stroke:#00000099;stroke-width:0.5;" width="174" x="789" y="498.1688"/><ellipse cx="805" cy="526.7234" fill="#ADD1B2" rx="12" ry="12" style="stroke:#181818;stroke-width:1.0;"/><path d="M807.8066,533.8035 Q807.123,534.1551 806.3711,534.3309 Q805.6191,534.5066 804.7891,534.5066 Q801.8398,534.5066 800.2871,532.5633 Q798.7344,530.6199 798.7344,526.948 Q798.7344,523.2664 800.2871,521.323 Q801.8398,519.3797 804.7891,519.3797 Q805.6191,519.3797 806.3809,519.5555 Q807.1426,519.7313 807.8066,520.0828 L807.8066,523.2859 Q807.0645,522.6023 806.3662,522.285 Q805.668,521.9676 804.9258,521.9676 Q803.3438,521.9676 802.5381,523.2225 Q801.7324,524.4773 801.7324,526.948 Q801.7324,529.409 802.5381,530.6639 Q803.3438,531.9188 804.9258,531.9188 Q805.668,531.9188 806.3662,531.6014 Q807.0645,531.284 807.8066,530.6004 Z " fill="#000000"/><text fill="#000000" font-family="sans-serif" font-size="20" font-style="italic" lengthAdjust="spacing" textLength="54" x="863" y="522.5047">&#171;File&#187;</text><text fill="#000000" font-family="sans-serif" font-size="20" lengthAdjust="spacing" textLength="140" x="820" y="546.0594">pyproject.toml</text><line style="stroke:#00000099;stroke-width:0.5;" x1="790" x2="962" y1="555.2781" y2="555.2781"/><line style="stroke:#00000099;stroke-width:0.5;" x1="790" x2="962" y1="563.2781" y2="563.2781"/></g><!--class JF--><g id="elem_JF"><rect codeLine="47" fill="#999999" height="143.7734" id="JF" rx="2.5" ry="2.5" style="stroke:#00000099;stroke-width:0.5;" width="158" x="797" y="319.8288"/><ellipse cx="839.55" cy="348.3834" fill="#B4A7E5" rx="12" ry="12" style="stroke:#181818;stroke-width:1.0;"/><path d="M835.2297,343.8424 L835.2297,341.3034 L843.9113,341.3034 L843.9113,343.8424 L841.0109,343.8424 L841.0109,353.3444 L843.9113,353.3444 L843.9113,355.8834 L835.2297,355.8834 L835.2297,353.3444 L838.1301,353.3444 L838.1301,343.8424 Z " fill="#000000"/><text fill="#000000" font-family="sans-serif" font-size="20" font-style="italic" lengthAdjust="spacing" textLength="54" x="865.95" y="344.1647">&#171;File&#187;</text><text fill="#000000" font-family="sans-serif" font-size="20" font-style="italic" lengthAdjust="spacing" textLength="65" x="860.45" y="367.7194">justfile</text><line style="stroke:#00000099;stroke-width:0.5;" x1="798" x2="954" y1="376.9381" y2="376.9381"/><line style="stroke:#00000099;stroke-width:0.5;" x1="798" x2="954" y1="384.9381" y2="384.9381"/><ellipse cx="808" cy="402.2155" fill="#84BE84" rx="3" ry="3" style="stroke:#038048;stroke-width:1.0;"/><text fill="#000000" font-family="sans-serif" font-size="20" lengthAdjust="spacing" textLength="61" x="818" y="408.2741">reset()</text><ellipse cx="808" cy="425.7702" fill="#84BE84" rx="3" ry="3" style="stroke:#038048;stroke-width:1.0;"/><text fill="#000000" font-family="sans-serif" font-size="20" lengthAdjust="spacing" textLength="131" x="818" y="431.8288">install-deps()</text><ellipse cx="808" cy="449.3248" fill="#84BE84" rx="3" ry="3" style="stroke:#038048;stroke-width:1.0;"/><text fill="#000000" font-family="sans-serif" font-size="20" lengthAdjust="spacing" textLength="32" x="818" y="455.3834">...()</text></g><!--class ERC--><g id="elem_ERC"><rect codeLine="53" fill="#999999" height="120.2188" id="ERC" rx="2.5" ry="2.5" style="stroke:#00000099;stroke-width:0.5;" width="178" x="787" y="164.6088"/><ellipse cx="832.25" cy="193.1634" fill="#ADD1B2" rx="12" ry="12" style="stroke:#181818;stroke-width:1.0;"/><path d="M835.0566,200.2435 Q834.373,200.5951 833.6211,200.7709 Q832.8691,200.9466 832.0391,200.9466 Q829.0898,200.9466 827.5371,199.0033 Q825.9844,197.0599 825.9844,193.388 Q825.9844,189.7064 827.5371,187.763 Q829.0898,185.8197 832.0391,185.8197 Q832.8691,185.8197 833.6309,185.9955 Q834.3926,186.1713 835.0566,186.5228 L835.0566,189.7259 Q834.3145,189.0423 833.6162,188.725 Q832.918,188.4076 832.1758,188.4076 Q830.5938,188.4076 829.7881,189.6625 Q828.9824,190.9173 828.9824,193.388 Q828.9824,195.849 829.7881,197.1039 Q830.5938,198.3588 832.1758,198.3588 Q832.918,198.3588 833.6162,198.0414 Q834.3145,197.724 835.0566,197.0404 Z " fill="#000000"/><text fill="#000000" font-family="sans-serif" font-size="20" font-style="italic" lengthAdjust="spacing" textLength="83" x="851.75" y="188.9447">&#171;Config&#187;</text><text fill="#000000" font-family="sans-serif" font-size="20" lengthAdjust="spacing" textLength="57" x="864.75" y="212.4994">.envrc</text><line style="stroke:#00000099;stroke-width:0.5;" x1="788" x2="964" y1="221.7181" y2="221.7181"/><ellipse cx="798" cy="238.9955" fill="none" rx="3" ry="3" style="stroke:#038048;stroke-width:1.0;"/><text fill="#000000" font-family="sans-serif" font-size="20" lengthAdjust="spacing" textLength="151" x="808" y="245.0541">PROJECT_NAME</text><ellipse cx="798" cy="262.5502" fill="none" rx="3" ry="3" style="stroke:#038048;stroke-width:1.0;"/><text fill="#000000" font-family="sans-serif" font-size="20" lengthAdjust="spacing" textLength="100" x="808" y="268.6088">ENV_VARS</text><line style="stroke:#00000099;stroke-width:0.5;" x1="788" x2="964" y1="276.8275" y2="276.8275"/></g><!--class RE--><g id="elem_RE"><rect codeLine="58" fill="#999999" height="96.6641" id="RE" rx="2.5" ry="2.5" style="stroke:#00000099;stroke-width:0.5;" width="260" x="746" y="606.3888"/><ellipse cx="762" cy="646.7208" fill="#ADD1B2" rx="12" ry="12" style="stroke:#181818;stroke-width:1.0;"/><path d="M764.8066,653.8009 Q764.123,654.1524 763.3711,654.3282 Q762.6191,654.504 761.7891,654.504 Q758.8398,654.504 757.2871,652.5606 Q755.7344,650.6173 755.7344,646.9454 Q755.7344,643.2638 757.2871,641.3204 Q758.8398,639.377 761.7891,639.377 Q762.6191,639.377 763.3809,639.5528 Q764.1426,639.7286 764.8066,640.0802 L764.8066,643.2833 Q764.0645,642.5997 763.3662,642.2823 Q762.668,641.9649 761.9258,641.9649 Q760.3438,641.9649 759.5381,643.2198 Q758.7324,644.4747 758.7324,646.9454 Q758.7324,649.4063 759.5381,650.6612 Q760.3438,651.9161 761.9258,651.9161 Q762.668,651.9161 763.3662,651.5987 Q764.0645,651.2813 764.8066,650.5977 Z " fill="#000000"/><text fill="#000000" font-family="sans-serif" font-size="20" font-style="italic" lengthAdjust="spacing" textLength="54" x="863" y="630.7247">&#171;File&#187;</text><text fill="#000000" font-family="sans-serif" font-size="20" lengthAdjust="spacing" textLength="160" x="807" y="654.2794">requirements.txt</text><text fill="#000000" font-family="sans-serif" font-size="20" lengthAdjust="spacing" textLength="226" x="777" y="677.8341">+ dev_requirements.txt</text><line style="stroke:#00000099;stroke-width:0.5;" x1="747" x2="1005" y1="687.0528" y2="687.0528"/><line style="stroke:#00000099;stroke-width:0.5;" x1="747" x2="1005" y1="695.0528" y2="695.0528"/></g><!--class PT--><g id="elem_PT"><rect codeLine="63" fill="#999999" height="120.2188" id="PT" rx="2.5" ry="2.5" style="stroke:#00000099;stroke-width:0.5;" width="162" x="1207" y="411.6088"/><ellipse cx="1239.65" cy="440.1634" fill="#ADD1B2" rx="12" ry="12" style="stroke:#181818;stroke-width:1.0;"/><path d="M1242.4566,447.2435 Q1241.773,447.5951 1241.0211,447.7709 Q1240.2691,447.9466 1239.4391,447.9466 Q1236.4898,447.9466 1234.9371,446.0033 Q1233.3844,444.0599 1233.3844,440.388 Q1233.3844,436.7064 1234.9371,434.763 Q1236.4898,432.8197 1239.4391,432.8197 Q1240.2691,432.8197 1241.0309,432.9955 Q1241.7926,433.1713 1242.4566,433.5228 L1242.4566,436.7259 Q1241.7145,436.0423 1241.0162,435.725 Q1240.318,435.4076 1239.5758,435.4076 Q1237.9938,435.4076 1237.1881,436.6625 Q1236.3824,437.9173 1236.3824,440.388 Q1236.3824,442.849 1237.1881,444.1039 Q1237.9938,445.3588 1239.5758,445.3588 Q1240.318,445.3588 1241.0162,445.0414 Q1241.7145,444.724 1242.4566,444.0404 Z " fill="#000000"/><text fill="#000000" font-family="sans-serif" font-size="20" font-style="italic" lengthAdjust="spacing" textLength="63" x="1272.35" y="435.9447">&#171;Tool&#187;</text><text fill="#000000" font-family="sans-serif" font-size="20" lengthAdjust="spacing" textLength="91" x="1258.35" y="459.4994">pip-tools</text><line style="stroke:#00000099;stroke-width:0.5;" x1="1208" x2="1368" y1="468.7181" y2="468.7181"/><line style="stroke:#00000099;stroke-width:0.5;" x1="1208" x2="1368" y1="476.7181" y2="476.7181"/><ellipse cx="1218" cy="493.9955" fill="#84BE84" rx="3" ry="3" style="stroke:#038048;stroke-width:1.0;"/><text fill="#000000" font-family="sans-serif" font-size="20" lengthAdjust="spacing" textLength="135" x="1228" y="500.0541">pip-compile()</text><ellipse cx="1218" cy="517.5502" fill="#84BE84" rx="3" ry="3" style="stroke:#038048;stroke-width:1.0;"/><text fill="#000000" font-family="sans-serif" font-size="20" lengthAdjust="spacing" textLength="100" x="1228" y="523.6088">pip-sync()</text></g><!--class PD--><g id="elem_PD"><rect codeLine="67" fill="#999999" height="73.1094" id="PD" rx="2.5" ry="2.5" style="stroke:#00000099;stroke-width:0.5;" width="239" x="1499" y="435.1688"/><ellipse cx="1515" cy="463.7234" fill="#ADD1B2" rx="12" ry="12" style="stroke:#181818;stroke-width:1.0;"/><path d="M1517.8066,470.8035 Q1517.123,471.1551 1516.3711,471.3309 Q1515.6191,471.5066 1514.7891,471.5066 Q1511.8398,471.5066 1510.2871,469.5633 Q1508.7344,467.6199 1508.7344,463.948 Q1508.7344,460.2664 1510.2871,458.323 Q1511.8398,456.3797 1514.7891,456.3797 Q1515.6191,456.3797 1516.3809,456.5555 Q1517.1426,456.7313 1517.8066,457.0828 L1517.8066,460.2859 Q1517.0645,459.6023 1516.3662,459.285 Q1515.668,458.9676 1514.9258,458.9676 Q1513.3438,458.9676 1512.5381,460.2225 Q1511.7324,461.4773 1511.7324,463.948 Q1511.7324,466.409 1512.5381,467.6639 Q1513.3438,468.9188 1514.9258,468.9188 Q1515.668,468.9188 1516.3662,468.6014 Q1517.0645,468.284 1517.8066,467.6004 Z " fill="#000000"/><text fill="#000000" font-family="sans-serif" font-size="20" font-style="italic" lengthAdjust="spacing" textLength="55" x="1605" y="459.5047">&#171;Pkg&#187;</text><text fill="#000000" font-family="sans-serif" font-size="20" lengthAdjust="spacing" textLength="205" x="1530" y="483.0594">python dependencies</text><line style="stroke:#00000099;stroke-width:0.5;" x1="1500" x2="1737" y1="492.2781" y2="492.2781"/><line style="stroke:#00000099;stroke-width:0.5;" x1="1500" x2="1737" y1="500.2781" y2="500.2781"/></g><!--link PT to PD--><g id="link_PT_PD"><path codeLine="90" d="M1369.36,471.7188 C1408.2,471.7188 1449.6,471.7188 1492.53,471.7188 " fill="none" id="PT-to-PD" style="stroke:#6DA0D0;stroke-width:2.5;"/><polygon fill="#6DA0D0" points="1498.53,471.7188,1489.53,467.7188,1493.53,471.7188,1489.53,475.7188,1498.53,471.7188" style="stroke:#6DA0D0;stroke-width:2.5;"/><text fill="#6DA0D0" font-family="sans-serif" font-size="20" lengthAdjust="spacing" textLength="68" x="1400" y="467.0547">installs</text></g><!--link PIP to B--><g id="link_PIP_B"><path codeLine="91" d="M172.15,100.5187 C214.91,103.0087 265.6001,105.9602 313.5501,108.7502 " fill="none" id="PIP-to-B" style="stroke:#6DA0D0;stroke-width:2.5;"/><polygon fill="#6DA0D0" points="319.54,109.0988,310.7875,104.5827,314.5484,108.8083,310.3228,112.5692,319.54,109.0988" style="stroke:#6DA0D0;stroke-width:2.5;"/><text fill="#6DA0D0" font-family="sans-serif" font-size="20" lengthAdjust="spacing" textLength="68" x="221" y="98.9147">installs</text></g><!--link B to PDIR--><g id="link_B_PDIR"><path codeLine="92" d="M514.36,117.8787 C547.355,118.9612 585.9513,120.2281 625.3938,121.523 C645.115,122.1704 665.0478,122.8248 684.5978,123.4667 C694.3728,123.7876 704.0521,124.1054 713.5614,124.4176 C715.9387,124.4956 712.3087,124.3765 714.6636,124.4538 " fill="none" id="B-to-PDIR" style="stroke:#6DA0D0;stroke-width:2.5;"/><polygon fill="#6DA0D0" points="720.6603,124.6506,711.7964,120.3575,715.663,124.4866,711.5339,128.3532,720.6603,124.6506" style="stroke:#6DA0D0;stroke-width:2.5;"/><text fill="#6DA0D0" font-family="sans-serif" font-size="20" lengthAdjust="spacing" textLength="150" x="547" y="114.4847">creates scaffold</text></g><!--link ERC to PT--><g id="link_ERC_PT"><path codeLine="93" d="M965.12,264.3588 C993.46,277.0188 1025.02,291.0388 1054,303.7188 C1100.52,324.0688 1128.26,308.3088 1159,348.7188 C1175.02,369.7788 1151.89,385.9988 1167,407.7188 C1177.05,422.1588 1186.2346,430.5831 1201.5446,439.5631 " fill="none" id="ERC-to-PT" style="stroke:#6DA0D0;stroke-width:2.5;"/><polygon fill="#6DA0D0" points="1206.72,442.5988,1200.9806,434.595,1202.4071,440.0691,1196.9331,441.4956,1206.72,442.5988" style="stroke:#6DA0D0;stroke-width:2.5;"/><text fill="#6DA0D0" font-family="sans-serif" font-size="20" lengthAdjust="spacing" textLength="68" x="1072.5" y="299.0547">installs</text></g><!--link PT to RE--><g id="link_PT_RE"><path codeLine="94" d="M1210.94,532.2088 C1194.41,543.6688 1176.59,554.8388 1159,563.7188 C1111.13,587.8988 1061.2278,605.7473 1012.0778,620.4673 " fill="none" id="PT-to-RE" style="stroke:#6DA0D0;stroke-width:2.5;"/><polygon fill="#6DA0D0" points="1006.33,622.1888,1016.0992,623.4385,1011.1198,620.7542,1013.804,615.7748,1006.33,622.1888" style="stroke:#6DA0D0;stroke-width:2.5;"/><text fill="#6DA0D0" font-family="sans-serif" font-size="20" lengthAdjust="spacing" textLength="87" x="1060" y="535.0547">compiles</text><text fill="#6DA0D0" font-family="sans-serif" font-size="20" lengthAdjust="spacing" textLength="72" x="1070.5" y="558.6094">&amp; syncs</text></g><!--link ERC to VENV--><g id="link_ERC_VENV"><path codeLine="106" d="M965.27,227.2387 C1022.67,231.6888 1097.92,242.9488 1159,270.7188 C1192.095,285.7637 1223.62,311.6763 1247.1038,334.115 C1250.0392,336.9198 1248.6038,335.4304 1251.2754,338.0986 " fill="none" id="ERC-to-VENV" style="stroke:#6DD089;stroke-width:2.5;"/><polygon fill="#6DD089" points="1255.5206,342.3387,1251.9794,333.1485,1251.9829,338.8053,1246.326,338.8088,1255.5206,342.3387" style="stroke:#6DD089;stroke-width:2.5;"/><text fill="#6DD089" font-family="sans-serif" font-size="20" lengthAdjust="spacing" textLength="68" x="1069.5" y="210.3747">creates</text><text fill="#6DD089" font-family="sans-serif" font-size="20" lengthAdjust="spacing" textLength="103" x="1055" y="233.9294">&amp; activates</text></g><!--link JF to VENV--><g id="link_JF_VENV"><path codeLine="107" d="M955.08,388.8588 C1013.63,386.7188 1094.9525,383.7438 1162.4475,381.275 C1166.6659,381.1207 1170.8304,380.9684 1174.9318,380.8184 C1176.9826,380.7434 1179.0176,380.6689 1181.0357,380.5951 C1181.5403,380.5767 1176.0477,380.7776 1176.5502,380.7592 " fill="none" id="JF-to-VENV" style="stroke:#6DD089;stroke-width:2.5;"/><polygon fill="#6DD089" points="1182.5462,380.5399,1173.406,376.8715,1177.5495,380.7226,1173.6984,384.8662,1182.5462,380.5399" style="stroke:#6DD089;stroke-width:2.5;"/><text fill="#6DD089" font-family="sans-serif" font-size="20" lengthAdjust="spacing" textLength="86" x="1063.5" y="376.9047">manages</text></g><!--reverse link D to ERC--><g id="link_D_ERC"><path codeLine="121" d="M196.2763,248.5781 C342.2863,243.4481 637.12,233.0788 786.64,227.8288 " fill="none" id="D-backto-ERC" style="stroke:#0E467BEE;stroke-width:2.5;stroke-dasharray:10.0,5.0;"/><polygon fill="#0E467B" fill-opacity="0.93333" points="190.28,248.7888,199.4149,252.4703,195.2769,248.6132,199.134,244.4752,190.28,248.7888" style="stroke:#0E467BEE;stroke-width:2.5;"/></g><!--reverse link J to JF--><g id="link_J_JF"><path codeLine="122" d="M152.94,394.5355 C274.41,394.0655 634.93,392.6588 796.76,392.0288 " fill="none" id="J-backto-JF" style="stroke:#0E467BEE;stroke-width:2.5;stroke-dasharray:10.0,5.0;"/><polygon fill="#0E467B" fill-opacity="0.93333" points="146.94,394.5588,155.9554,398.5239,151.94,394.5394,155.9245,390.524,146.94,394.5588" style="stroke:#0E467BEE;stroke-width:2.5;"/></g><!--reverse link D to JF--><g id="link_D_JF"><path codeLine="123" d="M196.1827,267.9748 C345.4927,295.1948 650.8,350.8488 796.54,377.4188 " fill="none" id="D-backto-JF" style="stroke:#0E467BEE;stroke-width:2.5;stroke-dasharray:10.0,5.0;"/><polygon fill="#0E467B" fill-opacity="0.93333" points="190.28,266.8988,198.4167,272.448,195.1989,267.7955,199.8515,264.5778,190.28,266.8988" style="stroke:#0E467BEE;stroke-width:2.5;"/></g><!--link JF to PT--><g id="link_JF_PT"><path codeLine="125" d="M955.08,406.9588 C1027.22,421.0288 1128.0511,440.6996 1200.8711,454.9096 " fill="none" id="JF-to-PT" style="stroke:#0E467BEE;stroke-width:2.5;stroke-dasharray:10.0,5.0;"/><polygon fill="#0E467B" fill-opacity="0.93333" points="1206.76,456.0588,1198.6927,450.4091,1201.8526,455.1011,1197.1605,458.261,1206.76,456.0588" style="stroke:#0E467BEE;stroke-width:2.5;"/></g><!--link PT to PPRT--><g id="link_PT_PPRT"><path codeLine="126" d="M1206.59,484.0788 C1136.54,494.8388 1041.1504,509.4973 969.3804,520.5273 " fill="none" id="PT-to-PPRT" style="stroke:#0E467BEE;stroke-width:2.5;stroke-dasharray:10.0,5.0;"/><polygon fill="#0E467B" fill-opacity="0.93333" points="963.45,521.4388,972.9532,524.0252,968.392,520.6792,971.738,516.1181,963.45,521.4388" style="stroke:#0E467BEE;stroke-width:2.5;"/></g><!--SRC=[hLPjRziu3FxkNy6bm7g7mLxMhRjRa1PecxHeiUiPIT1z6L0ejfngKILFKhhcXlpt8nKdLfoq6x3nWmsJ55yUliYI5mwS1YCcTmvoONZcX5RHFZ9B4eorS_e-aA3ewEW8BgGUCmbIwocyX89pIUoQ8ZiLgcI6uLbUi9bqvrgveVYFmq4x49woR3enUgRoCosr0MUOiYZYoWLQ9Mgn2OVl4I0rp-nzg6WfrIRdvcd99v6xEpZm78ffgGcmLtYA5e7VJ39hd_UwvPDeh-q9fOkeGkpNQMK9qYKQdLKH-kf16Atk4RD64LQujROrMy0iNFIhvFn3ACTDmJBK7y-4pCTSjNmwf7gAhsxtxEFbyV7o2D4heOIBIwE__F5dWyaVIsu4UQf42_zS8jegHGcl0P-FhSf-Ufdkj6yTatB3H6Zdoyow5gm9xLpLSOQAFMnWzT0A57ix4v9ihcSkp2Rt9y5mgLc-Gy0VUROPtsAhK2aYXFC3FJz6sioVgjEMeYzJshiSX8LQWJWlb-e9ZgWCO6WIcKW78qptN4XU0TCiEK5PeFWPEpN8vx0s1W5wXblkDbl1ro_EUMb3Vf8aJzOqGLHDziCmV23zmPclebQ5c6mKCXtyUzK_6zrUd_pJhxdzwvlRcvF1y0dNXd-T8VBKjJPnZmu-grUulnvkcm9Vba4VQXXsLFr663VxkVdSeUfTt6305S3rvCHEQsbREueyedX6ADs0Weva-hx4ECCQ4DlELRPpFkVkJYjClUGgvoeJlFBdkv6yfDD9rKZx62NeE2P11p9SgGpB_XistmhG8LuA_duwCKP_imqCewvrSwn0n4XQWVLHA5wjwVSvQ-VjnheFkQGxkXFPL75C_I0vhDjY7rwyW6lju9CsU2bCF3DntBgWwmDVuxU7_91NS2wYxkigD4m4QnF7nuHHjqi6S70wK8s7XQWMrzo8TY9nJpTKJojDt0b0W1lEq23OZ1M5bdb4C-4rHZwyXXSlyfth3o_RmcAZlmHg1hk-POOfpmIsvFFe_n3ylFttXstmFNS3eLNKlkDX8pEAZU7VnmDzHRXxrdeTk6SA1wYEkXTqxCysof3OyAOT7pR3R_Dtx_yQSzvCOCqFCuZyZO9pGAb4LzK7hKfgfrxZc_88oxJk05pKb8p7G-BlMGohCvtbkaOeB3KKRVGaMHdeu0t5SXZF_mS0]--></g></svg>