<?xml version="1.0" encoding="us-ascii" standalone="no"?><svg xmlns="http://www.w3.org/2000/svg" xmlns:xlink="http://www.w3.org/1999/xlink" contentStyleType="text/css" height="822px" preserveAspectRatio="none" style="width:1725px;height:822px;" version="1.1" viewBox="0 0 1725 822" width="1725px" zoomAndPan="magnify"><defs/><g><!--cluster GE--><g id="cluster_GE"><path d="M8.5,7.2168 L233.5,7.2168 A3.75,3.75 0 0 1 236,9.7168 L243,36.498 L546.5,36.498 A2.5,2.5 0 0 1 549,38.998 L549,444.7168 A2.5,2.5 0 0 1 546.5,447.2168 L8.5,447.2168 A2.5,2.5 0 0 1 6,444.7168 L6,9.7168 A2.5,2.5 0 0 1 8.5,7.2168 " fill="#999999" fill-opacity="0.40000" style="stroke:#99999966;stroke-width:1.5;"/><line style="stroke:#99999966;stroke-width:1.5;" x1="6" x2="243" y1="36.498" y2="36.498"/><text fill="#FFFFFF" font-family="sans-serif" font-size="20" font-weight="bold" lengthAdjust="spacing" textLength="224" x="10" y="27.7813">Global Environment</text></g><!--cluster PDIR--><g id="cluster_PDIR"><path d="M671.5,93.2168 L868.5,93.2168 A3.75,3.75 0 0 1 871,95.7168 L878,122.498 L959.5,122.498 A2.5,2.5 0 0 1 962,124.998 L962,812.7168 A2.5,2.5 0 0 1 959.5,815.2168 L671.5,815.2168 A2.5,2.5 0 0 1 669,812.7168 L669,95.7168 A2.5,2.5 0 0 1 671.5,93.2168 " fill="#D9C499" fill-opacity="0.40000" style="stroke:#99999966;stroke-width:1.5;"/><line style="stroke:#99999966;stroke-width:1.5;" x1="669" x2="878" y1="122.498" y2="122.498"/><text fill="#FFFFFF" font-family="sans-serif" font-size="20" font-weight="bold" lengthAdjust="spacing" textLength="196" x="673" y="113.7813">Project Directory</text></g><!--cluster VENV--><g id="cluster_VENV"><path d="M1127.5,340.2168 L1462.5,340.2168 A3.75,3.75 0 0 1 1465,342.7168 L1472,369.498 L1715.5,369.498 A2.5,2.5 0 0 1 1718,371.998 L1718,550.7168 A2.5,2.5 0 0 1 1715.5,553.2168 L1127.5,553.2168 A2.5,2.5 0 0 1 1125,550.7168 L1125,342.7168 A2.5,2.5 0 0 1 1127.5,340.2168 " fill="#999999" fill-opacity="0.40000" style="stroke:#99999966;stroke-width:1.5;"/><line style="stroke:#99999966;stroke-width:1.5;" x1="1125" x2="1472" y1="369.498" y2="369.498"/><text fill="#FFFFFF" font-family="sans-serif" font-size="20" font-weight="bold" lengthAdjust="spacing" textLength="334" x="1129" y="360.7813">Virtual Environment (.direnv)</text></g><!--class B--><g id="elem_B"><rect codeLine="26" fill="#999999" fill-opacity="0.60000" height="119.125" id="B" rx="2.5" ry="2.5" style="stroke:#000000;stroke-width:0.5;" width="203" x="330" y="49.7168"/><ellipse cx="382.5" cy="77.998" fill="#B4A7E5" rx="12" ry="12" style="stroke:#181818;stroke-width:1.0;"/><path d="M377.6875,73.4512 L377.6875,70.9199 L386.3594,70.9199 L386.3594,73.4512 L383.4688,73.4512 L383.4688,82.9512 L386.3594,82.9512 L386.3594,85.498 L377.6875,85.498 L377.6875,82.9512 L380.5781,82.9512 L380.5781,73.4512 L377.6875,73.4512 Z " fill="#000000"/><text fill="#000000" font-family="sans-serif" font-size="20" font-style="italic" lengthAdjust="spacing" textLength="55" x="421.5" y="73.2813">&#171;CLI&#187;</text><text fill="#000000" font-family="sans-serif" font-size="20" font-style="italic" lengthAdjust="spacing" textLength="89" x="404.5" y="96.5625">buildben</text><line style="stroke:#000000;stroke-width:0.5;" x1="331" x2="532" y1="106.2793" y2="106.2793"/><line style="stroke:#000000;stroke-width:0.5;" x1="331" x2="532" y1="114.2793" y2="114.2793"/><ellipse cx="341" cy="131.4199" fill="#84BE84" rx="3" ry="3" style="stroke:#038048;stroke-width:1.0;"/><text fill="#000000" font-family="sans-serif" font-size="20" lengthAdjust="spacing" textLength="95" x="351" y="136.8438">init-proj()</text><ellipse cx="341" cy="154.7012" fill="#84BE84" rx="3" ry="3" style="stroke:#038048;stroke-width:1.0;"/><text fill="#000000" font-family="sans-serif" font-size="20" lengthAdjust="spacing" textLength="176" x="351" y="160.125">add-experiment()</text></g><!--class PIP--><g id="elem_PIP"><rect codeLine="30" fill="#999999" fill-opacity="0.60000" height="95.8438" id="PIP" rx="2.5" ry="2.5" style="stroke:#000000;stroke-width:0.5;" width="129" x="45" y="49.2168"/><ellipse cx="61" cy="77.498" fill="#B4A7E5" rx="12" ry="12" style="stroke:#181818;stroke-width:1.0;"/><path d="M56.1875,72.9512 L56.1875,70.4199 L64.8594,70.4199 L64.8594,72.9512 L61.9688,72.9512 L61.9688,82.4512 L64.8594,82.4512 L64.8594,84.998 L56.1875,84.998 L56.1875,82.4512 L59.0781,82.4512 L59.0781,72.9512 L56.1875,72.9512 Z " fill="#000000"/><text fill="#000000" font-family="sans-serif" font-size="20" font-style="italic" lengthAdjust="spacing" textLength="55" x="96" y="72.7813">&#171;CLI&#187;</text><text fill="#000000" font-family="sans-serif" font-size="20" font-style="italic" lengthAdjust="spacing" textLength="95" x="76" y="96.0625">pip / pipx</text><line style="stroke:#000000;stroke-width:0.5;" x1="46" x2="173" y1="105.7793" y2="105.7793"/><line style="stroke:#000000;stroke-width:0.5;" x1="46" x2="173" y1="113.7793" y2="113.7793"/><ellipse cx="56" cy="130.9199" fill="#84BE84" rx="3" ry="3" style="stroke:#038048;stroke-width:1.0;"/><text fill="#000000" font-family="sans-serif" font-size="20" lengthAdjust="spacing" textLength="77" x="66" y="136.3438">install()</text></g><!--class J--><g id="elem_J"><rect codeLine="34" fill="#999999" fill-opacity="0.60000" height="72.5625" id="J" rx="2.5" ry="2.5" style="stroke:#000000;stroke-width:0.5;" width="85" x="67" y="357.7168"/><ellipse cx="83" cy="385.998" fill="#B4A7E5" rx="12" ry="12" style="stroke:#181818;stroke-width:1.0;"/><path d="M78.1875,381.4512 L78.1875,378.9199 L86.8594,378.9199 L86.8594,381.4512 L83.9688,381.4512 L83.9688,390.9512 L86.8594,390.9512 L86.8594,393.498 L78.1875,393.498 L78.1875,390.9512 L81.0781,390.9512 L81.0781,381.4512 L78.1875,381.4512 Z " fill="#000000"/><text fill="#000000" font-family="sans-serif" font-size="20" font-style="italic" lengthAdjust="spacing" textLength="55" x="96" y="381.2813">&#171;CLI&#187;</text><text fill="#000000" font-family="sans-serif" font-size="20" font-style="italic" lengthAdjust="spacing" textLength="37" x="105" y="404.5625">just</text><line style="stroke:#000000;stroke-width:0.5;" x1="68" x2="151" y1="414.2793" y2="414.2793"/><line style="stroke:#000000;stroke-width:0.5;" x1="68" x2="151" y1="422.2793" y2="422.2793"/></g><!--class D--><g id="elem_D"><rect codeLine="35" fill="#999999" fill-opacity="0.60000" height="142.4063" id="D" rx="2.5" ry="2.5" style="stroke:#000000;stroke-width:0.5;" width="175" x="22" y="180.2168"/><ellipse cx="72" cy="208.498" fill="#B4A7E5" rx="12" ry="12" style="stroke:#181818;stroke-width:1.0;"/><path d="M67.1875,203.9512 L67.1875,201.4199 L75.8594,201.4199 L75.8594,203.9512 L72.9688,203.9512 L72.9688,213.4512 L75.8594,213.4512 L75.8594,215.998 L67.1875,215.998 L67.1875,213.4512 L70.0781,213.4512 L70.0781,203.9512 L67.1875,203.9512 Z " fill="#000000"/><text fill="#000000" font-family="sans-serif" font-size="20" font-style="italic" lengthAdjust="spacing" textLength="55" x="99.5" y="203.7813">&#171;CLI&#187;</text><text fill="#000000" font-family="sans-serif" font-size="20" font-style="italic" lengthAdjust="spacing" textLength="66" x="94" y="227.0625">Direnv</text><line style="stroke:#000000;stroke-width:0.5;" x1="23" x2="196" y1="236.7793" y2="236.7793"/><line style="stroke:#000000;stroke-width:0.5;" x1="23" x2="196" y1="244.7793" y2="244.7793"/><ellipse cx="33" cy="261.9199" fill="#84BE84" rx="3" ry="3" style="stroke:#038048;stroke-width:1.0;"/><text fill="#000000" font-family="sans-serif" font-size="20" lengthAdjust="spacing" textLength="78" x="43" y="267.3438">layout()</text><ellipse cx="33" cy="285.2012" fill="#84BE84" rx="3" ry="3" style="stroke:#038048;stroke-width:1.0;"/><text fill="#000000" font-family="sans-serif" font-size="20" lengthAdjust="spacing" textLength="148" x="43" y="290.625">direnv reload()</text><ellipse cx="33" cy="308.4824" fill="#84BE84" rx="3" ry="3" style="stroke:#038048;stroke-width:1.0;"/><text fill="#000000" font-family="sans-serif" font-size="20" lengthAdjust="spacing" textLength="131" x="43" y="313.9063">direnv exec()</text></g><!--class PPRT--><g id="elem_PPRT"><rect codeLine="46" fill="#999999" fill-opacity="0.60000" height="119.125" id="PPRT" rx="2.5" ry="2.5" style="stroke:#000000;stroke-width:0.5;" width="229" x="701" y="494.7168"/><ellipse cx="739.05" cy="522.998" fill="#ADD1B2" rx="12" ry="12" style="stroke:#181818;stroke-width:1.0;"/><path d="M742.1125,530.0762 Q741.425,530.4355 740.675,530.6074 Q739.925,530.7793 739.0969,530.7793 Q736.1438,530.7793 734.5813,528.8418 Q733.0344,526.8887 733.0344,523.2168 Q733.0344,519.5449 734.5813,517.6074 Q736.1438,515.6543 739.0969,515.6543 Q739.925,515.6543 740.675,515.8262 Q741.4406,515.998 742.1125,516.3574 L742.1125,519.5605 Q741.3625,518.873 740.6594,518.5605 Q739.9719,518.248 739.2219,518.248 Q737.6438,518.248 736.8313,519.498 Q736.0344,520.748 736.0344,523.2168 Q736.0344,525.6855 736.8313,526.9355 Q737.6438,528.1855 739.2219,528.1855 Q739.9719,528.1855 740.6594,527.873 Q741.3625,527.5605 742.1125,526.873 L742.1125,530.0762 Z " fill="#000000"/><text fill="#000000" font-family="sans-serif" font-size="20" font-style="italic" lengthAdjust="spacing" textLength="89" x="787.45" y="518.2813">&#171;Config&#187;</text><text fill="#000000" font-family="sans-serif" font-size="20" lengthAdjust="spacing" textLength="146" x="758.95" y="541.5625">pyproject.toml</text><line style="stroke:#000000;stroke-width:0.5;" x1="702" x2="929" y1="551.2793" y2="551.2793"/><ellipse cx="712" cy="568.4199" fill="none" rx="3" ry="3" style="stroke:#038048;stroke-width:1.0;"/><text fill="#000000" font-family="sans-serif" font-size="20" lengthAdjust="spacing" textLength="142" x="722" y="573.8438">Dependencies</text><ellipse cx="712" cy="591.7012" fill="none" rx="3" ry="3" style="stroke:#038048;stroke-width:1.0;"/><text fill="#000000" font-family="sans-serif" font-size="20" lengthAdjust="spacing" textLength="202" x="722" y="597.125">Setup Configuration</text><line style="stroke:#000000;stroke-width:0.5;" x1="702" x2="929" y1="605.8418" y2="605.8418"/></g><!--class JF--><g id="elem_JF"><rect codeLine="51" fill="#999999" fill-opacity="0.60000" height="142.4063" id="JF" rx="2.5" ry="2.5" style="stroke:#000000;stroke-width:0.5;" width="159" x="736" y="317.2168"/><ellipse cx="777.65" cy="345.498" fill="#ADD1B2" rx="12" ry="12" style="stroke:#181818;stroke-width:1.0;"/><path d="M780.7125,352.5762 Q780.025,352.9355 779.275,353.1074 Q778.525,353.2793 777.6969,353.2793 Q774.7438,353.2793 773.1813,351.3418 Q771.6344,349.3887 771.6344,345.7168 Q771.6344,342.0449 773.1813,340.1074 Q774.7438,338.1543 777.6969,338.1543 Q778.525,338.1543 779.275,338.3262 Q780.0406,338.498 780.7125,338.8574 L780.7125,342.0605 Q779.9625,341.373 779.2594,341.0605 Q778.5719,340.748 777.8219,340.748 Q776.2438,340.748 775.4313,341.998 Q774.6344,343.248 774.6344,345.7168 Q774.6344,348.1855 775.4313,349.4355 Q776.2438,350.6855 777.8219,350.6855 Q778.5719,350.6855 779.2594,350.373 Q779.9625,350.0605 780.7125,349.373 L780.7125,352.5762 Z " fill="#000000"/><text fill="#000000" font-family="sans-serif" font-size="20" font-style="italic" lengthAdjust="spacing" textLength="60" x="802.35" y="340.7813">&#171;File&#187;</text><text fill="#000000" font-family="sans-serif" font-size="20" lengthAdjust="spacing" textLength="68" x="798.35" y="364.0625">justfile</text><line style="stroke:#000000;stroke-width:0.5;" x1="737" x2="894" y1="373.7793" y2="373.7793"/><line style="stroke:#000000;stroke-width:0.5;" x1="737" x2="894" y1="381.7793" y2="381.7793"/><ellipse cx="747" cy="398.9199" fill="#84BE84" rx="3" ry="3" style="stroke:#038048;stroke-width:1.0;"/><text fill="#000000" font-family="sans-serif" font-size="20" lengthAdjust="spacing" textLength="66" x="757" y="404.3438">reset()</text><ellipse cx="747" cy="422.2012" fill="#84BE84" rx="3" ry="3" style="stroke:#038048;stroke-width:1.0;"/><text fill="#000000" font-family="sans-serif" font-size="20" lengthAdjust="spacing" textLength="132" x="757" y="427.625">install-deps()</text><ellipse cx="747" cy="445.4824" fill="#84BE84" rx="3" ry="3" style="stroke:#038048;stroke-width:1.0;"/><text fill="#000000" font-family="sans-serif" font-size="20" lengthAdjust="spacing" textLength="34" x="757" y="450.9063">...()</text></g><!--class ERC--><g id="elem_ERC"><rect codeLine="57" fill="#999999" fill-opacity="0.60000" height="119.125" id="ERC" rx="2.5" ry="2.5" style="stroke:#000000;stroke-width:0.5;" width="183" x="724" y="162.7168"/><ellipse cx="768.8" cy="190.998" fill="#ADD1B2" rx="12" ry="12" style="stroke:#181818;stroke-width:1.0;"/><path d="M771.8625,198.0762 Q771.175,198.4355 770.425,198.6074 Q769.675,198.7793 768.8469,198.7793 Q765.8938,198.7793 764.3313,196.8418 Q762.7844,194.8887 762.7844,191.2168 Q762.7844,187.5449 764.3313,185.6074 Q765.8938,183.6543 768.8469,183.6543 Q769.675,183.6543 770.425,183.8262 Q771.1906,183.998 771.8625,184.3574 L771.8625,187.5605 Q771.1125,186.873 770.4094,186.5605 Q769.7219,186.248 768.9719,186.248 Q767.3938,186.248 766.5813,187.498 Q765.7844,188.748 765.7844,191.2168 Q765.7844,193.6855 766.5813,194.9355 Q767.3938,196.1855 768.9719,196.1855 Q769.7219,196.1855 770.4094,195.873 Q771.1125,195.5605 771.8625,194.873 L771.8625,198.0762 Z " fill="#000000"/><text fill="#000000" font-family="sans-serif" font-size="20" font-style="italic" lengthAdjust="spacing" textLength="89" x="788.2" y="186.2813">&#171;Config&#187;</text><text fill="#000000" font-family="sans-serif" font-size="20" lengthAdjust="spacing" textLength="61" x="802.2" y="209.5625">.envrc</text><line style="stroke:#000000;stroke-width:0.5;" x1="725" x2="906" y1="219.2793" y2="219.2793"/><ellipse cx="735" cy="236.4199" fill="none" rx="3" ry="3" style="stroke:#038048;stroke-width:1.0;"/><text fill="#000000" font-family="sans-serif" font-size="20" lengthAdjust="spacing" textLength="156" x="745" y="241.8438">PROJECT_NAME</text><ellipse cx="735" cy="259.7012" fill="none" rx="3" ry="3" style="stroke:#038048;stroke-width:1.0;"/><text fill="#000000" font-family="sans-serif" font-size="20" lengthAdjust="spacing" textLength="107" x="745" y="265.125">ENV_VARS</text><line style="stroke:#000000;stroke-width:0.5;" x1="725" x2="906" y1="273.8418" y2="273.8418"/></g><!--class RE--><g id="elem_RE"><rect codeLine="62" fill="#999999" fill-opacity="0.60000" height="142.4063" id="RE" rx="2.5" ry="2.5" style="stroke:#000000;stroke-width:0.5;" width="245" x="693" y="649.2168"/><ellipse cx="709" cy="689.1387" fill="#ADD1B2" rx="12" ry="12" style="stroke:#181818;stroke-width:1.0;"/><path d="M712.0625,696.2168 Q711.375,696.5762 710.625,696.748 Q709.875,696.9199 709.0469,696.9199 Q706.0938,696.9199 704.5313,694.9824 Q702.9844,693.0293 702.9844,689.3574 Q702.9844,685.6855 704.5313,683.748 Q706.0938,681.7949 709.0469,681.7949 Q709.875,681.7949 710.625,681.9668 Q711.3906,682.1387 712.0625,682.498 L712.0625,685.7012 Q711.3125,685.0137 710.6094,684.7012 Q709.9219,684.3887 709.1719,684.3887 Q707.5938,684.3887 706.7813,685.6387 Q705.9844,686.8887 705.9844,689.3574 Q705.9844,691.8262 706.7813,693.0762 Q707.5938,694.3262 709.1719,694.3262 Q709.9219,694.3262 710.6094,694.0137 Q711.3125,693.7012 712.0625,693.0137 L712.0625,696.2168 Z " fill="#000000"/><text fill="#000000" font-family="sans-serif" font-size="20" font-style="italic" lengthAdjust="spacing" textLength="89" x="785" y="672.7813">&#171;2 Files&#187;</text><text fill="#000000" font-family="sans-serif" font-size="20" lengthAdjust="spacing" textLength="168" x="742.5" y="696.0625">requirements.txt</text><text fill="#000000" font-family="sans-serif" font-size="20" lengthAdjust="spacing" textLength="211" x="724" y="719.3438">dev-requirements.txt</text><line style="stroke:#000000;stroke-width:0.5;" x1="694" x2="937" y1="729.0605" y2="729.0605"/><ellipse cx="704" cy="746.2012" fill="none" rx="3" ry="3" style="stroke:#038048;stroke-width:1.0;"/><text fill="#000000" font-family="sans-serif" font-size="20" lengthAdjust="spacing" textLength="142" x="714" y="751.625">Dependencies</text><ellipse cx="704" cy="769.4824" fill="none" rx="3" ry="3" style="stroke:#038048;stroke-width:1.0;"/><text fill="#000000" font-family="sans-serif" font-size="20" lengthAdjust="spacing" textLength="184" x="714" y="774.9063">Versions &amp; Hashes</text><line style="stroke:#000000;stroke-width:0.5;" x1="694" x2="937" y1="783.623" y2="783.623"/></g><!--class PT--><g id="elem_PT"><rect codeLine="70" fill="#999999" fill-opacity="0.60000" height="119.125" id="PT" rx="2.5" ry="2.5" style="stroke:#000000;stroke-width:0.5;" width="162" x="1149" y="409.7168"/><ellipse cx="1183.45" cy="437.998" fill="#B4A7E5" rx="12" ry="12" style="stroke:#181818;stroke-width:1.0;"/><path d="M1178.6375,433.4512 L1178.6375,430.9199 L1187.3094,430.9199 L1187.3094,433.4512 L1184.4188,433.4512 L1184.4188,442.9512 L1187.3094,442.9512 L1187.3094,445.498 L1178.6375,445.498 L1178.6375,442.9512 L1181.5281,442.9512 L1181.5281,433.4512 L1178.6375,433.4512 Z " fill="#000000"/><text fill="#000000" font-family="sans-serif" font-size="20" font-style="italic" lengthAdjust="spacing" textLength="66" x="1213.05" y="433.2813">&#171;Tool&#187;</text><text fill="#000000" font-family="sans-serif" font-size="20" font-style="italic" lengthAdjust="spacing" textLength="87" x="1202.55" y="456.5625">pip-tools</text><line style="stroke:#000000;stroke-width:0.5;" x1="1150" x2="1310" y1="466.2793" y2="466.2793"/><line style="stroke:#000000;stroke-width:0.5;" x1="1150" x2="1310" y1="474.2793" y2="474.2793"/><ellipse cx="1160" cy="491.4199" fill="#84BE84" rx="3" ry="3" style="stroke:#038048;stroke-width:1.0;"/><text fill="#000000" font-family="sans-serif" font-size="20" lengthAdjust="spacing" textLength="135" x="1170" y="496.8438">pip-compile()</text><ellipse cx="1160" cy="514.7012" fill="#84BE84" rx="3" ry="3" style="stroke:#038048;stroke-width:1.0;"/><text fill="#000000" font-family="sans-serif" font-size="20" lengthAdjust="spacing" textLength="100" x="1170" y="520.125">pip-sync()</text></g><!--class PD--><g id="elem_PD"><rect codeLine="74" fill="#999999" fill-opacity="0.60000" height="72.5625" id="PD" rx="2.5" ry="2.5" style="stroke:#000000;stroke-width:0.5;" width="250" x="1444" y="432.7168"/><ellipse cx="1460" cy="460.998" fill="#ADD1B2" rx="12" ry="12" style="stroke:#181818;stroke-width:1.0;"/><path d="M1463.0625,468.0762 Q1462.375,468.4355 1461.625,468.6074 Q1460.875,468.7793 1460.0469,468.7793 Q1457.0938,468.7793 1455.5313,466.8418 Q1453.9844,464.8887 1453.9844,461.2168 Q1453.9844,457.5449 1455.5313,455.6074 Q1457.0938,453.6543 1460.0469,453.6543 Q1460.875,453.6543 1461.625,453.8262 Q1462.3906,453.998 1463.0625,454.3574 L1463.0625,457.5605 Q1462.3125,456.873 1461.6094,456.5605 Q1460.9219,456.248 1460.1719,456.248 Q1458.5938,456.248 1457.7813,457.498 Q1456.9844,458.748 1456.9844,461.2168 Q1456.9844,463.6855 1457.7813,464.9355 Q1458.5938,466.1855 1460.1719,466.1855 Q1460.9219,466.1855 1461.6094,465.873 Q1462.3125,465.5605 1463.0625,464.873 L1463.0625,468.0762 Z " fill="#000000"/><text fill="#000000" font-family="sans-serif" font-size="20" font-style="italic" lengthAdjust="spacing" textLength="61" x="1552.5" y="456.2813">&#171;Pkg&#187;</text><text fill="#000000" font-family="sans-serif" font-size="20" lengthAdjust="spacing" textLength="216" x="1475" y="479.5625">python dependencies</text><line style="stroke:#000000;stroke-width:0.5;" x1="1445" x2="1693" y1="489.2793" y2="489.2793"/><line style="stroke:#000000;stroke-width:0.5;" x1="1445" x2="1693" y1="497.2793" y2="497.2793"/></g><!--link PT to PD--><g id="link_PT_PD"><path codeLine="98" d="M1311.29,469.2168 C1350.91,469.2168 1393.59,469.2168 1437.87,469.2168 " fill="none" id="PT-to-PD" style="stroke:#00A2FF;stroke-width:2.5;"/><polygon fill="#00A2FF" points="1443.87,469.2168,1434.87,465.2168,1438.87,469.2168,1434.87,473.2168,1443.87,469.2168" style="stroke:#00A2FF;stroke-width:2.5;"/><text fill="#00A2FF" font-family="sans-serif" font-size="20" font-style="italic" lengthAdjust="spacing" textLength="71" x="1342" y="463.7813">installs</text></g><!--link PIP to B--><g id="link_PIP_B"><path codeLine="99" d="M174.1,99.6068 C218.58,101.2668 272.8943,103.3009 323.8543,105.2209 " fill="none" id="PIP-to-B" style="stroke:#00A2FF;stroke-width:2.5;"/><polygon fill="#00A2FF" points="329.85,105.4468,321.007,101.1108,324.8535,105.2585,320.7058,109.1051,329.85,105.4468" style="stroke:#00A2FF;stroke-width:2.5;"/><text fill="#00A2FF" font-family="sans-serif" font-size="20" font-style="italic" lengthAdjust="spacing" textLength="71" x="228" y="96.7813">installs</text></g><!--link B to PDIR--><g id="link_B_PDIR"><path codeLine="100" d="M533.12,113.9568 C560.9725,115.2693 592.1575,116.7387 623.348,118.2082 C631.1456,118.5756 638.9435,118.943 646.6899,119.3079 C650.563,119.4904 654.4233,119.6723 658.2641,119.8532 C660.1845,119.9437 662.1001,120.0339 664.01,120.1239 C664.9649,120.1689 665.9185,120.2138 666.8705,120.2587 C667.3465,120.2811 661.8288,120.0212 662.304,120.0436 " fill="none" id="B-to-PDIR" style="stroke:#00A2FF;stroke-width:2.5;"/><polygon fill="#00A2FF" points="668.2974,120.3259,659.4956,115.9068,663.3029,120.0906,659.1191,123.8979,668.2974,120.3259" style="stroke:#00A2FF;stroke-width:2.5;"/><text fill="#00A2FF" font-family="sans-serif" font-size="20" font-style="italic" lengthAdjust="spacing" textLength="73" x="568.5" y="87.7813">creates</text><text fill="#00A2FF" font-family="sans-serif" font-size="20" font-style="italic" lengthAdjust="spacing" textLength="78" x="566" y="111.0625">scaffold</text></g><!--link ERC to PT--><g id="link_ERC_PT"><path codeLine="101" d="M907.07,265.7168 C932.46,277.5568 960.18,290.1668 986,301.2168 C1036.45,322.8168 1067.08,303.0668 1101,346.2168 C1117.36,367.0168 1093.89,383.4968 1109,405.2168 C1119.05,419.6568 1128.2346,428.0812 1143.5446,437.0612 " fill="none" id="ERC-to-PT" style="stroke:#00A2FF;stroke-width:2.5;"/><polygon fill="#00A2FF" points="1148.72,440.0968,1142.9806,432.0931,1144.4071,437.5671,1138.9331,438.9937,1148.72,440.0968" style="stroke:#00A2FF;stroke-width:2.5;"/><text fill="#00A2FF" font-family="sans-serif" font-size="20" font-style="italic" lengthAdjust="spacing" textLength="71" x="1008" y="295.7813">installs</text></g><!--link PT to RE--><g id="link_PT_RE"><path codeLine="102" d="M1160.89,528.8668 C1142.07,544.1268 1121.24,559.9668 1101,573.2168 C1049.72,606.7868 995.2194,636.0494 943.6594,661.5194 " fill="none" id="PT-to-RE" style="stroke:#00A2FF;stroke-width:2.5;"/><polygon fill="#00A2FF" points="938.28,664.1768,948.1207,663.777,942.7629,661.9623,944.5776,656.6044,938.28,664.1768" style="stroke:#00A2FF;stroke-width:2.5;"/><text fill="#00A2FF" font-family="sans-serif" font-size="20" font-style="italic" lengthAdjust="spacing" textLength="90" x="995.5" y="544.7813">compiles</text><text fill="#00A2FF" font-family="sans-serif" font-size="20" font-style="italic" lengthAdjust="spacing" textLength="78" x="1004.5" y="568.0625">&amp; syncs</text></g><!--link ERC to VENV--><g id="link_ERC_VENV"><path codeLine="114" d="M907.16,224.7268 C964.86,229.2068 1039.95,240.5168 1101,268.2168 C1134.105,283.2368 1165.63,309.1493 1189.1113,331.5943 C1192.0464,334.3999 1190.6117,332.9103 1193.2829,335.5795 " fill="none" id="ERC-to-VENV" style="stroke:#61D836;stroke-width:2.5;"/><polygon fill="#61D836" points="1197.527,339.8206,1193.9882,330.6295,1193.9902,336.2863,1188.3334,336.2884,1197.527,339.8206" style="stroke:#61D836;stroke-width:2.5;"/><text fill="#61D836" font-family="sans-serif" font-size="20" font-style="italic" lengthAdjust="spacing" textLength="73" x="1004" y="206.7813">creates</text><text fill="#61D836" font-family="sans-serif" font-size="20" font-style="italic" lengthAdjust="spacing" textLength="113" x="987" y="230.0625">&amp; activates</text></g><!--link JF to VENV--><g id="link_JF_VENV"><path codeLine="115" d="M895.06,385.5468 C953.965,383.5518 1035.7825,380.7768 1103.6875,378.473 C1107.9316,378.3291 1112.1213,378.1869 1116.2477,378.0469 C1118.3109,377.9769 1120.3582,377.9075 1122.3886,377.8386 C1122.8962,377.8214 1117.4062,378.0076 1117.9117,377.9905 " fill="none" id="JF-to-VENV" style="stroke:#61D836;stroke-width:2.5;"/><polygon fill="#61D836" points="1123.9082,377.787,1114.7777,374.0945,1118.9111,377.9566,1115.049,382.0899,1123.9082,377.787" style="stroke:#61D836;stroke-width:2.5;"/><text fill="#61D836" font-family="sans-serif" font-size="20" font-style="italic" lengthAdjust="spacing" textLength="92" x="997.5" y="373.7813">manages</text></g><!--reverse link D to ERC--><g id="link_D_ERC"><path codeLine="129" d="M203.1749,247.3999 C337.2249,241.8799 587.59,231.5668 723.95,225.9468 " fill="none" id="D-backto-ERC" style="stroke:#EE220C;stroke-width:2.5;stroke-dasharray:10.0,5.0;"/><polygon fill="#EE220C" points="197.18,247.6468,206.337,251.2731,202.1758,247.4411,206.0078,243.2799,197.18,247.6468" style="stroke:#EE220C;stroke-width:2.5;"/><text fill="#EE220C" font-family="sans-serif" font-size="20" font-style="italic" lengthAdjust="spacing" textLength="82" x="390.5" y="227.7813">requires</text></g><!--reverse link J to JF--><g id="link_J_JF"><path codeLine="130" d="M158.05,394.1792 C236.97,394.0792 407.98,393.7068 557,392.2168 C617.02,391.6168 684.9,390.5468 735.9,389.6668 " fill="none" id="J-backto-JF" style="stroke:#EE220C;stroke-width:2.5;stroke-dasharray:10.0,5.0;"/><polygon fill="#EE220C" points="152.05,394.1868,161.0551,398.1754,157.05,394.1805,161.0449,390.1754,152.05,394.1868" style="stroke:#EE220C;stroke-width:2.5;"/><text fill="#EE220C" font-family="sans-serif" font-size="20" font-style="italic" lengthAdjust="spacing" textLength="82" x="390.5" y="386.7813">requires</text></g><!--reverse link D to JF--><g id="link_D_JF"><path codeLine="131" d="M203.0695,269.2328 C341.1595,296.1028 603.16,347.0868 735.96,372.9368 " fill="none" id="D-backto-JF" style="stroke:#EE220C;stroke-width:2.5;stroke-dasharray:10.0,5.0;"/><polygon fill="#EE220C" points="197.18,268.0868,205.2503,273.7322,202.0879,269.0418,206.7783,265.8794,197.18,268.0868" style="stroke:#EE220C;stroke-width:2.5;"/><text fill="#EE220C" font-family="sans-serif" font-size="20" font-style="italic" lengthAdjust="spacing" textLength="82" x="390.5" y="288.7813">requires</text></g><!--link JF to PT--><g id="link_JF_PT"><path codeLine="133" d="M895.06,403.6468 C967.87,417.9368 1069.8124,437.9607 1143.0924,452.3507 " fill="none" id="JF-to-PT" style="stroke:#EE220C;stroke-width:2.5;stroke-dasharray:10.0,5.0;"/><polygon fill="#EE220C" points="1148.98,453.5068,1140.9194,447.8475,1144.0737,452.5433,1139.3779,455.6976,1148.98,453.5068" style="stroke:#EE220C;stroke-width:2.5;"/><text fill="#EE220C" font-family="sans-serif" font-size="20" font-style="italic" lengthAdjust="spacing" textLength="82" x="1002.5" y="418.7813">requires</text></g><!--link PT to PPRT--><g id="link_PT_PPRT"><path codeLine="134" d="M1148.77,485.7468 C1086.52,498.5768 1005.3165,515.3059 935.9165,529.6059 " fill="none" id="PT-to-PPRT" style="stroke:#EE220C;stroke-width:2.5;stroke-dasharray:10.0,5.0;"/><polygon fill="#EE220C" points="930.04,530.8168,939.6621,532.9182,934.9371,529.8077,938.0476,525.0828,930.04,530.8168" style="stroke:#EE220C;stroke-width:2.5;"/><text fill="#EE220C" font-family="sans-serif" font-size="20" font-style="italic" lengthAdjust="spacing" textLength="82" x="1002.5" y="491.7813">requires</text></g><!--SRC=[hLPjRziu3FxkNy6bmBhXO2_DhiMrI0EqUTbrsFMC9CY-31WKMqcqk98doRrcG__xKR8IoqxQ5RZJXmGXAV8X-P1AHXSQj039bYiDAPCqqKpmu1Y5kL7CXTRYpjEWwlBo4ZvaOauoo8HOmsjOK9ePSNK2jMOy9vBWNReWHQP7Wki9-q6XqqOVbVgQ9Ekb50LF-o8J4exQzfoqWwTjj2HSeOfoxLdbQ4MM57u6W6VFxxazPsUbLiYKogSrdrcgLz2n4eEyj0GuMjWJF7fnaumezNpKy_EzgEQuND6Rg-j_FrjF49VLkDYsQiZlcHJy3clMQDMsRgrzonOG1H-6BZdxmRYcSa4Ij9yNB4ldbBTiCiRq6h-wtVwdcrwll6BERump7UPIV7lpjXAID0tfGqubCu6Svh4P8cSvl0FyV6Yv4F5DV324qYJBQcwQlhuLIhTWTz3NnmfkqtY0ZEVtBSzuS32tZ6n4eVt4KdiJ9Cq4IGyew0DDwZWVzteMOx5mu61Wvqx8pLCjspEq7Oi7DsCuIi-Jtmsj_UwLN6tbcxoy6E5qPrvHciSuYyTJaxZW2xRizS1BVa1pobFA4qPL9PrGNUHGsXUIsBNHw8g3OJgoO1bz1a3Lgv4f_mYjwnWaLRHMVqU5CAMvykLH5EtJmm69i34o-IKC2sGuxeDN3mzAFFxxux0__NfxzTUmaWvlPrzdL-F94w4b_LvWyymGg4W_QFY25RqFcsBRr_7GSh03fWpg9RsOKQcm_WgNz9z4hPpgyG3bPapgucLxuf3fcwYazriBT8P9WqDNd-PG2v6frW6QJKrgKzJMQcgk9E8knuJzPXgnsl3w8Et8hLU2uxjJ5QIrYp8mKUBrqatyCK854OP6SG49Rdg2_Fb_5t9Pw0a-MlQLlP9I_ACQjGswIc-GsW4nMbUvJupJtQDurHcDTjBfYYLhJZ7RJdJQUAHyM_le6iV0S2POKh7l65wzWbkXuREG-98jhJ3IL6cFL1w0-VjJUaftxEc-StWnE-nS6FPC1RjTum1vUG5k2XK4bRgI1cQB6-brpVJQMUBs0jCEIGaw_C9LGXOBaQM1cJrhChNu6c6ioiw8lLsoHk50lGR35RLx6oSnJHWI-FcU_A8bPoU3FzwVDOllfBKIRL7RgTYbPN4H_5TrRtu5kDyycpl2STGgnFvqlvGwPUDFsk5f4_fmsEcq-qteJkeZ3-oZX-DXbzu5kAs4Q9tSR6LFF3WiDibLVVCKMswO9yQtFxO1mmp_dePWlRbkuoh1aYd3EdCdYhPSCBT92lFDlm00]--></g></svg>