<?xml version="1.0" encoding="us-ascii" standalone="no"?><svg xmlns="http://www.w3.org/2000/svg" xmlns:xlink="http://www.w3.org/1999/xlink" contentStyleType="text/css" height="730px" preserveAspectRatio="none" style="width:1830px;height:730px;" version="1.1" viewBox="0 0 1830 730" width="1830px" zoomAndPan="magnify"><defs/><g><!--cluster GE--><g id="cluster_GE"><path d="M8.5,7.2168 L233.5,7.2168 A3.75,3.75 0 0 1 236,9.7168 L243,36.498 L546.5,36.498 A2.5,2.5 0 0 1 549,38.998 L549,444.7168 A2.5,2.5 0 0 1 546.5,447.2168 L8.5,447.2168 A2.5,2.5 0 0 1 6,444.7168 L6,9.7168 A2.5,2.5 0 0 1 8.5,7.2168 " fill="#999999" fill-opacity="0.40000" style="stroke:#99999966;stroke-width:1.5;"/><line style="stroke:#99999966;stroke-width:1.5;" x1="6" x2="243" y1="36.498" y2="36.498"/><text fill="#FFFFFF" font-family="sans-serif" font-size="20" font-weight="bold" lengthAdjust="spacing" textLength="224" x="10" y="27.7813">Global Environment</text></g><!--cluster PDIR--><g id="cluster_PDIR"><path d="M750.5,93.2168 L947.5,93.2168 A3.75,3.75 0 0 1 950,95.7168 L957,122.498 L1064.5,122.498 A2.5,2.5 0 0 1 1067,124.998 L1067,720.7168 A2.5,2.5 0 0 1 1064.5,723.2168 L750.5,723.2168 A2.5,2.5 0 0 1 748,720.7168 L748,95.7168 A2.5,2.5 0 0 1 750.5,93.2168 " fill="#D9C499" fill-opacity="0.40000" style="stroke:#99999966;stroke-width:1.5;"/><line style="stroke:#99999966;stroke-width:1.5;" x1="748" x2="957" y1="122.498" y2="122.498"/><text fill="#FFFFFF" font-family="sans-serif" font-size="20" font-weight="bold" lengthAdjust="spacing" textLength="196" x="752" y="113.7813">Project Directory</text></g><!--cluster VENV--><g id="cluster_VENV"><path d="M1232.5,337.2168 L1567.5,337.2168 A3.75,3.75 0 0 1 1570,339.7168 L1577,366.498 L1820.5,366.498 A2.5,2.5 0 0 1 1823,368.998 L1823,547.7168 A2.5,2.5 0 0 1 1820.5,550.2168 L1232.5,550.2168 A2.5,2.5 0 0 1 1230,547.7168 L1230,339.7168 A2.5,2.5 0 0 1 1232.5,337.2168 " fill="#999999" fill-opacity="0.40000" style="stroke:#99999966;stroke-width:1.5;"/><line style="stroke:#99999966;stroke-width:1.5;" x1="1230" x2="1577" y1="366.498" y2="366.498"/><text fill="#FFFFFF" font-family="sans-serif" font-size="20" font-weight="bold" lengthAdjust="spacing" textLength="334" x="1234" y="357.7813">Virtual Environment (.direnv)</text></g><!--class B--><g id="elem_B"><rect codeLine="26" fill="#999999" fill-opacity="0.60000" height="119.125" id="B" rx="2.5" ry="2.5" style="stroke:#000000;stroke-width:0.5;" width="203" x="330" y="49.7168"/><ellipse cx="382.5" cy="77.998" fill="#B4A7E5" rx="12" ry="12" style="stroke:#181818;stroke-width:1.0;"/><path d="M377.6875,73.4512 L377.6875,70.9199 L386.3594,70.9199 L386.3594,73.4512 L383.4688,73.4512 L383.4688,82.9512 L386.3594,82.9512 L386.3594,85.498 L377.6875,85.498 L377.6875,82.9512 L380.5781,82.9512 L380.5781,73.4512 L377.6875,73.4512 Z " fill="#000000"/><text fill="#000000" font-family="sans-serif" font-size="20" font-style="italic" lengthAdjust="spacing" textLength="55" x="421.5" y="73.2813">&#171;CLI&#187;</text><text fill="#000000" font-family="sans-serif" font-size="20" font-style="italic" lengthAdjust="spacing" textLength="89" x="404.5" y="96.5625">buildben</text><line style="stroke:#000000;stroke-width:0.5;" x1="331" x2="532" y1="106.2793" y2="106.2793"/><line style="stroke:#000000;stroke-width:0.5;" x1="331" x2="532" y1="114.2793" y2="114.2793"/><ellipse cx="341" cy="131.4199" fill="#84BE84" rx="3" ry="3" style="stroke:#038048;stroke-width:1.0;"/><text fill="#000000" font-family="sans-serif" font-size="20" lengthAdjust="spacing" textLength="95" x="351" y="136.8438">init-proj()</text><ellipse cx="341" cy="154.7012" fill="#84BE84" rx="3" ry="3" style="stroke:#038048;stroke-width:1.0;"/><text fill="#000000" font-family="sans-serif" font-size="20" lengthAdjust="spacing" textLength="176" x="351" y="160.125">add-experiment()</text></g><!--class PIP--><g id="elem_PIP"><rect codeLine="30" fill="#999999" fill-opacity="0.60000" height="95.8438" id="PIP" rx="2.5" ry="2.5" style="stroke:#000000;stroke-width:0.5;" width="129" x="45" y="49.2168"/><ellipse cx="61" cy="77.498" fill="#B4A7E5" rx="12" ry="12" style="stroke:#181818;stroke-width:1.0;"/><path d="M56.1875,72.9512 L56.1875,70.4199 L64.8594,70.4199 L64.8594,72.9512 L61.9688,72.9512 L61.9688,82.4512 L64.8594,82.4512 L64.8594,84.998 L56.1875,84.998 L56.1875,82.4512 L59.0781,82.4512 L59.0781,72.9512 L56.1875,72.9512 Z " fill="#000000"/><text fill="#000000" font-family="sans-serif" font-size="20" font-style="italic" lengthAdjust="spacing" textLength="55" x="96" y="72.7813">&#171;CLI&#187;</text><text fill="#000000" font-family="sans-serif" font-size="20" font-style="italic" lengthAdjust="spacing" textLength="95" x="76" y="96.0625">pip / pipx</text><line style="stroke:#000000;stroke-width:0.5;" x1="46" x2="173" y1="105.7793" y2="105.7793"/><line style="stroke:#000000;stroke-width:0.5;" x1="46" x2="173" y1="113.7793" y2="113.7793"/><ellipse cx="56" cy="130.9199" fill="#84BE84" rx="3" ry="3" style="stroke:#038048;stroke-width:1.0;"/><text fill="#000000" font-family="sans-serif" font-size="20" lengthAdjust="spacing" textLength="77" x="66" y="136.3438">install()</text></g><!--class J--><g id="elem_J"><rect codeLine="34" fill="#999999" fill-opacity="0.60000" height="72.5625" id="J" rx="2.5" ry="2.5" style="stroke:#000000;stroke-width:0.5;" width="85" x="67" y="357.7168"/><ellipse cx="83" cy="385.998" fill="#B4A7E5" rx="12" ry="12" style="stroke:#181818;stroke-width:1.0;"/><path d="M78.1875,381.4512 L78.1875,378.9199 L86.8594,378.9199 L86.8594,381.4512 L83.9688,381.4512 L83.9688,390.9512 L86.8594,390.9512 L86.8594,393.498 L78.1875,393.498 L78.1875,390.9512 L81.0781,390.9512 L81.0781,381.4512 L78.1875,381.4512 Z " fill="#000000"/><text fill="#000000" font-family="sans-serif" font-size="20" font-style="italic" lengthAdjust="spacing" textLength="55" x="96" y="381.2813">&#171;CLI&#187;</text><text fill="#000000" font-family="sans-serif" font-size="20" font-style="italic" lengthAdjust="spacing" textLength="37" x="105" y="404.5625">just</text><line style="stroke:#000000;stroke-width:0.5;" x1="68" x2="151" y1="414.2793" y2="414.2793"/><line style="stroke:#000000;stroke-width:0.5;" x1="68" x2="151" y1="422.2793" y2="422.2793"/></g><!--class D--><g id="elem_D"><rect codeLine="35" fill="#999999" fill-opacity="0.60000" height="142.4063" id="D" rx="2.5" ry="2.5" style="stroke:#000000;stroke-width:0.5;" width="175" x="22" y="180.2168"/><ellipse cx="72" cy="208.498" fill="#B4A7E5" rx="12" ry="12" style="stroke:#181818;stroke-width:1.0;"/><path d="M67.1875,203.9512 L67.1875,201.4199 L75.8594,201.4199 L75.8594,203.9512 L72.9688,203.9512 L72.9688,213.4512 L75.8594,213.4512 L75.8594,215.998 L67.1875,215.998 L67.1875,213.4512 L70.0781,213.4512 L70.0781,203.9512 L67.1875,203.9512 Z " fill="#000000"/><text fill="#000000" font-family="sans-serif" font-size="20" font-style="italic" lengthAdjust="spacing" textLength="55" x="99.5" y="203.7813">&#171;CLI&#187;</text><text fill="#000000" font-family="sans-serif" font-size="20" font-style="italic" lengthAdjust="spacing" textLength="66" x="94" y="227.0625">Direnv</text><line style="stroke:#000000;stroke-width:0.5;" x1="23" x2="196" y1="236.7793" y2="236.7793"/><line style="stroke:#000000;stroke-width:0.5;" x1="23" x2="196" y1="244.7793" y2="244.7793"/><ellipse cx="33" cy="261.9199" fill="#84BE84" rx="3" ry="3" style="stroke:#038048;stroke-width:1.0;"/><text fill="#000000" font-family="sans-serif" font-size="20" lengthAdjust="spacing" textLength="78" x="43" y="267.3438">layout()</text><ellipse cx="33" cy="285.2012" fill="#84BE84" rx="3" ry="3" style="stroke:#038048;stroke-width:1.0;"/><text fill="#000000" font-family="sans-serif" font-size="20" lengthAdjust="spacing" textLength="148" x="43" y="290.625">direnv reload()</text><ellipse cx="33" cy="308.4824" fill="#84BE84" rx="3" ry="3" style="stroke:#038048;stroke-width:1.0;"/><text fill="#000000" font-family="sans-serif" font-size="20" lengthAdjust="spacing" textLength="131" x="43" y="313.9063">direnv exec()</text></g><!--class PPRT--><g id="elem_PPRT"><rect codeLine="46" fill="#999999" fill-opacity="0.60000" height="72.5625" id="PPRT" rx="2.5" ry="2.5" style="stroke:#000000;stroke-width:0.5;" width="180" x="817.5" y="494.7168"/><ellipse cx="833.5" cy="522.998" fill="#ADD1B2" rx="12" ry="12" style="stroke:#181818;stroke-width:1.0;"/><path d="M836.5625,530.0762 Q835.875,530.4355 835.125,530.6074 Q834.375,530.7793 833.5469,530.7793 Q830.5938,530.7793 829.0313,528.8418 Q827.4844,526.8887 827.4844,523.2168 Q827.4844,519.5449 829.0313,517.6074 Q830.5938,515.6543 833.5469,515.6543 Q834.375,515.6543 835.125,515.8262 Q835.8906,515.998 836.5625,516.3574 L836.5625,519.5605 Q835.8125,518.873 835.1094,518.5605 Q834.4219,518.248 833.6719,518.248 Q832.0938,518.248 831.2813,519.498 Q830.4844,520.748 830.4844,523.2168 Q830.4844,525.6855 831.2813,526.9355 Q832.0938,528.1855 833.6719,528.1855 Q834.4219,528.1855 835.1094,527.873 Q835.8125,527.5605 836.5625,526.873 L836.5625,530.0762 Z " fill="#000000"/><text fill="#000000" font-family="sans-serif" font-size="20" font-style="italic" lengthAdjust="spacing" textLength="60" x="891.5" y="518.2813">&#171;File&#187;</text><text fill="#000000" font-family="sans-serif" font-size="20" lengthAdjust="spacing" textLength="146" x="848.5" y="541.5625">pyproject.toml</text><line style="stroke:#000000;stroke-width:0.5;" x1="818.5" x2="996.5" y1="551.2793" y2="551.2793"/><line style="stroke:#000000;stroke-width:0.5;" x1="818.5" x2="996.5" y1="559.2793" y2="559.2793"/></g><!--class JF--><g id="elem_JF"><rect codeLine="48" fill="#999999" fill-opacity="0.60000" height="142.4063" id="JF" rx="2.5" ry="2.5" style="stroke:#000000;stroke-width:0.5;" width="159" x="828" y="317.2168"/><ellipse cx="869.65" cy="345.498" fill="#ADD1B2" rx="12" ry="12" style="stroke:#181818;stroke-width:1.0;"/><path d="M872.7125,352.5762 Q872.025,352.9355 871.275,353.1074 Q870.525,353.2793 869.6969,353.2793 Q866.7438,353.2793 865.1813,351.3418 Q863.6344,349.3887 863.6344,345.7168 Q863.6344,342.0449 865.1813,340.1074 Q866.7438,338.1543 869.6969,338.1543 Q870.525,338.1543 871.275,338.3262 Q872.0406,338.498 872.7125,338.8574 L872.7125,342.0605 Q871.9625,341.373 871.2594,341.0605 Q870.5719,340.748 869.8219,340.748 Q868.2438,340.748 867.4313,341.998 Q866.6344,343.248 866.6344,345.7168 Q866.6344,348.1855 867.4313,349.4355 Q868.2438,350.6855 869.8219,350.6855 Q870.5719,350.6855 871.2594,350.373 Q871.9625,350.0605 872.7125,349.373 L872.7125,352.5762 Z " fill="#000000"/><text fill="#000000" font-family="sans-serif" font-size="20" font-style="italic" lengthAdjust="spacing" textLength="60" x="894.35" y="340.7813">&#171;File&#187;</text><text fill="#000000" font-family="sans-serif" font-size="20" lengthAdjust="spacing" textLength="68" x="890.35" y="364.0625">justfile</text><line style="stroke:#000000;stroke-width:0.5;" x1="829" x2="986" y1="373.7793" y2="373.7793"/><line style="stroke:#000000;stroke-width:0.5;" x1="829" x2="986" y1="381.7793" y2="381.7793"/><ellipse cx="839" cy="398.9199" fill="#84BE84" rx="3" ry="3" style="stroke:#038048;stroke-width:1.0;"/><text fill="#000000" font-family="sans-serif" font-size="20" lengthAdjust="spacing" textLength="66" x="849" y="404.3438">reset()</text><ellipse cx="839" cy="422.2012" fill="#84BE84" rx="3" ry="3" style="stroke:#038048;stroke-width:1.0;"/><text fill="#000000" font-family="sans-serif" font-size="20" lengthAdjust="spacing" textLength="132" x="849" y="427.625">install-deps()</text><ellipse cx="839" cy="445.4824" fill="#84BE84" rx="3" ry="3" style="stroke:#038048;stroke-width:1.0;"/><text fill="#000000" font-family="sans-serif" font-size="20" lengthAdjust="spacing" textLength="34" x="849" y="450.9063">...()</text></g><!--class ERC--><g id="elem_ERC"><rect codeLine="54" fill="#999999" fill-opacity="0.60000" height="119.125" id="ERC" rx="2.5" ry="2.5" style="stroke:#000000;stroke-width:0.5;" width="183" x="816" y="162.7168"/><ellipse cx="860.8" cy="190.998" fill="#ADD1B2" rx="12" ry="12" style="stroke:#181818;stroke-width:1.0;"/><path d="M863.8625,198.0762 Q863.175,198.4355 862.425,198.6074 Q861.675,198.7793 860.8469,198.7793 Q857.8938,198.7793 856.3313,196.8418 Q854.7844,194.8887 854.7844,191.2168 Q854.7844,187.5449 856.3313,185.6074 Q857.8938,183.6543 860.8469,183.6543 Q861.675,183.6543 862.425,183.8262 Q863.1906,183.998 863.8625,184.3574 L863.8625,187.5605 Q863.1125,186.873 862.4094,186.5605 Q861.7219,186.248 860.9719,186.248 Q859.3938,186.248 858.5813,187.498 Q857.7844,188.748 857.7844,191.2168 Q857.7844,193.6855 858.5813,194.9355 Q859.3938,196.1855 860.9719,196.1855 Q861.7219,196.1855 862.4094,195.873 Q863.1125,195.5605 863.8625,194.873 L863.8625,198.0762 Z " fill="#000000"/><text fill="#000000" font-family="sans-serif" font-size="20" font-style="italic" lengthAdjust="spacing" textLength="89" x="880.2" y="186.2813">&#171;Config&#187;</text><text fill="#000000" font-family="sans-serif" font-size="20" lengthAdjust="spacing" textLength="61" x="894.2" y="209.5625">.envrc</text><line style="stroke:#000000;stroke-width:0.5;" x1="817" x2="998" y1="219.2793" y2="219.2793"/><ellipse cx="827" cy="236.4199" fill="none" rx="3" ry="3" style="stroke:#038048;stroke-width:1.0;"/><text fill="#000000" font-family="sans-serif" font-size="20" lengthAdjust="spacing" textLength="156" x="837" y="241.8438">PROJECT_NAME</text><ellipse cx="827" cy="259.7012" fill="none" rx="3" ry="3" style="stroke:#038048;stroke-width:1.0;"/><text fill="#000000" font-family="sans-serif" font-size="20" lengthAdjust="spacing" textLength="107" x="837" y="265.125">ENV_VARS</text><line style="stroke:#000000;stroke-width:0.5;" x1="817" x2="998" y1="273.8418" y2="273.8418"/></g><!--class RE--><g id="elem_RE"><rect codeLine="59" fill="#999999" fill-opacity="0.60000" height="95.8438" id="RE" rx="2.5" ry="2.5" style="stroke:#000000;stroke-width:0.5;" width="271" x="772" y="603.2168"/><ellipse cx="788" cy="643.1387" fill="#ADD1B2" rx="12" ry="12" style="stroke:#181818;stroke-width:1.0;"/><path d="M791.0625,650.2168 Q790.375,650.5762 789.625,650.748 Q788.875,650.9199 788.0469,650.9199 Q785.0938,650.9199 783.5313,648.9824 Q781.9844,647.0293 781.9844,643.3574 Q781.9844,639.6855 783.5313,637.748 Q785.0938,635.7949 788.0469,635.7949 Q788.875,635.7949 789.625,635.9668 Q790.3906,636.1387 791.0625,636.498 L791.0625,639.7012 Q790.3125,639.0137 789.6094,638.7012 Q788.9219,638.3887 788.1719,638.3887 Q786.5938,638.3887 785.7813,639.6387 Q784.9844,640.8887 784.9844,643.3574 Q784.9844,645.8262 785.7813,647.0762 Q786.5938,648.3262 788.1719,648.3262 Q788.9219,648.3262 789.6094,648.0137 Q790.3125,647.7012 791.0625,647.0137 L791.0625,650.2168 Z " fill="#000000"/><text fill="#000000" font-family="sans-serif" font-size="20" font-style="italic" lengthAdjust="spacing" textLength="60" x="891.5" y="626.7813">&#171;File&#187;</text><text fill="#000000" font-family="sans-serif" font-size="20" lengthAdjust="spacing" textLength="168" x="834.5" y="650.0625">requirements.txt</text><text fill="#000000" font-family="sans-serif" font-size="20" lengthAdjust="spacing" textLength="237" x="803" y="673.3438">+ dev_requirements.txt</text><line style="stroke:#000000;stroke-width:0.5;" x1="773" x2="1042" y1="683.0605" y2="683.0605"/><line style="stroke:#000000;stroke-width:0.5;" x1="773" x2="1042" y1="691.0605" y2="691.0605"/></g><!--class PT--><g id="elem_PT"><rect codeLine="64" fill="#999999" fill-opacity="0.60000" height="119.125" id="PT" rx="2.5" ry="2.5" style="stroke:#000000;stroke-width:0.5;" width="162" x="1254" y="406.7168"/><ellipse cx="1288.45" cy="434.998" fill="#B4A7E5" rx="12" ry="12" style="stroke:#181818;stroke-width:1.0;"/><path d="M1283.6375,430.4512 L1283.6375,427.9199 L1292.3094,427.9199 L1292.3094,430.4512 L1289.4188,430.4512 L1289.4188,439.9512 L1292.3094,439.9512 L1292.3094,442.498 L1283.6375,442.498 L1283.6375,439.9512 L1286.5281,439.9512 L1286.5281,430.4512 L1283.6375,430.4512 Z " fill="#000000"/><text fill="#000000" font-family="sans-serif" font-size="20" font-style="italic" lengthAdjust="spacing" textLength="66" x="1318.05" y="430.2813">&#171;Tool&#187;</text><text fill="#000000" font-family="sans-serif" font-size="20" font-style="italic" lengthAdjust="spacing" textLength="87" x="1307.55" y="453.5625">pip-tools</text><line style="stroke:#000000;stroke-width:0.5;" x1="1255" x2="1415" y1="463.2793" y2="463.2793"/><line style="stroke:#000000;stroke-width:0.5;" x1="1255" x2="1415" y1="471.2793" y2="471.2793"/><ellipse cx="1265" cy="488.4199" fill="#84BE84" rx="3" ry="3" style="stroke:#038048;stroke-width:1.0;"/><text fill="#000000" font-family="sans-serif" font-size="20" lengthAdjust="spacing" textLength="135" x="1275" y="493.8438">pip-compile()</text><ellipse cx="1265" cy="511.7012" fill="#84BE84" rx="3" ry="3" style="stroke:#038048;stroke-width:1.0;"/><text fill="#000000" font-family="sans-serif" font-size="20" lengthAdjust="spacing" textLength="100" x="1275" y="517.125">pip-sync()</text></g><!--class PD--><g id="elem_PD"><rect codeLine="68" fill="#999999" fill-opacity="0.60000" height="72.5625" id="PD" rx="2.5" ry="2.5" style="stroke:#000000;stroke-width:0.5;" width="250" x="1549" y="429.7168"/><ellipse cx="1565" cy="457.998" fill="#ADD1B2" rx="12" ry="12" style="stroke:#181818;stroke-width:1.0;"/><path d="M1568.0625,465.0762 Q1567.375,465.4355 1566.625,465.6074 Q1565.875,465.7793 1565.0469,465.7793 Q1562.0938,465.7793 1560.5313,463.8418 Q1558.9844,461.8887 1558.9844,458.2168 Q1558.9844,454.5449 1560.5313,452.6074 Q1562.0938,450.6543 1565.0469,450.6543 Q1565.875,450.6543 1566.625,450.8262 Q1567.3906,450.998 1568.0625,451.3574 L1568.0625,454.5605 Q1567.3125,453.873 1566.6094,453.5605 Q1565.9219,453.248 1565.1719,453.248 Q1563.5938,453.248 1562.7813,454.498 Q1561.9844,455.748 1561.9844,458.2168 Q1561.9844,460.6855 1562.7813,461.9355 Q1563.5938,463.1855 1565.1719,463.1855 Q1565.9219,463.1855 1566.6094,462.873 Q1567.3125,462.5605 1568.0625,461.873 L1568.0625,465.0762 Z " fill="#000000"/><text fill="#000000" font-family="sans-serif" font-size="20" font-style="italic" lengthAdjust="spacing" textLength="61" x="1657.5" y="453.2813">&#171;Pkg&#187;</text><text fill="#000000" font-family="sans-serif" font-size="20" lengthAdjust="spacing" textLength="216" x="1580" y="476.5625">python dependencies</text><line style="stroke:#000000;stroke-width:0.5;" x1="1550" x2="1798" y1="486.2793" y2="486.2793"/><line style="stroke:#000000;stroke-width:0.5;" x1="1550" x2="1798" y1="494.2793" y2="494.2793"/></g><!--link PT to PD--><g id="link_PT_PD"><path codeLine="92" d="M1416.29,466.2168 C1455.91,466.2168 1498.59,466.2168 1542.87,466.2168 " fill="none" id="PT-to-PD" style="stroke:#00A2FF;stroke-width:2.5;"/><polygon fill="#00A2FF" points="1548.87,466.2168,1539.87,462.2168,1543.87,466.2168,1539.87,470.2168,1548.87,466.2168" style="stroke:#00A2FF;stroke-width:2.5;"/><text fill="#00A2FF" font-family="sans-serif" font-size="20" font-style="italic" lengthAdjust="spacing" textLength="71" x="1447" y="460.7813">installs</text></g><!--link PIP to B--><g id="link_PIP_B"><path codeLine="93" d="M174.1,99.6068 C218.58,101.2668 272.8943,103.3009 323.8543,105.2209 " fill="none" id="PIP-to-B" style="stroke:#00A2FF;stroke-width:2.5;"/><polygon fill="#00A2FF" points="329.85,105.4468,321.007,101.1108,324.8535,105.2585,320.7058,109.1051,329.85,105.4468" style="stroke:#00A2FF;stroke-width:2.5;"/><text fill="#00A2FF" font-family="sans-serif" font-size="20" font-style="italic" lengthAdjust="spacing" textLength="71" x="228" y="96.7813">installs</text></g><!--link B to PDIR--><g id="link_B_PDIR"><path codeLine="94" d="M533.02,113.0368 C567.5325,114.3468 607.9025,115.8793 649.1008,117.4434 C669.6999,118.2254 690.5061,119.0153 710.8908,119.7893 C721.0831,120.1762 731.17,120.5592 741.0729,120.9352 C742.3108,120.9822 743.5458,121.0291 744.7778,121.0759 C745.3937,121.0993 740.0133,120.895 740.6277,120.9183 " fill="none" id="B-to-PDIR" style="stroke:#00A2FF;stroke-width:2.5;"/><polygon fill="#00A2FF" points="746.6234,121.146,737.7817,116.8074,741.627,120.9562,737.4781,124.8016,746.6234,121.146" style="stroke:#00A2FF;stroke-width:2.5;"/><text fill="#00A2FF" font-family="sans-serif" font-size="20" font-style="italic" lengthAdjust="spacing" textLength="157" x="566" y="109.7813">creates scaffold</text></g><!--link ERC to PT--><g id="link_ERC_PT"><path codeLine="95" d="M999.09,262.5068 C1028.3,275.2068 1060.9,289.0868 1091,301.2168 C1141.61,321.6168 1171.9,301.6168 1206,344.2168 C1222.26,364.5368 1199.12,380.8768 1214,402.2168 C1224.06,416.6468 1233.2537,425.0627 1248.5737,434.0427 " fill="none" id="ERC-to-PT" style="stroke:#00A2FF;stroke-width:2.5;"/><polygon fill="#00A2FF" points="1253.75,437.0768,1248.0083,429.0747,1249.4364,434.5483,1243.9628,435.9764,1253.75,437.0768" style="stroke:#00A2FF;stroke-width:2.5;"/><text fill="#00A2FF" font-family="sans-serif" font-size="20" font-style="italic" lengthAdjust="spacing" textLength="71" x="1113" y="295.7813">installs</text></g><!--link PT to RE--><g id="link_PT_RE"><path codeLine="96" d="M1286.36,525.9068 C1264.34,549.6968 1236.34,575.1768 1206,591.2168 C1156.27,617.5068 1102.2175,631.367 1049.1775,639.687 " fill="none" id="PT-to-RE" style="stroke:#00A2FF;stroke-width:2.5;"/><polygon fill="#00A2FF" points="1043.25,640.6168,1052.7611,643.1738,1048.1896,639.842,1051.5214,635.2704,1043.25,640.6168" style="stroke:#00A2FF;stroke-width:2.5;"/><text fill="#00A2FF" font-family="sans-serif" font-size="20" font-style="italic" lengthAdjust="spacing" textLength="90" x="1100.5" y="562.7813">compiles</text><text fill="#00A2FF" font-family="sans-serif" font-size="20" font-style="italic" lengthAdjust="spacing" textLength="78" x="1109.5" y="586.0625">&amp; syncs</text></g><!--link ERC to VENV--><g id="link_ERC_VENV"><path codeLine="108" d="M999.12,224.0568 C1059.9,228.1768 1140.49,239.3168 1206,268.2168 C1238.88,282.7218 1270.4025,307.8993 1293.9388,329.7305 C1295.4098,331.095 1296.8496,332.4464 1298.2566,333.7813 C1298.9601,334.4487 1299.6554,335.112 1300.3423,335.7708 C1300.6857,336.1002 1296.7077,332.2639 1297.0469,332.591 " fill="none" id="ERC-to-VENV" style="stroke:#61D836;stroke-width:2.5;"/><polygon fill="#61D836" points="1301.3663,336.7555,1297.6636,327.6292,1297.7668,333.2851,1292.1109,333.3883,1301.3663,336.7555" style="stroke:#61D836;stroke-width:2.5;"/><text fill="#61D836" font-family="sans-serif" font-size="20" font-style="italic" lengthAdjust="spacing" textLength="73" x="1109" y="207.7813">creates</text><text fill="#61D836" font-family="sans-serif" font-size="20" font-style="italic" lengthAdjust="spacing" textLength="113" x="1092" y="231.0625">&amp; activates</text></g><!--link JF to VENV--><g id="link_JF_VENV"><path codeLine="109" d="M987.04,385.0768 C1047.55,382.6618 1132.545,379.2668 1203.265,376.4418 C1212.105,376.0887 1214.7267,375.9839 1223.0449,375.6517 " fill="none" id="JF-to-VENV" style="stroke:#61D836;stroke-width:2.5;"/><polygon fill="#61D836" points="1229.0402,375.4122,1219.8877,371.7746,1224.0441,375.6117,1220.207,379.7682,1229.0402,375.4122" style="stroke:#61D836;stroke-width:2.5;"/><text fill="#61D836" font-family="sans-serif" font-size="20" font-style="italic" lengthAdjust="spacing" textLength="92" x="1102.5" y="371.7813">manages</text></g><!--reverse link D to ERC--><g id="link_D_ERC"><path codeLine="123" d="M203.196,247.8384 C355.006,242.3084 661.46,231.1468 815.94,225.5168 " fill="none" id="D-backto-ERC" style="stroke:#EE220C;stroke-width:2.5;stroke-dasharray:10.0,5.0;"/><polygon fill="#EE220C" points="197.2,248.0568,206.3396,251.7265,202.1967,247.8748,206.0484,243.7318,197.2,248.0568" style="stroke:#EE220C;stroke-width:2.5;"/><text fill="#EE220C" font-family="sans-serif" font-size="20" font-style="italic" lengthAdjust="spacing" textLength="82" x="390.5" y="229.7813">requires</text></g><!--reverse link J to JF--><g id="link_J_JF"><path codeLine="124" d="M158.05,394.1124 C236.97,393.9224 407.98,393.4068 557,392.2168 C649.99,391.4768 756.89,390.1868 827.73,389.2768 " fill="none" id="J-backto-JF" style="stroke:#EE220C;stroke-width:2.5;stroke-dasharray:10.0,5.0;"/><polygon fill="#EE220C" points="152.05,394.1268,161.0596,398.1051,157.05,394.1148,161.0403,390.1051,152.05,394.1268" style="stroke:#EE220C;stroke-width:2.5;"/><text fill="#EE220C" font-family="sans-serif" font-size="20" font-style="italic" lengthAdjust="spacing" textLength="82" x="390.5" y="386.7813">requires</text></g><!--reverse link D to JF--><g id="link_D_JF"><path codeLine="125" d="M203.1131,267.1544 C358.9531,293.9744 678.16,348.9168 827.9,374.6868 " fill="none" id="D-backto-JF" style="stroke:#EE220C;stroke-width:2.5;stroke-dasharray:10.0,5.0;"/><polygon fill="#EE220C" points="197.2,266.1368,205.3912,271.6053,202.1276,266.9848,206.748,263.7212,197.2,266.1368" style="stroke:#EE220C;stroke-width:2.5;"/><text fill="#EE220C" font-family="sans-serif" font-size="20" font-style="italic" lengthAdjust="spacing" textLength="82" x="390.5" y="284.7813">requires</text></g><!--link JF to PT--><g id="link_JF_PT"><path codeLine="127" d="M987.04,402.6168 C1062.92,416.5268 1171.3984,436.4045 1247.8484,450.4245 " fill="none" id="JF-to-PT" style="stroke:#EE220C;stroke-width:2.5;stroke-dasharray:10.0,5.0;"/><polygon fill="#EE220C" points="1253.75,451.5068,1245.6191,445.949,1248.832,450.6049,1244.1761,453.8178,1253.75,451.5068" style="stroke:#EE220C;stroke-width:2.5;"/><text fill="#EE220C" font-family="sans-serif" font-size="20" font-style="italic" lengthAdjust="spacing" textLength="82" x="1107.5" y="417.7813">requires</text></g><!--link PT to PPRT--><g id="link_PT_PPRT"><path codeLine="128" d="M1253.86,505.2068 C1238.31,511.2768 1221.89,516.6968 1206,520.2168 C1137.25,535.4568 1063.4085,537.7215 1003.7585,536.3815 " fill="none" id="PT-to-PPRT" style="stroke:#EE220C;stroke-width:2.5;stroke-dasharray:10.0,5.0;"/><polygon fill="#EE220C" points="997.76,536.2468,1006.6679,540.4479,1002.7587,536.3591,1006.8476,532.4499,997.76,536.2468" style="stroke:#EE220C;stroke-width:2.5;"/><text fill="#EE220C" font-family="sans-serif" font-size="20" font-style="italic" lengthAdjust="spacing" textLength="82" x="1107.5" y="514.7813">requires</text></g><!--SRC=[hLPjJniv4Fw-ls8QfDAgscr83tIWW0HvgQXwt2f4zCj9oDdr1ZV6tjeE9NVYlz_OwsIzcq0hjVwGA3FZUNcUcN4uBGmO2OhDxmpaJD7CC2cYVHIMLZ6JniZxG8EgqzDJ-CZbZ73WKYxWDHIKSYkkJwGNJ9H44RnB2xBaPYo5kMR_KkXrqKUjlY3POgxaKkG3oQM2lQux1zteUHkZYD2eei84LYLQaJc5_oB0i-Nts9sZeqehLKxLyvelB3Ttq7CIctbb2R1Nk1Cz1N4pJhH-EUhnyLPKUtojwCtZ-kjdxGdI2esJDLKZyS2K5FU8MOkgDMwTRSiE40qVHxuuzy64eQeW6ThFbepdCoewhXXhUe5V_VxWy-NPMNN5ddTCC1ENIdvzyxOMaZoFwMD95RE1lEQf7Q9a9Rm7_7pi-13fPRepX3Q4yuQRjg-lIsqwi3dewrETRjjuY1ql7Zg1yN1dRPoivDA4XUNk9YZA9SbtAEWZpPfvFcrnbY9OE70mT7CdrUevohOC7MFfy782U_bnzeTjwv2zgbSxvQgiBYOutJm0fNsiitGonSB7Z5CFK-Z9WbgWwWKVDTnZs3Y204D5DMr0wDcCSrhgK9uaoJR3Ff44iLNP3zDmYOmc0yUb50MRD-XC9tz_6WscjrVdVurgwUZgvlRcV7BzJ6X5loqHVzl7EZ6F1luHxt3jFTos5OwSoGXg67PmVyEKMVxSmEuoVPDKVVRM1Rl1rC5ZtHohs4Z9TMS7trERtXIr3MJibKpUbvXsI8aLwvLeTlIcoyoT58X4IKLEHSQeZ-TQr4P95tFVK_kOAiWujeeJo73b4ko2txiPAw2lyVLmpzsvKlAxRc4RzRLP8JCHiLgFt6ScwEPrEk-Dnnlfz8vb2q6nsbvos7ejGblt-bd7mB2pMLRtq3wyUWLNqi0NgV19cJjXOgWsmOW42Sm-7D93wi5-YlhlVRvO7J8NnsSMmNxVEi0fEm4_IngYMbrB8xjEhVIYONhXBN6DWAL3KO8EGMUaA2JF8pj0pcBgqcj5SIhNvkvorJGQf-8rs5RHcpVgEgKPm_vzcP8VC79qCFppmr4RUozj8BJEsWr5NPNDY-2_cmVxAy8b5TZS4u6JLcSy37hvPpkdulsW6n-sKn-DUhtke9swbuQPH-xnmUbmc-i4_6B1RBtShjP0FDmjjiNLl0MATMlOLH_Qxxk0CSU_YJ4uRvvjt2G8cRPDP-yaoReNx6sImsprFm00]--></g></svg>