<svg xmlns="http://www.w3.org/2000/svg" xmlns:xlink="http://www.w3.org/1999/xlink" contentStyleType="text/css" data-diagram-type="CLASS" height="930px" preserveAspectRatio="none" style="width:1699px;height:930px;" version="1.1" viewBox="0 0 1699 930" width="1699px" zoomAndPan="magnify"><?plantuml 1.2026.3?><defs/><g><!--cluster GE--><g class="cluster" data-qualified-name="GE" data-source-line="55" id="ent0002"><path d="M13.5,8.36 L182.7548,8.36 A11.25,11.25 0 0 1 190.2548,15.86 L197.2548,41.6 L524.22,41.6 A7.5,7.5 0 0 1 531.72,49.1 L531.72,572.86 A7.5,7.5 0 0 1 524.22,580.36 L13.5,580.36 A7.5,7.5 0 0 1 6,572.86 L6,15.86 A7.5,7.5 0 0 1 13.5,8.36" fill="#AFB200" fill-opacity="0.09804" style="stroke:#AFB200;stroke-width:2;"/><line style="stroke:#AFB200;stroke-width:2;" x1="6" x2="197.2548" y1="41.6" y2="41.6"/><text fill="#AFB200" font-family="sans-serif" font-size="20" font-weight="700" lengthAdjust="spacing" textLength="178.2548" x="10" y="31.74">Operating System</text><text fill="#AFB200" font-family="sans-serif" font-size="20" font-style="italic" lengthAdjust="spacing" textLength="195.2198" x="175.2501" y="64.9799">&#171;Global Environment&#187;</text></g><!--cluster PDIR--><g class="cluster" data-qualified-name="PDIR" data-source-line="76" id="ent0007"><path d="M726.22,91.36 L884.8198,91.36 A11.25,11.25 0 0 1 892.3198,98.86 L899.3198,124.6 L975.68,124.6 A7.5,7.5 0 0 1 983.18,132.1 L983.18,907.86 A7.5,7.5 0 0 1 975.68,915.36 L726.22,915.36 A7.5,7.5 0 0 1 718.72,907.86 L718.72,98.86 A7.5,7.5 0 0 1 726.22,91.36" fill="#00A2FF" fill-opacity="0.09804" style="stroke:#00A2FF;stroke-width:2;"/><line style="stroke:#00A2FF;stroke-width:2;" x1="718.72" x2="899.3198" y1="124.6" y2="124.6"/><text fill="#00A2FF" font-family="sans-serif" font-size="20" font-weight="700" lengthAdjust="spacing" textLength="167.5998" x="722.72" y="114.74">Project Directory</text><text fill="#00A2FF" font-family="sans-serif" font-size="20" font-style="italic" lengthAdjust="spacing" textLength="99.7799" x="805.06" y="147.9799">&#171;Directory&#187;</text></g><!--cluster VENV--><g class="cluster" data-qualified-name="VENV" data-source-line="101" id="ent0012"><path d="M1199.68,194.36 L1243.1249,194.36 A11.25,11.25 0 0 1 1250.6249,201.86 L1257.6249,227.6 L1676.53,227.6 A7.5,7.5 0 0 1 1684.03,235.1 L1684.03,500.86 A7.5,7.5 0 0 1 1676.53,508.36 L1199.68,508.36 A7.5,7.5 0 0 1 1192.18,500.86 L1192.18,201.86 A7.5,7.5 0 0 1 1199.68,194.36" fill="#32BC00" fill-opacity="0.09804" style="stroke:#32BC00;stroke-width:2;"/><line style="stroke:#32BC00;stroke-width:2;" x1="1192.18" x2="1257.6249" y1="227.6" y2="227.6"/><text fill="#32BC00" font-family="sans-serif" font-size="20" font-weight="700" lengthAdjust="spacing" textLength="52.4449" x="1196.18" y="217.74">.venv</text><text fill="#32BC00" font-family="sans-serif" font-size="20" font-style="italic" lengthAdjust="spacing" textLength="196.0398" x="1344.0851" y="250.9799">&#171;Virtual Environment&#187;</text></g><!--class B--><g class="entity" data-qualified-name="GE.B" data-source-line="57" id="ent0003"><rect fill="#CCCCCC" fill-opacity="0.46667" height="134.9599" rx="2.5" ry="2.5" style="stroke:#000000;stroke-width:1;" width="189.6798" x="318.04" y="94.88"/><ellipse cx="364.397" cy="127.12" fill="#B4A7E5" rx="12" ry="12" style="stroke:#181818;stroke-width:1;"/><path d="M361.522,134.62 L361.522,132.6043 L363.2095,132.6043 L363.2095,121.9325 L361.522,121.9325 L361.522,119.9168 L367.272,119.9168 L367.272,121.9325 L365.5845,121.9325 L365.5845,132.6043 L367.272,132.6043 L367.272,134.62 L361.522,134.62 Z " fill="#000000"/><text fill="#000000" font-family="sans-serif" font-size="20" font-style="italic" lengthAdjust="spacing" textLength="46.86" x="406.8229" y="121.26">&#171;CLI&#187;</text><text fill="#000000" font-family="sans-serif" font-size="20" font-style="italic" font-weight="700" lengthAdjust="spacing" textLength="88.2199" x="386.143" y="148.4999">buildben</text><line style="stroke:#000000;stroke-width:1;" x1="319.04" x2="506.7198" y1="159.3599" y2="159.3599"/><line style="stroke:#000000;stroke-width:1;" x1="319.04" x2="506.7198" y1="167.3599" y2="167.3599"/><g data-visibility-modifier="PUBLIC_METHOD"><ellipse cx="329.04" cy="186.4799" fill="#84BE84" rx="3" ry="3" style="stroke:#038048;stroke-width:1;"/></g><text fill="#000000" font-family="sans-serif" font-size="20" lengthAdjust="spacing" textLength="86.1599" x="339.04" y="192.7399">init-proj()</text><g data-visibility-modifier="PUBLIC_METHOD"><ellipse cx="329.04" cy="213.7199" fill="#84BE84" rx="3" ry="3" style="stroke:#038048;stroke-width:1;"/></g><text fill="#000000" font-family="sans-serif" font-size="20" lengthAdjust="spacing" textLength="162.6798" x="339.04" y="219.9799">add-experiment()</text></g><!--class UVG--><g class="entity" data-qualified-name="GE.UVG" data-source-line="61" id="ent0004"><rect fill="#CCCCCC" fill-opacity="0.46667" height="134.9599" rx="2.5" ry="2.5" style="stroke:#000000;stroke-width:1;" width="136.6399" x="43.7" y="88.88"/><ellipse cx="86.601" cy="121.12" fill="#B4A7E5" rx="12" ry="12" style="stroke:#181818;stroke-width:1;"/><path d="M83.726,128.62 L83.726,126.6043 L85.4135,126.6043 L85.4135,115.9325 L83.726,115.9325 L83.726,113.9168 L89.476,113.9168 L89.476,115.9325 L87.7885,115.9325 L87.7885,126.6043 L89.476,126.6043 L89.476,128.62 L83.726,128.62 Z " fill="#000000"/><text fill="#000000" font-family="sans-serif" font-size="20" font-style="italic" lengthAdjust="spacing" textLength="46.86" x="105.5789" y="115.26">&#171;CLI&#187;</text><text fill="#000000" font-family="sans-serif" font-size="20" font-style="italic" font-weight="700" lengthAdjust="spacing" textLength="23.77" x="117.1239" y="142.4999">uv</text><line style="stroke:#000000;stroke-width:1;" x1="44.7" x2="179.3399" y1="153.3599" y2="153.3599"/><line style="stroke:#000000;stroke-width:1;" x1="44.7" x2="179.3399" y1="161.3599" y2="161.3599"/><g data-visibility-modifier="PUBLIC_METHOD"><ellipse cx="54.7" cy="180.4799" fill="#84BE84" rx="3" ry="3" style="stroke:#038048;stroke-width:1;"/></g><text fill="#000000" font-family="sans-serif" font-size="20" lengthAdjust="spacing" textLength="109.6399" x="64.7" y="186.7399">tool install()</text><g data-visibility-modifier="PUBLIC_METHOD"><ellipse cx="54.7" cy="207.7199" fill="#84BE84" rx="3" ry="3" style="stroke:#038048;stroke-width:1;"/></g><text fill="#000000" font-family="sans-serif" font-size="20" lengthAdjust="spacing" textLength="86.7599" x="64.7" y="213.9799">tool run()</text></g><!--class J--><g class="entity" data-qualified-name="GE.J" data-source-line="66" id="ent0005"><rect fill="#CCCCCC" fill-opacity="0.46667" height="80.4799" rx="2.5" ry="2.5" style="stroke:#000000;stroke-width:1;" width="76.86" x="73.59" y="456.12"/><ellipse cx="89.59" cy="488.36" fill="#B4A7E5" rx="12" ry="12" style="stroke:#181818;stroke-width:1;"/><path d="M86.715,495.86 L86.715,493.8443 L88.4025,493.8443 L88.4025,483.1725 L86.715,483.1725 L86.715,481.1568 L92.465,481.1568 L92.465,483.1725 L90.7775,483.1725 L90.7775,493.8443 L92.465,493.8443 L92.465,495.86 L86.715,495.86 Z " fill="#000000"/><text fill="#000000" font-family="sans-serif" font-size="20" font-style="italic" lengthAdjust="spacing" textLength="46.86" x="102.59" y="482.5">&#171;CLI&#187;</text><text fill="#000000" font-family="sans-serif" font-size="20" font-style="italic" font-weight="700" lengthAdjust="spacing" textLength="36.8199" x="107.61" y="509.7399">just</text><line style="stroke:#000000;stroke-width:1;" x1="74.59" x2="149.45" y1="520.5999" y2="520.5999"/><line style="stroke:#000000;stroke-width:1;" x1="74.59" x2="149.45" y1="528.5999" y2="528.5999"/></g><!--class D--><g class="entity" data-qualified-name="GE.D" data-source-line="67" id="ent0006"><rect fill="#CCCCCC" fill-opacity="0.46667" height="162.1999" rx="2.5" ry="2.5" style="stroke:#000000;stroke-width:1;" width="164.0399" x="30" y="259.26"/><ellipse cx="75.0115" cy="291.5" fill="#B4A7E5" rx="12" ry="12" style="stroke:#181818;stroke-width:1;"/><path d="M72.1365,299 L72.1365,296.9843 L73.824,296.9843 L73.824,286.3125 L72.1365,286.3125 L72.1365,284.2968 L77.8865,284.2968 L77.8865,286.3125 L76.199,286.3125 L76.199,296.9843 L77.8865,296.9843 L77.8865,299 L72.1365,299 Z " fill="#000000"/><text fill="#000000" font-family="sans-serif" font-size="20" font-style="italic" lengthAdjust="spacing" textLength="46.86" x="105.8134" y="285.64">&#171;CLI&#187;</text><text fill="#000000" font-family="sans-serif" font-size="20" font-style="italic" font-weight="700" lengthAdjust="spacing" textLength="65.5699" x="96.4585" y="312.8799">Direnv</text><line style="stroke:#000000;stroke-width:1;" x1="31" x2="193.0399" y1="323.7399" y2="323.7399"/><line style="stroke:#000000;stroke-width:1;" x1="31" x2="193.0399" y1="331.7399" y2="331.7399"/><g data-visibility-modifier="PUBLIC_METHOD"><ellipse cx="41" cy="350.8599" fill="#84BE84" rx="3" ry="3" style="stroke:#038048;stroke-width:1;"/></g><text fill="#000000" font-family="sans-serif" font-size="20" lengthAdjust="spacing" textLength="70.2599" x="51" y="357.1199">layout()</text><g data-visibility-modifier="PUBLIC_METHOD"><ellipse cx="41" cy="378.0999" fill="#84BE84" rx="3" ry="3" style="stroke:#038048;stroke-width:1;"/></g><text fill="#000000" font-family="sans-serif" font-size="20" lengthAdjust="spacing" textLength="137.0399" x="51" y="384.3599">direnv reload()</text><g data-visibility-modifier="PUBLIC_METHOD"><ellipse cx="41" cy="405.3399" fill="#84BE84" rx="3" ry="3" style="stroke:#038048;stroke-width:1;"/></g><text fill="#000000" font-family="sans-serif" font-size="20" lengthAdjust="spacing" textLength="119.4599" x="51" y="411.5999">direnv exec()</text></g><!--class PPRT--><g class="entity" data-qualified-name="PDIR.PPRT" data-source-line="78" id="ent0008"><rect fill="#CCCCCC" fill-opacity="0.46667" height="134.9599" rx="2.5" ry="2.5" width="216.4598" x="742.72" y="756.88"/><ellipse cx="775.2575" cy="789.12" fill="#ADD1B2" rx="12" ry="12" style="stroke:#181818;stroke-width:1;"/><path d="M775.195,796.7762 Q774.6012,796.7762 773.9918,796.6668 Q773.3981,796.5731 772.8668,796.3075 Q772.3356,796.0418 771.8981,795.62 Q771.4762,795.1825 771.195,794.6512 Q770.9137,794.1043 770.8043,793.5106 Q770.7106,792.9168 770.7106,792.3231 L770.7106,786.2137 Q770.7106,785.62 770.8043,785.0262 Q770.9137,784.4325 771.195,783.9012 Q771.4762,783.3543 771.8981,782.9325 Q772.3356,782.495 772.8668,782.2293 Q773.3981,781.9637 773.9918,781.87 Q774.6012,781.7606 775.195,781.7606 Q775.7575,781.7606 776.3043,781.8387 Q776.8512,781.9168 777.3668,782.1356 Q777.8981,782.3387 778.3356,782.6981 Q778.7731,783.0418 779.07,783.5106 Q779.3825,783.9793 779.5231,784.5262 Q779.6793,785.0575 779.6793,785.62 L779.6793,785.6981 L777.3043,785.6981 L777.3043,785.6668 Q777.3043,785.2606 777.1481,784.8856 Q776.9918,784.495 776.6793,784.245 Q776.3825,783.9793 775.9918,783.8856 Q775.6012,783.7762 775.195,783.7762 Q774.7418,783.7762 774.2887,783.9637 Q773.8512,784.1356 773.57,784.495 Q773.3043,784.8543 773.195,785.3075 Q773.1012,785.7606 773.1012,786.2137 L773.1012,792.3231 Q773.1012,792.7762 773.195,793.2293 Q773.3043,793.6825 773.57,794.0418 Q773.8512,794.4012 774.2887,794.5887 Q774.7418,794.7606 775.195,794.7606 Q775.6012,794.7606 775.9918,794.6668 Q776.3825,794.5575 776.6793,794.3075 Q776.9918,794.0418 777.1481,793.6668 Q777.3043,793.2762 777.3043,792.8856 L777.3043,792.8387 L779.6793,792.8387 L779.6793,792.9168 Q779.6793,793.4793 779.5231,794.0262 Q779.3825,794.5575 779.07,795.0262 Q778.7731,795.495 778.3356,795.8543 Q777.8981,796.1981 777.3668,796.4168 Q776.8512,796.62 776.3043,796.6981 Q775.7575,796.7762 775.195,796.7762 Z " fill="#000000"/><text fill="#000000" font-family="sans-serif" font-size="20" font-style="italic" lengthAdjust="spacing" textLength="76.7599" x="828.4074" y="783.26">&#171;Config&#187;</text><text fill="#000000" font-family="sans-serif" font-size="20" font-weight="700" lengthAdjust="spacing" textLength="145.7099" x="793.9325" y="810.4999">pyproject.toml</text><line x1="743.72" x2="958.1798" y1="821.3599" y2="821.3599"/><g data-visibility-modifier="PUBLIC_FIELD"><ellipse cx="753.72" cy="840.4799" fill="none" rx="3" ry="3" style="stroke:#038048;stroke-width:1;"/></g><text fill="#000000" font-family="sans-serif" font-size="20" lengthAdjust="spacing" textLength="133.3798" x="763.72" y="846.7399">Dependencies</text><g data-visibility-modifier="PUBLIC_FIELD"><ellipse cx="753.72" cy="867.7199" fill="none" rx="3" ry="3" style="stroke:#038048;stroke-width:1;"/></g><text fill="#000000" font-family="sans-serif" font-size="20" lengthAdjust="spacing" textLength="189.4598" x="763.72" y="873.9799">Setup Configuration</text><line x1="743.72" x2="958.1798" y1="883.8399" y2="883.8399"/></g><!--class JF--><g class="entity" data-qualified-name="PDIR.JF" data-source-line="83" id="ent0009"><rect fill="#CCCCCC" fill-opacity="0.46667" height="162.1999" rx="2.5" ry="2.5" style="stroke:#444444;stroke-width:1;" width="146.7598" x="777.57" y="559.26"/><ellipse cx="807.889" cy="591.5" fill="#ADD1B2" rx="12" ry="12" style="stroke:#181818;stroke-width:1;"/><path d="M807.8265,599.1562 Q807.2327,599.1562 806.6233,599.0468 Q806.0296,598.9531 805.4983,598.6875 Q804.9671,598.4218 804.5296,598 Q804.1077,597.5625 803.8265,597.0312 Q803.5452,596.4843 803.4358,595.8906 Q803.3421,595.2968 803.3421,594.7031 L803.3421,588.5937 Q803.3421,588 803.4358,587.4062 Q803.5452,586.8125 803.8265,586.2812 Q804.1077,585.7343 804.5296,585.3125 Q804.9671,584.875 805.4983,584.6093 Q806.0296,584.3437 806.6233,584.25 Q807.2327,584.1406 807.8265,584.1406 Q808.389,584.1406 808.9358,584.2187 Q809.4827,584.2968 809.9983,584.5156 Q810.5296,584.7187 810.9671,585.0781 Q811.4046,585.4218 811.7015,585.8906 Q812.014,586.3593 812.1546,586.9062 Q812.3108,587.4375 812.3108,588 L812.3108,588.0781 L809.9358,588.0781 L809.9358,588.0468 Q809.9358,587.6406 809.7796,587.2656 Q809.6233,586.875 809.3108,586.625 Q809.014,586.3593 808.6233,586.2656 Q808.2327,586.1562 807.8265,586.1562 Q807.3733,586.1562 806.9202,586.3437 Q806.4827,586.5156 806.2015,586.875 Q805.9358,587.2343 805.8265,587.6875 Q805.7327,588.1406 805.7327,588.5937 L805.7327,594.7031 Q805.7327,595.1562 805.8265,595.6093 Q805.9358,596.0625 806.2015,596.4218 Q806.4827,596.7812 806.9202,596.9687 Q807.3733,597.1406 807.8265,597.1406 Q808.2327,597.1406 808.6233,597.0468 Q809.014,596.9375 809.3108,596.6875 Q809.6233,596.4218 809.7796,596.0468 Q809.9358,595.6562 809.9358,595.2656 L809.9358,595.2187 L812.3108,595.2187 L812.3108,595.2968 Q812.3108,595.8593 812.1546,596.4062 Q812.014,596.9375 811.7015,597.4062 Q811.4046,597.875 810.9671,598.2343 Q810.5296,598.5781 809.9983,598.7968 Q809.4827,599 808.9358,599.0781 Q808.389,599.1562 807.8265,599.1562 Z " fill="#000000"/><text fill="#000000" font-family="sans-serif" font-size="20" font-style="italic" lengthAdjust="spacing" textLength="84.9399" x="824.0709" y="585.64">&#171;Recipes&#187;</text><text fill="#000000" font-family="sans-serif" font-size="20" font-weight="700" lengthAdjust="spacing" textLength="67.7999" x="832.641" y="612.8799">justfile</text><line style="stroke:#444444;stroke-width:1;" x1="778.57" x2="923.3298" y1="623.7399" y2="623.7399"/><line style="stroke:#444444;stroke-width:1;" x1="778.57" x2="923.3298" y1="631.7399" y2="631.7399"/><g data-visibility-modifier="PUBLIC_METHOD"><ellipse cx="788.57" cy="650.8599" fill="#84BE84" rx="3" ry="3" style="stroke:#038048;stroke-width:1;"/></g><text fill="#000000" font-family="sans-serif" font-size="20" lengthAdjust="spacing" textLength="59.6199" x="798.57" y="657.1199">reset()</text><g data-visibility-modifier="PUBLIC_METHOD"><ellipse cx="788.57" cy="678.0999" fill="#84BE84" rx="3" ry="3" style="stroke:#038048;stroke-width:1;"/></g><text fill="#000000" font-family="sans-serif" font-size="20" lengthAdjust="spacing" textLength="119.7598" x="798.57" y="684.3599">install-deps()</text><g data-visibility-modifier="PUBLIC_METHOD"><ellipse cx="788.57" cy="705.3399" fill="#84BE84" rx="3" ry="3" style="stroke:#038048;stroke-width:1;"/></g><text fill="#000000" font-family="sans-serif" font-size="20" lengthAdjust="spacing" textLength="28.08" x="798.57" y="711.5999">...()</text></g><!--class ERC--><g class="entity" data-qualified-name="PDIR.ERC" data-source-line="89" id="ent0010"><rect fill="#CCCCCC" fill-opacity="0.46667" height="134.9599" rx="2.5" ry="2.5" width="173.6199" x="764.14" y="191.88"/><ellipse cx="810.227" cy="224.12" fill="#ADD1B2" rx="12" ry="12" style="stroke:#181818;stroke-width:1;"/><path d="M810.1645,231.7762 Q809.5707,231.7762 808.9613,231.6668 Q808.3676,231.5731 807.8363,231.3075 Q807.3051,231.0418 806.8676,230.62 Q806.4457,230.1825 806.1645,229.6512 Q805.8832,229.1043 805.7738,228.5106 Q805.6801,227.9168 805.6801,227.3231 L805.6801,221.2137 Q805.6801,220.62 805.7738,220.0262 Q805.8832,219.4325 806.1645,218.9012 Q806.4457,218.3543 806.8676,217.9325 Q807.3051,217.495 807.8363,217.2293 Q808.3676,216.9637 808.9613,216.87 Q809.5707,216.7606 810.1645,216.7606 Q810.727,216.7606 811.2738,216.8387 Q811.8207,216.9168 812.3363,217.1356 Q812.8676,217.3387 813.3051,217.6981 Q813.7426,218.0418 814.0395,218.5106 Q814.352,218.9793 814.4926,219.5262 Q814.6488,220.0575 814.6488,220.62 L814.6488,220.6981 L812.2738,220.6981 L812.2738,220.6668 Q812.2738,220.2606 812.1176,219.8856 Q811.9613,219.495 811.6488,219.245 Q811.352,218.9793 810.9613,218.8856 Q810.5707,218.7762 810.1645,218.7762 Q809.7113,218.7762 809.2582,218.9637 Q808.8207,219.1356 808.5395,219.495 Q808.2738,219.8543 808.1645,220.3075 Q808.0707,220.7606 808.0707,221.2137 L808.0707,227.3231 Q808.0707,227.7762 808.1645,228.2293 Q808.2738,228.6825 808.5395,229.0418 Q808.8207,229.4012 809.2582,229.5887 Q809.7113,229.7606 810.1645,229.7606 Q810.5707,229.7606 810.9613,229.6668 Q811.352,229.5575 811.6488,229.3075 Q811.9613,229.0418 812.1176,228.6668 Q812.2738,228.2762 812.2738,227.8856 L812.2738,227.8387 L814.6488,227.8387 L814.6488,227.9168 Q814.6488,228.4793 814.4926,229.0262 Q814.352,229.5575 814.0395,230.0262 Q813.7426,230.495 813.3051,230.8543 Q812.8676,231.1981 812.3363,231.4168 Q811.8207,231.62 811.2738,231.6981 Q810.727,231.7762 810.1645,231.7762 Z " fill="#000000"/><text fill="#000000" font-family="sans-serif" font-size="20" font-style="italic" lengthAdjust="spacing" textLength="76.7599" x="829.913" y="218.26">&#171;Config&#187;</text><text fill="#000000" font-family="sans-serif" font-size="20" font-weight="700" lengthAdjust="spacing" textLength="60.7699" x="837.908" y="245.4999">.envrc</text><line x1="765.14" x2="936.7599" y1="256.3599" y2="256.3599"/><g data-visibility-modifier="PUBLIC_FIELD"><ellipse cx="775.14" cy="275.4799" fill="none" rx="3" ry="3" style="stroke:#038048;stroke-width:1;"/></g><text fill="#000000" font-family="sans-serif" font-size="20" lengthAdjust="spacing" textLength="146.6199" x="785.14" y="281.7399">PROJECT_NAME</text><g data-visibility-modifier="PUBLIC_FIELD"><ellipse cx="775.14" cy="302.7199" fill="none" rx="3" ry="3" style="stroke:#038048;stroke-width:1;"/></g><text fill="#000000" font-family="sans-serif" font-size="20" lengthAdjust="spacing" textLength="95.3999" x="785.14" y="308.9799">ENV_VARS</text><line x1="765.14" x2="936.7599" y1="318.8399" y2="318.8399"/></g><!--class LOCK--><g class="entity" data-qualified-name="PDIR.LOCK" data-source-line="94" id="ent0011"><rect fill="#CCCCCC" fill-opacity="0.46667" height="162.1999" rx="2.5" ry="2.5" width="206.5198" x="747.69" y="362.26"/><ellipse cx="789.3692" cy="408.12" fill="#ADD1B2" rx="12" ry="12" style="stroke:#181818;stroke-width:1;"/><path d="M789.3067,415.7762 Q788.713,415.7762 788.1036,415.6668 Q787.5098,415.5731 786.9786,415.3075 Q786.4473,415.0418 786.0098,414.62 Q785.588,414.1825 785.3067,413.6512 Q785.0255,413.1043 784.9161,412.5106 Q784.8223,411.9168 784.8223,411.3231 L784.8223,405.2137 Q784.8223,404.62 784.9161,404.0262 Q785.0255,403.4325 785.3067,402.9012 Q785.588,402.3543 786.0098,401.9325 Q786.4473,401.495 786.9786,401.2293 Q787.5098,400.9637 788.1036,400.87 Q788.713,400.7606 789.3067,400.7606 Q789.8692,400.7606 790.4161,400.8387 Q790.963,400.9168 791.4786,401.1356 Q792.0098,401.3387 792.4473,401.6981 Q792.8848,402.0418 793.1817,402.5106 Q793.4942,402.9793 793.6348,403.5262 Q793.7911,404.0575 793.7911,404.62 L793.7911,404.6981 L791.4161,404.6981 L791.4161,404.6668 Q791.4161,404.2606 791.2598,403.8856 Q791.1036,403.495 790.7911,403.245 Q790.4942,402.9793 790.1036,402.8856 Q789.713,402.7762 789.3067,402.7762 Q788.8536,402.7762 788.4005,402.9637 Q787.963,403.1356 787.6817,403.495 Q787.4161,403.8543 787.3067,404.3075 Q787.213,404.7606 787.213,405.2137 L787.213,411.3231 Q787.213,411.7762 787.3067,412.2293 Q787.4161,412.6825 787.6817,413.0418 Q787.963,413.4012 788.4005,413.5887 Q788.8536,413.7606 789.3067,413.7606 Q789.713,413.7606 790.1036,413.6668 Q790.4942,413.5575 790.7911,413.3075 Q791.1036,413.0418 791.2598,412.6668 Q791.4161,412.2762 791.4161,411.8856 L791.4161,411.8387 L793.7911,411.8387 L793.7911,411.9168 Q793.7911,412.4793 793.6348,413.0262 Q793.4942,413.5575 793.1817,414.0262 Q792.8848,414.495 792.4473,414.8543 Q792.0098,415.1981 791.4786,415.4168 Q790.963,415.62 790.4161,415.6981 Q789.8692,415.7762 789.3067,415.7762 Z " fill="#000000"/><text fill="#000000" font-family="sans-serif" font-size="20" font-style="italic" lengthAdjust="spacing" textLength="103.5999" x="816.0032" y="388.64">&#171;Lock-Files&#187;</text><text fill="#000000" font-family="sans-serif" font-size="20" font-weight="700" lengthAdjust="spacing" textLength="69.7949" x="832.9057" y="415.8799">uv.lock</text><text fill="#000000" font-family="sans-serif" font-size="20" font-weight="700" lengthAdjust="spacing" textLength="115.4549" x="810.0757" y="443.1199">pylock.toml</text><line x1="748.69" x2="953.2098" y1="453.9799" y2="453.9799"/><g data-visibility-modifier="PUBLIC_FIELD"><ellipse cx="758.69" cy="473.0999" fill="none" rx="3" ry="3" style="stroke:#038048;stroke-width:1;"/></g><text fill="#000000" font-family="sans-serif" font-size="20" lengthAdjust="spacing" textLength="133.3798" x="768.69" y="479.3599">Dependencies</text><g data-visibility-modifier="PUBLIC_FIELD"><ellipse cx="758.69" cy="500.3399" fill="none" rx="3" ry="3" style="stroke:#038048;stroke-width:1;"/></g><text fill="#000000" font-family="sans-serif" font-size="20" lengthAdjust="spacing" textLength="179.5198" x="768.69" y="506.5999">Versions &amp; Sources</text><line x1="748.69" x2="953.2098" y1="516.4599" y2="516.4599"/></g><!--class UVV--><g class="entity" data-qualified-name="VENV.UVV" data-source-line="102" id="ent0013"><rect fill="#CCCCCC" fill-opacity="0.46667" height="189.4398" rx="2.5" ry="2.5" style="stroke:#444444;stroke-width:1;" width="86.78" x="1216.18" y="294.64"/><ellipse cx="1232.18" cy="326.88" fill="#B4A7E5" rx="12" ry="12" style="stroke:#181818;stroke-width:1;"/><path d="M1229.305,334.38 L1229.305,332.3643 L1230.9925,332.3643 L1230.9925,321.6925 L1229.305,321.6925 L1229.305,319.6768 L1235.055,319.6768 L1235.055,321.6925 L1233.3675,321.6925 L1233.3675,332.3643 L1235.055,332.3643 L1235.055,334.38 L1229.305,334.38 Z " fill="#000000"/><text fill="#000000" font-family="sans-serif" font-size="20" font-style="italic" lengthAdjust="spacing" textLength="56.78" x="1245.18" y="321.02">&#171;Tool&#187;</text><text fill="#000000" font-family="sans-serif" font-size="20" font-style="italic" font-weight="700" lengthAdjust="spacing" textLength="23.77" x="1261.685" y="348.2599">uv</text><line style="stroke:#444444;stroke-width:1;" x1="1217.18" x2="1301.96" y1="359.1199" y2="359.1199"/><line style="stroke:#444444;stroke-width:1;" x1="1217.18" x2="1301.96" y1="367.1199" y2="367.1199"/><g data-visibility-modifier="PUBLIC_METHOD"><ellipse cx="1227.18" cy="386.2399" fill="#84BE84" rx="3" ry="3" style="stroke:#038048;stroke-width:1;"/></g><text fill="#000000" font-family="sans-serif" font-size="20" lengthAdjust="spacing" textLength="55.9599" x="1237.18" y="392.4999">venv()</text><g data-visibility-modifier="PUBLIC_METHOD"><ellipse cx="1227.18" cy="413.4799" fill="#84BE84" rx="3" ry="3" style="stroke:#038048;stroke-width:1;"/></g><text fill="#000000" font-family="sans-serif" font-size="20" lengthAdjust="spacing" textLength="49.54" x="1237.18" y="419.7399">lock()</text><g data-visibility-modifier="PUBLIC_METHOD"><ellipse cx="1227.18" cy="440.7199" fill="#84BE84" rx="3" ry="3" style="stroke:#038048;stroke-width:1;"/></g><text fill="#000000" font-family="sans-serif" font-size="20" lengthAdjust="spacing" textLength="53.74" x="1237.18" y="446.9799">sync()</text><g data-visibility-modifier="PUBLIC_METHOD"><ellipse cx="1227.18" cy="467.9599" fill="#84BE84" rx="3" ry="3" style="stroke:#038048;stroke-width:1;"/></g><text fill="#000000" font-family="sans-serif" font-size="20" lengthAdjust="spacing" textLength="44.98" x="1237.18" y="474.2198">run()</text></g><!--class PD--><g class="entity" data-qualified-name="VENV.PD" data-source-line="108" id="ent0014"><rect fill="#CCCCCC" fill-opacity="0.46667" height="80.4799" rx="2.5" ry="2.5" width="248.0698" x="1411.96" y="349.12"/><ellipse cx="1427.96" cy="381.36" fill="#ADD1B2" rx="12" ry="12" style="stroke:#181818;stroke-width:1;"/><path d="M1427.8975,389.0162 Q1427.3038,389.0162 1426.6944,388.9068 Q1426.1006,388.8131 1425.5694,388.5475 Q1425.0381,388.2818 1424.6006,387.86 Q1424.1788,387.4225 1423.8975,386.8912 Q1423.6163,386.3443 1423.5069,385.7506 Q1423.4131,385.1568 1423.4131,384.5631 L1423.4131,378.4537 Q1423.4131,377.86 1423.5069,377.2662 Q1423.6163,376.6725 1423.8975,376.1412 Q1424.1788,375.5943 1424.6006,375.1725 Q1425.0381,374.735 1425.5694,374.4693 Q1426.1006,374.2037 1426.6944,374.11 Q1427.3038,374.0006 1427.8975,374.0006 Q1428.46,374.0006 1429.0069,374.0787 Q1429.5538,374.1568 1430.0694,374.3756 Q1430.6006,374.5787 1431.0381,374.9381 Q1431.4756,375.2818 1431.7725,375.7506 Q1432.085,376.2193 1432.2256,376.7662 Q1432.3819,377.2975 1432.3819,377.86 L1432.3819,377.9381 L1430.0069,377.9381 L1430.0069,377.9068 Q1430.0069,377.5006 1429.8506,377.1256 Q1429.6944,376.735 1429.3819,376.485 Q1429.085,376.2193 1428.6944,376.1256 Q1428.3038,376.0162 1427.8975,376.0162 Q1427.4444,376.0162 1426.9913,376.2037 Q1426.5538,376.3756 1426.2725,376.735 Q1426.0069,377.0943 1425.8975,377.5475 Q1425.8038,378.0006 1425.8038,378.4537 L1425.8038,384.5631 Q1425.8038,385.0162 1425.8975,385.4693 Q1426.0069,385.9225 1426.2725,386.2818 Q1426.5538,386.6412 1426.9913,386.8287 Q1427.4444,387.0006 1427.8975,387.0006 Q1428.3038,387.0006 1428.6944,386.9068 Q1429.085,386.7975 1429.3819,386.5475 Q1429.6944,386.2818 1429.8506,385.9068 Q1430.0069,385.5162 1430.0069,385.1256 L1430.0069,385.0787 L1432.3819,385.0787 L1432.3819,385.1568 Q1432.3819,385.7193 1432.2256,386.2662 Q1432.085,386.7975 1431.7725,387.2662 Q1431.4756,387.735 1431.0381,388.0943 Q1430.6006,388.4381 1430.0694,388.6568 Q1429.5538,388.86 1429.0069,388.9381 Q1428.46,389.0162 1427.8975,389.0162 Z " fill="#000000"/><text fill="#000000" font-family="sans-serif" font-size="20" font-style="italic" lengthAdjust="spacing" textLength="51.9" x="1524.0449" y="375.5">&#171;Pkg&#187;</text><text fill="#000000" font-family="sans-serif" font-size="20" font-weight="700" lengthAdjust="spacing" textLength="214.0698" x="1442.96" y="402.7399">python dependencies</text><line x1="1412.96" x2="1659.0298" y1="413.5999" y2="413.5999"/><line x1="1412.96" x2="1659.0298" y1="421.5999" y2="421.5999"/></g><!--link GE to PDIR--><!--link PDIR to VENV--><!--link UVG to B--><g class="link" data-entity-1="ent0004" data-entity-2="ent0003" data-link-type="dependency" data-source-line="130" id="lnk17"><path codeLine="130" d="M180.84,157.72 C221.31,158.53 267.3012,159.4598 311.7112,160.3498" fill="none" id="UVG-to-B" style="stroke:#AFB200;stroke-width:2.5;"/><polygon fill="#AFB200" points="317.71,160.47,308.792,156.2905,312.711,160.3698,308.6317,164.2889,317.71,160.47" style="stroke:#AFB200;stroke-width:2.5;"/><text fill="#AFB200" font-family="sans-serif" font-size="20" font-style="italic" lengthAdjust="spacing" textLength="62.3399" x="225.04" y="125.03">installs</text><text fill="#AFB200" font-family="sans-serif" font-size="20" font-style="italic" lengthAdjust="spacing" textLength="59.52" x="226.45" y="152.2699">as tool</text></g><!--link B to PDIR--><g class="link" data-entity-1="ent0003" data-entity-2="ent0007" data-link-type="dependency" data-source-line="141" id="lnk18"><path codeLine="141" d="M508.09,166.15 C523.99,166.65 540.32,167.09 555.72,167.36 C617.49,168.45 632.98,169.54 694.72,167.36 C698.9725,167.2094 703.2893,167.0357 707.6464,166.8423 C709.8249,166.7456 712.0135,166.644 714.2092,166.5379 C715.3071,166.4848 716.4067,166.4306 717.5077,166.3754 C717.7829,166.3616 712.066,166.6511 712.3414,166.6371" fill="none" id="B-to-PDIR" style="stroke:#00A2FF;stroke-width:4;"/><polygon fill="#00A2FF" points="718.3337,166.3338,709.143,162.794,713.3401,166.5866,709.5475,170.7837,718.3337,166.3338" style="stroke:#00A2FF;stroke-width:4;"/><text fill="#00A2FF" font-family="sans-serif" font-size="20" font-style="italic" font-weight="700" lengthAdjust="spacing" textLength="63.7699" x="593.64" y="106.74">copies</text><text fill="#00A2FF" font-family="sans-serif" font-size="20" font-style="italic" font-weight="700" lengthAdjust="spacing" textLength="99.5849" x="575.7325" y="133.9799">templates</text><text fill="#00A2FF" font-family="sans-serif" font-size="20" font-style="italic" font-weight="700" lengthAdjust="spacing" textLength="137.6099" x="556.72" y="161.2199">(cookiecutter)</text></g><!--link UVV to LOCK--><g class="link" data-entity-1="ent0013" data-entity-2="ent0011" data-link-type="dependency" data-source-line="142" id="lnk19"><path codeLine="142" d="M1215.77,414.12 C1201.15,421.37 1184.39,428.4 1168.18,432.36 C1098.27,449.42 1023.0979,452.0571 960.4979,450.4171" fill="none" id="UVV-to-LOCK" style="stroke:#00A2FF;stroke-width:2.5;"/><polygon fill="#00A2FF" points="954.5,450.26,963.3922,454.4943,959.4983,450.3909,963.6017,446.4971,954.5,450.26" style="stroke:#00A2FF;stroke-width:2.5;"/><text fill="#00A2FF" font-family="sans-serif" font-size="20" font-style="italic" lengthAdjust="spacing" textLength="70.96" x="1052.39" y="398.74">resolves</text><text fill="#00A2FF" font-family="sans-serif" font-size="20" font-style="italic" lengthAdjust="spacing" textLength="84.3799" x="1045.68" y="425.9799">&amp; exports</text></g><!--reverse link PDIR to UVV--><g class="link" data-entity-1="ent0007" data-entity-2="ent0013" data-link-type="dependency" data-source-line="143" id="lnk20"><path codeLine="143" d="M988.603,166.7977 C989.0251,167.0592 984.9505,164.6014 985.3677,164.8708 C987.0366,165.9484 988.6655,167.0893 990.2495,168.2965 C993.4177,170.7109 996.4069,173.3906 999.18,176.36 C1017.42,195.89 991.19,274.95 1007.18,296.36 C1032.76,330.61 1151.14,363.61 1215.91,379.5" fill="none" id="PDIR-backto-UVV" style="stroke:#00A2FF;stroke-width:2.5;"/><polygon fill="#00A2FF" points="983.4735,163.685,989.0926,171.7736,987.748,166.2789,993.2428,164.9344,983.4735,163.685" style="stroke:#00A2FF;stroke-width:2.5;"/><text fill="#00A2FF" font-family="sans-serif" font-size="20" font-style="italic" lengthAdjust="spacing" textLength="130.3399" x="1022.68" y="289.74">editable install</text></g><!--link UVG to VENV--><g class="link" data-entity-1="ent0004" data-entity-2="ent0012" data-link-type="dependency" data-source-line="154" id="lnk21"><path codeLine="154" d="M180.64,113.99 C194.6,106.57 209.49,99.57 224.04,94.36 C264.01,80.04 275.75,81.15 318.04,77.36 C442.2,66.22 950.81,70.82 999.18,83.36 C1081.76,104.76 1098.96,124.49 1168.18,174.36 C1173.5975,178.2637 1179.0284,182.4684 1184.3901,186.8439 C1187.071,189.0317 1189.7345,191.2622 1192.3704,193.5191 C1192.5351,193.6601 1188.1475,189.8927 1188.312,190.034" fill="none" id="UVG-to-VENV" style="stroke:#32BC00;stroke-width:4;"/><polygon fill="#32BC00" points="1192.8643,193.9425,1188.6415,185.0448,1189.0707,190.6854,1183.4301,191.1145,1192.8643,193.9425" style="stroke:#32BC00;stroke-width:4;"/><text fill="#32BC00" font-family="sans-serif" font-size="20" font-style="italic" font-weight="700" lengthAdjust="spacing" textLength="72.8149" x="589.22" y="37.43">creates</text><text fill="#32BC00" font-family="sans-serif" font-size="20" font-style="italic" font-weight="700" lengthAdjust="spacing" textLength="52.4449" x="599.405" y="64.6699">.venv</text></g><!--link UVV to PD--><g class="link" data-entity-1="ent0013" data-entity-2="ent0014" data-link-type="dependency" data-source-line="155" id="lnk22"><path codeLine="155" d="M1303.45,389.36 C1332.62,389.36 1366.81,389.36 1405.53,389.36" fill="none" id="UVV-to-PD" style="stroke:#32BC00;stroke-width:2.5;"/><polygon fill="#32BC00" points="1411.53,389.36,1402.53,385.36,1406.53,389.36,1402.53,393.36,1411.53,389.36" style="stroke:#32BC00;stroke-width:2.5;"/><text fill="#32BC00" font-family="sans-serif" font-size="20" font-style="italic" lengthAdjust="spacing" textLength="47.26" x="1333.96" y="382.74">syncs</text></g><!--link ERC to VENV--><g class="link" data-entity-1="ent0010" data-entity-2="ent0012" data-link-type="dependency" data-source-line="156" id="lnk23"><path codeLine="156" d="M938.18,259.36 C996.93,259.36 1075.4625,259.36 1140.0713,259.36 C1156.2234,259.36 1171.5054,259.36 1185.3904,259.36 C1187.1261,259.36 1188.8399,259.36 1190.5308,259.36 C1190.9536,259.36 1185.3749,259.36 1185.7947,259.36" fill="none" id="ERC-to-VENV" style="stroke:#32BC00;stroke-width:2.5;"/><polygon fill="#32BC00" points="1191.7947,259.36,1182.7947,255.36,1186.7947,259.36,1182.7947,263.36,1191.7947,259.36" style="stroke:#32BC00;stroke-width:2.5;"/><text fill="#32BC00" font-family="sans-serif" font-size="20" font-style="italic" lengthAdjust="spacing" textLength="78.1799" x="1048.68" y="252.74">activates</text></g><!--link JF to UVV--><g class="link" data-entity-1="ent0009" data-entity-2="ent0013" data-link-type="dependency" data-source-line="157" id="lnk24"><path codeLine="157" d="M924.68,614.26 C991.7,588.17 1092.01,543.86 1168.18,487.36 C1185.28,474.67 1197.7439,462.8987 1211.8439,447.3187" fill="none" id="JF-to-UVV" style="stroke:#32BC00;stroke-width:2.5;"/><polygon fill="#32BC00" points="1215.87,442.87,1206.8651,446.859,1212.5149,446.5772,1212.7967,452.2271,1215.87,442.87" style="stroke:#32BC00;stroke-width:2.5;"/><text fill="#32BC00" font-family="sans-serif" font-size="20" font-style="italic" lengthAdjust="spacing" textLength="39.76" x="1068.18" y="480.74">runs</text></g><!--reverse link D to ERC--><g class="link" data-entity-1="ent0006" data-entity-2="ent0010" data-link-type="dependency" data-source-line="171" id="lnk25"><path codeLine="171" d="M200.3141,330.7644 C340.4941,315.3544 620.4,284.59 763.83,268.83" fill="none" id="D-backto-ERC" style="stroke:#EE220C;stroke-width:2.5;stroke-dasharray:10,5;"/><polygon fill="#EE220C" points="194.35,331.42,203.7332,334.4126,199.3201,330.8736,202.859,326.4605,194.35,331.42" style="stroke:#EE220C;stroke-width:2.5;"/><text fill="#EE220C" font-family="sans-serif" font-size="20" font-style="italic" lengthAdjust="spacing" textLength="72.8399" x="376.88" y="286.52">requires</text></g><!--reverse link J to JF--><g class="link" data-entity-1="ent0005" data-entity-2="ent0009" data-link-type="dependency" data-source-line="172" id="lnk26"><path codeLine="172" d="M156.7187,504.9005 C273.3687,527.6905 623.15,596.04 777.36,626.18" fill="none" id="J-backto-JF" style="stroke:#EE220C;stroke-width:2.5;stroke-dasharray:10,5;"/><polygon fill="#EE220C" points="150.83,503.75,158.896,509.4015,155.7372,504.7087,160.43,501.5499,150.83,503.75" style="stroke:#EE220C;stroke-width:2.5;"/><text fill="#EE220C" font-family="sans-serif" font-size="20" font-style="italic" lengthAdjust="spacing" textLength="72.8399" x="376.88" y="531.41">requires</text></g><!--reverse link D to JF--><g class="link" data-entity-1="ent0006" data-entity-2="ent0009" data-link-type="dependency" data-source-line="173" id="lnk27"><path codeLine="173" d="M199.913,370.3424 C287.783,401.1024 425.98,450.91 547.72,501.36 C627.22,534.31 716.56,575.99 777.35,605.08" fill="none" id="D-backto-JF" style="stroke:#EE220C;stroke-width:2.5;stroke-dasharray:10,5;"/><polygon fill="#EE220C" points="194.25,368.36,201.4229,375.109,198.9692,370.012,204.0662,367.5583,194.25,368.36" style="stroke:#EE220C;stroke-width:2.5;"/><text fill="#EE220C" font-family="sans-serif" font-size="20" font-style="italic" lengthAdjust="spacing" textLength="72.8399" x="376.88" y="406.26">requires</text></g><!--reverse link PPRT to UVV--><g class="link" data-entity-1="ent0008" data-entity-2="ent0013" data-link-type="dependency" data-source-line="175" id="lnk28"><path codeLine="175" d="M965.1017,782.3632 C1033.2717,752.3632 1113.15,707.38 1168.18,641.36 C1205.45,596.64 1227.89,535.36 1241.09,484.42" fill="none" id="PPRT-backto-UVV" style="stroke:#EE220C;stroke-width:2.5;stroke-dasharray:10,5;"/><polygon fill="#EE220C" points="959.61,784.78,969.4588,784.816,964.1864,782.766,966.2364,777.4937,959.61,784.78" style="stroke:#EE220C;stroke-width:2.5;"/><text fill="#EE220C" font-family="sans-serif" font-size="20" font-style="italic" lengthAdjust="spacing" textLength="49.52" x="1063.09" y="607.74">reads</text><text fill="#EE220C" font-family="sans-serif" font-size="20" font-style="italic" lengthAdjust="spacing" textLength="159.3399" x="1008.18" y="634.9799">dependency specs</text></g><?plantuml-src hLVRRXit47tVhnWeG2ugLfNL644CMO1riPlKZGN9qKiT1DGkPJEYoGt9LQCK_lSEkUkzhvKKvOkyC-JCcJCNqfnk31W9YjtU6GYPee5XKdWlK1XPnLeQ8-yB6bITdfx21PThme5BkONdiA6KMt6-FBrb8YAAu5cw8J4tvrAO9VjEOT176xbwJ8BjhPAn22UIImNF-cuTzRtsFKOHeL55XKa1_S0gs8lG7hcby8y7k1Q9OIMeWgDZ9nfB5L9rVSU2hQ1Qmy19NpI1FHkSdn-zVTIxSoLTgh7X9tB8D0zrICDXoknCx9YIuXv378rIe3NlPBCU85Ll2vXBcit6QKg-CqsZznLJ9gwwR_7-ss0TD7jFD4tUCqsZzwahCwdsxI6N26-Zkvdi_r8f0IUO_XOiWLjltjImsFNijLkDvNIKeLoQFQVOPJniAiM7AfBXS7BvBYUdwZ9fdSPZKcpOxMWq7CwtxkTI1bl_d76gxPVzeoGzwACfhFxFa7me1tObisQUbCS9r5kZCdGU-xfp5L5531EtiDnhG-yxG3HSpA2rlLmyJ1YgDYH00-kOyN1DHSS5RK-FyIUbFs76hb-OOCQFbFpoybKk967eqsy8WLdxgUQXwYBUTLBJ7rSN3QQDb1ptQqCuBrftSXMBajsgyI-nDXt85Zfvd-ElRhPj9tQTmkPfOx2Sx6LiYbX2Tn8KvPA43GhwZGPbd0-rhCwHFUnwo9g_BQcrZIwhy-cx1LH7X_ELz6udsaV9mHxUPBn0IdLPO_F5DUJT0eNWfpIY8gGYO5JdqYKrSGJ9_jYM75wHbQoaC6n6DjXPJm38StLkwL_GW4MsFuim5DMqb8AqGloGHheex_LwzGf9iVGmDoeuYCHXcIqcKA2a06M-k7e_crn__d3svooNpZwiFg_E5iiMr_6knt78t8XeRt_JdA2Vowl97wxgYfFfS09ML6aaNUChP2bZ5QIwXuP2QxZRsagjjtCDWR1M60-qt8ifkdfFbndyk5hPkAwnRqlyMH_5Z5a-YjzwBuBYTxNdi_esTrBWCokdfvFLyzHwTYFV4f8oyZiBSICGfUJVshxoh6Uuaufznoi9etHptMxrS6O2-7_TkHEVt3FH7xcUyrpZrLIMB-z_l0KIn4jyyRadwbc2kR9fgEqrEl9SH6bMBfcWXGTSxxXovp8Cb0NPrfzvDmr_JVrvTdBx6FKOJXv7jRuHn98g-PCij8D-wZcJFsPo36DCWdaCzFJrfpG_YAZR3MI4vT3jteXk5w_1Y1Fp-FaomBSxeq5ii7fVTRlWkJgrqRXMFC6fhYNVKGpeEGxoI2gZawGFVTyLzGdG46bSMpQJuBDypN5sOI4zdRS33BIy8iloUffh-QcourhQiQDepeTh-MxNiU0x3d6FRK7jsH7evmS9_YUqimSzdDDMdd21xQcp5YiEgn-jrgGkZ_h-SPM9sMmmw4-gFAJIOhoUkxWnFHQopU3N6Ez519gAxSLI44-RnLvo3IPPjd8IOX5a0sOFEg982uRgcE7uJwGFpWY0QmIiA2H9umPdgTTBE8B42mbXlVyN?></g></svg>