<?xml version="1.0" encoding="us-ascii" standalone="no"?><svg xmlns="http://www.w3.org/2000/svg" xmlns:xlink="http://www.w3.org/1999/xlink" contentStyleType="text/css" height="760px" preserveAspectRatio="none" style="width:1930px;height:760px;" version="1.1" viewBox="0 0 1930 760" width="1930px" zoomAndPan="magnify"><defs/><g><!--cluster GE--><g id="cluster_GE"><path d="M13.5,223.2168 L209.5,223.2168 A11.25,11.25 0 0 1 217,230.7168 L224,252.498 L541.5,252.498 A7.5,7.5 0 0 1 549,259.998 L549,678.7168 A7.5,7.5 0 0 1 541.5,686.2168 L13.5,686.2168 A7.5,7.5 0 0 1 6,678.7168 L6,230.7168 A7.5,7.5 0 0 1 13.5,223.2168 " fill="#AFB200" fill-opacity="0.09804" style="stroke:#AFB200;stroke-width:2.0;"/><line style="stroke:#AFB200;stroke-width:2.0;" x1="6" x2="224" y1="252.498" y2="252.498"/><text fill="#AFB200" font-family="sans-serif" font-size="20" font-weight="bold" lengthAdjust="spacing" textLength="205" x="10" y="243.7813">Operating System</text><text fill="#AFB200" font-family="sans-serif" font-size="20" font-style="italic" lengthAdjust="spacing" textLength="225" x="169" y="273.0625">&#171;Global Environment&#187;</text></g><!--cluster PDIR--><g id="cluster_PDIR"><path d="M760.5,7.2168 L947.5,7.2168 A11.25,11.25 0 0 1 955,14.7168 L962,36.498 L1071.5,36.498 A7.5,7.5 0 0 1 1079,43.998 L1079,744.7168 A7.5,7.5 0 0 1 1071.5,752.2168 L760.5,752.2168 A7.5,7.5 0 0 1 753,744.7168 L753,14.7168 A7.5,7.5 0 0 1 760.5,7.2168 " fill="#00A2FF" fill-opacity="0.09804" style="stroke:#00A2FF;stroke-width:2.0;"/><line style="stroke:#00A2FF;stroke-width:2.0;" x1="753" x2="962" y1="36.498" y2="36.498"/><text fill="#00A2FF" font-family="sans-serif" font-size="20" font-weight="bold" lengthAdjust="spacing" textLength="196" x="757" y="27.7813">Project Directory</text><text fill="#00A2FF" font-family="sans-serif" font-size="20" font-style="italic" lengthAdjust="spacing" textLength="116" x="862" y="57.0625">&#171;Directory&#187;</text></g><!--cluster VENV--><g id="cluster_VENV"><path d="M1285.5,31.2168 L1356.5,31.2168 A11.25,11.25 0 0 1 1364,38.7168 L1371,60.498 L1914.5,60.498 A7.5,7.5 0 0 1 1922,67.998 L1922,413.7168 A7.5,7.5 0 0 1 1914.5,421.2168 L1285.5,421.2168 A7.5,7.5 0 0 1 1278,413.7168 L1278,38.7168 A7.5,7.5 0 0 1 1285.5,31.2168 " fill="#32BC00" fill-opacity="0.09804" style="stroke:#32BC00;stroke-width:2.0;"/><line style="stroke:#32BC00;stroke-width:2.0;" x1="1278" x2="1371" y1="60.498" y2="60.498"/><text fill="#32BC00" font-family="sans-serif" font-size="20" font-weight="bold" lengthAdjust="spacing" textLength="80" x="1282" y="51.7813">.direnv</text><text fill="#32BC00" font-family="sans-serif" font-size="20" font-style="italic" lengthAdjust="spacing" textLength="227" x="1490.5" y="81.0625">&#171;Virtual Environment&#187;</text></g><!--class B--><g id="elem_B"><rect codeLine="57" fill="#CCCCCC" fill-opacity="0.46667" height="119.125" id="B" rx="2.5" ry="2.5" style="stroke:#000000;stroke-width:1.0;" width="203" x="330" y="288.7168"/><ellipse cx="378" cy="316.998" fill="#B4A7E5" rx="12" ry="12" style="stroke:#181818;stroke-width:1.0;"/><path d="M373.1875,312.4512 L373.1875,309.9199 L381.8594,309.9199 L381.8594,312.4512 L378.9688,312.4512 L378.9688,321.9512 L381.8594,321.9512 L381.8594,324.498 L373.1875,324.498 L373.1875,321.9512 L376.0781,321.9512 L376.0781,312.4512 L373.1875,312.4512 Z " fill="#000000"/><text fill="#000000" font-family="sans-serif" font-size="20" font-style="italic" lengthAdjust="spacing" textLength="55" x="421.5" y="312.2813">&#171;CLI&#187;</text><text fill="#000000" font-family="sans-serif" font-size="20" font-style="italic" font-weight="bold" lengthAdjust="spacing" textLength="98" x="400" y="335.5625">buildben</text><line style="stroke:#000000;stroke-width:1.0;" x1="331" x2="532" y1="345.2793" y2="345.2793"/><line style="stroke:#000000;stroke-width:1.0;" x1="331" x2="532" y1="353.2793" y2="353.2793"/><ellipse cx="341" cy="370.4199" fill="#84BE84" rx="3" ry="3" style="stroke:#038048;stroke-width:1.0;"/><text fill="#000000" font-family="sans-serif" font-size="20" lengthAdjust="spacing" textLength="95" x="351" y="375.8438">init-proj()</text><ellipse cx="341" cy="393.7012" fill="#84BE84" rx="3" ry="3" style="stroke:#038048;stroke-width:1.0;"/><text fill="#000000" font-family="sans-serif" font-size="20" lengthAdjust="spacing" textLength="176" x="351" y="399.125">add-experiment()</text></g><!--class PIP--><g id="elem_PIP"><rect codeLine="61" fill="#CCCCCC" fill-opacity="0.46667" height="95.8438" id="PIP" rx="2.5" ry="2.5" style="stroke:#000000;stroke-width:1.0;" width="138" x="40.5" y="288.2168"/><ellipse cx="56.5" cy="316.498" fill="#B4A7E5" rx="12" ry="12" style="stroke:#181818;stroke-width:1.0;"/><path d="M51.6875,311.9512 L51.6875,309.4199 L60.3594,309.4199 L60.3594,311.9512 L57.4688,311.9512 L57.4688,321.4512 L60.3594,321.4512 L60.3594,323.998 L51.6875,323.998 L51.6875,321.4512 L54.5781,321.4512 L54.5781,311.9512 L51.6875,311.9512 Z " fill="#000000"/><text fill="#000000" font-family="sans-serif" font-size="20" font-style="italic" lengthAdjust="spacing" textLength="55" x="96" y="311.7813">&#171;CLI&#187;</text><text fill="#000000" font-family="sans-serif" font-size="20" font-style="italic" font-weight="bold" lengthAdjust="spacing" textLength="104" x="71.5" y="335.0625">pip / pipx</text><line style="stroke:#000000;stroke-width:1.0;" x1="41.5" x2="177.5" y1="344.7793" y2="344.7793"/><line style="stroke:#000000;stroke-width:1.0;" x1="41.5" x2="177.5" y1="352.7793" y2="352.7793"/><ellipse cx="51.5" cy="369.9199" fill="#84BE84" rx="3" ry="3" style="stroke:#038048;stroke-width:1.0;"/><text fill="#000000" font-family="sans-serif" font-size="20" lengthAdjust="spacing" textLength="77" x="61.5" y="375.3438">install()</text></g><!--class J--><g id="elem_J"><rect codeLine="65" fill="#CCCCCC" fill-opacity="0.46667" height="72.5625" id="J" rx="2.5" ry="2.5" style="stroke:#000000;stroke-width:1.0;" width="85" x="67" y="596.7168"/><ellipse cx="83" cy="624.998" fill="#B4A7E5" rx="12" ry="12" style="stroke:#181818;stroke-width:1.0;"/><path d="M78.1875,620.4512 L78.1875,617.9199 L86.8594,617.9199 L86.8594,620.4512 L83.9688,620.4512 L83.9688,629.9512 L86.8594,629.9512 L86.8594,632.498 L78.1875,632.498 L78.1875,629.9512 L81.0781,629.9512 L81.0781,620.4512 L78.1875,620.4512 Z " fill="#000000"/><text fill="#000000" font-family="sans-serif" font-size="20" font-style="italic" lengthAdjust="spacing" textLength="55" x="96" y="620.2813">&#171;CLI&#187;</text><text fill="#000000" font-family="sans-serif" font-size="20" font-style="italic" font-weight="bold" lengthAdjust="spacing" textLength="43" x="102" y="643.5625">just</text><line style="stroke:#000000;stroke-width:1.0;" x1="68" x2="151" y1="653.2793" y2="653.2793"/><line style="stroke:#000000;stroke-width:1.0;" x1="68" x2="151" y1="661.2793" y2="661.2793"/></g><!--class D--><g id="elem_D"><rect codeLine="66" fill="#CCCCCC" fill-opacity="0.46667" height="142.4063" id="D" rx="2.5" ry="2.5" style="stroke:#000000;stroke-width:1.0;" width="175" x="22" y="419.2168"/><ellipse cx="67.7" cy="447.498" fill="#B4A7E5" rx="12" ry="12" style="stroke:#181818;stroke-width:1.0;"/><path d="M62.8875,442.9512 L62.8875,440.4199 L71.5594,440.4199 L71.5594,442.9512 L68.6688,442.9512 L68.6688,452.4512 L71.5594,452.4512 L71.5594,454.998 L62.8875,454.998 L62.8875,452.4512 L65.7781,452.4512 L65.7781,442.9512 L62.8875,442.9512 Z " fill="#000000"/><text fill="#000000" font-family="sans-serif" font-size="20" font-style="italic" lengthAdjust="spacing" textLength="55" x="99.3" y="442.7813">&#171;CLI&#187;</text><text fill="#000000" font-family="sans-serif" font-size="20" font-style="italic" font-weight="bold" lengthAdjust="spacing" textLength="75" x="89.3" y="466.0625">Direnv</text><line style="stroke:#000000;stroke-width:1.0;" x1="23" x2="196" y1="475.7793" y2="475.7793"/><line style="stroke:#000000;stroke-width:1.0;" x1="23" x2="196" y1="483.7793" y2="483.7793"/><ellipse cx="33" cy="500.9199" fill="#84BE84" rx="3" ry="3" style="stroke:#038048;stroke-width:1.0;"/><text fill="#000000" font-family="sans-serif" font-size="20" lengthAdjust="spacing" textLength="78" x="43" y="506.3438">layout()</text><ellipse cx="33" cy="524.2012" fill="#84BE84" rx="3" ry="3" style="stroke:#038048;stroke-width:1.0;"/><text fill="#000000" font-family="sans-serif" font-size="20" lengthAdjust="spacing" textLength="148" x="43" y="529.625">direnv reload()</text><ellipse cx="33" cy="547.4824" fill="#84BE84" rx="3" ry="3" style="stroke:#038048;stroke-width:1.0;"/><text fill="#000000" font-family="sans-serif" font-size="20" lengthAdjust="spacing" textLength="131" x="43" y="552.9063">direnv exec()</text></g><!--class PPRT--><g id="elem_PPRT"><rect codeLine="77" fill="#CCCCCC" fill-opacity="0.46667" height="119.125" id="PPRT" rx="2.5" ry="2.5" style="stroke:#000000;stroke-width:0.0;" width="229" x="801.5" y="99.7168"/><ellipse cx="829.65" cy="127.998" fill="#ADD1B2" rx="12" ry="12" style="stroke:#181818;stroke-width:1.0;"/><path d="M832.7125,135.0762 Q832.025,135.4355 831.275,135.6074 Q830.525,135.7793 829.6969,135.7793 Q826.7438,135.7793 825.1813,133.8418 Q823.6344,131.8887 823.6344,128.2168 Q823.6344,124.5449 825.1813,122.6074 Q826.7438,120.6543 829.6969,120.6543 Q830.525,120.6543 831.275,120.8262 Q832.0406,120.998 832.7125,121.3574 L832.7125,124.5605 Q831.9625,123.873 831.2594,123.5605 Q830.5719,123.248 829.8219,123.248 Q828.2438,123.248 827.4313,124.498 Q826.6344,125.748 826.6344,128.2168 Q826.6344,130.6855 827.4313,131.9355 Q828.2438,133.1855 829.8219,133.1855 Q830.5719,133.1855 831.2594,132.873 Q831.9625,132.5605 832.7125,131.873 L832.7125,135.0762 Z " fill="#000000"/><text fill="#000000" font-family="sans-serif" font-size="20" font-style="italic" lengthAdjust="spacing" textLength="89" x="886.85" y="123.2813">&#171;Config&#187;</text><text fill="#000000" font-family="sans-serif" font-size="20" font-weight="bold" lengthAdjust="spacing" textLength="168" x="847.35" y="146.5625">pyproject.toml</text><line style="stroke:#000000;stroke-width:0.0;" x1="802.5" x2="1029.5" y1="156.2793" y2="156.2793"/><ellipse cx="812.5" cy="173.4199" fill="none" rx="3" ry="3" style="stroke:#038048;stroke-width:1.0;"/><text fill="#000000" font-family="sans-serif" font-size="20" lengthAdjust="spacing" textLength="142" x="822.5" y="178.8438">Dependencies</text><ellipse cx="812.5" cy="196.7012" fill="none" rx="3" ry="3" style="stroke:#038048;stroke-width:1.0;"/><text fill="#000000" font-family="sans-serif" font-size="20" lengthAdjust="spacing" textLength="202" x="822.5" y="202.125">Setup Configuration</text><line style="stroke:#000000;stroke-width:0.0;" x1="802.5" x2="1029.5" y1="210.8418" y2="210.8418"/></g><!--class JF--><g id="elem_JF"><rect codeLine="82" fill="#CCCCCC" fill-opacity="0.46667" height="142.4063" id="JF" rx="2.5" ry="2.5" style="stroke:#444444;stroke-width:1.0;" width="159" x="836.5" y="586.2168"/><ellipse cx="864.65" cy="614.498" fill="#ADD1B2" rx="12" ry="12" style="stroke:#181818;stroke-width:1.0;"/><path d="M867.7125,621.5762 Q867.025,621.9355 866.275,622.1074 Q865.525,622.2793 864.6969,622.2793 Q861.7438,622.2793 860.1813,620.3418 Q858.6344,618.3887 858.6344,614.7168 Q858.6344,611.0449 860.1813,609.1074 Q861.7438,607.1543 864.6969,607.1543 Q865.525,607.1543 866.275,607.3262 Q867.0406,607.498 867.7125,607.8574 L867.7125,611.0605 Q866.9625,610.373 866.2594,610.0605 Q865.5719,609.748 864.8219,609.748 Q863.2438,609.748 862.4313,610.998 Q861.6344,612.248 861.6344,614.7168 Q861.6344,617.1855 862.4313,618.4355 Q863.2438,619.6855 864.8219,619.6855 Q865.5719,619.6855 866.2594,619.373 Q866.9625,619.0605 867.7125,618.373 L867.7125,621.5762 Z " fill="#000000"/><text fill="#000000" font-family="sans-serif" font-size="20" font-style="italic" lengthAdjust="spacing" textLength="102" x="880.35" y="609.7813">&#171;Recipes&#187;</text><text fill="#000000" font-family="sans-serif" font-size="20" font-weight="bold" lengthAdjust="spacing" textLength="80" x="891.35" y="633.0625">justfile</text><line style="stroke:#444444;stroke-width:1.0;" x1="837.5" x2="994.5" y1="642.7793" y2="642.7793"/><line style="stroke:#444444;stroke-width:1.0;" x1="837.5" x2="994.5" y1="650.7793" y2="650.7793"/><ellipse cx="847.5" cy="667.9199" fill="#84BE84" rx="3" ry="3" style="stroke:#038048;stroke-width:1.0;"/><text fill="#000000" font-family="sans-serif" font-size="20" lengthAdjust="spacing" textLength="66" x="857.5" y="673.3438">reset()</text><ellipse cx="847.5" cy="691.2012" fill="#84BE84" rx="3" ry="3" style="stroke:#038048;stroke-width:1.0;"/><text fill="#000000" font-family="sans-serif" font-size="20" lengthAdjust="spacing" textLength="132" x="857.5" y="696.625">install-deps()</text><ellipse cx="847.5" cy="714.4824" fill="#84BE84" rx="3" ry="3" style="stroke:#038048;stroke-width:1.0;"/><text fill="#000000" font-family="sans-serif" font-size="20" lengthAdjust="spacing" textLength="34" x="857.5" y="719.9063">...()</text></g><!--class ERC--><g id="elem_ERC"><rect codeLine="88" fill="#CCCCCC" fill-opacity="0.46667" height="119.125" id="ERC" rx="2.5" ry="2.5" style="stroke:#000000;stroke-width:0.0;" width="183" x="824.5" y="431.7168"/><ellipse cx="869.3" cy="459.998" fill="#ADD1B2" rx="12" ry="12" style="stroke:#181818;stroke-width:1.0;"/><path d="M872.3625,467.0762 Q871.675,467.4355 870.925,467.6074 Q870.175,467.7793 869.3469,467.7793 Q866.3938,467.7793 864.8313,465.8418 Q863.2844,463.8887 863.2844,460.2168 Q863.2844,456.5449 864.8313,454.6074 Q866.3938,452.6543 869.3469,452.6543 Q870.175,452.6543 870.925,452.8262 Q871.6906,452.998 872.3625,453.3574 L872.3625,456.5605 Q871.6125,455.873 870.9094,455.5605 Q870.2219,455.248 869.4719,455.248 Q867.8938,455.248 867.0813,456.498 Q866.2844,457.748 866.2844,460.2168 Q866.2844,462.6855 867.0813,463.9355 Q867.8938,465.1855 869.4719,465.1855 Q870.2219,465.1855 870.9094,464.873 Q871.6125,464.5605 872.3625,463.873 L872.3625,467.0762 Z " fill="#000000"/><text fill="#000000" font-family="sans-serif" font-size="20" font-style="italic" lengthAdjust="spacing" textLength="89" x="888.7" y="455.2813">&#171;Config&#187;</text><text fill="#000000" font-family="sans-serif" font-size="20" font-weight="bold" lengthAdjust="spacing" textLength="71" x="897.7" y="478.5625">.envrc</text><line style="stroke:#000000;stroke-width:0.0;" x1="825.5" x2="1006.5" y1="488.2793" y2="488.2793"/><ellipse cx="835.5" cy="505.4199" fill="none" rx="3" ry="3" style="stroke:#038048;stroke-width:1.0;"/><text fill="#000000" font-family="sans-serif" font-size="20" lengthAdjust="spacing" textLength="156" x="845.5" y="510.8438">PROJECT_NAME</text><ellipse cx="835.5" cy="528.7012" fill="none" rx="3" ry="3" style="stroke:#038048;stroke-width:1.0;"/><text fill="#000000" font-family="sans-serif" font-size="20" lengthAdjust="spacing" textLength="107" x="845.5" y="534.125">ENV_VARS</text><line style="stroke:#000000;stroke-width:0.0;" x1="825.5" x2="1006.5" y1="542.8418" y2="542.8418"/></g><!--class RE--><g id="elem_RE"><rect codeLine="93" fill="#CCCCCC" fill-opacity="0.46667" height="142.4063" id="RE" rx="2.5" ry="2.5" style="stroke:#000000;stroke-width:0.0;" width="278" x="777" y="254.2168"/><ellipse cx="793" cy="294.1387" fill="#ADD1B2" rx="12" ry="12" style="stroke:#181818;stroke-width:1.0;"/><path d="M796.0625,301.2168 Q795.375,301.5762 794.625,301.748 Q793.875,301.9199 793.0469,301.9199 Q790.0938,301.9199 788.5313,299.9824 Q786.9844,298.0293 786.9844,294.3574 Q786.9844,290.6855 788.5313,288.748 Q790.0938,286.7949 793.0469,286.7949 Q793.875,286.7949 794.625,286.9668 Q795.3906,287.1387 796.0625,287.498 L796.0625,290.7012 Q795.3125,290.0137 794.6094,289.7012 Q793.9219,289.3887 793.1719,289.3887 Q791.5938,289.3887 790.7813,290.6387 Q789.9844,291.8887 789.9844,294.3574 Q789.9844,296.8262 790.7813,298.0762 Q791.5938,299.3262 793.1719,299.3262 Q793.9219,299.3262 794.6094,299.0137 Q795.3125,298.7012 796.0625,298.0137 L796.0625,301.2168 Z " fill="#000000"/><text fill="#000000" font-family="sans-serif" font-size="20" font-style="italic" lengthAdjust="spacing" textLength="123" x="868.5" y="277.7813">&#171;Lock-Files&#187;</text><text fill="#000000" font-family="sans-serif" font-size="20" font-weight="bold" lengthAdjust="spacing" textLength="195" x="829" y="301.0625">requirements.txt</text><text fill="#000000" font-family="sans-serif" font-size="20" font-weight="bold" lengthAdjust="spacing" textLength="244" x="808" y="324.3438">dev-requirements.txt</text><line style="stroke:#000000;stroke-width:0.0;" x1="778" x2="1054" y1="334.0605" y2="334.0605"/><ellipse cx="788" cy="351.2012" fill="none" rx="3" ry="3" style="stroke:#038048;stroke-width:1.0;"/><text fill="#000000" font-family="sans-serif" font-size="20" lengthAdjust="spacing" textLength="142" x="798" y="356.625">Dependencies</text><ellipse cx="788" cy="374.4824" fill="none" rx="3" ry="3" style="stroke:#038048;stroke-width:1.0;"/><text fill="#000000" font-family="sans-serif" font-size="20" lengthAdjust="spacing" textLength="184" x="798" y="379.9063">Versions &amp; Hashes</text><line style="stroke:#000000;stroke-width:0.0;" x1="778" x2="1054" y1="388.623" y2="388.623"/></g><!--class PT--><g id="elem_PT"><rect codeLine="101" fill="#CCCCCC" fill-opacity="0.46667" height="119.125" id="PT" rx="2.5" ry="2.5" style="stroke:#444444;stroke-width:1.0;" width="162" x="1314" y="258.7168"/><ellipse cx="1342.6" cy="286.998" fill="#B4A7E5" rx="12" ry="12" style="stroke:#181818;stroke-width:1.0;"/><path d="M1337.7875,282.4512 L1337.7875,279.9199 L1346.4594,279.9199 L1346.4594,282.4512 L1343.5688,282.4512 L1343.5688,291.9512 L1346.4594,291.9512 L1346.4594,294.498 L1337.7875,294.498 L1337.7875,291.9512 L1340.6781,291.9512 L1340.6781,282.4512 L1337.7875,282.4512 Z " fill="#000000"/><text fill="#000000" font-family="sans-serif" font-size="20" font-style="italic" lengthAdjust="spacing" textLength="66" x="1377.4" y="282.2813">&#171;Tool&#187;</text><text fill="#000000" font-family="sans-serif" font-size="20" font-style="italic" font-weight="bold" lengthAdjust="spacing" textLength="100" x="1360.4" y="305.5625">pip-tools</text><line style="stroke:#444444;stroke-width:1.0;" x1="1315" x2="1475" y1="315.2793" y2="315.2793"/><line style="stroke:#444444;stroke-width:1.0;" x1="1315" x2="1475" y1="323.2793" y2="323.2793"/><ellipse cx="1325" cy="340.4199" fill="#84BE84" rx="3" ry="3" style="stroke:#038048;stroke-width:1.0;"/><text fill="#000000" font-family="sans-serif" font-size="20" lengthAdjust="spacing" textLength="135" x="1335" y="345.8438">pip-compile()</text><ellipse cx="1325" cy="363.7012" fill="#84BE84" rx="3" ry="3" style="stroke:#038048;stroke-width:1.0;"/><text fill="#000000" font-family="sans-serif" font-size="20" lengthAdjust="spacing" textLength="100" x="1335" y="369.125">pip-sync()</text></g><!--class PD--><g id="elem_PD"><rect codeLine="105" fill="#CCCCCC" fill-opacity="0.46667" height="72.5625" id="PD" rx="2.5" ry="2.5" style="stroke:#000000;stroke-width:0.0;" width="277" x="1621" y="227.7168"/><ellipse cx="1637" cy="255.998" fill="#ADD1B2" rx="12" ry="12" style="stroke:#181818;stroke-width:1.0;"/><path d="M1640.0625,263.0762 Q1639.375,263.4355 1638.625,263.6074 Q1637.875,263.7793 1637.0469,263.7793 Q1634.0938,263.7793 1632.5313,261.8418 Q1630.9844,259.8887 1630.9844,256.2168 Q1630.9844,252.5449 1632.5313,250.6074 Q1634.0938,248.6543 1637.0469,248.6543 Q1637.875,248.6543 1638.625,248.8262 Q1639.3906,248.998 1640.0625,249.3574 L1640.0625,252.5605 Q1639.3125,251.873 1638.6094,251.5605 Q1637.9219,251.248 1637.1719,251.248 Q1635.5938,251.248 1634.7813,252.498 Q1633.9844,253.748 1633.9844,256.2168 Q1633.9844,258.6855 1634.7813,259.9355 Q1635.5938,261.1855 1637.1719,261.1855 Q1637.9219,261.1855 1638.6094,260.873 Q1639.3125,260.5605 1640.0625,259.873 L1640.0625,263.0762 Z " fill="#000000"/><text fill="#000000" font-family="sans-serif" font-size="20" font-style="italic" lengthAdjust="spacing" textLength="61" x="1743" y="251.2813">&#171;Pkg&#187;</text><text fill="#000000" font-family="sans-serif" font-size="20" font-weight="bold" lengthAdjust="spacing" textLength="243" x="1652" y="274.5625">python dependencies</text><line style="stroke:#000000;stroke-width:0.0;" x1="1622" x2="1897" y1="284.2793" y2="284.2793"/><line style="stroke:#000000;stroke-width:0.0;" x1="1622" x2="1897" y1="292.2793" y2="292.2793"/></g><!--class PIPvenv--><g id="elem_PIPvenv"><rect codeLine="108" fill="#CCCCCC" fill-opacity="0.46667" height="119.125" id="PIPvenv" rx="2.5" ry="2.5" style="stroke:#000000;stroke-width:1.0;" width="186" x="1302" y="104.7168"/><ellipse cx="1365" cy="132.998" fill="#B4A7E5" rx="12" ry="12" style="stroke:#181818;stroke-width:1.0;"/><path d="M1360.1875,128.4512 L1360.1875,125.9199 L1368.8594,125.9199 L1368.8594,128.4512 L1365.9688,128.4512 L1365.9688,137.9512 L1368.8594,137.9512 L1368.8594,140.498 L1360.1875,140.498 L1360.1875,137.9512 L1363.0781,137.9512 L1363.0781,128.4512 L1360.1875,128.4512 Z " fill="#000000"/><text fill="#000000" font-family="sans-serif" font-size="20" font-style="italic" lengthAdjust="spacing" textLength="55" x="1385" y="128.2813">&#171;CLI&#187;</text><text fill="#000000" font-family="sans-serif" font-size="20" font-style="italic" font-weight="bold" lengthAdjust="spacing" textLength="35" x="1395" y="151.5625">pip</text><line style="stroke:#000000;stroke-width:1.0;" x1="1303" x2="1487" y1="161.2793" y2="161.2793"/><line style="stroke:#000000;stroke-width:1.0;" x1="1303" x2="1487" y1="169.2793" y2="169.2793"/><ellipse cx="1313" cy="186.4199" fill="#84BE84" rx="3" ry="3" style="stroke:#038048;stroke-width:1.0;"/><text fill="#000000" font-family="sans-serif" font-size="20" lengthAdjust="spacing" textLength="159" x="1323" y="191.8438">install(editable)</text><ellipse cx="1313" cy="209.7012" fill="#84BE84" rx="3" ry="3" style="stroke:#038048;stroke-width:1.0;"/><text fill="#000000" font-family="sans-serif" font-size="20" lengthAdjust="spacing" textLength="103" x="1323" y="215.125">uninstall()</text></g><!--link PIP to B--><g id="link_PIP_B"><path codeLine="129" d="M178.76,338.7768 C222.72,340.4268 274.6442,342.3713 323.8342,344.2213 " fill="none" id="PIP-to-B" style="stroke:#AFB200;stroke-width:2.5;"/><polygon fill="#AFB200" points="329.83,344.4468,320.9867,340.1114,324.8335,344.2589,320.686,348.1057,329.83,344.4468" style="stroke:#AFB200;stroke-width:2.5;"/><text fill="#AFB200" font-family="sans-serif" font-size="20" font-style="italic" lengthAdjust="spacing" textLength="71" x="228" y="335.7813">installs</text></g><!--link B to PDIR--><g id="link_B_PDIR"><path codeLine="141" d="M480.89,288.5168 C535.73,225.5768 631.33,129.2968 737,83.2168 C741.4869,81.2599 746.0954,79.4719 750.7936,77.8394 C751.3809,77.6353 746.2849,79.3532 746.8749,79.154 " fill="none" id="B-to-PDIR" style="stroke:#00A2FF;stroke-width:4.0;"/><polygon fill="#00A2FF" points="752.5596,77.2345,742.7529,76.324,747.8223,78.8341,745.3123,83.9036,752.5596,77.2345" style="stroke:#00A2FF;stroke-width:4.0;"/><text fill="#00A2FF" font-family="sans-serif" font-size="20" font-style="italic" font-weight="bold" lengthAdjust="spacing" textLength="73" x="610.5" y="36.7813">copies</text><text fill="#00A2FF" font-family="sans-serif" font-size="20" font-style="italic" font-weight="bold" lengthAdjust="spacing" textLength="116" x="589" y="60.0625">templates</text><text fill="#00A2FF" font-family="sans-serif" font-size="20" font-style="italic" font-weight="bold" lengthAdjust="spacing" textLength="162" x="566" y="83.3438">(cookiecutter)</text></g><!--link PT to RE--><g id="link_PT_RE"><path codeLine="142" d="M1313.82,319.3968 C1243.33,320.4268 1145.1994,321.8689 1061.2894,323.0989 " fill="none" id="PT-to-RE" style="stroke:#00A2FF;stroke-width:2.5;"/><polygon fill="#00A2FF" points="1055.29,323.1868,1064.3477,327.0545,1060.2895,323.1135,1064.2304,319.0553,1055.29,323.1868" style="stroke:#00A2FF;stroke-width:2.5;"/><text fill="#00A2FF" font-family="sans-serif" font-size="20" font-style="italic" lengthAdjust="spacing" textLength="90" x="1133.5" y="292.7813">compiles</text><text fill="#00A2FF" font-family="sans-serif" font-size="20" font-style="italic" lengthAdjust="spacing" textLength="78" x="1139.5" y="316.0625">&amp; syncs</text></g><!--reverse link PDIR to PIPvenv--><g id="link_PDIR_PIPvenv"><path codeLine="143" d="M1085.3421,81.4521 C1090.2882,82.2777 1090.1894,82.3143 1095,83.2168 C1165.3,96.4068 1243.26,117.7568 1301.94,135.2268 " fill="none" id="PDIR-backto-PIPvenv" style="stroke:#00A2FF;stroke-width:2.5;"/><polygon fill="#00A2FF" points="1079.4229,80.471,1087.6477,85.8888,1084.3556,81.2886,1088.9558,77.9965,1079.4229,80.471" style="stroke:#00A2FF;stroke-width:2.5;"/><text fill="#00A2FF" font-family="sans-serif" font-size="20" font-style="italic" lengthAdjust="spacing" textLength="149" x="1104" y="79.7813">editable install</text></g><!--link PIPvenv to PD--><g id="link_PIPvenv_PD"><path codeLine="155" d="M1488.41,189.7068 C1530.16,201.2268 1574.4659,213.4516 1620.1159,226.0416 " fill="none" id="PIPvenv-to-PD" style="stroke:#32BC00;stroke-width:2.5;"/><polygon fill="#32BC00" points="1625.9,227.6368,1618.2874,221.3879,1621.08,226.3075,1616.1604,229.1,1625.9,227.6368" style="stroke:#32BC00;stroke-width:2.5;"/><text fill="#32BC00" font-family="sans-serif" font-size="20" font-style="italic" lengthAdjust="spacing" textLength="71" x="1519" y="194.7813">installs</text></g><!--link PT to PD--><g id="link_PT_PD"><path codeLine="156" d="M1476,306.2968 C1518.54,299.9668 1566.0854,292.8804 1615.0454,285.5904 " fill="none" id="PT-to-PD" style="stroke:#32BC00;stroke-width:2.5;"/><polygon fill="#32BC00" points="1620.98,284.7068,1611.489,282.0759,1616.0345,285.4432,1612.6672,289.9886,1620.98,284.7068" style="stroke:#32BC00;stroke-width:2.5;"/><text fill="#32BC00" font-family="sans-serif" font-size="20" font-style="italic" lengthAdjust="spacing" textLength="56" x="1526.5" y="284.7813">syncs</text></g><!--link ERC to VENV--><g id="link_ERC_VENV"><path codeLine="157" d="M1007.56,476.4068 C1076.19,465.1868 1171.8325,449.5468 1250.795,436.6343 C1270.5356,433.4062 1289.2337,430.3485 1306.2067,427.573 C1314.6931,426.1853 1322.7483,424.868 1330.2868,423.6353 C1334.0561,423.019 1337.6962,422.4237 1341.1965,421.8514 C1342.0716,421.7083 1342.9379,421.5666 1343.7953,421.4264 C1344.224,421.3563 1338.7292,422.2548 1339.1534,422.1854 " fill="none" id="ERC-to-VENV" style="stroke:#32BC00;stroke-width:4.0;"/><polygon fill="#32BC00" points="1345.0748,421.2172,1335.5472,418.722,1340.1403,422.0241,1336.8382,426.6171,1345.0748,421.2172" style="stroke:#32BC00;stroke-width:4.0;"/><text fill="#32BC00" font-family="sans-serif" font-size="20" font-style="italic" font-weight="bold" lengthAdjust="spacing" textLength="61" x="1148" y="385.7813">Auto-</text><text fill="#32BC00" font-family="sans-serif" font-size="20" font-style="italic" font-weight="bold" lengthAdjust="spacing" textLength="86" x="1132.5" y="409.0625">creates</text><text fill="#32BC00" font-family="sans-serif" font-size="20" font-style="italic" lengthAdjust="spacing" textLength="6" x="1218.5" y="409.0625">&#160;</text><text fill="#32BC00" font-family="sans-serif" font-size="20" font-style="italic" font-weight="bold" lengthAdjust="spacing" textLength="130" x="1113.5" y="432.3438">&amp; activates</text></g><!--link JF to VENV--><g id="link_JF_VENV"><path codeLine="158" d="M995.79,621.1268 C1064.62,589.1168 1166.87,540.4168 1254,494.2168 C1285.26,477.6418 1319.6625,457.7618 1346.5413,441.8443 C1359.9806,433.8855 1371.5391,426.9174 1379.8833,421.8484 C1380.144,421.69 1375.2746,424.6501 1375.5291,424.4954 " fill="none" id="JF-to-VENV" style="stroke:#32BC00;stroke-width:2.5;"/><polygon fill="#32BC00" points="1380.6561,421.3787,1370.8878,422.6357,1376.3836,423.976,1375.0434,429.4718,1380.6561,421.3787" style="stroke:#32BC00;stroke-width:2.5;"/><text fill="#32BC00" font-family="sans-serif" font-size="20" font-style="italic" lengthAdjust="spacing" textLength="92" x="1132.5" y="488.7813">manages</text></g><!--reverse link D to ERC--><g id="link_D_ERC"><path codeLine="172" d="M203.36,490.3342 C356.74,490.5242 668.07,490.9068 824.2,491.1068 " fill="none" id="D-backto-ERC" style="stroke:#EE220C;stroke-width:2.5;stroke-dasharray:10.0,5.0;"/><polygon fill="#EE220C" points="197.36,490.3268,206.355,494.3379,202.36,490.333,206.3649,486.3379,197.36,490.3268" style="stroke:#EE220C;stroke-width:2.5;"/><text fill="#EE220C" font-family="sans-serif" font-size="20" font-style="italic" lengthAdjust="spacing" textLength="82" x="390.5" y="485.7813">requires</text></g><!--reverse link J to JF--><g id="link_J_JF"><path codeLine="173" d="M158.154,635.3843 C202.304,637.3543 268.06,640.1568 330,642.2168 C511.25,648.2568 724.15,653.1668 836.45,655.5868 " fill="none" id="J-backto-JF" style="stroke:#EE220C;stroke-width:2.5;stroke-dasharray:10.0,5.0;"/><polygon fill="#EE220C" points="152.16,635.1168,160.9727,639.514,157.155,635.3397,161.3294,631.522,152.16,635.1168" style="stroke:#EE220C;stroke-width:2.5;"/><text fill="#EE220C" font-family="sans-serif" font-size="20" font-style="italic" lengthAdjust="spacing" textLength="82" x="390.5" y="636.7813">requires</text></g><!--reverse link D to JF--><g id="link_D_JF"><path codeLine="174" d="M203.2348,509.4662 C360.6748,542.1462 684.99,609.4668 836.26,640.8768 " fill="none" id="D-backto-JF" style="stroke:#EE220C;stroke-width:2.5;stroke-dasharray:10.0,5.0;"/><polygon fill="#EE220C" points="197.36,508.2468,205.3592,513.9925,202.2556,509.263,206.9851,506.1594,197.36,508.2468" style="stroke:#EE220C;stroke-width:2.5;"/><text fill="#EE220C" font-family="sans-serif" font-size="20" font-style="italic" lengthAdjust="spacing" textLength="82" x="390.5" y="530.7813">requires</text></g><!--link PT to PPRT--><g id="link_PT_PPRT"><path codeLine="177" d="M1313.96,287.0168 C1294.42,279.6468 1273.52,271.9768 1254,265.2168 C1180.1,239.6268 1101.9579,214.9908 1036.3679,194.9408 " fill="none" id="PT-to-PPRT" style="stroke:#EE220C;stroke-width:2.5;stroke-dasharray:10.0,5.0;"/><polygon fill="#EE220C" points="1030.63,193.1868,1038.0675,199.6431,1035.4116,194.6485,1040.4062,191.9925,1030.63,193.1868" style="stroke:#EE220C;stroke-width:2.5;"/><text fill="#EE220C" font-family="sans-serif" font-size="20" font-style="italic" lengthAdjust="spacing" textLength="82" x="1137.5" y="211.7813">requires</text></g><!--reverse link PPRT to PIPvenv--><g id="link_PPRT_PIPvenv"><path codeLine="179" d="M1036.6497,160.4697 C1119.5897,161.3397 1224.59,162.4368 1301.99,163.2568 " fill="none" id="PPRT-backto-PIPvenv" style="stroke:#EE220C;stroke-width:2.5;stroke-dasharray:10.0,5.0;"/><polygon fill="#EE220C" points="1030.65,160.4068,1039.6075,164.501,1035.6497,160.4592,1039.6915,156.5014,1030.65,160.4068" style="stroke:#EE220C;stroke-width:2.5;"/><text fill="#EE220C" font-family="sans-serif" font-size="20" font-style="italic" lengthAdjust="spacing" textLength="82" x="1137.5" y="155.7813">requires</text></g><!--SRC=[hLTjRnev4Fw-ls94fQJbj9HmZQeYWfG4qakKjWWGNowdokoQn6LZRsrlBbp5Vx-nr-mRkw4zdJ-4C6DxPfvvPiP4TAL12v3i_a53o2GDD1FSEqPXR1HBeRLuB6XGTNPs1XyZiIGHH4AiuGXMb4P6d2zFhHcFYIHubgv84kahmVMC_KEXryKxSlK52TRtKYGyl1IHaF2gQzT9rslUeoNX2bMKQ-VGJwp2VJ7UH-uf_F00rpIzM78guUJKYYw43AcSFx1WpQbIqBFIupfdptjNLoSVTdfxhgHp6XD-AeTCizrtQJ1mo8xv4vE2FsA8mw5pTCywMIrx2DM7WiybpMfbDINRcQRM-e99dLJDDrZ_lRSCwgsdcZhhcQRM-iZIJCXDSyWbm9lWhWVxlp0bY0Ycly6NmAxtx_TyCUlLExjgwNIIUJdJcuXYbKLX7HMtLKy6WylRwnoSgicqT6gF2RvYzyFXO31PsuzR4QpzAnPHPRwPVqhIWpRgmkh-2iY7Sc1MscicAJtwi5yQbQQpg-lMbvXAeXc_Xzb6QVhO0gBWunWQoyl6mxYcSaK2l62Pi2XSKjwoGPlJ5_ZXu4-HCUitnfdsOoc-lNwJ2qaO-lGPNM3cVgVPLat4B8QtW7-VMyx4v7fIQq9f4aMbQwftVKkKRa6syAwRtDtgPbDb_AbLs3ogZIqY6v7eOc2XFGcIHeA4DGhwJ8Eodzkz94uGB2noo6gzAOTx6sqI9wFhALGxXRMLbcehtiJfmGuEhgW0IdMPooRJEUJ50ONWHpIcFAGyO5JbqXdLIGpf_iGm32TY9IlE3PEH5HRI2mxakReoy4zfm69JZaKt95Mqb0B71Z-aiIhAEvtEFaESBntCZGmEUc9z6KyleG19mPN9zClD-7B-zVFvft4k7NzUV5sSJsSDfYNzdc2gJ1seZdxMS8UWFlbLiKtjT6nfMEnCXpEoe59X5XI-GluWwi6fjZN4gnbjJTJhXAv4qAi5HWWDWz6vLovgNmiHgLODs-Ocl3bgIxYQ8u5uZ37YOaADM6rukPuoZki7mV5bbIFIogoCZ1NRvTtJOp46uVj6qOS0Pmv13jLs4JJPQYoLwycJAV7o12erA1eoJPOHBGIHy6htsdh_uuX8Cpp3vw1zlvvBAVvMbQHw0sLcxD0ZHklylcMS5bvtdTFAGCP08XPaMt_bKUKDtZg3dkddlZ_4qT47XuDwCVfcPrzwu-GldDpqiM6RiOrP7mmqLOQjkHVWNO3_fzuXSFRkBxiLMsiVskr0nCYeTlkEjziuFEE8wDtNrm6- -1aD4esiUTDkWsTORGnXzHfwMHwhEtu4XhpAI_krePyZK1zsFDbva-LnWXqGI-pbV1v0gE7fMPRlfx-CdMc25hnvCNEx21oiHSqy5wPXsnkg0DjMOW0-JxJmKq03ILDqmNmx0e8_ivvIYOTpmS-FFHAEpKbbpw9YF_nPpgViFkdwfrNSnkDUhtjPHSr9Y-Xuzh602JKXzi5rSkNTEB4PPWNng5wCCHY90nao1Cr0BcvB9tHEd_8L5kK8VyFwOAy3i5b1QYACoXI1ETxff4PI1qW8oys_]--></g></svg>